<?xml version="1.0" standalone="no"?>
<!DOCTYPE svg PUBLIC "-//W3C//DTD SVG 1.1//EN" "http://www.w3.org/Graphics/SVG/1.1/DTD/svg11.dtd" >
<svg xmlns="http://www.w3.org/2000/svg">
<metadata></metadata>
<defs>
<font id="knowledgeultralight_italic" horiz-adv-x="1003" >
<font-face units-per-em="2048" ascent="1587" descent="-461" />
<missing-glyph horiz-adv-x="450" />
<glyph unicode="&#xfb01;" horiz-adv-x="948" d="M127 0l160 905h-152l10 53h152l27 158q24 142 82 205t180 63q82 0 135 -24l-14 -51q-64 22 -121 22q-94 0 -136.5 -50t-62.5 -165l-27 -158h242l-10 -53h-242l-160 -905h-63zM618 0l168 958h64l-168 -958h-64zM793 1188q0 31 19.5 50t51.5 19q26 0 43 -15t17 -40 q0 -32 -19.5 -53t-52.5 -21q-25 0 -42 17t-17 43z" />
<glyph unicode="&#xfb02;" horiz-adv-x="950" d="M127 0l160 905h-152l10 53h152l27 158q24 141 81.5 204.5t174.5 63.5q78 0 137 -24l-15 -51q-64 22 -116 22q-93 0 -136.5 -49t-62.5 -166l-27 -158h224l-11 -53h-223l-160 -905h-63zM621 0l239 1364h64l-240 -1364h-63z" />
<glyph horiz-adv-x="2048" />
<glyph horiz-adv-x="2048" />
<glyph unicode="&#xd;" horiz-adv-x="2048" />
<glyph unicode=" "  horiz-adv-x="450" />
<glyph unicode="&#x09;" horiz-adv-x="450" />
<glyph unicode="&#xa0;" horiz-adv-x="450" />
<glyph unicode="!" horiz-adv-x="444" d="M72 51q0 36 23 59t59 23q30 0 47.5 -18t17.5 -45q0 -33 -22.5 -57.5t-61.5 -24.5q-28 0 -45.5 18.5t-17.5 44.5zM168 305l78 533l92 526h68l-93 -528l-110 -531h-35z" />
<glyph unicode="&#x22;" horiz-adv-x="696" d="M195 1171v193h59v-193l-10 -323h-39zM565 1171v193h60v-193l-11 -323h-39z" />
<glyph unicode="#" horiz-adv-x="1259" d="M102 467l19 49h221l145 373h-225l21 51h225l166 424h59l-170 -424h410l166 424h59l-170 -424h215l-16 -51h-215l-148 -373h221l-20 -49h-217l-182 -467h-60l182 467h-405l-182 -467h-60l183 467h-222zM399 516h408l145 373h-405z" />
<glyph unicode="$" horiz-adv-x="989" d="M51 96l23 49q197 -96 364 -96q158 0 257.5 81t99.5 212q0 27 -5 52t-11 45t-21 41t-25.5 35.5t-35 34t-38.5 31t-47 32t-49.5 30.5t-56.5 33q-73 42 -118 74t-88 74.5t-63 92.5t-20 111q0 163 108.5 251.5t311.5 88.5h4l39 219h59l-39 -223q146 -11 279 -84l-21 -51 q-172 86 -327 86q-352 0 -352 -285q0 -43 13 -80t32 -64t55.5 -57t67 -50t83.5 -52q57 -34 89 -54t76 -51.5t68 -57.5t48.5 -60.5t34.5 -73t10 -82.5q0 -158 -117 -253.5t-290 -98.5l-39 -219h-60l39 221q-82 6 -173.5 33t-164.5 65z" />
<glyph unicode="%" horiz-adv-x="1531" d="M195 973q0 78 20.5 149.5t60 131t107.5 95t154 35.5q118 0 181.5 -76.5t63.5 -191.5q0 -84 -22.5 -162t-64 -140.5t-107.5 -100t-146 -37.5q-117 0 -182 84.5t-65 212.5zM254 975q0 -109 48 -179.5t144 -70.5q66 0 120 34t87.5 89t51.5 121.5t18 134.5q0 98 -46.5 165.5 t-146.5 67.5q-128 0 -202 -104.5t-74 -257.5zM317 0l900 1364h61l-899 -1364h-62zM821 276q0 62 12.5 120t39.5 111.5t66 93.5t96.5 63.5t127.5 23.5q119 0 182.5 -77t63.5 -191q0 -84 -22.5 -162t-64 -140.5t-107.5 -100t-146 -37.5q-117 0 -182.5 84.5t-65.5 211.5z M881 279q0 -109 48 -179.5t144 -70.5q66 0 120 34t87.5 89t51.5 121.5t18 134.5q0 98 -46.5 165.5t-146.5 67.5q-128 0 -202 -104.5t-74 -257.5z" />
<glyph unicode="&#x26;" horiz-adv-x="1230" d="M84 289q0 68 22.5 129.5t54 105t86 89.5t96.5 74t108 67q-119 177 -119 319q0 145 98.5 228t255.5 83q103 0 165 -55.5t62 -142.5q0 -43 -13 -84.5t-30.5 -74t-50.5 -68.5t-58.5 -59t-70.5 -55t-69.5 -48t-71.5 -45l-19 -13l330 -479q160 177 254 432l51 -16 q-97 -271 -276 -461l149 -215h-67l-121 174q-207 -194 -438 -194q-146 0 -237 87.5t-91 221.5zM147 293q0 -119 74.5 -190.5t198.5 -71.5q210 0 399 186l-338 494q-45 -26 -70.5 -42t-65.5 -44.5t-64 -50.5t-52.5 -55t-44 -65.5t-26.5 -74t-11 -86.5zM393 1073 q0 -137 109 -291l12 9q46 27 72.5 44.5t72.5 49.5t74 61t58 66.5t44.5 79.5t14.5 86q0 69 -45.5 112t-126.5 43q-126 0 -205.5 -67t-79.5 -193z" />
<glyph unicode="'" horiz-adv-x="325" d="M195 1171v193h59v-193l-10 -323h-39z" />
<glyph unicode="(" horiz-adv-x="561" d="M131 334q0 217 62 429t164 393t255 376l45 -37q-460 -588 -460 -1153q0 -297 145 -639l-57 -31q-154 356 -154 662z" />
<glyph unicode=")" horiz-adv-x="561" d="M-63 -293q108 144 187.5 275t143.5 275t96.5 296t32.5 309q0 297 -145 639l57 31q154 -356 154 -662q0 -217 -62 -429t-164 -393t-255 -376z" />
<glyph unicode="*" horiz-adv-x="806" d="M164 872l307 150l-268 160l43 63l237 -201l37 320h68l-80 -320l289 187l26 -60l-309 -149l260 -150l-45 -61l-227 188l-35 -319h-68l78 319l-287 -186z" />
<glyph unicode="+" horiz-adv-x="1134" d="M143 635v53h414v440h61v-440h414v-53h-414v-440h-61v440h-414z" />
<glyph unicode="," horiz-adv-x="380" d="M-72 -266l191 428h71l-213 -428h-49z" />
<glyph unicode="-" horiz-adv-x="733" d="M152 569l8 54h454l-8 -54h-454z" />
<glyph unicode="." horiz-adv-x="464" d="M80 51q0 36 23 59t59 23q30 0 47.5 -18t17.5 -45q0 -33 -22.5 -57.5t-61.5 -24.5q-28 0 -45.5 18.5t-17.5 44.5z" />
<glyph unicode="/" horiz-adv-x="845" d="M-8 -205l833 1589h66l-834 -1589h-65z" />
<glyph unicode="0" horiz-adv-x="1169" d="M121 485q0 77 10 159t32 170.5t55 170t82 154.5t108 127t139 86t170 32q102 0 178.5 -39.5t121 -108t66 -152t21.5 -181.5q0 -92 -15.5 -192.5t-46 -205t-81 -198t-114.5 -167t-152 -117t-189 -43.5q-98 0 -173.5 41.5t-120.5 112.5t-68 160t-23 191zM184 483 q0 -67 9.5 -128t33 -121t60 -103.5t94.5 -70.5t131 -27q103 0 192 58.5t149 151t103.5 208.5t63.5 231t20 219q0 65 -9.5 124t-33.5 116t-60.5 98t-95 66.5t-132.5 25.5q-106 0 -195.5 -55t-149 -143t-101.5 -201t-60.5 -227t-18.5 -222z" />
<glyph unicode="1" horiz-adv-x="581" d="M164 1298l317 66h64l-240 -1364h-63l229 1307l-299 -60z" />
<glyph unicode="2" horiz-adv-x="1032" d="M29 0l12 70q14 79 34.5 140t59 114t69.5 88t100.5 81t115 72.5t146.5 82.5q6 3 9 5q55 30 84 46.5t79.5 48.5t78 55.5t63 59.5t54 70t32 78t13.5 91q0 116 -85.5 172.5t-227.5 56.5q-159 0 -328 -76l-16 54q157 75 354 75q166 0 266 -72.5t100 -205.5q0 -53 -14.5 -102 t-35 -87t-58 -77.5t-69 -66.5t-83.5 -60.5t-85.5 -52.5t-90.5 -50q-93 -51 -145.5 -82t-114 -72.5t-95 -76t-66.5 -81.5t-51.5 -100t-29.5 -120l-4 -25h746l-8 -53h-809z" />
<glyph unicode="3" horiz-adv-x="987" d="M16 74l21 53q213 -94 381 -94q170 0 269 92.5t99 247.5q0 136 -102 219.5t-270 83.5h-154l8 53h185q81 0 158.5 27t138 74t98 117.5t37.5 150.5q0 113 -78.5 173t-218.5 60q-75 0 -161 -20.5t-153 -53.5l-16 54q64 36 155.5 54.5t180.5 18.5q168 0 262 -75t94 -205 q0 -147 -102.5 -254t-263.5 -152q124 -38 195 -121t71 -202q0 -171 -115 -283t-317 -112q-190 0 -402 94z" />
<glyph unicode="4" horiz-adv-x="1067" d="M57 440l854 924h56l-162 -918h190l-8 -51h-190l-70 -395h-59l69 395h-674zM139 446h606l148 830z" />
<glyph unicode="5" horiz-adv-x="1081" d="M63 92l23 49q201 -108 381 -108q197 0 313.5 117.5t116.5 302.5q0 151 -92 241t-250 90q-150 0 -287 -88l-57 23l115 645h731l-10 -53h-670l-98 -553q119 80 288 80q176 0 285 -107.5t109 -277.5q0 -97 -33 -182t-94.5 -150t-157 -103t-211.5 -38q-96 0 -204 30.5 t-198 81.5z" />
<glyph unicode="6" horiz-adv-x="1097" d="M127 455q0 90 9.5 178.5t32 181.5t57 175t87.5 155t119 125.5t157 83t197 30.5q185 0 316 -81l-23 -50q-145 80 -295 80q-114 0 -207.5 -40t-159 -108t-114.5 -165t-77 -205.5t-42 -234.5q51 122 160.5 189t261.5 67q177 0 281 -106.5t104 -272.5q0 -90 -28 -174 t-80.5 -152.5t-138 -109.5t-191.5 -41q-130 0 -228 64t-148 171t-50 240zM193 403q0 -70 24 -136t68.5 -119t115 -85t156.5 -32q172 0 273.5 120t101.5 300q0 149 -87 241t-247 92q-80 0 -153 -26.5t-129 -74.5t-89.5 -120.5t-33.5 -159.5z" />
<glyph unicode="7" horiz-adv-x="892" d="M109 0l813 1311h-707l10 53h770l-8 -51l-811 -1313h-67z" />
<glyph unicode="8" horiz-adv-x="1112" d="M92 317q0 158 97.5 261.5t261.5 138.5q-191 88 -191 284q0 172 120.5 277.5t315.5 105.5q153 0 247.5 -80t94.5 -212q0 -137 -85 -239t-224 -144q104 -29 173 -109.5t69 -191.5q0 -184 -135.5 -306t-348.5 -122q-71 0 -139.5 21.5t-126.5 62t-93.5 106.5t-35.5 147z M154 322q0 -132 100 -211.5t242 -79.5q178 0 295.5 106.5t117.5 265.5q0 121 -87.5 200t-235.5 79q-117 0 -214 -41.5t-157.5 -124.5t-60.5 -194zM322 1001q0 -116 75.5 -191t204.5 -75q94 0 178.5 41t140.5 123t56 186q0 113 -80.5 180.5t-206.5 67.5q-158 0 -263 -88.5 t-105 -243.5z" />
<glyph unicode="9" horiz-adv-x="1097" d="M55 61l23 50q145 -80 295 -80q113 0 207 40.5t160 109.5t115 166t77 205t41 232q-56 -123 -164 -189.5t-258 -66.5q-175 0 -280 111t-105 285q0 89 28 170.5t80.5 146.5t138 104t191.5 39q130 0 228 -64t148 -171t50 -240q0 -90 -9.5 -178.5t-32 -181.5t-57 -175 t-87.5 -155t-119 -125.5t-157 -83t-197 -30.5q-178 0 -316 81zM225 930q0 -158 87 -254t247 -96q108 0 199.5 44.5t149 133t57.5 203.5q0 95 -40.5 178t-125.5 138.5t-199 55.5q-172 0 -273.5 -115.5t-101.5 -287.5z" />
<glyph unicode=":" horiz-adv-x="444" d="M72 51q0 36 23 59t59 23q30 0 47.5 -18t17.5 -45q0 -33 -22.5 -57.5t-61.5 -24.5q-28 0 -45.5 18.5t-17.5 44.5zM180 666q0 36 23 59t59 23q30 0 48 -18.5t18 -45.5q0 -33 -22.5 -57.5t-61.5 -24.5q-28 0 -46 19t-18 45z" />
<glyph unicode=";" horiz-adv-x="444" d="M-80 -266l191 428h71l-213 -428h-49zM180 666q0 36 23 59t59 23q30 0 48 -18.5t18 -45.5q0 -33 -22.5 -57.5t-61.5 -24.5q-28 0 -46 19t-18 45z" />
<glyph unicode="&#x3c;" horiz-adv-x="1103" d="M102 637v49l889 442v-63l-821 -403l821 -404v-63z" />
<glyph unicode="=" horiz-adv-x="1134" d="M164 420v53h889v-53h-889zM164 850v53h889v-53h-889z" />
<glyph unicode="&#x3e;" horiz-adv-x="1103" d="M164 195v63l821 404l-821 403v63l889 -442v-49z" />
<glyph unicode="?" horiz-adv-x="845" d="M190 51q0 36 23 59t59 23q30 0 48 -18t18 -45q0 -33 -22.5 -57.5t-61.5 -24.5q-28 0 -46 18.5t-18 44.5zM256 1325q133 59 289 59q134 0 217.5 -63.5t83.5 -181.5q0 -56 -17.5 -107.5t-40 -87.5t-69 -80.5t-76 -68.5t-90.5 -70q-110 -83 -148 -145.5t-61 -198.5l-12 -74 h-62l13 72q19 110 46.5 176t68.5 110.5t124 106.5q54 40 86.5 66.5t69.5 63.5t57 69.5t33.5 75.5t13.5 90q0 92 -64.5 143t-180.5 51q-140 0 -269 -61z" />
<glyph unicode="@" horiz-adv-x="1579" d="M143 532q0 177 59 323.5t160 242t235 148t286 52.5q139 0 256.5 -43t198 -118.5t125 -179t44.5 -222.5q0 -195 -94 -323.5t-246 -128.5q-111 0 -167 68.5t-46 166.5q-40 -109 -107 -172t-145 -63q-71 0 -104 55t-33 139t20 159t60 137t106.5 98t151.5 36q92 0 164 -30 l-53 -308q-6 -40 -6 -65q0 -77 43 -122.5t125 -45.5q117 0 192.5 111.5t75.5 287.5q0 223 -158.5 365.5t-404.5 142.5q-133 0 -253 -46.5t-214.5 -134t-150.5 -225t-56 -307.5q0 -293 168 -457.5t461 -164.5q125 0 255 32.5t236 86.5l21 -54q-110 -56 -251 -88t-266 -32 q-322 0 -505 186t-183 493zM627 481q0 -69 18.5 -106t69.5 -37q63 0 119 58t92.5 148.5t54.5 198.5l16 93q-40 16 -96 16q-91 0 -154.5 -55t-91.5 -136.5t-28 -179.5z" />
<glyph unicode="A" horiz-adv-x="1191" d="M-37 0l748 1364h73l265 -1364h-62l-78 414h-655l-223 -414h-68zM285 471h614l-158 846z" />
<glyph unicode="B" horiz-adv-x="1171" d="M92 0l240 1364h489q153 0 236.5 -81t83.5 -212q0 -138 -100 -245t-240 -134q119 -23 189.5 -105.5t70.5 -191.5q0 -120 -64.5 -211.5t-171 -137.5t-237.5 -46h-496zM162 53h436q109 0 198 38t145 116t56 184q0 122 -85.5 197.5t-237.5 75.5h-404zM279 719h387 q175 0 294 100t119 250q0 112 -69 177t-199 65h-428z" />
<glyph unicode="C" horiz-adv-x="1177" d="M111 557q0 130 30 251.5t91.5 227t148 184.5t208 124t263.5 45q220 0 377 -82l-21 -58q-172 82 -358 82q-156 0 -285 -62.5t-213 -168.5t-130 -245.5t-46 -295.5q0 -154 58 -272t173 -186t273 -68q148 0 297 49l12 -55q-142 -52 -319 -52q-255 0 -407 163t-152 419z" />
<glyph unicode="D" horiz-adv-x="1329" d="M92 0l240 1364h405q158 0 281 -74.5t188.5 -201.5t65.5 -283q0 -121 -31 -237.5t-94 -219t-150.5 -180.5t-207.5 -123t-257 -45h-440zM168 57h367q119 0 225.5 39.5t186.5 109.5t139 163.5t89.5 204.5t30.5 229q0 141 -58 255.5t-167.5 181.5t-249.5 67h-344z" />
<glyph unicode="E" horiz-adv-x="1091" d="M92 0l242 1364h809l-10 -55h-744l-100 -570h692l-10 -55h-692l-111 -629h743l-8 -55h-811z" />
<glyph unicode="F" horiz-adv-x="1040" d="M92 0l240 1364h801l-11 -55h-735l-108 -621h684l-11 -55h-682l-112 -633h-66z" />
<glyph unicode="G" horiz-adv-x="1284" d="M111 573q0 132 30.5 252.5t93 223.5t151.5 178.5t214 118.5t272 43q239 0 428 -97l-20 -57q-204 98 -414 98q-128 0 -239 -38.5t-193 -108t-140.5 -164.5t-88 -209t-29.5 -240q0 -247 141 -394.5t400 -147.5q69 0 151.5 11t132.5 26l91 510h63l-96 -551 q-158 -52 -346 -52q-144 0 -259 45t-189.5 125.5t-114 189.5t-39.5 238z" />
<glyph unicode="H" horiz-adv-x="1320" d="M92 0l240 1364h65l-110 -631h821l111 631h65l-240 -1364h-65l119 676h-822l-118 -676h-66z" />
<glyph unicode="I" horiz-adv-x="450" d="M100 0l240 1364h66l-240 -1364h-66z" />
<glyph unicode="J" horiz-adv-x="747" d="M-31 20l17 56q98 -41 204 -41q125 0 188.5 73.5t88.5 215.5l182 1040h66l-183 -1040q-14 -79 -37.5 -138t-63 -107t-101 -73.5t-144.5 -25.5q-107 0 -217 40z" />
<glyph unicode="K" horiz-adv-x="1087" d="M92 0l240 1364h65l-112 -643l809 643h94l-842 -666l617 -698h-82l-602 686l-121 -686h-66z" />
<glyph unicode="L" horiz-adv-x="985" d="M92 0l242 1364h65l-231 -1309h690l-8 -55h-758z" />
<glyph unicode="M" horiz-adv-x="1536" d="M92 0l240 1364h65l314 -1143l716 1143h72l-239 -1364h-60l221 1251l-680 -1079h-75l-293 1079l-221 -1251h-60z" />
<glyph unicode="N" horiz-adv-x="1355" d="M92 0l240 1364h61l641 -1270l223 1270h62l-240 -1364h-61l-641 1270l-223 -1270h-62z" />
<glyph unicode="O" horiz-adv-x="1347" d="M111 563q0 164 41.5 310t121.5 262.5t210.5 185t295.5 68.5q155 0 270 -75t173.5 -201.5t58.5 -287.5q0 -102 -18.5 -202.5t-54.5 -196t-93 -177t-129.5 -143t-170 -96.5t-208.5 -35q-114 0 -209 48.5t-157.5 130t-96.5 187.5t-34 222zM176 565q0 -80 16 -156t51 -145 t86 -120.5t124.5 -82t162.5 -30.5q115 0 214 45t169 122t120 178t74 214t24 229q0 82 -16.5 156.5t-51.5 140t-86 113.5t-125 76t-164 28q-120 0 -220.5 -43t-169.5 -116.5t-116.5 -172t-69.5 -208.5t-22 -228z" />
<glyph unicode="P" horiz-adv-x="1124" d="M92 0l240 1364h465q170 0 257 -88t87 -229q0 -191 -128 -314t-339 -123h-410l-106 -610h-66zM274 666h410q179 0 285 106.5t106 271.5q0 123 -73 194t-211 71h-404z" />
<glyph unicode="Q" horiz-adv-x="1353" d="M111 563q0 164 41.5 310t121.5 262.5t210.5 185t295.5 68.5q155 0 270 -75t173.5 -201.5t58.5 -287.5q0 -229 -89 -435.5t-255 -317.5l129 -238l-47 -27l-127 238q-128 -70 -285 -70q-114 0 -209 48.5t-157.5 130t-96.5 187.5t-34 222zM176 565q0 -80 16 -156t51 -145 t86 -120.5t124.5 -82t162.5 -30.5q138 0 252 63l-100 187l47 24l96 -182q146 102 226 293t80 403q0 82 -16.5 156.5t-51.5 140t-86 113.5t-125 76t-164 28q-120 0 -220.5 -43t-169.5 -116.5t-116.5 -172t-69.5 -208.5t-22 -228z" />
<glyph unicode="R" horiz-adv-x="1232" d="M92 0l240 1364h493q166 0 256 -89.5t90 -227.5q0 -171 -116 -285t-295 -133l297 -629h-70l-295 627h-426l-108 -627h-66zM276 682h429q172 0 286.5 100.5t114.5 259.5q0 118 -75 192.5t-214 74.5h-430z" />
<glyph unicode="S" horiz-adv-x="1087" d="M37 76l20 55q213 -102 435 -102q65 0 123.5 11t111.5 36t91 61.5t60.5 91.5t22.5 123q0 35 -9 65.5t-23.5 54.5t-40.5 48t-51 41.5t-65.5 39t-74 36.5t-84.5 37q-192 82 -271 161t-79 191q0 127 63.5 210t167.5 118t248 35q202 0 399 -89l-18 -53q-210 88 -385 88 q-412 0 -412 -307q0 -102 68.5 -165t238.5 -138q6 -3 18 -8q168 -74 236 -122q138 -98 138 -235q0 -97 -38 -172.5t-104 -121t-149.5 -68.5t-179.5 -23q-232 0 -457 101z" />
<glyph unicode="T" d="M176 1309l10 55h928l-10 -55h-430l-230 -1309h-65l229 1309h-432z" />
<glyph unicode="U" horiz-adv-x="1331" d="M156 356q0 36 8 86l162 922h65l-162 -922q-8 -54 -8 -84q0 -155 103.5 -241t279.5 -86q189 0 312.5 110.5t156.5 298.5l162 924h65l-161 -924q-17 -96 -58 -178.5t-107 -147.5t-163.5 -102t-216.5 -37q-118 0 -216 42.5t-160 131t-62 207.5z" />
<glyph unicode="V" horiz-adv-x="1087" d="M182 1364h62l221 -1292l674 1292h65l-715 -1364h-71z" />
<glyph unicode="W" horiz-adv-x="1646" d="M174 1364h62l118 -1276l580 1276h76l135 -1276l567 1276h64l-617 -1364h-59l-135 1315l-594 -1315h-60z" />
<glyph unicode="X" horiz-adv-x="1163" d="M-14 0l596 696l-336 668h63l312 -621l530 621h74l-576 -674l348 -690h-63l-326 643l-549 -643h-73z" />
<glyph unicode="Y" horiz-adv-x="1058" d="M197 1364h65l287 -737l538 737h76l-590 -793l-100 -571h-65l100 571z" />
<glyph unicode="Z" horiz-adv-x="1118" d="M31 0l8 53l1030 1258h-780l10 53h850l-10 -53l-1030 -1258h825l-8 -53h-895z" />
<glyph unicode="[" horiz-adv-x="530" d="M45 -307l322 1818h280l-10 -53h-217l-301 -1712h217l-10 -53h-281z" />
<glyph unicode="\" horiz-adv-x="845" d="M264 1384h60l272 -1589h-59z" />
<glyph unicode="]" horiz-adv-x="530" d="M-84 -307l10 53h217l301 1712h-217l11 53h280l-321 -1818h-281z" />
<glyph unicode="^" horiz-adv-x="937" d="M154 690l331 674h50l331 -674h-61l-295 613l-295 -613h-61z" />
<glyph unicode="_" horiz-adv-x="753" d="M-129 -225l8 41h758l-8 -41h-758z" />
<glyph unicode="`" horiz-adv-x="575" d="M342 1415h70l90 -311h-51z" />
<glyph unicode="a" d="M82 336q0 96 18 187t58 174.5t98 145.5t144 99t190 37q169 0 313 -74l-160 -905h-63l65 373q-24 -56 -46.5 -101.5t-61 -103t-79 -96t-97.5 -65.5t-119 -27q-86 0 -146.5 50.5t-87 128.5t-26.5 177zM145 334q0 -134 51 -217.5t152 -83.5q79 0 157.5 65t136.5 165 t99.5 210.5t59.5 210.5l33 186q-131 56 -250 56q-89 0 -163 -33.5t-124.5 -90.5t-85 -134t-50.5 -161t-16 -173z" />
<glyph unicode="b" horiz-adv-x="1054" d="M82 0l240 1364h63l-133 -764q30 64 56 111t66 100.5t81.5 88t99 57t121.5 22.5q135 0 210 -95t75 -245q0 -69 -11.5 -141.5t-34.5 -147.5t-61.5 -140.5t-88 -117.5t-118.5 -82t-149 -30q-92 0 -179 44.5t-151 108.5l-25 -133h-61zM178 188q47 -45 85 -73.5t104.5 -55 t138.5 -26.5q79 0 146 39.5t111 102.5t75 143.5t45 159.5t14 153q0 133 -60 214t-175 81q-84 0 -165.5 -62t-139.5 -156t-98.5 -194.5t-55.5 -187.5z" />
<glyph unicode="c" horiz-adv-x="851" d="M86 360q0 85 17.5 170t56 166.5t94 144t138 100.5t181.5 38q164 0 289 -92l-26 -51q-69 43 -129.5 65.5t-137.5 22.5q-105 0 -188.5 -51.5t-133 -135.5t-75 -182t-25.5 -199q0 -323 304 -323q110 0 225 45l14 -47q-102 -51 -250 -51q-175 0 -264.5 99t-89.5 281z" />
<glyph unicode="d" horiz-adv-x="1054" d="M80 338q0 89 17 176.5t56 172t95.5 149t142.5 104t189 39.5q92 0 170.5 -31t128.5 -76l86 492h63l-240 -1364h-63l63 360q-27 -59 -54 -107t-67.5 -101.5t-84 -89t-103 -59t-125.5 -23.5q-129 0 -201.5 98.5t-72.5 259.5zM143 336q0 -139 56.5 -221t165.5 -82 q70 0 138 41t122 107.5t99 149.5t74.5 168t43.5 163l26 151q-144 113 -297 113q-86 0 -158 -35t-121 -93t-83.5 -135t-50 -159.5t-15.5 -167.5z" />
<glyph unicode="e" horiz-adv-x="864" d="M76 352q0 86 19.5 173t61 169t100.5 145t144.5 101.5t186.5 38.5q108 0 178 -52.5t70 -144.5q0 -65 -32 -118.5t-88 -89t-124 -61t-149.5 -39.5t-154 -20.5t-147.5 -7.5q-6 -53 -6 -100q0 -146 72.5 -230.5t228.5 -84.5q135 0 250 59l14 -47q-45 -27 -121.5 -45 t-150.5 -18q-177 0 -264.5 102.5t-87.5 269.5zM150 500q114 1 215.5 14.5t198 43t153.5 86.5t57 136q0 69 -54 108.5t-134 39.5q-90 0 -166 -35.5t-129 -96.5t-88.5 -135.5t-52.5 -160.5z" />
<glyph unicode="f" horiz-adv-x="546" d="M127 0l160 905h-152l10 53h152l27 158q24 141 84.5 204.5t179.5 63.5q75 0 133 -28l-14 -51q-63 26 -121 26q-91 0 -135.5 -51t-63.5 -164l-27 -158h228l-10 -53h-228l-160 -905h-63z" />
<glyph unicode="g" horiz-adv-x="1054" d="M37 -299l18 49q71 -35 160.5 -59.5t161.5 -24.5q295 0 360 379l60 342q-21 -52 -48.5 -101t-68 -100.5t-85.5 -89.5t-104 -62t-122 -24q-132 0 -207.5 96t-75.5 248q0 97 20 188t63.5 172.5t106 142.5t152.5 96.5t197 35.5q179 0 329 -71l-153 -873q-75 -430 -426 -430 q-81 0 -172.5 25.5t-165.5 60.5zM150 356q0 -133 58 -213t171 -80q68 0 135.5 41.5t120.5 107.5t97.5 147t73 159.5t40.5 145.5l39 219q-130 53 -269 53q-112 0 -202.5 -49t-147 -131t-86.5 -184.5t-30 -215.5z" />
<glyph unicode="h" horiz-adv-x="1052" d="M82 0l240 1364h63l-133 -758q143 373 432 373q108 0 172 -61.5t64 -176.5q0 -34 -7 -77l-116 -664h-64l117 662q6 38 6 75q0 95 -49.5 141t-136.5 46q-155 0 -287 -167t-178 -421l-60 -336h-63z" />
<glyph unicode="i" horiz-adv-x="411" d="M82 0l168 958h63l-168 -958h-63zM256 1188q0 31 20 50t52 19q26 0 42.5 -15t16.5 -40q0 -32 -19.5 -53t-52.5 -21q-25 0 -42 17t-17 43z" />
<glyph unicode="j" horiz-adv-x="411" d="M-227 -358l12 51q63 -25 117 -25q72 0 104 42t47 128l197 1120h63l-196 -1122q-19 -106 -68 -163.5t-147 -57.5q-55 0 -129 27zM256 1188q0 31 20 50t52 19q26 0 42.5 -15t16.5 -40q0 -32 -19.5 -53t-52.5 -21q-25 0 -42 17t-17 43z" />
<glyph unicode="k" horiz-adv-x="849" d="M82 0l240 1364h63l-149 -852l561 446h94l-596 -466l440 -492h-80l-426 481l-84 -481h-63z" />
<glyph unicode="l" horiz-adv-x="411" d="M82 0l240 1364h63l-240 -1364h-63z" />
<glyph unicode="m" horiz-adv-x="1646" d="M82 0l168 958h61l-61 -358q30 83 68 149.5t88.5 119.5t116 81.5t141.5 28.5q103 0 165 -61.5t62 -176.5q0 -40 -6 -77l-11 -56q140 371 412 371q103 0 165 -61.5t62 -176.5q0 -40 -6 -77l-116 -664h-64l117 662q6 44 6 75q0 94 -48 140.5t-130 46.5q-149 0 -275 -167 t-170 -421l-59 -336h-63l116 662q6 27 6 75q0 94 -48 140.5t-130 46.5q-149 0 -274.5 -167t-169.5 -421l-60 -336h-63z" />
<glyph unicode="n" horiz-adv-x="1052" d="M82 0l168 958h61l-61 -358q31 83 71 149.5t93 119.5t121.5 81.5t148.5 28.5q108 0 172 -61.5t64 -176.5q0 -34 -7 -77l-116 -664h-64l117 662q6 38 6 75q0 95 -49.5 141t-136.5 46q-155 0 -287 -167t-178 -421l-60 -336h-63z" />
<glyph unicode="o" horiz-adv-x="995" d="M92 373q0 82 17 165t55 163t91.5 141.5t134 99t175.5 37.5q112 0 188.5 -52t110 -135.5t33.5 -191.5q0 -114 -31 -223t-88.5 -198.5t-150 -144t-205.5 -54.5q-83 0 -147.5 33t-103.5 88.5t-59 124.5t-20 147zM156 369q0 -53 9 -100.5t30 -91t51.5 -75.5t76.5 -50.5 t103 -18.5q76 0 142 31t114 84.5t83 124.5t52 153t17 168q0 67 -14 124t-45 105t-86.5 75.5t-131.5 27.5q-79 0 -146.5 -34t-113.5 -90.5t-78.5 -129.5t-47.5 -150t-15 -153z" />
<glyph unicode="p" horiz-adv-x="1056" d="M18 -365l234 1323h63l-63 -360q27 60 54 107.5t67.5 101t84 89.5t103 59.5t125.5 23.5q132 0 203.5 -97.5t71.5 -258.5q0 -73 -12.5 -146.5t-37.5 -146.5t-66 -135.5t-95 -111t-128 -76t-161 -27.5q-88 0 -170.5 32.5t-128.5 73.5l-80 -451h-64zM172 145 q143 -112 297 -112q107 0 191.5 52.5t134.5 138.5t76 188t26 209q0 139 -56 222t-165 83q-70 0 -138 -41t-122 -107.5t-99 -149.5t-74.5 -168t-43.5 -163z" />
<glyph unicode="q" horiz-adv-x="1048" d="M78 334q0 95 19.5 186t62.5 174.5t105 146.5t152.5 100.5t198.5 37.5q178 0 330 -72l-223 -1272h-64l129 723q-29 -60 -56 -107.5t-67.5 -100.5t-83.5 -88.5t-100.5 -58.5t-120.5 -23q-133 0 -207.5 97t-74.5 257zM141 330q0 -137 58.5 -217t171.5 -80q84 0 166.5 63 t141.5 158t100.5 196.5t56.5 188.5l41 233q-139 54 -269 54q-91 0 -168.5 -33.5t-131.5 -91t-92.5 -134t-56.5 -162t-18 -175.5z" />
<glyph unicode="r" horiz-adv-x="591" d="M82 0l168 958h63l-63 -354q100 367 342 367q45 0 72 -10l-9 -54q-36 8 -69 8q-65 0 -122 -37.5t-97 -96t-73.5 -138t-54 -154t-34.5 -153.5l-60 -336h-63z" />
<glyph unicode="s" horiz-adv-x="813" d="M31 57l18 52q166 -78 320 -78q124 0 192 53.5t68 155.5q0 41 -16.5 74.5t-52.5 61.5t-69 46.5t-88 44.5q-41 20 -58.5 28.5t-50 25.5t-46.5 27.5t-36 27.5t-31.5 32t-20.5 35.5t-15 42.5t-4 49q0 114 88 179t242 65q166 0 301 -74l-18 -53q-142 76 -285 76 q-117 0 -191.5 -48.5t-74.5 -142.5q0 -41 12 -70.5t43 -54.5t61.5 -41.5t89.5 -45.5q10 -4 15 -7q38 -18 62.5 -30.5t59.5 -33t57 -40.5t44 -46t32.5 -56.5t10.5 -65.5q0 -124 -88 -195t-235 -71q-161 0 -336 77z" />
<glyph unicode="t" horiz-adv-x="622" d="M143 905l11 53h143l45 259h64l-46 -259h258l-10 -53h-258l-127 -719q-4 -24 -4 -45q0 -104 113 -104q74 0 135 22l4 -51q-21 -9 -64 -16.5t-79 -7.5q-80 0 -127 40t-47 111q0 21 6 51l127 719h-144z" />
<glyph unicode="u" horiz-adv-x="1042" d="M117 217q0 41 6 78l117 663h63l-117 -661q-6 -37 -6 -76q0 -95 46.5 -140.5t129.5 -45.5q110 0 207 80t162.5 213t95.5 299l60 331h63l-168 -958h-61l61 358q-144 -378 -434 -378q-103 0 -164 61t-61 176z" />
<glyph unicode="v" horiz-adv-x="813" d="M109 958h63l156 -890l465 890h67l-510 -958h-63z" />
<glyph unicode="w" horiz-adv-x="1302" d="M113 958h61l94 -870l422 870h76l119 -870l399 870h64l-449 -958h-55l-123 909l-440 -909h-56z" />
<glyph unicode="x" horiz-adv-x="862" d="M-33 0l430 506l-227 452h61l205 -407l346 407h70l-391 -458l252 -500h-62l-229 455l-385 -455h-70z" />
<glyph unicode="y" horiz-adv-x="798" d="M88 -365l193 365l-177 958h64l154 -888l462 888h68l-707 -1323h-57z" />
<glyph unicode="z" horiz-adv-x="862" d="M12 0l8 51l736 856h-551l10 51h619l-11 -51l-733 -856h600l-8 -51h-670z" />
<glyph unicode="{" horiz-adv-x="538" d="M20 578l9 49h30q85 0 134.5 48.5t62.5 127.5l86 487q20 115 80.5 168t165.5 53h88l-10 -53h-80q-84 0 -123.5 -38t-56.5 -132l-84 -475q-30 -174 -181 -213q54 -14 83.5 -52.5t29.5 -98.5q0 -24 -6 -54l-84 -477q-6 -34 -6 -55q0 -117 127 -117h80l-11 -53h-78 q-182 0 -182 164q0 31 6 61l86 490q4 24 4 43q0 59 -33.5 93t-105.5 34h-31z" />
<glyph unicode="|" horiz-adv-x="505" d="M246 -512v2048h55v-2048h-55z" />
<glyph unicode="}" horiz-adv-x="538" d="M-104 -307l10 53h80q83 0 124 40t56 130l86 492q15 86 62 135.5t116 60.5q-54 13 -82.5 54.5t-28.5 103.5q0 26 5 51l84 477q6 30 6 56q0 112 -127 112h-80l10 53h78q182 0 182 -165q0 -30 -6 -60l-86 -487q-4 -24 -4 -45q0 -59 33.5 -93t105.5 -34h31l-8 -49h-31 q-167 0 -197 -177l-86 -487q-21 -118 -80.5 -169.5t-164.5 -51.5h-88z" />
<glyph unicode="~" horiz-adv-x="1040" d="M133 563q40 114 87.5 161.5t133.5 47.5q49 0 107 -26t102.5 -58t93.5 -58t82 -26q27 0 49.5 9.5t37 23t29 39.5t23 46t21.5 56l49 -16q-66 -209 -207 -209q-42 0 -97 26.5t-99 57.5t-97.5 57.5t-93.5 26.5q-32 0 -57 -10t-39.5 -21.5t-30.5 -40.5t-23 -45t-22 -57z" />
<glyph unicode="&#xa1;" horiz-adv-x="444" d="M33 -365l92 529l104 495h35l-71 -497l-93 -527h-67zM213 897q0 33 22.5 57.5t61.5 24.5q28 0 45.5 -19t17.5 -45q0 -36 -22.5 -58.5t-58.5 -22.5q-30 0 -48 18t-18 45z" />
<glyph unicode="&#xa2;" horiz-adv-x="905" d="M141 582q0 105 30.5 202.5t87 176.5t146.5 127.5t201 52.5l41 223h64l-41 -223q126 -12 235 -74l-20 -55q-132 75 -262 75t-227.5 -73t-145 -186t-47.5 -246q0 -142 74.5 -222.5t226.5 -80.5q120 0 227 51l12 -49q-104 -53 -233 -56l-39 -225h-63l38 227 q-141 14 -223 108t-82 247z" />
<glyph unicode="&#xa3;" horiz-adv-x="1058" d="M39 53q140 102 221 221.5t111 284.5l10 57h-238l9 56h239l62 350q34 194 125.5 278t267.5 84q74 0 148 -18.5t120 -46.5l-20 -53q-122 63 -248 63q-143 0 -221.5 -69.5t-108.5 -237.5l-61 -350h391l-8 -56h-394l-10 -57q-55 -310 -307 -504h721l-8 -55h-795z" />
<glyph unicode="&#xa4;" horiz-adv-x="1130" d="M143 190l174 175q-118 124 -118 297q0 170 118 294l-174 177l37 36l178 -176q114 80 248 80t248 -80l178 176l37 -36l-174 -177q119 -125 119 -294q0 -172 -119 -297l174 -175l-37 -36l-178 176q-110 -80 -248 -80t-248 80l-178 -176zM258 662q0 -146 97.5 -252.5 t250.5 -106.5t250.5 106.5t97.5 252.5t-97.5 252t-250.5 106t-250.5 -106t-97.5 -252z" />
<glyph unicode="&#xa5;" horiz-adv-x="972" d="M88 379l10 51h344l21 121l-49 178h-264l10 51h239l-159 584h65l199 -758l463 758h67l-362 -584h237l-10 -51h-260l-113 -182l-20 -117h342l-10 -51h-342l-66 -379h-63l65 379h-344z" />
<glyph unicode="&#xa6;" horiz-adv-x="505" d="M246 291h55v-803h-55v803zM246 733v803h55v-803h-55z" />
<glyph unicode="&#xa7;" horiz-adv-x="1019" d="M18 -319l15 49q173 -64 323 -64q155 0 254 69t99 197q0 22 -5.5 43t-12 37.5t-23 34.5l-27.5 30t-37 29t-39.5 25.5t-47.5 25.5t-48.5 24t-54.5 26q-143 67 -208 142.5t-65 180.5q0 222 281 340q-139 95 -139 244q0 71 29 124t81 84.5t117.5 46.5t144.5 15q189 0 344 -71 l-18 -56q-158 74 -326 74q-63 0 -116 -11t-98 -35t-71 -67.5t-26 -101.5q0 -51 14.5 -89.5t48.5 -70t72.5 -55t104.5 -55.5q44 -21 68.5 -33.5t64 -35t62.5 -40t51 -44t43 -52t25.5 -59t10.5 -70.5q0 -110 -76.5 -204.5t-191.5 -160.5q129 -90 129 -208 q0 -153 -119.5 -238.5t-298.5 -85.5q-145 0 -334 66zM203 530q0 -89 52.5 -149.5t174.5 -118.5q117 -55 164 -84q254 143 254 330q0 23 -5.5 45t-12 39.5t-22 36t-26 31t-34 29t-35 24.5t-40.5 24t-39 21t-43 21t-40 20l-86 43q-122 -55 -192 -128t-70 -184z" />
<glyph unicode="&#xa8;" horiz-adv-x="843" d="M307 1225q0 33 21.5 54t54.5 21q29 0 47.5 -17.5t18.5 -45.5q0 -32 -21 -55t-55 -23q-28 0 -47 18.5t-19 47.5zM647 1225q0 33 21.5 54t54.5 21q29 0 47 -17.5t18 -45.5q0 -32 -20.5 -55t-54.5 -23q-28 0 -47 18.5t-19 47.5z" />
<glyph unicode="&#xa9;" horiz-adv-x="1613" d="M154 682q0 145 51 274.5t141.5 225t223.5 151.5t288 56t288 -56t224 -151.5t142 -225t51 -274.5q0 -144 -51 -273.5t-142 -225.5t-224 -152t-288 -56t-288 56t-223.5 152t-141.5 225.5t-51 273.5zM209 682q0 -182 81.5 -331.5t231 -237.5t336.5 -88t336.5 88t231 237.5 t81.5 331.5t-81.5 331.5t-231 237.5t-336.5 88t-336.5 -88t-231 -237.5t-81.5 -331.5zM520 682q0 178 103.5 289.5t283.5 111.5q50 0 106.5 -10.5t90.5 -28.5l-12 -47q-87 33 -181 33q-157 0 -243 -93.5t-86 -254.5t86 -254.5t243 -93.5q94 0 181 33l12 -48 q-33 -18 -89.5 -28t-107.5 -10q-180 0 -283.5 111.5t-103.5 289.5z" />
<glyph unicode="&#xaa;" horiz-adv-x="741" d="M143 553l9 45h514l-9 -45h-514zM197 958q0 80 19.5 153t60 135.5t112 100t166.5 37.5q115 0 207 -49l-107 -598h-51l43 246q-14 -39 -35.5 -78.5t-55 -82.5t-81 -70t-100.5 -27q-87 0 -132.5 68t-45.5 165zM250 958q0 -83 33 -135.5t96 -52.5q56 0 109.5 44t92 112 t65.5 141t40 141l19 103q-78 28 -154 28q-79 0 -139 -32.5t-94 -87.5t-51 -121t-17 -140z" />
<glyph unicode="&#xab;" horiz-adv-x="1028" d="M76 487l422 414h75l-426 -420l279 -407h-68zM492 487l421 414h76l-426 -420l279 -407h-68z" />
<glyph unicode="&#xac;" horiz-adv-x="1134" d="M143 635v53h889v-493h-61v440h-828z" />
<glyph unicode="&#xad;" horiz-adv-x="733" d="M152 569l8 54h454l-8 -54h-454z" />
<glyph unicode="&#xae;" horiz-adv-x="1099" d="M195 952q0 186 122 311.5t314 125.5t315 -125.5t123 -311.5q0 -183 -123 -309.5t-315 -126.5q-127 0 -227.5 59t-154.5 158t-54 219zM244 952q0 -166 106.5 -279.5t280.5 -113.5t281.5 113.5t107.5 279.5t-107.5 280t-281.5 114t-280.5 -114t-106.5 -280zM498 737v455 h151q66 0 107 -34t41 -93q0 -48 -27 -85t-76 -50l154 -193h-72l-145 187h-76v-187h-57zM555 973h88q46 0 71 23.5t25 64.5q0 39 -24.5 60.5t-67.5 21.5h-92v-170z" />
<glyph unicode="&#xaf;" horiz-adv-x="804" d="M287 1184l10 51h465l-10 -51h-465z" />
<glyph unicode="&#xb0;" horiz-adv-x="653" d="M205 1147q0 97 62.5 167t172.5 70q111 0 174.5 -70t63.5 -167q0 -99 -63.5 -169.5t-174.5 -70.5q-110 0 -172.5 70.5t-62.5 169.5zM260 1147q0 -79 46.5 -135t133.5 -56q88 0 134.5 56t46.5 135t-46.5 134.5t-134.5 55.5q-87 0 -133.5 -56t-46.5 -134z" />
<glyph unicode="&#xb1;" horiz-adv-x="1134" d="M143 0v53h414v439h-414v53h414v440h61v-440h414v-53h-414v-439h414v-53h-889z" />
<glyph unicode="&#xb2;" horiz-adv-x="716" d="M170 799l8 47q10 54 30 98t42.5 73.5t62.5 59.5t72 48t88 46q50 25 75.5 39.5t61.5 39.5t53 47t30.5 54t13.5 70q0 62 -45.5 92.5t-122.5 30.5q-95 0 -195 -47l-8 43q96 47 205 47q102 0 160.5 -43t58.5 -119q0 -53 -20 -96.5t-61 -78.5t-78.5 -58.5t-98.5 -54.5 q-56 -29 -87 -46t-67.5 -43t-56 -51.5t-36 -61.5t-24.5 -81l-2 -12h420l-8 -43h-471z" />
<glyph unicode="&#xb3;" horiz-adv-x="696" d="M184 840l17 41q106 -52 207 -52q99 0 151.5 50t52.5 127q0 75 -49 121.5t-141 46.5h-105l9 47h102q101 0 169.5 55t68.5 137q0 63 -39.5 97t-116.5 34q-89 0 -176 -41l-12 43q90 41 192 41q98 0 152.5 -44t54.5 -126q0 -77 -51.5 -134.5t-143.5 -88.5q63 -21 101.5 -69 t38.5 -117q0 -92 -68 -156t-192 -64q-108 0 -222 52z" />
<glyph unicode="&#xb4;" horiz-adv-x="575" d="M281 1104l194 311h80l-219 -311h-55z" />
<glyph unicode="&#xb5;" horiz-adv-x="1114" d="M8 -365l234 1323h63l-117 -661q-6 -35 -6 -76q0 -186 187 -186q153 0 281.5 167t172.5 421l60 335h63l-119 -667q-10 -55 -10 -103q0 -147 123 -147h25l-9 -47q-12 -4 -36 -4q-87 0 -125.5 56t-38.5 144q0 43 8 89l14 79q-138 -378 -424 -378q-181 0 -225 151 q2 -27 2 -80q0 -81 -12 -155l-47 -261h-64z" />
<glyph unicode="&#xb6;" horiz-adv-x="1030" d="M141 829q0 253 137 394t384 141h342l-291 -1651h-62l281 1596h-275l-151 -863q-168 0 -266.5 105.5t-98.5 277.5z" />
<glyph unicode="&#xb7;" horiz-adv-x="464" d="M168 549q0 36 23 59t59 23q30 0 47.5 -18.5t17.5 -45.5q0 -33 -22.5 -57.5t-61.5 -24.5q-28 0 -45.5 19t-17.5 45z" />
<glyph unicode="&#xb8;" horiz-adv-x="610" d="M29 -336q213 11 213 109q0 22 -12 37t-37.5 24t-52 13.5t-66.5 7.5l49 145h53l-29 -106q65 -7 110.5 -34.5t45.5 -80.5q0 -79 -69.5 -116.5t-204.5 -47.5v49z" />
<glyph unicode="&#xb9;" horiz-adv-x="456" d="M281 1538l196 39h47l-135 -770h-53l127 723l-178 -35z" />
<glyph unicode="&#xba;" horiz-adv-x="770" d="M147 553l9 45h497l-8 -45h-498zM209 987q0 72 19 140t56.5 127t101 94.5t144.5 35.5q111 0 167.5 -69.5t56.5 -173.5q0 -70 -20 -141.5t-57.5 -134t-101 -101.5t-141.5 -39q-108 0 -166.5 73.5t-58.5 188.5zM262 985q0 -59 15.5 -105t57 -78t105.5 -32q61 0 112 35 t82.5 89.5t48.5 117.5t17 123q0 88 -42 146t-136 58q-84 0 -144.5 -53t-88 -131.5t-27.5 -169.5z" />
<glyph unicode="&#xbb;" horiz-adv-x="1028" d="M31 74l426 420l-279 407h68l282 -414l-419 -413h-78zM446 74l426 420l-278 407h68l282 -414l-420 -413h-78z" />
<glyph unicode="&#xbc;" horiz-adv-x="1458" d="M217 0l950 1364h60l-953 -1364h-57zM264 1325l197 39h47l-135 -770h-54l127 723l-178 -35zM754 258l477 516h51l-92 -514h106l-8 -43h-104l-39 -217h-49l39 217h-377zM813 260h328l80 447z" />
<glyph unicode="&#xbd;" horiz-adv-x="1536" d="M217 0l950 1364h60l-953 -1364h-57zM264 1325l197 39h47l-135 -770h-54l127 723l-178 -35zM848 0l8 47q12 67 36.5 117t68 88t82 62t108.5 59q49 25 75 39.5t61.5 39.5t53 47t30.5 54t13 70q0 62 -45 92t-122 30q-95 0 -195 -47l-8 43q96 47 205 47q102 0 160.5 -42.5 t58.5 -118.5q0 -53 -20 -96.5t-61 -79t-79 -59t-98 -54.5q-56 -29 -87 -46t-67.5 -43t-56 -51.5t-36 -61.5t-24.5 -81l-2 -12h420l-8 -43h-471z" />
<glyph unicode="&#xbe;" horiz-adv-x="1560" d="M145 627l17 41q106 -52 207 -52q99 0 151.5 50t52.5 127q0 75 -49 121.5t-141 46.5h-104l8 47h102q101 0 169.5 55t68.5 137q0 62 -39.5 96.5t-116.5 34.5q-89 0 -176 -41l-12 43q90 41 192 41q98 0 152.5 -44t54.5 -126q0 -77 -51.5 -134.5t-143.5 -88.5 q63 -21 101.5 -69t38.5 -117q0 -92 -68 -156t-192 -64q-108 0 -222 52zM317 0l951 1364h59l-952 -1364h-58zM854 258l477 516h51l-92 -514h107l-8 -43h-105l-39 -217h-49l39 217h-377zM913 260h328l80 447z" />
<glyph unicode="&#xbf;" horiz-adv-x="845" d="M4 -139q0 40 9 78t21.5 67.5t38 62.5t44 54t56.5 53t58.5 48t65.5 50q110 83 148 145.5t61 198.5l8 52h61l-8 -49q-14 -84 -30.5 -137.5t-46 -99t-64.5 -78t-98 -79.5q-68 -51 -106.5 -83.5t-78.5 -78t-57.5 -94.5t-17.5 -108q0 -92 64.5 -143.5t180.5 -51.5 q138 0 269 62l12 -56q-133 -59 -289 -59q-134 0 -217.5 64t-83.5 182zM502 897q0 33 22.5 57.5t61.5 24.5q28 0 45.5 -19t17.5 -45q0 -35 -22.5 -58t-59.5 -23q-30 0 -47.5 18t-17.5 45z" />
<glyph unicode="&#xc0;" horiz-adv-x="1191" d="M-37 0l748 1364h73l265 -1364h-62l-78 414h-655l-223 -414h-68zM285 471h614l-158 846zM553 1772h72l137 -271h-49z" />
<glyph unicode="&#xc1;" horiz-adv-x="1191" d="M-37 0l748 1364h73l265 -1364h-62l-78 414h-655l-223 -414h-68zM285 471h614l-158 846zM743 1501l234 271h76l-254 -271h-56z" />
<glyph unicode="&#xc2;" horiz-adv-x="1191" d="M-37 0l748 1364h73l265 -1364h-62l-78 414h-655l-223 -414h-68zM285 471h614l-158 846zM502 1501l270 271h68l178 -271h-62l-153 236l-232 -236h-69z" />
<glyph unicode="&#xc3;" horiz-adv-x="1191" d="M-37 0l748 1364h73l265 -1364h-62l-78 414h-655l-223 -414h-68zM285 471h614l-158 846zM481 1546q36 68 71 98.5t95 30.5q42 0 92 -23.5t96 -47t78 -23.5q22 0 39 7.5t32 25.5t22.5 29.5t21.5 37.5l43 -22q-65 -129 -160 -129q-53 0 -137.5 47t-130.5 47q-22 0 -38 -5.5 t-31.5 -23t-23 -28.5t-26.5 -43z" />
<glyph unicode="&#xc4;" horiz-adv-x="1191" d="M-37 0l748 1364h73l265 -1364h-62l-78 414h-655l-223 -414h-68zM285 471h614l-158 846zM522 1622q0 33 21.5 54.5t54.5 21.5q29 0 47.5 -18t18.5 -46q0 -32 -21 -55t-55 -23q-28 0 -47 18.5t-19 47.5zM901 1622q0 33 21.5 54.5t54.5 21.5q29 0 47 -18t18 -46 q0 -32 -20.5 -55t-54.5 -23q-28 0 -47 18.5t-19 47.5z" />
<glyph unicode="&#xc5;" horiz-adv-x="1191" d="M-37 0l729 1329q-42 15 -64 49t-22 78q0 82 51.5 129t139.5 47q68 0 105.5 -35.5t37.5 -91.5q0 -69 -41 -118.5t-108 -61.5l258 -1325h-62l-78 414h-655l-223 -414h-68zM285 471h614l-158 846zM657 1458q0 -43 25.5 -68.5t69.5 -25.5q61 0 98 38t37 97q0 43 -25 66.5 t-71 23.5q-61 0 -97.5 -35t-36.5 -96z" />
<glyph unicode="&#xc6;" horiz-adv-x="1642" d="M-37 0l748 1364h983l-11 -55h-886l108 -570h629l-10 -57h-609l121 -627h426l-8 -55h-467l-78 414h-655l-223 -414h-68zM285 471h614l-158 846z" />
<glyph unicode="&#xc7;" horiz-adv-x="1177" d="M111 557q0 130 30 251.5t91.5 227t148 184.5t208 124t263.5 45q220 0 377 -82l-21 -58q-172 82 -358 82q-156 0 -285 -62.5t-213 -168.5t-130 -245.5t-46 -295.5q0 -154 58 -272t173 -186t273 -68q148 0 297 49l12 -55q-142 -52 -319 -52q-31 0 -47 2l-23 -83 q65 -7 110.5 -34.5t45.5 -80.5q0 -79 -70 -116.5t-205 -47.5v49q213 11 213 109q0 22 -12 37t-37.5 24t-52 13.5t-66.5 7.5l43 129q-213 30 -335.5 186.5t-122.5 386.5z" />
<glyph unicode="&#xc8;" horiz-adv-x="1091" d="M92 0l242 1364h809l-10 -55h-744l-100 -570h692l-10 -55h-692l-111 -629h743l-8 -55h-811zM596 1772h72l137 -271h-49z" />
<glyph unicode="&#xc9;" horiz-adv-x="1091" d="M92 0l242 1364h809l-10 -55h-744l-100 -570h692l-10 -55h-692l-111 -629h743l-8 -55h-811zM686 1501l234 271h75l-254 -271h-55z" />
<glyph unicode="&#xca;" horiz-adv-x="1091" d="M92 0l242 1364h809l-10 -55h-744l-100 -570h692l-10 -55h-692l-111 -629h743l-8 -55h-811zM514 1501l270 271h68l178 -271h-61l-154 236l-231 -236h-70z" />
<glyph unicode="&#xcb;" horiz-adv-x="1091" d="M92 0l242 1364h809l-10 -55h-744l-100 -570h692l-10 -55h-692l-111 -629h743l-8 -55h-811zM528 1622q0 33 21.5 54.5t54.5 21.5q29 0 47.5 -18t18.5 -46q0 -32 -21 -55t-55 -23q-28 0 -47 18.5t-19 47.5zM907 1622q0 33 21.5 54.5t54.5 21.5q29 0 47.5 -18t18.5 -46 q0 -32 -21 -55t-55 -23q-28 0 -47 18.5t-19 47.5z" />
<glyph unicode="&#xcc;" horiz-adv-x="450" d="M100 0l240 1364h66l-240 -1364h-66zM195 1772h71l137 -271h-49z" />
<glyph unicode="&#xcd;" horiz-adv-x="450" d="M100 0l240 1364h66l-240 -1364h-66zM367 1501l233 271h76l-254 -271h-55z" />
<glyph unicode="&#xce;" horiz-adv-x="450" d="M100 0l240 1364h66l-240 -1364h-66zM129 1501l270 271h68l178 -271h-61l-154 236l-231 -236h-70z" />
<glyph unicode="&#xcf;" horiz-adv-x="450" d="M100 0l240 1364h66l-240 -1364h-66zM147 1622q0 33 21.5 54.5t54.5 21.5q29 0 47.5 -18t18.5 -46q0 -32 -21 -55t-55 -23q-28 0 -47 18.5t-19 47.5zM526 1622q0 33 21.5 54.5t54.5 21.5q29 0 47.5 -18t18.5 -46q0 -32 -21 -55t-55 -23q-28 0 -47 18.5t-19 47.5z" />
<glyph unicode="&#xd0;" horiz-adv-x="1382" d="M96 655l10 56h150l115 653h405q158 0 281 -74.5t188.5 -201.5t65.5 -283q0 -121 -31 -237.5t-94 -219t-150.5 -180.5t-207.5 -123t-257 -45h-440l115 655h-150zM207 57h366q148 0 275.5 61t213.5 163.5t134.5 238t48.5 283.5q0 141 -58 255.5t-167.5 181.5t-249.5 67 h-344l-104 -596h442l-10 -56h-443z" />
<glyph unicode="&#xd1;" horiz-adv-x="1355" d="M92 0l240 1364h61l641 -1270l223 1270h62l-240 -1364h-61l-641 1270l-223 -1270h-62zM567 1546q36 68 71 98.5t95 30.5q42 0 92 -23.5t96 -47t78 -23.5q22 0 39 7.5t32 25.5t22.5 29.5t21.5 37.5l43 -22q-65 -129 -160 -129q-53 0 -137.5 47t-130.5 47q-22 0 -38 -5.5 t-31.5 -23t-23 -28.5t-26.5 -43z" />
<glyph unicode="&#xd2;" horiz-adv-x="1347" d="M111 563q0 164 41.5 310t121.5 262.5t210.5 185t295.5 68.5q155 0 270 -75t173.5 -201.5t58.5 -287.5q0 -102 -18.5 -202.5t-54.5 -196t-93 -177t-129.5 -143t-170 -96.5t-208.5 -35q-114 0 -209 48.5t-157.5 130t-96.5 187.5t-34 222zM176 565q0 -80 16 -156t51 -145 t86 -120.5t124.5 -82t162.5 -30.5q115 0 214 45t169 122t120 178t74 214t24 229q0 82 -16.5 156.5t-51.5 140t-86 113.5t-125 76t-164 28q-120 0 -220.5 -43t-169.5 -116.5t-116.5 -172t-69.5 -208.5t-22 -228zM641 1772h72l137 -271h-49z" />
<glyph unicode="&#xd3;" horiz-adv-x="1347" d="M111 563q0 164 41.5 310t121.5 262.5t210.5 185t295.5 68.5q155 0 270 -75t173.5 -201.5t58.5 -287.5q0 -102 -18.5 -202.5t-54.5 -196t-93 -177t-129.5 -143t-170 -96.5t-208.5 -35q-114 0 -209 48.5t-157.5 130t-96.5 187.5t-34 222zM176 565q0 -80 16 -156t51 -145 t86 -120.5t124.5 -82t162.5 -30.5q115 0 214 45t169 122t120 178t74 214t24 229q0 82 -16.5 156.5t-51.5 140t-86 113.5t-125 76t-164 28q-120 0 -220.5 -43t-169.5 -116.5t-116.5 -172t-69.5 -208.5t-22 -228zM788 1501l234 271h76l-254 -271h-56z" />
<glyph unicode="&#xd4;" horiz-adv-x="1347" d="M111 563q0 164 41.5 310t121.5 262.5t210.5 185t295.5 68.5q155 0 270 -75t173.5 -201.5t58.5 -287.5q0 -102 -18.5 -202.5t-54.5 -196t-93 -177t-129.5 -143t-170 -96.5t-208.5 -35q-114 0 -209 48.5t-157.5 130t-96.5 187.5t-34 222zM176 565q0 -80 16 -156t51 -145 t86 -120.5t124.5 -82t162.5 -30.5q115 0 214 45t169 122t120 178t74 214t24 229q0 82 -16.5 156.5t-51.5 140t-86 113.5t-125 76t-164 28q-120 0 -220.5 -43t-169.5 -116.5t-116.5 -172t-69.5 -208.5t-22 -228zM567 1501l271 271h67l178 -271h-61l-154 236l-231 -236h-70z " />
<glyph unicode="&#xd5;" horiz-adv-x="1347" d="M111 563q0 164 41.5 310t121.5 262.5t210.5 185t295.5 68.5q155 0 270 -75t173.5 -201.5t58.5 -287.5q0 -102 -18.5 -202.5t-54.5 -196t-93 -177t-129.5 -143t-170 -96.5t-208.5 -35q-114 0 -209 48.5t-157.5 130t-96.5 187.5t-34 222zM176 565q0 -80 16 -156t51 -145 t86 -120.5t124.5 -82t162.5 -30.5q115 0 214 45t169 122t120 178t74 214t24 229q0 82 -16.5 156.5t-51.5 140t-86 113.5t-125 76t-164 28q-120 0 -220.5 -43t-169.5 -116.5t-116.5 -172t-69.5 -208.5t-22 -228zM539 1546q36 68 71 98.5t95 30.5q42 0 92 -23.5t96 -47 t78 -23.5q22 0 39 7.5t32 25.5t21.5 29t21.5 38l43 -22q-64 -129 -159 -129q-53 0 -138 47t-131 47q-18 0 -33 -6t-23.5 -10.5t-22.5 -23.5t-17.5 -25t-21.5 -35z" />
<glyph unicode="&#xd6;" horiz-adv-x="1347" d="M111 563q0 164 41.5 310t121.5 262.5t210.5 185t295.5 68.5q155 0 270 -75t173.5 -201.5t58.5 -287.5q0 -102 -18.5 -202.5t-54.5 -196t-93 -177t-129.5 -143t-170 -96.5t-208.5 -35q-114 0 -209 48.5t-157.5 130t-96.5 187.5t-34 222zM176 565q0 -80 16 -156t51 -145 t86 -120.5t124.5 -82t162.5 -30.5q115 0 214 45t169 122t120 178t74 214t24 229q0 82 -16.5 156.5t-51.5 140t-86 113.5t-125 76t-164 28q-120 0 -220.5 -43t-169.5 -116.5t-116.5 -172t-69.5 -208.5t-22 -228zM596 1622q0 33 21.5 54.5t54.5 21.5q29 0 47 -18t18 -46 q0 -32 -20.5 -55t-54.5 -23q-28 0 -47 18.5t-19 47.5zM975 1622q0 33 21.5 54.5t54.5 21.5q29 0 47 -18t18 -46q0 -32 -21 -55t-55 -23q-28 0 -46.5 18.5t-18.5 47.5z" />
<glyph unicode="&#xd7;" horiz-adv-x="1118" d="M205 1020l37 37l358 -359l354 357l39 -39l-356 -354l358 -359l-37 -37l-358 359l-354 -357l-39 39l356 355z" />
<glyph unicode="&#xd8;" horiz-adv-x="1347" d="M111 563q0 164 41.5 310t121.5 262.5t210.5 185t295.5 68.5q160 0 279 -80l135 227h59l-153 -260q88 -75 135 -192.5t47 -258.5q0 -102 -18.5 -202.5t-54.5 -196t-93 -177t-129.5 -143t-170 -96.5t-208.5 -35q-132 0 -241 66l-127 -213h-60l144 242q-102 81 -157.5 211.5 t-55.5 281.5zM176 565q0 -135 45 -253.5t133 -190.5l674 1136q-107 76 -254 76q-120 0 -220.5 -43t-169.5 -116.5t-116.5 -172t-69.5 -208.5t-22 -228zM395 90q94 -59 221 -59q115 0 214 45t169 122t120 178t74 214t24 229q0 123 -38 229.5t-112 176.5z" />
<glyph unicode="&#xd9;" horiz-adv-x="1331" d="M156 356q0 36 8 86l162 922h65l-162 -922q-8 -54 -8 -84q0 -155 103.5 -241t279.5 -86q189 0 312.5 110.5t156.5 298.5l162 924h65l-161 -924q-17 -96 -58 -178.5t-107 -147.5t-163.5 -102t-216.5 -37q-118 0 -216 42.5t-160 131t-62 207.5zM688 1772h72l137 -271h-49z " />
<glyph unicode="&#xda;" horiz-adv-x="1331" d="M156 356q0 36 8 86l162 922h65l-162 -922q-8 -54 -8 -84q0 -155 103.5 -241t279.5 -86q189 0 312.5 110.5t156.5 298.5l162 924h65l-161 -924q-17 -96 -58 -178.5t-107 -147.5t-163.5 -102t-216.5 -37q-118 0 -216 42.5t-160 131t-62 207.5zM754 1501l233 271h76 l-254 -271h-55z" />
<glyph unicode="&#xdb;" horiz-adv-x="1331" d="M156 356q0 36 8 86l162 922h65l-162 -922q-8 -54 -8 -84q0 -155 103.5 -241t279.5 -86q189 0 312.5 110.5t156.5 298.5l162 924h65l-161 -924q-17 -96 -58 -178.5t-107 -147.5t-163.5 -102t-216.5 -37q-118 0 -216 42.5t-160 131t-62 207.5zM582 1501l270 271h68 l178 -271h-62l-153 236l-232 -236h-69z" />
<glyph unicode="&#xdc;" horiz-adv-x="1331" d="M156 356q0 36 8 86l162 922h65l-162 -922q-8 -54 -8 -84q0 -155 103.5 -241t279.5 -86q189 0 312.5 110.5t156.5 298.5l162 924h65l-161 -924q-17 -96 -58 -178.5t-107 -147.5t-163.5 -102t-216.5 -37q-118 0 -216 42.5t-160 131t-62 207.5zM606 1622q0 33 21.5 54.5 t54.5 21.5q29 0 47.5 -18t18.5 -46q0 -32 -21 -55t-55 -23q-28 0 -47 18.5t-19 47.5zM985 1622q0 33 21.5 54.5t54.5 21.5q29 0 47 -18t18 -46q0 -32 -20.5 -55t-54.5 -23q-28 0 -47 18.5t-19 47.5z" />
<glyph unicode="&#xdd;" horiz-adv-x="1058" d="M197 1364h65l287 -737l538 737h76l-590 -793l-100 -571h-65l100 571zM637 1501l233 271h76l-254 -271h-55z" />
<glyph unicode="&#xde;" horiz-adv-x="1124" d="M92 0l240 1364h65l-51 -295h399q170 0 257.5 -88t87.5 -229q0 -191 -128 -314t-339 -123h-410l-55 -315h-66zM223 371h406q180 0 287.5 107t107.5 272q0 123 -73.5 193.5t-211.5 70.5h-403z" />
<glyph unicode="&#xdf;" horiz-adv-x="1071" d="M72 0l164 930q80 454 473 454q108 0 188 -55t80 -151q0 -37 -10.5 -70.5t-34 -65.5t-40.5 -51.5t-51.5 -53.5t-45.5 -46q-3 -3 -31 -30t-37.5 -37.5t-31.5 -37.5t-31.5 -46t-18 -47t-8.5 -56q0 -30 10 -55t32 -46.5t41 -35t52 -33.5q5 -4 33 -22.5t39 -26.5t35 -27.5 t35.5 -35t26 -38t20.5 -47.5t6 -53q0 -103 -82.5 -170t-216.5 -67q-126 0 -269 55l17 55q135 -55 252 -55q107 0 171 47.5t64 134.5q0 44 -25.5 83.5t-54 61.5t-80.5 56q-42 26 -63 41t-50 43t-42 61t-13 74q0 27 5.5 53t19 51.5t24.5 43.5t33 42.5t32 36t35 35.5t30 29 q8 8 34.5 33.5t38.5 38t32.5 36.5t30 42.5t17.5 43t8 49.5q0 54 -34 91.5t-82 53t-103 15.5q-325 0 -397 -401l-164 -930h-63z" />
<glyph unicode="&#xe0;" d="M82 336q0 96 18 187t58 174.5t98 145.5t144 99t190 37q169 0 313 -74l-160 -905h-63l65 373q-24 -56 -46.5 -101.5t-61 -103t-79 -96t-97.5 -65.5t-119 -27q-86 0 -146.5 50.5t-87 128.5t-26.5 177zM145 334q0 -134 51 -217.5t152 -83.5q79 0 157.5 65t136.5 165 t99.5 210.5t59.5 210.5l33 186q-131 56 -250 56q-89 0 -163 -33.5t-124.5 -90.5t-85 -134t-50.5 -161t-16 -173zM494 1415h69l90 -311h-51z" />
<glyph unicode="&#xe1;" d="M82 336q0 96 18 187t58 174.5t98 145.5t144 99t190 37q169 0 313 -74l-160 -905h-63l65 373q-24 -56 -46.5 -101.5t-61 -103t-79 -96t-97.5 -65.5t-119 -27q-86 0 -146.5 50.5t-87 128.5t-26.5 177zM145 334q0 -134 51 -217.5t152 -83.5q79 0 157.5 65t136.5 165 t99.5 210.5t59.5 210.5l33 186q-131 56 -250 56q-89 0 -163 -33.5t-124.5 -90.5t-85 -134t-50.5 -161t-16 -173zM582 1104l194 311h80l-219 -311h-55z" />
<glyph unicode="&#xe2;" d="M82 336q0 96 18 187t58 174.5t98 145.5t144 99t190 37q169 0 313 -74l-160 -905h-63l65 373q-24 -56 -46.5 -101.5t-61 -103t-79 -96t-97.5 -65.5t-119 -27q-86 0 -146.5 50.5t-87 128.5t-26.5 177zM145 334q0 -134 51 -217.5t152 -83.5q79 0 157.5 65t136.5 165 t99.5 210.5t59.5 210.5l33 186q-131 56 -250 56q-89 0 -163 -33.5t-124.5 -90.5t-85 -134t-50.5 -161t-16 -173zM395 1104l254 311h72l149 -311h-63l-125 270l-219 -270h-68z" />
<glyph unicode="&#xe3;" d="M82 336q0 96 18 187t58 174.5t98 145.5t144 99t190 37q169 0 313 -74l-160 -905h-63l65 373q-24 -56 -46.5 -101.5t-61 -103t-79 -96t-97.5 -65.5t-119 -27q-86 0 -146.5 50.5t-87 128.5t-26.5 177zM145 334q0 -134 51 -217.5t152 -83.5q79 0 157.5 65t136.5 165 t99.5 210.5t59.5 210.5l33 186q-131 56 -250 56q-89 0 -163 -33.5t-124.5 -90.5t-85 -134t-50.5 -161t-16 -173zM381 1180q37 68 73 98.5t95 30.5q39 0 81 -23.5t79.5 -47.5t66.5 -24q21 0 38 7t32 24.5t23 30t24 39.5l43 -23q-34 -62 -70.5 -95.5t-89.5 -33.5 q-40 0 -82 23.5t-80.5 47t-72.5 23.5q-10 0 -20 -2.5t-17 -5t-15.5 -10t-13 -11.5t-13 -15.5t-12 -16.5t-13.5 -19.5t-13 -19.5z" />
<glyph unicode="&#xe4;" d="M82 336q0 96 18 187t58 174.5t98 145.5t144 99t190 37q169 0 313 -74l-160 -905h-63l65 373q-24 -56 -46.5 -101.5t-61 -103t-79 -96t-97.5 -65.5t-119 -27q-86 0 -146.5 50.5t-87 128.5t-26.5 177zM145 334q0 -134 51 -217.5t152 -83.5q79 0 157.5 65t136.5 165 t99.5 210.5t59.5 210.5l33 186q-131 56 -250 56q-89 0 -163 -33.5t-124.5 -90.5t-85 -134t-50.5 -161t-16 -173zM416 1225q0 33 21 54t55 21q29 0 47 -17.5t18 -45.5q0 -32 -21 -55t-55 -23q-28 0 -46.5 18.5t-18.5 47.5zM756 1225q0 33 21 54t54 21q29 0 47.5 -17.5 t18.5 -45.5q0 -32 -21 -55t-55 -23q-28 0 -46.5 18.5t-18.5 47.5z" />
<glyph unicode="&#xe5;" d="M82 336q0 96 18 187t58 174.5t98 145.5t144 99t190 37q169 0 313 -74l-160 -905h-63l65 373q-24 -56 -46.5 -101.5t-61 -103t-79 -96t-97.5 -65.5t-119 -27q-86 0 -146.5 50.5t-87 128.5t-26.5 177zM145 334q0 -134 51 -217.5t152 -83.5q79 0 157.5 65t136.5 165 t99.5 210.5t59.5 210.5l33 186q-131 56 -250 56q-89 0 -163 -33.5t-124.5 -90.5t-85 -134t-50.5 -161t-16 -173zM502 1239q0 82 51 129t139 47q68 0 106 -35.5t38 -91.5q0 -80 -54.5 -132t-138.5 -52q-68 0 -104.5 38t-36.5 97zM553 1241q0 -43 25 -68.5t69 -25.5 q61 0 98 38t37 97q0 43 -25 66.5t-71 23.5q-61 0 -97 -35t-36 -96z" />
<glyph unicode="&#xe6;" horiz-adv-x="1509" d="M55 219q0 287 355 287h342l18 110q6 44 6 80q0 230 -264 230q-135 0 -289 -64l-10 56q136 61 307 61q135 0 222.5 -66.5t91.5 -183.5q149 250 403 250q107 0 173.5 -52.5t66.5 -144.5q0 -56 -23 -103t-61 -80t-93 -58.5t-113 -41t-127.5 -25.5t-130 -14t-126.5 -5l-2 -17 q-6 -53 -6 -82q0 -150 74 -237.5t229 -87.5q126 0 241 59l15 -47q-46 -27 -118.5 -45t-145.5 -18q-149 0 -235.5 75.5t-109.5 206.5q-52 -129 -161.5 -205.5t-249.5 -76.5q-129 0 -204 65.5t-75 173.5zM113 223q0 -93 58.5 -143.5t174.5 -50.5q148 0 252.5 103.5 t130.5 250.5l12 70h-333q-145 0 -220 -52.5t-75 -177.5zM813 508q87 1 165.5 7.5t161 25.5t141 48t96.5 78t38 113q0 69 -50 108.5t-130 39.5q-84 0 -157 -34.5t-125 -94.5t-87.5 -133.5t-52.5 -157.5z" />
<glyph unicode="&#xe7;" horiz-adv-x="851" d="M86 360q0 85 17.5 170t56 166.5t94 144t138 100.5t181.5 38q164 0 289 -92l-26 -51q-69 43 -129.5 65.5t-137.5 22.5q-105 0 -188.5 -51.5t-133 -135.5t-75 -182t-25.5 -199q0 -323 304 -323q110 0 225 45l14 -47q-102 -51 -250 -51q-25 0 -41 2l-22 -88q65 -7 110 -34.5 t45 -80.5q0 -79 -69.5 -116.5t-204.5 -47.5v49q213 11 213 109q0 22 -12 37t-37.5 24t-52 13.5t-66.5 7.5l45 133q-129 25 -195.5 120t-66.5 252z" />
<glyph unicode="&#xe8;" horiz-adv-x="864" d="M76 352q0 86 19.5 173t61 169t100.5 145t144.5 101.5t186.5 38.5q108 0 178 -52.5t70 -144.5q0 -65 -32 -118.5t-88 -89t-124 -61t-149.5 -39.5t-154 -20.5t-147.5 -7.5q-6 -53 -6 -100q0 -146 72.5 -230.5t228.5 -84.5q135 0 250 59l14 -47q-45 -27 -121.5 -45 t-150.5 -18q-177 0 -264.5 102.5t-87.5 269.5zM150 500q114 1 215.5 14.5t198 43t153.5 86.5t57 136q0 69 -54 108.5t-134 39.5q-90 0 -166 -35.5t-129 -96.5t-88.5 -135.5t-52.5 -160.5zM438 1415h70l90 -311h-51z" />
<glyph unicode="&#xe9;" horiz-adv-x="864" d="M76 352q0 86 19.5 173t61 169t100.5 145t144.5 101.5t186.5 38.5q108 0 178 -52.5t70 -144.5q0 -65 -32 -118.5t-88 -89t-124 -61t-149.5 -39.5t-154 -20.5t-147.5 -7.5q-6 -53 -6 -100q0 -146 72.5 -230.5t228.5 -84.5q135 0 250 59l14 -47q-45 -27 -121.5 -45 t-150.5 -18q-177 0 -264.5 102.5t-87.5 269.5zM150 500q114 1 215.5 14.5t198 43t153.5 86.5t57 136q0 69 -54 108.5t-134 39.5q-90 0 -166 -35.5t-129 -96.5t-88.5 -135.5t-52.5 -160.5zM571 1104l195 311h80l-219 -311h-56z" />
<glyph unicode="&#xea;" horiz-adv-x="864" d="M76 352q0 86 19.5 173t61 169t100.5 145t144.5 101.5t186.5 38.5q108 0 178 -52.5t70 -144.5q0 -65 -32 -118.5t-88 -89t-124 -61t-149.5 -39.5t-154 -20.5t-147.5 -7.5q-6 -53 -6 -100q0 -146 72.5 -230.5t228.5 -84.5q135 0 250 59l14 -47q-45 -27 -121.5 -45 t-150.5 -18q-177 0 -264.5 102.5t-87.5 269.5zM150 500q114 1 215.5 14.5t198 43t153.5 86.5t57 136q0 69 -54 108.5t-134 39.5q-90 0 -166 -35.5t-129 -96.5t-88.5 -135.5t-52.5 -160.5zM360 1104l254 311h72l150 -311h-64l-125 270l-219 -270h-68z" />
<glyph unicode="&#xeb;" horiz-adv-x="864" d="M76 352q0 86 19.5 173t61 169t100.5 145t144.5 101.5t186.5 38.5q108 0 178 -52.5t70 -144.5q0 -65 -32 -118.5t-88 -89t-124 -61t-149.5 -39.5t-154 -20.5t-147.5 -7.5q-6 -53 -6 -100q0 -146 72.5 -230.5t228.5 -84.5q135 0 250 59l14 -47q-45 -27 -121.5 -45 t-150.5 -18q-177 0 -264.5 102.5t-87.5 269.5zM150 500q114 1 215.5 14.5t198 43t153.5 86.5t57 136q0 69 -54 108.5t-134 39.5q-90 0 -166 -35.5t-129 -96.5t-88.5 -135.5t-52.5 -160.5zM397 1225q0 33 21.5 54t54.5 21q29 0 47.5 -17.5t18.5 -45.5q0 -32 -21 -55t-55 -23 q-28 0 -47 18.5t-19 47.5zM737 1225q0 33 21.5 54t54.5 21q29 0 47.5 -17.5t18.5 -45.5q0 -32 -21 -55t-55 -23q-28 0 -47 18.5t-19 47.5z" />
<glyph unicode="&#xec;" horiz-adv-x="411" d="M82 0l168 958h63l-168 -958h-63zM154 1415h69l90 -311h-51z" />
<glyph unicode="&#xed;" horiz-adv-x="411" d="M82 0l168 958h63l-168 -958h-63zM274 1104l195 311h80l-219 -311h-56z" />
<glyph unicode="&#xee;" horiz-adv-x="411" d="M66 1104l253 311h72l150 -311h-64l-125 270l-219 -270h-67zM82 0l168 958h63l-168 -958h-63z" />
<glyph unicode="&#xef;" horiz-adv-x="411" d="M80 1225q0 33 21 54t55 21q29 0 47 -17.5t18 -45.5q0 -32 -21 -55t-55 -23q-28 0 -46.5 18.5t-18.5 47.5zM82 0l168 958h63l-168 -958h-63zM420 1225q0 33 21 54t55 21q29 0 47 -17.5t18 -45.5q0 -32 -21 -55t-55 -23q-28 0 -46.5 18.5t-18.5 47.5z" />
<glyph unicode="&#xf0;" horiz-adv-x="989" d="M78 373q0 100 27.5 192t80.5 167t141.5 120t200.5 45q127 0 214 -74t114 -194q4 169 -33.5 289t-115.5 210l-261 -133l-18 45l244 125q-101 95 -285 172l23 47q191 -74 311 -194l235 121l17 -45l-219 -113q151 -178 151 -459q0 -94 -15.5 -189t-52.5 -191t-91.5 -169 t-139 -119t-188.5 -46q-107 0 -185.5 54t-116.5 142t-38 197zM141 375q0 -95 28.5 -170t93.5 -123.5t159 -48.5q77 0 144 31t113.5 82.5t79.5 117.5t48.5 135t15.5 136q0 127 -84 218t-217 91q-121 0 -209.5 -66t-130 -170.5t-41.5 -232.5z" />
<glyph unicode="&#xf1;" horiz-adv-x="1052" d="M82 0l168 958h61l-61 -358q31 83 71 149.5t93 119.5t121.5 81.5t148.5 28.5q108 0 172 -61.5t64 -176.5q0 -34 -7 -77l-116 -664h-64l117 662q6 38 6 75q0 95 -49.5 141t-136.5 46q-155 0 -287 -167t-178 -421l-60 -336h-63zM371 1180q37 68 73 98.5t95 30.5 q39 0 81 -23.5t79.5 -47.5t66.5 -24q21 0 38 7t32 24.5t23 30t24 39.5l43 -23q-34 -62 -70.5 -95.5t-89.5 -33.5q-40 0 -82 23.5t-81 47t-73 23.5q-12 0 -22 -2t-19.5 -8.5t-16 -11t-16 -16.5t-13 -17.5t-14.5 -22.5t-15 -22z" />
<glyph unicode="&#xf2;" horiz-adv-x="989" d="M86 373q0 82 17 165t55 163t91.5 141.5t134 99t175.5 37.5q112 0 188.5 -52t110 -135.5t33.5 -191.5q0 -114 -31 -223t-88.5 -198.5t-150 -144t-205.5 -54.5q-83 0 -147.5 33t-103.5 88.5t-59 124.5t-20 147zM150 369q0 -53 9 -100.5t30 -91t51.5 -75.5t76.5 -50.5 t103 -18.5q125 0 219.5 81.5t141 207.5t46.5 272q0 68 -14 124.5t-44.5 104.5t-86 75.5t-131.5 27.5q-79 0 -146.5 -34t-113.5 -90.5t-78.5 -129.5t-47.5 -150t-15 -153zM451 1415h69l90 -311h-51z" />
<glyph unicode="&#xf3;" horiz-adv-x="989" d="M86 373q0 82 17 165t55 163t91.5 141.5t134 99t175.5 37.5q112 0 188.5 -52t110 -135.5t33.5 -191.5q0 -114 -31 -223t-88.5 -198.5t-150 -144t-205.5 -54.5q-83 0 -147.5 33t-103.5 88.5t-59 124.5t-20 147zM150 369q0 -53 9 -100.5t30 -91t51.5 -75.5t76.5 -50.5 t103 -18.5q125 0 219.5 81.5t141 207.5t46.5 272q0 68 -14 124.5t-44.5 104.5t-86 75.5t-131.5 27.5q-79 0 -146.5 -34t-113.5 -90.5t-78.5 -129.5t-47.5 -150t-15 -153zM584 1104l194 311h80l-219 -311h-55z" />
<glyph unicode="&#xf4;" horiz-adv-x="989" d="M86 373q0 82 17 165t55 163t91.5 141.5t134 99t175.5 37.5q112 0 188.5 -52t110 -135.5t33.5 -191.5q0 -114 -31 -223t-88.5 -198.5t-150 -144t-205.5 -54.5q-83 0 -147.5 33t-103.5 88.5t-59 124.5t-20 147zM150 369q0 -53 9 -100.5t30 -91t51.5 -75.5t76.5 -50.5 t103 -18.5q125 0 219.5 81.5t141 207.5t46.5 272q0 68 -14 124.5t-44.5 104.5t-86 75.5t-131.5 27.5q-79 0 -146.5 -34t-113.5 -90.5t-78.5 -129.5t-47.5 -150t-15 -153zM367 1104l254 311h71l150 -311h-64l-125 270l-219 -270h-67z" />
<glyph unicode="&#xf5;" horiz-adv-x="989" d="M86 373q0 82 17 165t55 163t91.5 141.5t134 99t175.5 37.5q112 0 188.5 -52t110 -135.5t33.5 -191.5q0 -114 -31 -223t-88.5 -198.5t-150 -144t-205.5 -54.5q-83 0 -147.5 33t-103.5 88.5t-59 124.5t-20 147zM150 369q0 -53 9 -100.5t30 -91t51.5 -75.5t76.5 -50.5 t103 -18.5q125 0 219.5 81.5t141 207.5t46.5 272q0 68 -14 124.5t-44.5 104.5t-86 75.5t-131.5 27.5q-79 0 -146.5 -34t-113.5 -90.5t-78.5 -129.5t-47.5 -150t-15 -153zM352 1180q37 68 73 98.5t95 30.5q39 0 81 -23.5t80 -47.5t67 -24q28 0 51 16.5t33.5 32t31.5 52.5 l43 -23q-34 -62 -70.5 -95.5t-88.5 -33.5q-40 0 -82 23.5t-81 47t-73 23.5q-10 0 -20 -2.5t-17 -5t-15.5 -10t-13 -11.5t-13 -15.5t-12 -16.5t-13.5 -19.5t-13 -19.5z" />
<glyph unicode="&#xf6;" horiz-adv-x="989" d="M86 373q0 82 17 165t55 163t91.5 141.5t134 99t175.5 37.5q112 0 188.5 -52t110 -135.5t33.5 -191.5q0 -114 -31 -223t-88.5 -198.5t-150 -144t-205.5 -54.5q-83 0 -147.5 33t-103.5 88.5t-59 124.5t-20 147zM150 369q0 -53 9 -100.5t30 -91t51.5 -75.5t76.5 -50.5 t103 -18.5q125 0 219.5 81.5t141 207.5t46.5 272q0 68 -14 124.5t-44.5 104.5t-86 75.5t-131.5 27.5q-79 0 -146.5 -34t-113.5 -90.5t-78.5 -129.5t-47.5 -150t-15 -153zM399 1225q0 33 21.5 54t54.5 21q29 0 47.5 -17.5t18.5 -45.5q0 -32 -21 -55t-55 -23q-28 0 -47 18.5 t-19 47.5zM739 1225q0 33 21.5 54t54.5 21q29 0 47.5 -17.5t18.5 -45.5q0 -32 -21 -55t-55 -23q-28 0 -47 18.5t-19 47.5z" />
<glyph unicode="&#xf7;" horiz-adv-x="1093" d="M164 635v53h848v-53h-848zM516 317q0 30 20 51t52 21q30 0 49.5 -21t19.5 -51q0 -28 -19.5 -48.5t-49.5 -20.5q-32 0 -52 20t-20 49zM516 1004q0 30 20 50.5t52 20.5q30 0 49.5 -20.5t19.5 -50.5q0 -29 -19.5 -49.5t-49.5 -20.5q-31 0 -51.5 20.5t-20.5 49.5z" />
<glyph unicode="&#xf8;" horiz-adv-x="989" d="M66 -172l139 227q-59 54 -89 138t-30 180q0 82 17 165t55 163t91.5 141.5t134 99t175.5 37.5q109 0 186 -49l125 200h60l-146 -233q107 -101 107 -297q0 -114 -31 -223t-88.5 -198.5t-150 -144t-205.5 -54.5q-95 0 -170 45l-123 -197h-57zM150 369q0 -170 88 -265 l477 775q-66 47 -164 47q-79 0 -146.5 -34t-113.5 -90.5t-78.5 -129.5t-47.5 -150t-15 -153zM274 72q61 -39 146 -39q125 0 219.5 81.5t141 207.5t46.5 272q0 164 -75 250z" />
<glyph unicode="&#xf9;" horiz-adv-x="1042" d="M117 217q0 41 6 78l117 663h63l-117 -661q-6 -37 -6 -76q0 -95 46.5 -140.5t129.5 -45.5q110 0 207 80t162.5 213t95.5 299l60 331h63l-168 -958h-61l61 358q-144 -378 -434 -378q-103 0 -164 61t-61 176zM508 1415h70l90 -311h-52z" />
<glyph unicode="&#xfa;" horiz-adv-x="1042" d="M117 217q0 41 6 78l117 663h63l-117 -661q-6 -37 -6 -76q0 -95 46.5 -140.5t129.5 -45.5q110 0 207 80t162.5 213t95.5 299l60 331h63l-168 -958h-61l61 358q-144 -378 -434 -378q-103 0 -164 61t-61 176zM563 1104l195 311h80l-220 -311h-55z" />
<glyph unicode="&#xfb;" horiz-adv-x="1042" d="M117 217q0 41 6 78l117 663h63l-117 -661q-6 -37 -6 -76q0 -95 46.5 -140.5t129.5 -45.5q110 0 207 80t162.5 213t95.5 299l60 331h63l-168 -958h-61l61 358q-144 -378 -434 -378q-103 0 -164 61t-61 176zM393 1104l254 311h72l149 -311h-63l-125 270l-219 -270h-68z" />
<glyph unicode="&#xfc;" horiz-adv-x="1042" d="M117 217q0 41 6 78l117 663h63l-117 -661q-6 -37 -6 -76q0 -95 46.5 -140.5t129.5 -45.5q110 0 207 80t162.5 213t95.5 299l60 331h63l-168 -958h-61l61 358q-144 -378 -434 -378q-103 0 -164 61t-61 176zM406 1225q0 33 21 54t54 21q29 0 47.5 -17.5t18.5 -45.5 q0 -32 -21 -55t-55 -23q-28 0 -46.5 18.5t-18.5 47.5zM745 1225q0 33 21.5 54t54.5 21q29 0 47.5 -17.5t18.5 -45.5q0 -32 -21 -55t-55 -23q-28 0 -47 18.5t-19 47.5z" />
<glyph unicode="&#xfd;" horiz-adv-x="798" d="M88 -365l193 365l-177 958h64l154 -888l462 888h68l-707 -1323h-57zM438 1104l195 311h80l-219 -311h-56z" />
<glyph unicode="&#xfe;" horiz-adv-x="1056" d="M18 -365l306 1729h63l-135 -766q27 60 54 107.5t67.5 101t84 89.5t103 59.5t125.5 23.5q132 0 203.5 -97.5t71.5 -258.5q0 -73 -12.5 -146.5t-37.5 -146.5t-66 -135.5t-95 -111t-128 -76t-161 -27.5q-88 0 -170.5 32.5t-128.5 73.5l-80 -451h-64zM172 145 q143 -112 297 -112q107 0 191.5 52.5t134.5 138.5t76 188t26 209q0 139 -56 222t-165 83q-70 0 -138 -41t-122 -107.5t-99 -149.5t-74.5 -168t-43.5 -163z" />
<glyph unicode="&#xff;" horiz-adv-x="798" d="M88 -365l193 365l-177 958h64l154 -888l462 888h68l-707 -1323h-57zM281 1225q0 33 21 54t54 21q29 0 47.5 -17.5t18.5 -45.5q0 -32 -21 -55t-55 -23q-28 0 -46.5 18.5t-18.5 47.5zM621 1225q0 33 21 54t54 21q29 0 47.5 -17.5t18.5 -45.5q0 -32 -21 -55t-55 -23 q-28 0 -46.5 18.5t-18.5 47.5z" />
<glyph unicode="&#x152;" horiz-adv-x="1982" d="M119 596q0 177 49.5 321.5t146 250t247.5 163.5t345 58q164 0 318 -25h809l-11 -55h-743l-100 -570h692l-10 -57h-693l-110 -627h743l-8 -55h-809q-102 -25 -219 -25q-159 0 -284 48.5t-203.5 133.5t-119 196.5t-40.5 242.5zM186 602q0 -266 151.5 -418.5t438.5 -152.5 q112 0 217 24l221 1254q-164 24 -317 24q-172 0 -307.5 -53.5t-223.5 -150.5t-134 -230.5t-46 -296.5z" />
<glyph unicode="&#x153;" horiz-adv-x="1603" d="M86 373q0 82 17 165t55 163t91.5 141.5t134 99t175.5 37.5q145 0 225.5 -81.5t100.5 -217.5q63 135 174 217t264 82q108 0 178 -52.5t70 -144.5q0 -56 -24.5 -103.5t-65 -81.5t-98 -60.5t-118 -42.5t-131 -27t-132.5 -15.5t-125 -5.5q-7 -61 -7 -100q0 -146 72.5 -230.5 t228.5 -84.5q135 0 250 59l15 -47q-45 -27 -122 -45t-151 -18q-151 0 -237 76t-109 206q-60 -129 -162.5 -205.5t-238.5 -76.5q-83 0 -147.5 33t-103.5 88.5t-59 124.5t-20 147zM150 369q0 -53 9 -100.5t30 -91t51.5 -75.5t76.5 -50.5t103 -18.5q125 0 219.5 81.5t141 207.5 t46.5 272q0 68 -14 124.5t-44.5 104.5t-86 75.5t-131.5 27.5q-79 0 -146.5 -34t-113.5 -90.5t-78.5 -129.5t-47.5 -150t-15 -153zM885 500q114 1 215.5 14.5t198 43t153.5 86.5t57 136q0 69 -54 108.5t-134 39.5q-89 0 -165 -35.5t-129 -96t-89 -135.5t-53 -161z" />
<glyph unicode="&#x178;" horiz-adv-x="1058" d="M197 1364h65l287 -737l538 737h76l-590 -793l-100 -571h-65l100 571zM463 1622q0 33 21.5 54.5t54.5 21.5q29 0 47 -18t18 -46q0 -32 -21 -55t-55 -23q-28 0 -46.5 18.5t-18.5 47.5zM842 1622q0 33 21.5 54.5t54.5 21.5q29 0 47 -18t18 -46q0 -32 -21 -55t-55 -23 q-28 0 -46.5 18.5t-18.5 47.5z" />
<glyph unicode="&#x2c6;" horiz-adv-x="835" d="M285 1104l254 311h71l150 -311h-64l-125 270l-219 -270h-67z" />
<glyph unicode="&#x2dc;" horiz-adv-x="899" d="M301 1180q37 68 73 98.5t95 30.5q39 0 81 -23.5t79.5 -47.5t66.5 -24q21 0 38 7t32 24.5t23 30t24 39.5l43 -23q-34 -62 -70.5 -95.5t-89.5 -33.5q-40 0 -82 23.5t-80.5 47t-72.5 23.5q-10 0 -20 -2.5t-17 -5t-15.5 -10t-13 -11.5t-13 -15.5t-12 -16.5t-13.5 -19.5 t-13 -19.5z" />
<glyph unicode="&#x2000;" horiz-adv-x="886" />
<glyph unicode="&#x2001;" horiz-adv-x="1772" />
<glyph unicode="&#x2002;" horiz-adv-x="886" />
<glyph unicode="&#x2003;" horiz-adv-x="1772" />
<glyph unicode="&#x2004;" horiz-adv-x="590" />
<glyph unicode="&#x2005;" horiz-adv-x="443" />
<glyph unicode="&#x2006;" horiz-adv-x="295" />
<glyph unicode="&#x2007;" horiz-adv-x="295" />
<glyph unicode="&#x2008;" horiz-adv-x="221" />
<glyph unicode="&#x2009;" horiz-adv-x="354" />
<glyph unicode="&#x200a;" horiz-adv-x="98" />
<glyph unicode="&#x2010;" horiz-adv-x="733" d="M152 569l8 54h454l-8 -54h-454z" />
<glyph unicode="&#x2011;" horiz-adv-x="733" d="M152 569l8 54h454l-8 -54h-454z" />
<glyph unicode="&#x2012;" horiz-adv-x="733" d="M152 569l8 54h454l-8 -54h-454z" />
<glyph unicode="&#x2013;" horiz-adv-x="1114" d="M152 569l8 54h835l-8 -54h-835z" />
<glyph unicode="&#x2014;" horiz-adv-x="1538" d="M152 569l8 54h1259l-8 -54h-1259z" />
<glyph unicode="&#x2018;" horiz-adv-x="356" d="M152 913l239 451h47l-215 -451h-71z" />
<glyph unicode="&#x2019;" horiz-adv-x="356" d="M141 913l215 451h72l-240 -451h-47z" />
<glyph unicode="&#x201a;" horiz-adv-x="401" d="M-78 -289l215 451h72l-240 -451h-47z" />
<glyph unicode="&#x201c;" horiz-adv-x="727" d="M152 913l239 451h47l-215 -451h-71zM520 913l240 451h47l-215 -451h-72z" />
<glyph unicode="&#x201d;" horiz-adv-x="727" d="M141 913l215 451h72l-240 -451h-47zM512 913l215 451h72l-240 -451h-47z" />
<glyph unicode="&#x201e;" horiz-adv-x="772" d="M-78 -289l215 451h72l-240 -451h-47zM293 -289l215 451h72l-240 -451h-47z" />
<glyph unicode="&#x2022;" horiz-adv-x="696" d="M174 743q0 98 64 164t161 66t161.5 -66t64.5 -164t-64.5 -163.5t-161.5 -65.5t-161 65.5t-64 163.5z" />
<glyph unicode="&#x2026;" horiz-adv-x="1394" d="M80 51q0 36 23 59t59 23q30 0 47.5 -18t17.5 -45q0 -33 -22.5 -57.5t-61.5 -24.5q-28 0 -45.5 18.5t-17.5 44.5zM545 51q0 36 23 59t59 23q30 0 47.5 -18t17.5 -45q0 -33 -22.5 -57.5t-61.5 -24.5q-28 0 -45.5 18.5t-17.5 44.5zM1010 51q0 36 23 59t59 23q30 0 47.5 -18 t17.5 -45q0 -33 -22.5 -57.5t-61.5 -24.5q-28 0 -45.5 18.5t-17.5 44.5z" />
<glyph unicode="&#x202f;" horiz-adv-x="354" />
<glyph unicode="&#x2039;" horiz-adv-x="612" d="M76 487l422 414h75l-426 -420l279 -407h-68z" />
<glyph unicode="&#x203a;" horiz-adv-x="612" d="M31 74l426 420l-279 407h68l282 -414l-419 -413h-78z" />
<glyph unicode="&#x205f;" horiz-adv-x="443" />
<glyph unicode="&#x20ac;" horiz-adv-x="1179" d="M84 467l8 53h199q0 167 37 324h-178l10 53h180q24 83 57 153.5t82 133t109 106.5t140 69t173 25q177 0 326 -86l-21 -51q-86 42 -156 62t-155 20q-98 0 -179.5 -32.5t-141 -92t-101.5 -136t-70 -171.5h580l-10 -53h-584q-37 -151 -37 -324h563l-8 -53h-555 q9 -198 109.5 -315t281.5 -117q130 0 265 53l12 -51q-45 -24 -126 -40.5t-155 -16.5q-206 0 -322.5 133t-125.5 354h-207z" />
<glyph unicode="&#x2122;" horiz-adv-x="1374" d="M184 1317v47h447v-47h-197v-576h-53v576h-197zM762 741v623h59l221 -465l222 465h59v-623h-49v543l-203 -430h-57l-203 430v-543h-49z" />
<glyph unicode="&#xe000;" horiz-adv-x="962" d="M0 0v963h963v-963h-963z" />
</font>
</defs>
</svg>
