<?xml version="1.0" standalone="no"?>
<!DOCTYPE svg PUBLIC "-//W3C//DTD SVG 1.1//EN" "http://www.w3.org/Graphics/SVG/1.1/DTD/svg11.dtd" >
<svg xmlns="http://www.w3.org/2000/svg">
<metadata></metadata>
<defs>
<font id="knowledgeregular_italic" horiz-adv-x="1253" >
<font-face units-per-em="2048" ascent="1587" descent="-461" />
<missing-glyph horiz-adv-x="450" />
<glyph unicode="&#xfb01;" horiz-adv-x="1046" d="M92 0l148 842h-129l24 137h131l21 127q23 145 93.5 211.5t199.5 66.5q91 0 157 -32l-32 -123q-58 20 -107 20q-72 0 -99.5 -35.5t-41.5 -113.5l-21 -121h197l-25 -137h-196l-148 -842h-172zM635 0l172 979h170l-170 -979h-172zM817 1214q0 57 34.5 91t94.5 34 q48 0 77.5 -27t29.5 -71q0 -58 -35 -94.5t-94 -36.5q-47 0 -77 29.5t-30 74.5z" />
<glyph unicode="&#xfb02;" horiz-adv-x="1042" d="M92 0l148 842h-129l24 137h131l21 127q23 145 93.5 211.5t199.5 66.5q85 0 157 -30l-32 -123q-52 18 -107 18q-72 0 -99.5 -35.5t-41.5 -113.5l-21 -121h197l-25 -137h-196l-148 -842h-172zM631 0l239 1364h172l-241 -1364h-170z" />
<glyph horiz-adv-x="2048" />
<glyph horiz-adv-x="2048" />
<glyph unicode="&#xd;" horiz-adv-x="2048" />
<glyph unicode=" "  horiz-adv-x="450" />
<glyph unicode="&#x09;" horiz-adv-x="450" />
<glyph unicode="&#xa0;" horiz-adv-x="450" />
<glyph unicode="!" horiz-adv-x="497" d="M59 90q0 59 36.5 95t97.5 36q49 0 77.5 -28t28.5 -72q0 -57 -38 -96t-99 -39q-43 0 -73 29.5t-30 74.5zM172 362l45 488l90 514h180l-90 -516l-129 -486h-96z" />
<glyph unicode="&#x22;" horiz-adv-x="815" d="M203 1145v219h168v-219l-19 -316h-131zM608 1145v219h168v-219l-18 -316h-131z" />
<glyph unicode="#" horiz-adv-x="1296" d="M68 414l47 116h207l129 334h-209l45 121h211l147 379h139l-151 -379h346l151 379h136l-152 -379h197l-43 -121h-199l-129 -334h201l-49 -116h-199l-160 -414h-137l162 414h-344l-162 -414h-139l159 414h-204zM459 530h346l131 334h-346z" />
<glyph unicode="$" horiz-adv-x="1028" d="M37 100l53 131q188 -96 365 -96q135 0 211.5 56.5t76.5 164.5q0 37 -11.5 69t-28 55.5t-50.5 50t-64 45.5t-83 49q-65 36 -105.5 61.5t-85.5 62t-69.5 71.5t-41 82.5t-16.5 103.5q0 167 108.5 259t301.5 101l41 240h168l-43 -246q160 -21 270 -90l-53 -133 q-170 94 -342 94q-142 0 -211.5 -49t-69.5 -164q0 -24 7 -46t15 -39t28.5 -36.5t33.5 -31.5t44.5 -31.5t48 -29.5t55.5 -32q46 -27 71 -42t65 -41.5t62 -46.5t49.5 -50t41.5 -58.5t24 -65.5t10 -77q0 -165 -109 -270.5t-290 -120.5l-43 -242h-168l43 244q-154 22 -309 98z " />
<glyph unicode="%" horiz-adv-x="1638" d="M166 952q0 86 24 163t70 137.5t118.5 96t162.5 35.5q129 0 199.5 -77.5t70.5 -196.5q0 -114 -41.5 -215.5t-128 -169.5t-201.5 -68q-126 0 -200 83.5t-74 211.5zM303 956q0 -84 34.5 -136t113.5 -52q72 0 124.5 52t75.5 125.5t23 154.5q0 77 -35 126.5t-113 49.5 q-73 0 -125 -47.5t-75 -118t-23 -154.5zM334 0l893 1364h151l-895 -1364h-149zM907 274q0 116 41 212.5t128 158.5t206 62q129 0 199.5 -78t70.5 -197q0 -84 -24.5 -164t-70 -144.5t-117 -104t-158.5 -39.5q-126 0 -200.5 83t-74.5 211zM1044 279q0 -84 34.5 -136.5 t113.5 -52.5q72 0 124.5 52t75.5 125.5t23 154.5q0 77 -35 126.5t-112 49.5q-107 0 -165.5 -94t-58.5 -225z" />
<glyph unicode="&#x26;" horiz-adv-x="1273" d="M61 299q0 64 21.5 122.5t53 101.5t81.5 86.5t94 72.5t103 63q-54 81 -85.5 154t-31.5 152q0 154 107 243.5t284 89.5q122 0 199.5 -60.5t77.5 -162.5q0 -57 -22 -112t-54 -97.5t-82.5 -87t-91.5 -74t-97 -65.5l252 -367q137 171 211 379l133 -45q-106 -274 -266 -450 l168 -242h-184l-94 135q-192 -155 -414 -155q-158 0 -260.5 87t-102.5 232zM223 307q0 -94 60.5 -147.5t167.5 -53.5q157 0 311 138l-277 399q-57 -35 -95.5 -63t-81 -70.5t-64 -93t-21.5 -109.5zM455 1065q0 -62 26 -118.5t70 -121.5q53 32 92 61t81.5 69.5t65.5 87.5 t23 96q0 57 -37.5 91t-105.5 34q-98 0 -156.5 -52t-58.5 -147z" />
<glyph unicode="'" horiz-adv-x="409" d="M203 1145v219h168v-219l-19 -316h-131z" />
<glyph unicode="(" horiz-adv-x="589" d="M106 336q0 626 484 1196l115 -86q-98 -126 -170.5 -244.5t-133 -255.5t-91.5 -289t-31 -313q0 -294 127 -606l-144 -66q-156 349 -156 664z" />
<glyph unicode=")" horiz-adv-x="589" d="M-88 -244q139 184 229 345.5t145.5 356.5t55.5 402q0 281 -127 606l145 66q156 -336 156 -664q0 -319 -121 -607t-362 -589z" />
<glyph unicode="*" horiz-adv-x="823" d="M143 891l308 121l-279 131l90 123l221 -209l11 307h137l-101 -307l273 196l51 -120l-305 -121l266 -123l-90 -121l-209 199l-8 -305h-139l98 305l-270 -197z" />
<glyph unicode="+" horiz-adv-x="1124" d="M129 588v147h373v404h162v-404h372v-147h-372v-404h-162v404h-373z" />
<glyph unicode="," horiz-adv-x="495" d="M-84 -285l207 512h213l-283 -512h-137z" />
<glyph unicode="-" horiz-adv-x="733" d="M121 516l26 148h492l-27 -148h-491z" />
<glyph unicode="." horiz-adv-x="507" d="M61 90q0 59 37 95t97 36q49 0 77.5 -28t28.5 -72q0 -57 -37 -96t-98 -39q-45 0 -75 29.5t-30 74.5z" />
<glyph unicode="/" horiz-adv-x="892" d="M-39 -205l827 1589h173l-828 -1589h-172z" />
<glyph unicode="0" horiz-adv-x="1196" d="M98 487q0 125 22.5 248.5t72.5 241.5t122 207.5t178.5 144.5t233.5 55q109 0 192.5 -38t133.5 -105t75 -152.5t25 -187.5q0 -93 -16 -193.5t-47.5 -205t-84 -197.5t-120 -166t-161.5 -116t-202 -43q-134 0 -231.5 70t-145 183t-47.5 254zM270 483q0 -60 9 -112.5 t29 -99.5t50.5 -81t76 -53.5t102.5 -19.5q87 0 161.5 50.5t125.5 132t87 185t53 209t17 203.5q0 55 -8 103.5t-28 94t-50 78.5t-77.5 52.5t-108.5 19.5q-89 0 -164 -48.5t-124.5 -126.5t-84.5 -179t-50.5 -204t-15.5 -204z" />
<glyph unicode="1" horiz-adv-x="641" d="M141 1296l340 68h148l-240 -1364h-170l211 1206l-270 -51z" />
<glyph unicode="2" horiz-adv-x="1052" d="M-4 0l18 100q15 81 36 145t54.5 116t69 91.5t91.5 79t109 69.5t134 71q61 31 92 47t81 45t75.5 49t58.5 50t49 58t27.5 63.5t11.5 74.5q0 97 -69.5 141.5t-190.5 44.5q-160 0 -330 -80l-37 131q73 40 180 64t220 24q179 0 288 -81.5t109 -227.5q0 -55 -14.5 -105.5 t-36 -90t-60 -79.5t-72.5 -68.5t-88.5 -62.5t-93.5 -55t-100 -53q-69 -36 -106.5 -56.5t-88.5 -52.5t-79.5 -58.5t-59.5 -63t-49 -79t-30 -93.5l-5 -19h701l-23 -139h-872z" />
<glyph unicode="3" horiz-adv-x="1011" d="M-2 82l49 131q177 -96 373 -96q149 0 229 70.5t80 197.5q0 114 -85.5 178t-237.5 64h-168l24 139h191q158 0 263 78.5t105 210.5q0 93 -65 142.5t-183 49.5q-160 0 -315 -76l-37 127q159 86 379 86q183 0 288 -79.5t105 -217.5q0 -145 -87.5 -242.5t-239.5 -150.5 q233 -85 233 -301q0 -180 -127 -296.5t-344 -116.5q-224 0 -430 102z" />
<glyph unicode="4" horiz-adv-x="1112" d="M49 494l807 870h180l-153 -872h180l-25 -138h-180l-61 -354h-164l61 354h-628zM229 492h490l117 667z" />
<glyph unicode="5" horiz-adv-x="1099" d="M41 98l53 131q196 -112 381 -112q171 0 266 89t95 247q0 128 -76 196t-211 68q-123 0 -230 -68l-131 53l117 662h787l-25 -139h-618l-76 -428q78 59 233 59q178 0 289 -107.5t111 -279.5q0 -213 -141 -351t-388 -138q-106 0 -226.5 32.5t-209.5 85.5z" />
<glyph unicode="6" horiz-adv-x="1120" d="M102 471q0 95 11 186.5t36 183t62.5 171.5t93 149t124 118t159.5 77t196 28q215 0 363 -100l-60 -125q-151 88 -303 88q-114 0 -205 -44.5t-152 -126t-98.5 -186t-54.5 -233.5q50 90 147.5 142.5t219.5 52.5q181 0 288 -108t107 -275q0 -131 -57 -241.5t-168 -179 t-254 -68.5t-247 65t-156 175t-52 251zM272 399q0 -124 74.5 -207t214.5 -83q148 0 228.5 95.5t80.5 246.5q0 124 -70 195t-198 71q-153 0 -241.5 -85t-88.5 -233z" />
<glyph unicode="7" horiz-adv-x="927" d="M74 0l770 1225h-664l27 139h829l-24 -141l-758 -1223h-180z" />
<glyph unicode="8" horiz-adv-x="1136" d="M72 330q0 158 91 256.5t238 134.5q-79 42 -122 112t-43 154q0 188 127.5 292.5t343.5 104.5q167 0 270.5 -85t103.5 -220q0 -125 -75 -222t-199 -148q95 -37 152 -112t57 -177q0 -192 -143.5 -316t-372.5 -124q-110 0 -206 39.5t-159 121t-63 189.5zM242 346 q0 -109 75.5 -172t198.5 -63q147 0 239.5 82t92.5 221q0 99 -73 162t-195 63q-149 0 -243.5 -79t-94.5 -214zM395 983q0 -90 62.5 -152.5t167.5 -62.5q120 0 206.5 78.5t86.5 204.5q0 91 -64 146.5t-166 55.5q-130 0 -211.5 -70.5t-81.5 -199.5z" />
<glyph unicode="9" horiz-adv-x="1118" d="M27 80l59 127q153 -90 313 -90q114 0 200 42.5t143.5 124t93 184.5t57.5 239q-53 -91 -147 -143t-218 -52q-178 0 -285.5 108.5t-107.5 282.5q0 211 129 346t352 135q143 0 247 -65t156 -175t52 -251q0 -135 -22 -261.5t-73.5 -246.5t-128 -208.5t-193.5 -142.5t-261 -54 q-192 0 -366 100zM303 922q0 -133 70 -204t196 -71q143 0 237.5 87t94.5 231q0 121 -77.5 204.5t-209.5 83.5q-143 0 -227 -93t-84 -238z" />
<glyph unicode=":" horiz-adv-x="497" d="M57 90q0 59 36.5 95t96.5 36q49 0 78 -28t29 -72q0 -57 -37 -96t-98 -39q-45 0 -75 29.5t-30 74.5zM164 690q0 59 36 95t97 36q49 0 77.5 -28t28.5 -72q0 -57 -37 -96t-100 -39q-43 0 -72.5 30t-29.5 74z" />
<glyph unicode=";" horiz-adv-x="528" d="M-90 -285l207 512h213l-283 -512h-137zM186 686q0 61 38 98t100 37q51 0 80.5 -28.5t29.5 -73.5q0 -60 -38 -99.5t-101 -39.5q-46 0 -77.5 30.5t-31.5 75.5z" />
<glyph unicode="&#x3c;" horiz-adv-x="1114" d="M106 594v135l910 410v-160l-721 -317l721 -318v-160z" />
<glyph unicode="=" horiz-adv-x="1124" d="M143 367v147h910v-147h-910zM143 809v147h910v-147h-910z" />
<glyph unicode="&#x3e;" horiz-adv-x="1114" d="M139 184v160l721 318l-721 317v160l910 -410v-135z" />
<glyph unicode="?" horiz-adv-x="890" d="M174 90q0 59 36 95t97 36q49 0 78 -28t29 -72q0 -57 -37.5 -96t-100.5 -39q-43 0 -72.5 29.5t-29.5 74.5zM221 1311q156 73 340 73q168 0 260 -68t92 -200q0 -38 -8.5 -74.5t-19.5 -64t-34.5 -59.5t-39 -50.5t-49 -48t-49 -42t-54 -41.5t-49.5 -38q-53 -42 -77.5 -63.5 t-51.5 -54.5t-40.5 -69.5t-22.5 -90.5l-10 -62h-156l14 82q10 61 27 108.5t32.5 77.5t49.5 65t56 53t75 59q11 8 44 33t44.5 34t38 31t37 34.5t28 34.5t24.5 39.5t13 41t6 47.5q0 73 -53 110t-151 37q-147 0 -291 -65z" />
<glyph unicode="@" horiz-adv-x="1591" d="M113 532q0 177 57 324.5t159 249t245.5 157.5t312.5 56q150 0 274 -44.5t206.5 -122.5t127.5 -184t45 -229q0 -130 -43.5 -235.5t-128.5 -168.5t-197 -63q-108 0 -171 59t-60 146q-95 -205 -246 -205q-81 0 -123.5 61.5t-42.5 151.5q0 91 22.5 170t66 140.5t115 97 t163.5 35.5q121 0 221 -49l-55 -310q-6 -38 -6 -61q0 -135 129 -135q106 0 168.5 104t62.5 258q0 217 -148 348t-384 131q-133 0 -250.5 -48.5t-204.5 -135t-137.5 -214.5t-50.5 -279q0 -273 158 -430.5t440 -157.5q127 0 258 33t235 86l37 -99q-110 -58 -256 -92.5 t-287 -34.5q-167 0 -302.5 51.5t-224.5 143.5t-137 218.5t-48 276.5zM664 500q0 -117 73 -117t129 94.5t84 243.5l17 86q-30 12 -76 12q-111 0 -169 -90.5t-58 -228.5z" />
<glyph unicode="A" d="M-59 0l739 1364h194l259 -1364h-172l-62 360h-586l-186 -360h-186zM391 510h483l-116 709z" />
<glyph unicode="B" horiz-adv-x="1200" d="M68 0l239 1364h535q160 0 252 -80.5t92 -216.5t-86.5 -236.5t-233.5 -142.5q115 -28 179.5 -102.5t64.5 -179.5q0 -184 -137 -295t-348 -111h-557zM262 139h367q149 0 229 70.5t80 193.5q0 98 -66 156.5t-188 58.5h-338zM371 758h321q144 0 230 77.5t86 196.5 q0 91 -55.5 142t-161.5 51h-338z" />
<glyph unicode="C" horiz-adv-x="1181" d="M92 561q0 134 31 257t94 227t151.5 181t210.5 120t265 43q226 0 399 -89l-47 -143q-93 40 -173.5 59t-176.5 19q-141 0 -253 -55t-182 -149t-106.5 -213.5t-36.5 -254.5q0 -205 111.5 -320.5t320.5 -115.5q154 0 289 51l27 -143q-61 -27 -156.5 -43.5t-197.5 -16.5 q-263 0 -416.5 163.5t-153.5 422.5z" />
<glyph unicode="D" horiz-adv-x="1343" d="M68 0l239 1364h445q132 0 238.5 -43t175.5 -118.5t106 -178t37 -221.5q0 -160 -53 -305t-149.5 -256t-243.5 -176.5t-322 -65.5h-473zM268 152h285q139 0 250.5 51.5t183 141t109 206.5t37.5 250q0 189 -107.5 300t-294.5 111h-276z" />
<glyph unicode="E" horiz-adv-x="1112" d="M68 0l239 1364h864l-28 -152h-686l-76 -430h641l-27 -153h-641l-84 -477h686l-24 -152h-864z" />
<glyph unicode="F" horiz-adv-x="1058" d="M68 0l239 1364h854l-26 -152h-680l-82 -479h633l-29 -151h-631l-102 -582h-176z" />
<glyph unicode="G" horiz-adv-x="1302" d="M92 569q0 136 30.5 258t94 225t153.5 178t215.5 117t274.5 42q266 0 465 -105l-49 -141q-83 43 -193.5 69.5t-220.5 26.5q-144 0 -258 -52t-187 -143.5t-111 -212.5t-38 -262q0 -100 26.5 -180.5t80 -141t142 -93.5t206.5 -33q130 0 223 26l80 461h168l-100 -573 q-172 -60 -381 -60q-151 0 -270.5 45.5t-195.5 126t-115.5 188t-39.5 234.5z" />
<glyph unicode="H" horiz-adv-x="1351" d="M68 0l239 1364h176l-104 -588h680l104 588h176l-239 -1364h-176l108 618h-680l-108 -618h-176z" />
<glyph unicode="I" horiz-adv-x="514" d="M76 0l239 1364h179l-240 -1364h-178z" />
<glyph unicode="J" horiz-adv-x="763" d="M-41 31l37 137q96 -41 197 -41q99 0 146 51.5t67 163.5l178 1022h176l-178 -1022q-30 -171 -115.5 -266.5t-249.5 -95.5q-143 0 -258 51z" />
<glyph unicode="K" horiz-adv-x="1177" d="M68 0l239 1364h176l-110 -627l692 627h235l-755 -680l522 -684h-215l-492 664l-116 -664h-176z" />
<glyph unicode="L" horiz-adv-x="1021" d="M68 0l239 1364h176l-213 -1212h641l-24 -152h-819z" />
<glyph unicode="M" horiz-adv-x="1607" d="M68 0l239 1364h170l289 -1040l647 1040h182l-239 -1364h-168l180 1024l-539 -852h-178l-235 856l-183 -1028h-165z" />
<glyph unicode="N" horiz-adv-x="1394" d="M68 0l239 1364h172l541 -1102l192 1102h170l-239 -1364h-170l-541 1100l-194 -1100h-170z" />
<glyph unicode="O" horiz-adv-x="1370" d="M92 559q0 137 29 261t87.5 228t141 180t196 118.5t245.5 42.5q248 0 392 -154.5t144 -409.5q0 -123 -28 -244t-87 -230.5t-141 -193t-198.5 -133t-251.5 -49.5q-123 0 -224.5 47.5t-167.5 128.5t-101.5 186t-35.5 222zM268 565q0 -127 37.5 -224t122 -157.5t207.5 -60.5 q101 0 187.5 41t146 109.5t101.5 158t61.5 187t19.5 196.5q0 88 -22.5 163.5t-66.5 135t-117.5 93.5t-168.5 34q-126 0 -226 -58t-160 -155t-91 -215t-31 -248z" />
<glyph unicode="P" horiz-adv-x="1163" d="M68 0l239 1364h512q183 0 282 -95t99 -253q0 -210 -141 -340.5t-365 -130.5h-356l-94 -545h-176zM365 686h340q154 0 236.5 87t82.5 228q0 102 -60 161t-176 59h-331z" />
<glyph unicode="Q" horiz-adv-x="1374" d="M92 559q0 137 29 261t87.5 228t141 180t196 118.5t245.5 42.5q248 0 392 -154.5t144 -409.5q0 -214 -85 -412.5t-241 -314.5l117 -237l-141 -64l-111 226q-115 -48 -245 -48q-123 0 -224.5 47.5t-167.5 128.5t-101.5 186t-35.5 222zM268 565q0 -127 37.5 -224t122 -157.5 t207.5 -60.5q95 0 180 37l-90 184l129 55l78 -161q106 98 162.5 254t56.5 323q0 88 -22.5 163.5t-66.5 135t-117.5 93.5t-168.5 34q-126 0 -226 -58t-160 -155t-91 -215t-31 -248z" />
<glyph unicode="R" horiz-adv-x="1286" d="M68 0l239 1364h545q185 0 283 -94.5t98 -251.5q0 -171 -106 -291t-273 -156l274 -571h-204l-250 559h-334l-96 -559h-176zM367 700h362q147 0 237.5 82t90.5 219q0 99 -61 159.5t-177 60.5h-362z" />
<glyph unicode="S" horiz-adv-x="1110" d="M18 80l48 143q221 -102 428 -102q161 0 250.5 59.5t89.5 181.5q0 37 -13.5 68.5t-34.5 55t-61.5 48t-79 43t-102.5 46.5q-195 83 -280 165t-85 205q0 204 133 300t371 96t440 -97l-45 -141q-207 94 -397 94q-71 0 -126 -10.5t-101 -35.5t-70.5 -71t-24.5 -112 q0 -34 11.5 -61.5t29.5 -49t55.5 -44.5t75 -41.5t101.5 -47.5q73 -33 117 -54.5t101 -58t88.5 -71.5t54 -85t22.5 -108q0 -203 -141 -311.5t-375 -108.5q-237 0 -480 105z" />
<glyph unicode="T" horiz-adv-x="1056" d="M158 1212l26 152h983l-28 -152h-402l-213 -1212h-176l213 1212h-403z" />
<glyph unicode="U" horiz-adv-x="1353" d="M137 387q0 40 8 94l156 883h176l-158 -893q-6 -37 -6 -74q0 -129 79.5 -200.5t234.5 -71.5q164 0 263 93.5t128 256.5l156 889h176l-156 -885q-18 -104 -62.5 -193t-115 -159.5t-175.5 -111t-233 -40.5t-233 46t-171.5 141.5t-66.5 224.5z" />
<glyph unicode="V" horiz-adv-x="1146" d="M170 1364h174l170 -1171l571 1171h189l-690 -1364h-203z" />
<glyph unicode="W" horiz-adv-x="1714" d="M166 1364h176l72 -1090l493 1090h197l106 -1090l457 1090h182l-598 -1364h-166l-110 1176l-524 -1176h-164z" />
<glyph unicode="X" horiz-adv-x="1173" d="M-53 0l581 707l-313 657h180l246 -528l428 528h201l-555 -674l329 -690h-180l-264 559l-455 -559h-198z" />
<glyph unicode="Y" horiz-adv-x="1085" d="M168 1364h178l227 -666l449 666h197l-582 -817l-96 -547h-176l98 553z" />
<glyph unicode="Z" horiz-adv-x="1138" d="M14 0l27 154l920 1060h-709l27 150h903l-27 -154l-919 -1060h749l-24 -150h-947z" />
<glyph unicode="[" horiz-adv-x="604" d="M20 -307l322 1818h383l-27 -147h-213l-266 -1524h211l-27 -147h-383z" />
<glyph unicode="\" horiz-adv-x="892" d="M240 1384h161l267 -1589h-162z" />
<glyph unicode="]" horiz-adv-x="604" d="M-90 -307l24 147h211l269 1524h-209l26 147h381l-321 -1818h-381z" />
<glyph unicode="^" horiz-adv-x="974" d="M119 690l323 674h160l326 -674h-162l-244 529l-243 -529h-160z" />
<glyph unicode="_" horiz-adv-x="815" d="M-133 -250l14 90h819l-16 -90h-817z" />
<glyph unicode="`" horiz-adv-x="649" d="M322 1423h206l70 -311h-158z" />
<glyph unicode="a" horiz-adv-x="1050" d="M66 350q0 101 19 193.5t60.5 176.5t102.5 145.5t151.5 97.5t200.5 36q103 0 202.5 -25.5t172.5 -62.5l-160 -911h-168l51 299q-24 -59 -56.5 -111.5t-76 -101.5t-101.5 -77.5t-122 -28.5q-130 0 -203 105t-73 265zM236 350q0 -233 155 -233q67 0 132.5 59t113.5 149.5 t81.5 187t49.5 183.5l23 129q-84 37 -205 37q-90 0 -158.5 -39t-110 -109.5t-61.5 -162t-20 -201.5z" />
<glyph unicode="b" horiz-adv-x="1089" d="M57 0l240 1364h170l-115 -664q146 299 379 299q144 0 215.5 -97.5t71.5 -256.5q0 -86 -16 -174.5t-53 -177.5t-90 -158t-133.5 -112t-176.5 -43q-88 0 -167.5 41t-135.5 102l-23 -123h-166zM268 233q112 -116 254 -116q85 0 150.5 48t102.5 125.5t55 163.5t18 175 q0 104 -46 168.5t-136 64.5q-68 0 -132.5 -48t-113 -127t-83.5 -174t-52 -194z" />
<glyph unicode="c" horiz-adv-x="876" d="M63 373q0 124 33 235t96.5 199t165 140t228.5 52q181 0 313 -100l-63 -123q-64 41 -122 62.5t-128 21.5q-87 0 -156.5 -42t-111.5 -112.5t-63.5 -155.5t-21.5 -177q0 -129 56 -192.5t174 -63.5q124 0 231 47l31 -121q-120 -63 -281 -63q-182 0 -281.5 104.5t-99.5 288.5z " />
<glyph unicode="d" horiz-adv-x="1093" d="M63 356q0 93 17.5 182t57.5 173.5t98 147.5t145.5 101.5t193.5 38.5q146 0 269 -79l78 444h170l-240 -1364h-166l49 281q-145 -301 -381 -301q-141 0 -216 103t-75 273zM236 358q0 -110 42 -175.5t128 -65.5q70 0 137 51t116.5 130.5t85 170t50.5 176.5l24 139 q-116 78 -235 78q-72 0 -131 -30t-98.5 -79.5t-67 -115.5t-39.5 -136t-12 -143z" />
<glyph unicode="e" horiz-adv-x="899" d="M59 358q0 121 36 234.5t101.5 204.5t170 146.5t231.5 55.5t205 -62t78 -157q0 -55 -20 -102.5t-54 -82.5t-84 -64t-105.5 -49t-122.5 -35t-131.5 -23.5t-136.5 -13.5q-2 -20 -2 -58q0 -243 224 -243q69 0 142 20t128 51l37 -114q-57 -36 -148 -61t-180 -25 q-180 0 -274.5 104.5t-94.5 273.5zM250 539q93 4 172.5 18t148.5 39.5t108.5 69t39.5 100.5q0 53 -38.5 82t-100.5 29q-124 0 -208 -97t-122 -241z" />
<glyph unicode="f" horiz-adv-x="579" d="M92 0l148 842h-129l24 137h131l21 127q23 145 93.5 211.5t199.5 66.5q102 0 172 -34l-33 -123q-55 22 -115 22q-71 0 -102 -33t-45 -116l-21 -121h197l-25 -137h-196l-148 -842h-172z" />
<glyph unicode="g" horiz-adv-x="1097" d="M23 -293l43 123q75 -38 164 -61t163 -23q77 0 130.5 20t87.5 62.5t53.5 95.5t33.5 133l45 260q-28 -56 -64 -106t-83.5 -95.5t-109 -72.5t-128.5 -27q-130 0 -207 98.5t-77 254.5q0 135 34.5 248.5t102.5 200.5t178 136.5t252 49.5q102 0 204 -23t177 -59l-154 -871 q-37 -213 -146 -324.5t-316 -111.5q-191 0 -383 92zM244 375q0 -221 157 -221q72 0 143.5 51.5t123.5 130.5t88.5 168t50.5 170l27 157q-87 37 -209 37q-93 0 -167 -41.5t-120 -111t-70 -157t-24 -183.5z" />
<glyph unicode="h" horiz-adv-x="1087" d="M57 0l240 1364h170l-113 -651q131 286 383 286q117 0 181.5 -63.5t64.5 -177.5q0 -38 -8 -78l-119 -680h-172l115 651q6 36 6 58q0 71 -38.5 107t-107.5 36q-130 0 -228.5 -132.5t-137.5 -348.5l-66 -371h-170z" />
<glyph unicode="i" horiz-adv-x="468" d="M57 0l172 979h170l-170 -979h-172zM240 1214q0 57 34.5 91t94.5 34q47 0 76.5 -27t29.5 -71q0 -58 -35 -94.5t-94 -36.5q-47 0 -76.5 29.5t-29.5 74.5z" />
<glyph unicode="j" horiz-adv-x="468" d="M-211 -354l29 133q59 -19 102 -19q60 0 82 25t33 92l194 1102h170l-192 -1108q-23 -129 -81 -192.5t-171 -63.5q-79 0 -166 31zM240 1214q0 57 34.5 91t94.5 34q47 0 76.5 -27t29.5 -71q0 -58 -35 -94.5t-94 -36.5q-47 0 -76.5 29.5t-29.5 74.5z" />
<glyph unicode="k" horiz-adv-x="931" d="M57 0l240 1364h170l-145 -827l458 442h217l-522 -487l365 -492h-199l-332 469l-82 -469h-170z" />
<glyph unicode="l" horiz-adv-x="468" d="M57 0l240 1364h172l-242 -1364h-170z" />
<glyph unicode="m" horiz-adv-x="1675" d="M57 0l172 979h164l-45 -281q31 70 63 121t76 94t101.5 64.5t128.5 21.5q116 0 178.5 -63t62.5 -178q0 -27 -2 -41q113 282 369 282q117 0 181.5 -63.5t64.5 -177.5q0 -32 -8 -78l-119 -680h-172l114 651q7 28 7 58q0 71 -38.5 107t-107.5 36q-120 0 -214.5 -132.5 t-131.5 -346.5l-65 -373h-172l114 651q6 24 6 58q0 71 -38 107t-107 36q-120 0 -214.5 -133t-131.5 -348l-66 -371h-170z" />
<glyph unicode="n" horiz-adv-x="1087" d="M57 0l172 979h164l-45 -281q56 136 152.5 218.5t236.5 82.5q117 0 181.5 -63.5t64.5 -177.5q0 -32 -8 -78l-119 -680h-172l115 651q6 24 6 58q0 71 -38.5 107t-107.5 36q-130 0 -228.5 -132.5t-137.5 -348.5l-66 -371h-170z" />
<glyph unicode="o" horiz-adv-x="1030" d="M72 393q0 93 20 180.5t61.5 165t100.5 135.5t142.5 91.5t181.5 33.5q186 0 282 -112.5t96 -288.5q0 -91 -20.5 -179t-62.5 -167.5t-101 -140t-142 -96t-179 -35.5q-179 0 -279 117.5t-100 295.5zM244 391q0 -55 11 -101.5t34.5 -87t68 -64t105.5 -23.5q77 0 140 42.5 t101.5 112t59 152t20.5 168.5q0 55 -11 101t-35 86.5t-69 63.5t-108 23q-79 0 -141.5 -42.5t-99.5 -112.5t-56.5 -151.5t-19.5 -166.5z" />
<glyph unicode="p" horiz-adv-x="1093" d="M-6 -365l235 1344h168l-49 -281q137 301 381 301q144 0 216.5 -102.5t72.5 -271.5q0 -90 -17.5 -178.5t-57.5 -173.5t-97.5 -149.5t-145 -104t-192.5 -39.5q-151 0 -268 81l-76 -426h-170zM262 195q101 -78 240 -78q75 0 135 29t98.5 77.5t64.5 114t37 135t11 145.5 q0 111 -43 177.5t-131 66.5q-71 0 -137 -49t-114.5 -128t-83.5 -171t-52 -186z" />
<glyph unicode="q" horiz-adv-x="1085" d="M59 338q0 105 22 201t68 180t112.5 146t161 98t206.5 36q101 0 203 -23t178 -58l-226 -1283h-170l115 644q-27 -57 -63 -107t-83.5 -95t-108.5 -71t-128 -26q-133 0 -210 98.5t-77 259.5zM231 340q0 -100 37.5 -161.5t122.5 -61.5q73 0 143 54t122 137.5t89 179.5t52 186 l24 147q-98 41 -209 41q-94 0 -168.5 -43.5t-120 -118t-69 -166.5t-23.5 -194z" />
<glyph unicode="r" horiz-adv-x="647" d="M57 0l172 979h168l-53 -289q41 141 112 221t187 80q46 0 76 -12l-27 -158q-30 10 -74 10q-243 0 -329 -483l-62 -348h-170z" />
<glyph unicode="s" horiz-adv-x="835" d="M10 59l45 123q156 -76 318 -76q98 0 148 40t50 110q0 29 -11.5 52t-39 44.5t-51 35t-68.5 36.5q-62 31 -95 49.5t-75.5 48t-63 56t-35.5 64.5t-15 83q0 132 92.5 203t263.5 71q183 0 344 -84l-43 -120q-150 77 -289 77q-102 0 -151 -31.5t-49 -101.5q0 -14 2 -26.5 t9.5 -24.5t12.5 -20.5t19 -19t21 -16t27 -16.5t28.5 -15.5t34.5 -17.5l36 -18q34 -17 53.5 -27.5t51 -29t50.5 -34t42.5 -38t36 -44.5t21.5 -50t9 -59q0 -138 -102.5 -220.5t-271.5 -82.5q-177 0 -355 79z" />
<glyph unicode="t" horiz-adv-x="655" d="M102 834l27 145h137l45 254h170l-45 -254h234l-27 -145h-231l-105 -596q-4 -24 -4 -41q0 -82 90 -82q69 0 121 18l2 -123q-86 -28 -174 -28q-100 0 -156.5 52.5t-56.5 139.5q0 27 6 57l105 603h-138z" />
<glyph unicode="u" horiz-adv-x="1073" d="M92 223q0 33 8 80l119 676h170l-115 -651q-4 -36 -4 -60q0 -141 123 -141q82 0 161 70t134.5 183t79.5 243l63 356h173l-173 -979h-165l47 281q-27 -62 -62 -113.5t-81.5 -95t-108.5 -68t-133 -24.5q-109 0 -172.5 64.5t-63.5 178.5z" />
<glyph unicode="v" horiz-adv-x="872" d="M94 979h170l111 -815l383 815h186l-500 -979h-192z" />
<glyph unicode="w" horiz-adv-x="1392" d="M98 979h164l64 -774l360 774h182l88 -774l328 774h176l-450 -979h-170l-88 815l-377 -815h-170z" />
<glyph unicode="x" horiz-adv-x="907" d="M-55 0l417 508l-223 471h172l160 -346l279 346h182l-395 -479l239 -500h-172l-174 373l-303 -373h-182z" />
<glyph unicode="y" horiz-adv-x="856" d="M72 -365l184 361l-166 983h174l107 -803l379 803h182l-686 -1344h-174z" />
<glyph unicode="z" horiz-adv-x="894" d="M0 0l23 135l641 709h-488l25 135h684l-25 -135l-645 -709h533l-23 -135h-725z" />
<glyph unicode="{" horiz-adv-x="641" d="M27 530l24 144h33q89 0 135.5 41t61.5 127l71 413q23 133 93.5 194.5t195.5 61.5h131l-27 -147h-86q-63 0 -95 -30.5t-44 -100.5l-67 -381q-38 -222 -242 -252q74 -12 117 -59t43 -121q0 -40 -6 -70l-66 -375q-6 -36 -6 -47q0 -46 21.5 -67t76.5 -21h86l-26 -147h-125 q-209 0 -209 190q0 35 6 70l72 409q4 24 4 44q0 124 -140 124h-32z" />
<glyph unicode="|" horiz-adv-x="550" d="M221 -512v2048h150v-2048h-150z" />
<glyph unicode="}" horiz-adv-x="641" d="M-100 -307l26 147h84q71 0 101 31t41 100l67 389q22 119 75.5 173t166.5 71q-160 38 -160 184q0 32 6 68l66 375q4 24 4 47q0 44 -23.5 65t-72.5 21h-86l26 147h125q102 0 155.5 -48t53.5 -142q0 -30 -8 -70l-72 -407q-4 -24 -4 -45q0 -125 141 -125h33l-27 -144h-32 q-89 0 -134.5 -40.5t-60.5 -127.5l-74 -413q-23 -134 -92 -195t-194 -61h-131z" />
<glyph unicode="~" horiz-adv-x="1107" d="M113 557q47 139 102.5 199.5t163.5 60.5q46 0 107 -22.5t109.5 -49t98 -49t74.5 -22.5q18 0 34 7.5t26 15t21.5 27t16 29t15.5 35.5t14 33l145 -45q-18 -51 -31 -83.5t-34.5 -71.5t-45 -61t-58 -37t-76.5 -15q-56 0 -133 36t-149.5 71.5t-119.5 35.5q-18 0 -33 -4 t-27 -14t-20 -17.5t-17 -25.5t-12.5 -25.5t-12.5 -30t-11 -28.5z" />
<glyph unicode="&#xa1;" horiz-adv-x="497" d="M2 -365l90 517l125 466h96l-41 -468l-90 -515h-180zM188 868q0 54 37.5 91.5t98.5 37.5q49 0 76.5 -28t27.5 -70q0 -62 -36.5 -99.5t-96.5 -37.5q-49 0 -78 29.5t-29 76.5z" />
<glyph unicode="&#xa2;" horiz-adv-x="917" d="M106 596q0 102 29 195.5t84 169t141.5 125.5t194.5 63l43 233h168l-41 -237q117 -17 209 -74l-43 -125q-139 68 -266 68q-161 0 -253.5 -116.5t-92.5 -297.5q0 -126 60.5 -187t186.5 -61q113 0 224 51l30 -120q-100 -53 -219 -64l-41 -237h-168l41 241 q-135 27 -211 123.5t-76 249.5z" />
<glyph unicode="&#xa3;" horiz-adv-x="1069" d="M16 129q125 90 199 194t107 248h-203l24 140h203l53 278q40 206 143 300.5t285 94.5q185 0 314 -77l-49 -127q-141 65 -256 65q-120 0 -183 -62t-88 -200l-49 -272h363l-25 -140h-362q-65 -287 -271 -432h676l-25 -139h-837z" />
<glyph unicode="&#xa4;" horiz-adv-x="1177" d="M119 221l168 170q-97 118 -97 271q0 150 97 268l-168 172l104 100l180 -180q91 59 215 59q127 0 218 -59l180 180l104 -100l-170 -172q99 -116 99 -268q0 -155 -99 -271l170 -170l-104 -100l-180 178q-94 -57 -218 -57q-121 0 -215 57l-180 -178zM340 662q0 -127 76 -212 t202 -85q127 0 204 85t77 212q0 126 -77 211t-204 85q-126 0 -202 -85t-76 -211z" />
<glyph unicode="&#xa5;" horiz-adv-x="1044" d="M88 336l23 127h319l12 74l-41 153h-251l24 129h193l-144 545h174l156 -678l383 678h186l-334 -545h189l-23 -129h-245l-97 -160l-12 -67h313l-20 -127h-315l-60 -336h-170l60 336h-320z" />
<glyph unicode="&#xa6;" horiz-adv-x="550" d="M221 297h150v-809h-150v809zM221 727v809h150v-809h-150z" />
<glyph unicode="&#xa7;" horiz-adv-x="1060" d="M-8 -313l35 123q73 -31 169 -49.5t181 -18.5q138 0 214.5 50t76.5 149q0 21 -5.5 39.5t-12.5 32.5t-24.5 30t-28.5 25t-39 25t-42 23t-50.5 25.5t-53.5 26.5q-108 54 -170.5 99.5t-100 109t-37.5 145.5q0 115 70.5 199t179.5 131q-110 92 -110 221q0 83 33 144.5t92 97 t132.5 52.5t162.5 17q230 0 387 -77l-37 -125q-171 73 -344 73q-122 0 -190 -37.5t-68 -127.5q0 -27 5 -48t20 -41t28.5 -33t45 -32t53 -30t69.5 -35q7 -3 10 -5l54 -27t50.5 -27t51 -30t44.5 -31t42 -35.5t33 -38.5t27.5 -45t15 -49.5t6.5 -56.5q0 -108 -67 -200.5 t-175 -161.5q111 -89 111 -207q0 -162 -126.5 -252t-334.5 -90q-188 0 -383 72zM272 537q0 -78 47.5 -123.5t174.5 -112.5l124 -65q80 52 131.5 121t51.5 143q0 35 -13.5 65t-33.5 51.5t-57.5 45t-70 40t-87.5 42.5q-9 4 -13 6q-42 19 -73 36q-83 -50 -132 -108.5 t-49 -140.5z" />
<glyph unicode="&#xa8;" horiz-adv-x="888" d="M285 1243q0 52 34 86.5t89 34.5q40 0 68 -25.5t28 -66.5q0 -53 -34 -88t-89 -35q-43 0 -69.5 26.5t-26.5 67.5zM651 1243q0 52 34 86.5t89 34.5q40 0 68 -25.5t28 -66.5q0 -53 -33.5 -88t-88.5 -35q-43 0 -70 26.5t-27 67.5z" />
<glyph unicode="&#xa9;" horiz-adv-x="1574" d="M123 682q0 145 52 274.5t144 225t225.5 151.5t289.5 56t289.5 -56t225 -151.5t143.5 -225t52 -274.5q0 -193 -88 -354t-251.5 -257t-370.5 -96q-155 0 -289 56t-226 152t-144 225.5t-52 273.5zM201 682q0 -129 46 -245.5t127.5 -203t201 -137.5t258.5 -51q185 0 330.5 87 t223.5 232t78 318t-78 318t-223.5 232t-330.5 87q-139 0 -258.5 -51t-201 -137.5t-127.5 -203t-46 -245.5zM483 682q0 181 106 291t296 110q127 0 211 -43l-23 -98q-84 33 -176 33q-140 0 -212.5 -77.5t-72.5 -215.5t72.5 -215.5t212.5 -77.5q92 0 176 33l23 -98 q-84 -43 -211 -43q-190 0 -296 110t-106 291z" />
<glyph unicode="&#xaa;" horiz-adv-x="755" d="M113 496l18 104h559l-18 -104h-559zM172 940q0 93 22.5 172t66.5 140.5t118 96.5t170 35q129 0 242 -53l-107 -604h-121l37 203q-15 -36 -36.5 -71t-52.5 -69.5t-73 -55.5t-88 -21q-85 0 -131.5 67t-46.5 160zM297 948q0 -60 22.5 -96.5t69.5 -36.5q60 0 115.5 62.5 t88.5 144.5t48 164l14 80q-52 18 -110 18q-66 0 -115.5 -28.5t-77.5 -77t-41.5 -106.5t-13.5 -124z" />
<glyph unicode="&#xab;" horiz-adv-x="1155" d="M57 498l400 417h215l-414 -432l254 -405h-197zM535 498l399 417h215l-414 -432l254 -405h-196z" />
<glyph unicode="&#xac;" horiz-adv-x="1124" d="M129 588v147h907v-551h-162v404h-745z" />
<glyph unicode="&#xad;" horiz-adv-x="733" d="M121 516l26 148h492l-27 -148h-491z" />
<glyph unicode="&#xae;" horiz-adv-x="1079" d="M170 944q0 187 125.5 316t325.5 129t326 -129t126 -316q0 -186 -126.5 -316t-325.5 -130t-325 130t-126 316zM236 944q0 -165 107 -277t278 -112q173 0 280 112t107 277t-107 276t-280 111q-171 0 -278 -111t-107 -276zM475 733v447h166q71 0 113.5 -35t42.5 -96 q0 -47 -25.5 -83t-69.5 -51l142 -182h-107l-127 172h-49v-172h-86zM561 971h72q37 0 57.5 18.5t20.5 52.5q0 33 -20 50.5t-56 17.5h-74v-139z" />
<glyph unicode="&#xaf;" horiz-adv-x="845" d="M266 1169l23 134h542l-22 -134h-543z" />
<glyph unicode="&#xb0;" horiz-adv-x="671" d="M195 1133q0 106 68.5 178.5t185.5 72.5q119 0 187.5 -72.5t68.5 -178.5q0 -109 -68.5 -181.5t-187.5 -72.5q-118 0 -186 73t-68 181zM301 1133q0 -72 39 -118t109 -46q72 0 110.5 46t38.5 118q0 71 -38.5 116t-110.5 45q-70 0 -109 -45.5t-39 -115.5z" />
<glyph unicode="&#xb1;" horiz-adv-x="1124" d="M129 0v139h373v377h-373v146h373v403h162v-403h372v-146h-372v-377h372v-139h-907z" />
<glyph unicode="&#xb2;" horiz-adv-x="718" d="M145 799l13 69q10 54 28.5 97.5t39 72.5t57.5 57.5t65 45.5t80 45q15 8 46 23t46.5 23.5t40 23t37.5 27t27 29.5t20 36.5t6 42.5q0 45 -35.5 68.5t-95.5 23.5q-100 0 -196 -47l-25 96q44 24 110.5 39.5t129.5 15.5q112 0 177.5 -48.5t65.5 -135.5q0 -44 -15 -82.5 t-36.5 -66t-59 -55t-70 -45.5t-81.5 -42q-52 -26 -81.5 -42.5t-63.5 -42t-51.5 -56t-22.5 -68.5h379l-18 -104h-517z" />
<glyph unicode="&#xb3;" horiz-adv-x="696" d="M162 846l37 94q104 -51 204 -51q74 0 115 33.5t41 95.5q0 60 -41.5 90.5t-116.5 30.5h-106l20 106h105q86 0 140 36t54 105q0 45 -33.5 71t-95.5 26q-88 0 -174 -39l-24 94q100 49 223 49q109 0 173.5 -47.5t64.5 -130.5q0 -74 -47 -130t-136 -87q57 -21 91 -66t34 -108 q0 -97 -75 -163.5t-199 -66.5q-123 0 -254 58z" />
<glyph unicode="&#xb4;" horiz-adv-x="649" d="M252 1112l174 311h227l-229 -311h-172z" />
<glyph unicode="&#xb5;" horiz-adv-x="1128" d="M-12 -365l237 1344h170l-114 -655q-7 -40 -7 -56q0 -71 33.5 -107t106.5 -36q128 0 227 138t137 355l64 361h172l-125 -698q-8 -40 -8 -68q0 -107 102 -107h25l-21 -108q-23 -10 -72 -10q-98 0 -147 58t-49 147q0 19 6 57l8 47q-58 -142 -156.5 -229.5t-238.5 -87.5 q-100 0 -154 61q17 -47 17 -117q0 -42 -11 -110l-30 -179h-172z" />
<glyph unicode="&#xb6;" horiz-adv-x="1085" d="M121 784q0 273 156 426.5t425 153.5h383l-290 -1651h-138l271 1536h-242l-154 -870q-186 0 -298.5 108.5t-112.5 296.5z" />
<glyph unicode="&#xb7;" horiz-adv-x="507" d="M143 545q0 59 36.5 95t96.5 36q49 0 78 -28.5t29 -72.5q0 -57 -37 -96t-100 -39q-43 0 -73 30t-30 75z" />
<glyph unicode="&#xb8;" horiz-adv-x="620" d="M6 -385l2 86q180 5 180 74q0 17 -10.5 28.5t-33 18.5t-43 10.5t-54.5 7.5l57 160h89l-25 -96q170 -16 170 -117q0 -60 -49.5 -100t-120.5 -55.5t-162 -16.5z" />
<glyph unicode="&#xb9;" horiz-adv-x="471" d="M246 1538l207 39h110l-137 -774h-131l117 655l-162 -26z" />
<glyph unicode="&#xba;" horiz-adv-x="774" d="M115 496l18 104h537l-19 -104h-536zM184 977q0 173 92.5 290t253.5 117q120 0 184 -67.5t64 -177.5q0 -75 -22 -149t-64 -136.5t-110 -101.5t-152 -39q-114 0 -180 72.5t-66 191.5zM307 975q0 -71 33.5 -116.5t103.5 -45.5q67 0 117 52.5t72 123t22 141.5q0 68 -33.5 111 t-105.5 43q-69 0 -118 -46t-70 -114t-21 -149z" />
<glyph unicode="&#xbb;" horiz-adv-x="1155" d="M0 78l414 434l-254 403h196l258 -417l-399 -420h-215zM477 78l414 434l-254 403h194l261 -417l-400 -420h-215z" />
<glyph unicode="&#xbc;" horiz-adv-x="1536" d="M225 0l932 1364h143l-931 -1364h-144zM236 1325l206 39h111l-137 -774h-131l116 655l-161 -26zM807 293l446 483h138l-88 -483h100l-19 -103h-98l-33 -190h-125l33 190h-338zM928 293h252l57 340z" />
<glyph unicode="&#xbd;" horiz-adv-x="1607" d="M225 0l932 1364h143l-931 -1364h-144zM236 1325l206 39h111l-137 -774h-131l116 655l-161 -26zM893 0l12 70q8 46 21 82.5t33.5 66t39.5 50.5t52.5 44t57 36.5t67.5 37.5q15 8 46 23t46.5 23.5t40 23t37.5 27t27 29.5t20 36.5t6 42.5q0 45 -35.5 68.5t-95.5 23.5 q-101 0 -197 -47l-24 96q44 24 110 39.5t129 15.5q112 0 178 -48.5t66 -135.5q0 -44 -15 -82.5t-36.5 -66t-59 -55t-70 -45.5t-81.5 -42q-52 -26 -81.5 -42.5t-63.5 -42t-51.5 -56t-22.5 -68.5h378l-18 -104h-516z" />
<glyph unicode="&#xbe;" horiz-adv-x="1615" d="M117 633l37 94q104 -51 204 -51q74 0 115 33.5t41 95.5q0 60 -41.5 90.5t-116.5 30.5h-106l20 106h105q86 0 140 36.5t54 105.5q0 45 -33.5 70.5t-95.5 25.5q-88 0 -174 -39l-24 94q100 49 223 49q109 0 173 -47.5t64 -130.5q0 -74 -46.5 -130t-135.5 -87q57 -21 91 -66 t34 -108q0 -97 -75 -163.5t-199 -66.5q-123 0 -254 58zM305 0l932 1364h143l-931 -1364h-144zM887 293l446 483h137l-88 -483h101l-19 -103h-98l-33 -190h-125l33 190h-338zM1008 293h252l57 340z" />
<glyph unicode="&#xbf;" horiz-adv-x="897" d="M-14 -117q0 34 6.5 66.5t15 58.5t27 55t31 47.5t40.5 45t42 39.5t47.5 38.5t45.5 34t48 33.5q66 46 99 78.5t57 80t36 120.5l8 49h156l-12 -70q-14 -76 -32.5 -128.5t-50 -94t-65 -70.5t-92.5 -69q-48 -32 -73 -50.5t-61.5 -50.5t-54.5 -58t-32 -61.5t-14 -74.5 q0 -148 204 -148q145 0 291 66l19 -133q-154 -72 -334 -72q-168 0 -260 68t-92 200zM483 868q0 54 37.5 91.5t100.5 37.5q48 0 75 -28t27 -70q0 -62 -36 -99.5t-97 -37.5q-49 0 -78 29.5t-29 76.5z" />
<glyph unicode="&#xc0;" d="M-59 0l739 1364h194l259 -1364h-172l-62 360h-586l-186 -360h-186zM391 510h483l-116 709zM506 1765h223l121 -270h-160z" />
<glyph unicode="&#xc1;" d="M-59 0l739 1364h194l259 -1364h-172l-62 360h-586l-186 -360h-186zM391 510h483l-116 709zM717 1495l215 270h231l-276 -270h-170z" />
<glyph unicode="&#xc2;" d="M-59 0l739 1364h194l259 -1364h-172l-62 360h-586l-186 -360h-186zM391 510h483l-116 709zM479 1495l277 270h164l184 -270h-156l-119 178l-174 -178h-176z" />
<glyph unicode="&#xc3;" d="M-59 0l739 1364h194l259 -1364h-172l-62 360h-586l-186 -360h-186zM391 510h483l-116 709zM463 1556q35 84 83 130.5t126 46.5q48 0 106.5 -23.5t109 -46.5t79.5 -23q13 0 24.5 4.5t19 9.5t16 17.5t12.5 19t12.5 23.5l11.5 23l102 -47q-37 -90 -80.5 -134.5t-115.5 -44.5 q-55 0 -158 46.5t-139 46.5q-9 0 -17.5 -1.5t-16 -5.5t-13 -6.5t-12 -11t-10 -11.5t-10 -14.5t-8.5 -14t-9.5 -16.5t-8.5 -16z" />
<glyph unicode="&#xc4;" d="M-59 0l739 1364h194l259 -1364h-172l-62 360h-586l-186 -360h-186zM391 510h483l-116 709zM508 1614q0 47 32.5 79.5t86.5 32.5q42 0 68 -24.5t26 -61.5q0 -48 -33.5 -83t-85.5 -35q-38 0 -66 26t-28 66zM907 1614q0 48 31.5 80t85.5 32q42 0 68 -24.5t26 -61.5 q0 -48 -32.5 -83t-84.5 -35q-39 0 -66.5 26t-27.5 66z" />
<glyph unicode="&#xc5;" d="M-59 0l733 1350q-58 30 -58 106q0 88 57.5 140.5t155.5 52.5q75 0 118.5 -38.5t43.5 -99.5q0 -58 -30.5 -104t-81.5 -68l251 -1339h-169l-62 360h-586l-186 -360h-186zM391 510h483l-116 709zM705 1462q0 -36 21.5 -58t61.5 -22q52 0 83.5 33.5t31.5 83.5q0 36 -22 57 t-64 21q-52 0 -82 -31.5t-30 -83.5z" />
<glyph unicode="&#xc6;" horiz-adv-x="1697" d="M-59 0l735 1364h1079l-26 -152h-818l76 -430h623l-29 -153h-571l82 -477h450l-26 -152h-564l-61 362h-580l-188 -362h-182zM387 510h481l-118 704z" />
<glyph unicode="&#xc7;" horiz-adv-x="1181" d="M92 561q0 134 31 257t94 227t151.5 181t210.5 120t265 43q226 0 399 -89l-47 -143q-93 40 -173.5 59t-176.5 19q-141 0 -253 -55t-182 -149t-106.5 -213.5t-36.5 -254.5q0 -205 111.5 -320.5t320.5 -115.5q154 0 289 51l27 -143q-61 -27 -156.5 -43.5t-197.5 -16.5 l-21 -71q168 -16 168 -117q0 -60 -49.5 -100t-120.5 -55.5t-162 -16.5l2 86q180 5 180 74q0 17 -10.5 28.5t-33 18.5t-43 10.5t-54.5 7.5l49 142q-222 29 -348.5 187t-126.5 392z" />
<glyph unicode="&#xc8;" horiz-adv-x="1112" d="M68 0l239 1364h864l-28 -152h-686l-76 -430h641l-27 -153h-641l-84 -477h686l-24 -152h-864zM520 1765h223l121 -270h-159z" />
<glyph unicode="&#xc9;" horiz-adv-x="1112" d="M68 0l239 1364h864l-28 -152h-686l-76 -430h641l-27 -153h-641l-84 -477h686l-24 -152h-864zM635 1495l215 270h231l-276 -270h-170z" />
<glyph unicode="&#xca;" horiz-adv-x="1112" d="M68 0l239 1364h864l-28 -152h-686l-76 -430h641l-27 -153h-641l-84 -477h686l-24 -152h-864zM455 1495l276 270h164l184 -270h-155l-119 178l-174 -178h-176z" />
<glyph unicode="&#xcb;" horiz-adv-x="1112" d="M68 0l239 1364h864l-28 -152h-686l-76 -430h641l-27 -153h-641l-84 -477h686l-24 -152h-864zM489 1614q0 47 32.5 79.5t86.5 32.5q42 0 68 -24.5t26 -61.5q0 -48 -33 -83t-85 -35q-38 0 -66.5 26t-28.5 66zM889 1614q0 48 31.5 80t85.5 32q42 0 68 -24.5t26 -61.5 q0 -48 -32.5 -83t-84.5 -35q-39 0 -66.5 26t-27.5 66z" />
<glyph unicode="&#xcc;" horiz-adv-x="514" d="M76 0l239 1364h179l-240 -1364h-178zM158 1765h223l121 -270h-160z" />
<glyph unicode="&#xcd;" horiz-adv-x="514" d="M76 0l239 1364h179l-240 -1364h-178zM340 1495l215 270h231l-276 -270h-170z" />
<glyph unicode="&#xce;" horiz-adv-x="514" d="M76 0l239 1364h179l-240 -1364h-178zM109 1495l276 270h164l184 -270h-155l-119 178l-174 -178h-176z" />
<glyph unicode="&#xcf;" horiz-adv-x="514" d="M76 0l239 1364h179l-240 -1364h-178zM145 1614q0 47 32.5 79.5t86.5 32.5q42 0 68 -24.5t26 -61.5q0 -48 -33 -83t-85 -35q-38 0 -66.5 26t-28.5 66zM545 1614q0 48 31.5 80t85.5 32q42 0 68 -24.5t26 -61.5q0 -48 -32.5 -83t-84.5 -35q-39 0 -66.5 26t-27.5 66z" />
<glyph unicode="&#xd0;" horiz-adv-x="1386" d="M74 608l26 150h136l106 606h444q132 0 238.5 -43t175.5 -118.5t106 -178t37 -221.5q0 -160 -53 -305t-149.5 -256t-243.5 -176.5t-322 -65.5h-473l107 608h-135zM303 152h285q139 0 250.5 51.5t182.5 141t108.5 206t37.5 250.5q0 189 -107.5 300t-293.5 111h-277 l-79 -454h395l-27 -150h-395z" />
<glyph unicode="&#xd1;" horiz-adv-x="1394" d="M68 0l239 1364h172l541 -1102l192 1102h170l-239 -1364h-170l-541 1100l-194 -1100h-170zM520 1556q35 84 83 130.5t126 46.5q48 0 106.5 -23.5t109 -46.5t79.5 -23q13 0 24.5 4.5t19 9.5t16 17.5t12.5 19t12.5 23.5l11.5 23l103 -47q-37 -90 -81 -134.5t-116 -44.5 q-55 0 -158 46.5t-139 46.5q-10 0 -19.5 -2.5t-16.5 -5t-15 -10.5t-12 -11.5t-11.5 -15.5t-9.5 -15.5t-10 -18.5t-10 -18z" />
<glyph unicode="&#xd2;" horiz-adv-x="1370" d="M92 559q0 137 29 261t87.5 228t141 180t196 118.5t245.5 42.5q248 0 392 -154.5t144 -409.5q0 -123 -28 -244t-87 -230.5t-141 -193t-198.5 -133t-251.5 -49.5q-123 0 -224.5 47.5t-167.5 128.5t-101.5 186t-35.5 222zM268 565q0 -127 37.5 -224t122 -157.5t207.5 -60.5 q101 0 187.5 41t146 109.5t101.5 158t61.5 187t19.5 196.5q0 88 -22.5 163.5t-66.5 135t-117.5 93.5t-168.5 34q-126 0 -226 -58t-160 -155t-91 -215t-31 -248zM563 1765h223l121 -270h-159z" />
<glyph unicode="&#xd3;" horiz-adv-x="1370" d="M92 559q0 137 29 261t87.5 228t141 180t196 118.5t245.5 42.5q248 0 392 -154.5t144 -409.5q0 -123 -28 -244t-87 -230.5t-141 -193t-198.5 -133t-251.5 -49.5q-123 0 -224.5 47.5t-167.5 128.5t-101.5 186t-35.5 222zM268 565q0 -127 37.5 -224t122 -157.5t207.5 -60.5 q101 0 187.5 41t146 109.5t101.5 158t61.5 187t19.5 196.5q0 88 -22.5 163.5t-66.5 135t-117.5 93.5t-168.5 34q-126 0 -226 -58t-160 -155t-91 -215t-31 -248zM743 1495l215 270h232l-277 -270h-170z" />
<glyph unicode="&#xd4;" horiz-adv-x="1370" d="M92 559q0 137 29 261t87.5 228t141 180t196 118.5t245.5 42.5q248 0 392 -154.5t144 -409.5q0 -123 -28 -244t-87 -230.5t-141 -193t-198.5 -133t-251.5 -49.5q-123 0 -224.5 47.5t-167.5 128.5t-101.5 186t-35.5 222zM268 565q0 -127 37.5 -224t122 -157.5t207.5 -60.5 q101 0 187.5 41t146 109.5t101.5 158t61.5 187t19.5 196.5q0 88 -22.5 163.5t-66.5 135t-117.5 93.5t-168.5 34q-126 0 -226 -58t-160 -155t-91 -215t-31 -248zM532 1495l277 270h164l184 -270h-156l-118 178l-174 -178h-177z" />
<glyph unicode="&#xd5;" horiz-adv-x="1370" d="M92 559q0 137 29 261t87.5 228t141 180t196 118.5t245.5 42.5q248 0 392 -154.5t144 -409.5q0 -123 -28 -244t-87 -230.5t-141 -193t-198.5 -133t-251.5 -49.5q-123 0 -224.5 47.5t-167.5 128.5t-101.5 186t-35.5 222zM268 565q0 -127 37.5 -224t122 -157.5t207.5 -60.5 q101 0 187.5 41t146 109.5t101.5 158t61.5 187t19.5 196.5q0 88 -22.5 163.5t-66.5 135t-117.5 93.5t-168.5 34q-126 0 -226 -58t-160 -155t-91 -215t-31 -248zM506 1556q35 84 83 130.5t126 46.5q48 0 106.5 -23.5t109 -46.5t79.5 -23q13 0 24.5 4.5t19 9.5t16 17.5 t12.5 19t12.5 23.5l11.5 23l102 -47q-37 -90 -80.5 -134.5t-115.5 -44.5q-55 0 -158 46.5t-139 46.5q-9 0 -17.5 -1.5t-16 -5.5t-13 -6.5t-12 -11t-10 -11.5t-10 -14.5t-8.5 -14t-9.5 -16.5t-8.5 -16z" />
<glyph unicode="&#xd6;" horiz-adv-x="1370" d="M92 559q0 137 29 261t87.5 228t141 180t196 118.5t245.5 42.5q248 0 392 -154.5t144 -409.5q0 -123 -28 -244t-87 -230.5t-141 -193t-198.5 -133t-251.5 -49.5q-123 0 -224.5 47.5t-167.5 128.5t-101.5 186t-35.5 222zM268 565q0 -127 37.5 -224t122 -157.5t207.5 -60.5 q101 0 187.5 41t146 109.5t101.5 158t61.5 187t19.5 196.5q0 88 -22.5 163.5t-66.5 135t-117.5 93.5t-168.5 34q-126 0 -226 -58t-160 -155t-91 -215t-31 -248zM567 1614q0 47 32.5 79.5t86.5 32.5q42 0 68 -24.5t26 -61.5q0 -48 -33 -83t-85 -35q-38 0 -66.5 26t-28.5 66z M967 1614q0 48 31 80t85 32q42 0 68.5 -24.5t26.5 -61.5q0 -48 -32.5 -83t-84.5 -35q-39 0 -66.5 26t-27.5 66z" />
<glyph unicode="&#xd7;" horiz-adv-x="1118" d="M160 340l325 322l-325 323l106 107l324 -326l321 326l109 -109l-326 -321l326 -324l-107 -107l-323 326l-322 -326z" />
<glyph unicode="&#xd8;" horiz-adv-x="1370" d="M92 559q0 137 29 261t87.5 228t141 180t196 118.5t245.5 42.5q138 0 253 -56l119 203h125l-151 -260q92 -74 141 -189.5t49 -261.5q0 -123 -28 -244t-87 -230.5t-141 -193t-198.5 -133t-251.5 -49.5q-118 0 -218 43l-110 -190h-125l143 246q-106 78 -162.5 206.5 t-56.5 278.5zM268 565q0 -234 123 -354l574 985q-79 45 -189 45q-126 0 -226 -58t-160 -155t-91 -215t-31 -248zM481 152q72 -29 154 -29q101 0 187.5 41t146 109.5t101.5 158t61.5 187t19.5 196.5q0 196 -100 311z" />
<glyph unicode="&#xd9;" horiz-adv-x="1353" d="M137 387q0 40 8 94l156 883h176l-158 -893q-6 -37 -6 -74q0 -129 79.5 -200.5t234.5 -71.5q164 0 263 93.5t128 256.5l156 889h176l-156 -885q-18 -104 -62.5 -193t-115 -159.5t-175.5 -111t-233 -40.5t-233 46t-171.5 141.5t-66.5 224.5zM614 1765h224l120 -270h-159z " />
<glyph unicode="&#xda;" horiz-adv-x="1353" d="M137 387q0 40 8 94l156 883h176l-158 -893q-6 -37 -6 -74q0 -129 79.5 -200.5t234.5 -71.5q164 0 263 93.5t128 256.5l156 889h176l-156 -885q-18 -104 -62.5 -193t-115 -159.5t-175.5 -111t-233 -40.5t-233 46t-171.5 141.5t-66.5 224.5zM715 1495l215 270h231 l-276 -270h-170z" />
<glyph unicode="&#xdb;" horiz-adv-x="1353" d="M137 387q0 40 8 94l156 883h176l-158 -893q-6 -37 -6 -74q0 -129 79.5 -200.5t234.5 -71.5q164 0 263 93.5t128 256.5l156 889h176l-156 -885q-18 -104 -62.5 -193t-115 -159.5t-175.5 -111t-233 -40.5t-233 46t-171.5 141.5t-66.5 224.5zM543 1495l276 270h164l184 -270 h-155l-119 178l-174 -178h-176z" />
<glyph unicode="&#xdc;" horiz-adv-x="1353" d="M137 387q0 40 8 94l156 883h176l-158 -893q-6 -37 -6 -74q0 -129 79.5 -200.5t234.5 -71.5q164 0 263 93.5t128 256.5l156 889h176l-156 -885q-18 -104 -62.5 -193t-115 -159.5t-175.5 -111t-233 -40.5t-233 46t-171.5 141.5t-66.5 224.5zM571 1614q0 47 32.5 79.5 t86.5 32.5q42 0 68 -24.5t26 -61.5q0 -48 -33 -83t-85 -35q-38 0 -66.5 26t-28.5 66zM971 1614q0 48 31 80t85 32q42 0 68.5 -24.5t26.5 -61.5q0 -48 -32.5 -83t-84.5 -35q-39 0 -66.5 26t-27.5 66z" />
<glyph unicode="&#xdd;" horiz-adv-x="1085" d="M168 1364h178l227 -666l449 666h197l-582 -817l-96 -547h-176l98 553zM594 1495l215 270h231l-276 -270h-170z" />
<glyph unicode="&#xde;" horiz-adv-x="1173" d="M68 0l239 1364h176l-47 -262h338q185 0 283 -94.5t98 -253.5q0 -209 -141.5 -340t-364.5 -131h-356l-49 -283h-176zM319 426h338q148 0 235 87.5t87 225.5q0 102 -60 160.5t-176 58.5h-331z" />
<glyph unicode="&#xdf;" horiz-adv-x="1118" d="M51 0l160 901q43 243 173 363t355 120q127 0 213 -59.5t86 -167.5q0 -28 -5 -55t-18 -52.5t-23 -44t-31 -44t-31 -36.5t-35 -37t-31 -32q-8 -9 -31 -31.5t-37 -38.5t-31 -38.5t-25.5 -47t-8.5 -49.5q0 -20 6 -36t20.5 -30.5t26.5 -23.5t36 -25.5t36 -25.5 q44 -32 65.5 -49.5t53 -51.5t45.5 -73t14 -86q0 -119 -92 -194.5t-242 -75.5q-141 0 -278 53l35 121q112 -48 237 -48q176 0 176 136q0 32 -21 61.5t-44 47t-68 46.5q-85 52 -128.5 106.5t-43.5 135.5q0 29 8.5 59t18 50.5t30.5 48t31.5 39.5t36.5 39t31 32q10 11 42 43 t43.5 46t30.5 39.5t26 47.5t7 47q0 57 -46.5 89t-116.5 32q-266 0 -328 -356l-158 -895h-170z" />
<glyph unicode="&#xe0;" horiz-adv-x="1050" d="M66 350q0 101 19 193.5t60.5 176.5t102.5 145.5t151.5 97.5t200.5 36q103 0 202.5 -25.5t172.5 -62.5l-160 -911h-168l51 299q-24 -59 -56.5 -111.5t-76 -101.5t-101.5 -77.5t-122 -28.5q-130 0 -203 105t-73 265zM236 350q0 -233 155 -233q67 0 132.5 59t113.5 149.5 t81.5 187t49.5 183.5l23 129q-84 37 -205 37q-90 0 -158.5 -39t-110 -109.5t-61.5 -162t-20 -201.5zM453 1423h206l70 -311h-158z" />
<glyph unicode="&#xe1;" horiz-adv-x="1050" d="M66 350q0 101 19 193.5t60.5 176.5t102.5 145.5t151.5 97.5t200.5 36q103 0 202.5 -25.5t172.5 -62.5l-160 -911h-168l51 299q-24 -59 -56.5 -111.5t-76 -101.5t-101.5 -77.5t-122 -28.5q-130 0 -203 105t-73 265zM236 350q0 -233 155 -233q67 0 132.5 59t113.5 149.5 t81.5 187t49.5 183.5l23 129q-84 37 -205 37q-90 0 -158.5 -39t-110 -109.5t-61.5 -162t-20 -201.5zM555 1112l174 311h227l-229 -311h-172z" />
<glyph unicode="&#xe2;" horiz-adv-x="1050" d="M66 350q0 101 19 193.5t60.5 176.5t102.5 145.5t151.5 97.5t200.5 36q103 0 202.5 -25.5t172.5 -62.5l-160 -911h-168l51 299q-24 -59 -56.5 -111.5t-76 -101.5t-101.5 -77.5t-122 -28.5q-130 0 -203 105t-73 265zM236 350q0 -233 155 -233q67 0 132.5 59t113.5 149.5 t81.5 187t49.5 183.5l23 129q-84 37 -205 37q-90 0 -158.5 -39t-110 -109.5t-61.5 -162t-20 -201.5zM367 1112l262 311h170l153 -311h-153l-97 211l-170 -211h-165z" />
<glyph unicode="&#xe3;" horiz-adv-x="1050" d="M66 350q0 101 19 193.5t60.5 176.5t102.5 145.5t151.5 97.5t200.5 36q103 0 202.5 -25.5t172.5 -62.5l-160 -911h-168l51 299q-24 -59 -56.5 -111.5t-76 -101.5t-101.5 -77.5t-122 -28.5q-130 0 -203 105t-73 265zM236 350q0 -233 155 -233q67 0 132.5 59t113.5 149.5 t81.5 187t49.5 183.5l23 129q-84 37 -205 37q-90 0 -158.5 -39t-110 -109.5t-61.5 -162t-20 -201.5zM334 1194q40 88 87 130t124 42q40 0 93.5 -22.5t98.5 -45t66 -22.5q13 0 24.5 4.5t18.5 8.5t16.5 17t12.5 18t12.5 23.5t11.5 22.5l105 -51q-38 -88 -83 -131t-116 -43 q-41 0 -91.5 23t-97 46t-77.5 23q-10 0 -19 -3t-15.5 -5.5t-15 -11t-12.5 -12t-11.5 -15.5t-10 -15.5t-10.5 -17.5t-9 -16z" />
<glyph unicode="&#xe4;" horiz-adv-x="1050" d="M66 350q0 101 19 193.5t60.5 176.5t102.5 145.5t151.5 97.5t200.5 36q103 0 202.5 -25.5t172.5 -62.5l-160 -911h-168l51 299q-24 -59 -56.5 -111.5t-76 -101.5t-101.5 -77.5t-122 -28.5q-130 0 -203 105t-73 265zM236 350q0 -233 155 -233q67 0 132.5 59t113.5 149.5 t81.5 187t49.5 183.5l23 129q-84 37 -205 37q-90 0 -158.5 -39t-110 -109.5t-61.5 -162t-20 -201.5zM391 1243q0 52 34 86.5t89 34.5q40 0 68 -25.5t28 -66.5q0 -53 -34 -88t-89 -35q-43 0 -69.5 26.5t-26.5 67.5zM758 1243q0 52 34 86.5t89 34.5q40 0 68 -25.5t28 -66.5 q0 -53 -34 -88t-89 -35q-43 0 -69.5 26.5t-26.5 67.5z" />
<glyph unicode="&#xe5;" horiz-adv-x="1050" d="M66 350q0 101 19 193.5t60.5 176.5t102.5 145.5t151.5 97.5t200.5 36q103 0 202.5 -25.5t172.5 -62.5l-160 -911h-168l51 299q-24 -59 -56.5 -111.5t-76 -101.5t-101.5 -77.5t-122 -28.5q-130 0 -203 105t-73 265zM236 350q0 -233 155 -233q67 0 132.5 59t113.5 149.5 t81.5 187t49.5 183.5l23 129q-84 37 -205 37q-90 0 -158.5 -39t-110 -109.5t-61.5 -162t-20 -201.5zM494 1257q0 89 58.5 142t154.5 53q72 0 116.5 -38.5t44.5 -98.5q0 -87 -60.5 -145t-152.5 -58q-73 0 -117 40t-44 105zM580 1266q0 -36 22 -58t62 -22q53 0 85.5 33 t32.5 81q0 37 -23 57.5t-65 20.5q-53 0 -83.5 -31t-30.5 -81z" />
<glyph unicode="&#xe6;" horiz-adv-x="1525" d="M49 238q0 152 103.5 229.5t293.5 77.5h283l10 67q6 36 6 60q0 93 -60 140.5t-173 47.5q-146 0 -295 -65l-29 131q153 73 342 73q127 0 215 -50.5t119 -137.5q67 89 165 138.5t216 49.5q117 0 189.5 -57.5t72.5 -155.5q0 -79 -35.5 -140.5t-93 -101t-142.5 -66.5 t-172.5 -40t-193.5 -18q-2 -20 -2 -62q0 -118 56.5 -187t177.5 -69q113 0 241 64l37 -109q-134 -77 -307 -77q-117 0 -200.5 56.5t-118.5 141.5q-59 -91 -162.5 -144.5t-237.5 -53.5q-144 0 -224.5 68.5t-80.5 189.5zM205 244q0 -71 44 -110.5t134 -39.5q124 0 207.5 80.5 t107.5 204.5l9 41h-246q-128 0 -192 -40t-64 -136zM893 547q92 2 170 13.5t145 36t105.5 68t38.5 101.5q0 51 -36.5 78.5t-96.5 27.5q-117 0 -203 -91.5t-123 -233.5z" />
<glyph unicode="&#xe7;" horiz-adv-x="876" d="M63 373q0 124 33 235t96.5 199t165 140t228.5 52q181 0 313 -100l-63 -123q-64 41 -122 62.5t-128 21.5q-87 0 -156.5 -42t-111.5 -112.5t-63.5 -155.5t-21.5 -177q0 -129 56 -192.5t174 -63.5q124 0 231 47l31 -121q-120 -63 -279 -63l-20 -76q170 -16 170 -117 q0 -60 -49.5 -100t-120.5 -55.5t-162 -16.5l2 86q180 5 180 74q0 17 -11 28.5t-34.5 18.5t-44.5 10.5t-55 7.5l53 148q-140 23 -215.5 124.5t-75.5 260.5z" />
<glyph unicode="&#xe8;" horiz-adv-x="899" d="M59 358q0 121 36 234.5t101.5 204.5t170 146.5t231.5 55.5t205 -62t78 -157q0 -55 -20 -102.5t-54 -82.5t-84 -64t-105.5 -49t-122.5 -35t-131.5 -23.5t-136.5 -13.5q-2 -20 -2 -58q0 -243 224 -243q69 0 142 20t128 51l37 -114q-57 -36 -148 -61t-180 -25 q-180 0 -274.5 104.5t-94.5 273.5zM250 539q93 4 172.5 18t148.5 39.5t108.5 69t39.5 100.5q0 53 -38.5 82t-100.5 29q-124 0 -208 -97t-122 -241zM389 1423h207l70 -311h-158z" />
<glyph unicode="&#xe9;" horiz-adv-x="899" d="M59 358q0 121 36 234.5t101.5 204.5t170 146.5t231.5 55.5t205 -62t78 -157q0 -55 -20 -102.5t-54 -82.5t-84 -64t-105.5 -49t-122.5 -35t-131.5 -23.5t-136.5 -13.5q-2 -20 -2 -58q0 -243 224 -243q69 0 142 20t128 51l37 -114q-57 -36 -148 -61t-180 -25 q-180 0 -274.5 104.5t-94.5 273.5zM250 539q93 4 172.5 18t148.5 39.5t108.5 69t39.5 100.5q0 53 -38.5 82t-100.5 29q-124 0 -208 -97t-122 -241zM537 1112l174 311h227l-229 -311h-172z" />
<glyph unicode="&#xea;" horiz-adv-x="899" d="M59 358q0 121 36 234.5t101.5 204.5t170 146.5t231.5 55.5t205 -62t78 -157q0 -55 -20 -102.5t-54 -82.5t-84 -64t-105.5 -49t-122.5 -35t-131.5 -23.5t-136.5 -13.5q-2 -20 -2 -58q0 -243 224 -243q69 0 142 20t128 51l37 -114q-57 -36 -148 -61t-180 -25 q-180 0 -274.5 104.5t-94.5 273.5zM250 539q93 4 172.5 18t148.5 39.5t108.5 69t39.5 100.5q0 53 -38.5 82t-100.5 29q-124 0 -208 -97t-122 -241zM328 1112l262 311h170l153 -311h-153l-96 211l-170 -211h-166z" />
<glyph unicode="&#xeb;" horiz-adv-x="899" d="M59 358q0 121 36 234.5t101.5 204.5t170 146.5t231.5 55.5t205 -62t78 -157q0 -55 -20 -102.5t-54 -82.5t-84 -64t-105.5 -49t-122.5 -35t-131.5 -23.5t-136.5 -13.5q-2 -20 -2 -58q0 -243 224 -243q69 0 142 20t128 51l37 -114q-57 -36 -148 -61t-180 -25 q-180 0 -274.5 104.5t-94.5 273.5zM250 539q93 4 172.5 18t148.5 39.5t108.5 69t39.5 100.5q0 53 -38.5 82t-100.5 29q-124 0 -208 -97t-122 -241zM365 1243q0 52 33.5 86.5t88.5 34.5q40 0 68.5 -25.5t28.5 -66.5q0 -53 -34 -88t-89 -35q-43 0 -69.5 26.5t-26.5 67.5z M731 1243q0 52 34 86.5t89 34.5q40 0 68 -25.5t28 -66.5q0 -53 -34 -88t-89 -35q-43 0 -69.5 26.5t-26.5 67.5z" />
<glyph unicode="&#xec;" horiz-adv-x="468" d="M57 0l172 979h170l-172 -979h-170zM133 1423h207l70 -311h-158z" />
<glyph unicode="&#xed;" horiz-adv-x="468" d="M57 0l172 979h170l-172 -979h-170zM246 1112l174 311h227l-229 -311h-172z" />
<glyph unicode="&#xee;" horiz-adv-x="468" d="M45 1112l262 311h170l154 -311h-154l-96 211l-170 -211h-166zM57 0l172 979h170l-172 -979h-170z" />
<glyph unicode="&#xef;" horiz-adv-x="468" d="M57 0l172 979h170l-172 -979h-170zM70 1243q0 52 34 86.5t89 34.5q40 0 68 -25.5t28 -66.5q0 -53 -34 -88t-89 -35q-43 0 -69.5 26.5t-26.5 67.5zM436 1243q0 52 34 86.5t89 34.5q40 0 68 -25.5t28 -66.5q0 -53 -34 -88t-89 -35q-43 0 -69.5 26.5t-26.5 67.5z" />
<glyph unicode="&#xf0;" horiz-adv-x="1021" d="M55 387q0 104 30.5 196.5t87.5 164t145.5 113.5t197.5 42q104 0 183.5 -48.5t127.5 -131.5q-17 234 -153 364l-172 -114l-64 88l146 96q-93 57 -219 98l57 129q173 -52 291 -139l184 123l61 -90l-161 -109q166 -177 166 -458q0 -81 -13 -163t-38.5 -165t-69 -155 t-100 -128t-136 -88t-172.5 -32q-178 0 -278.5 116t-100.5 291zM221 383q0 -122 55.5 -198t169.5 -76q78 0 141.5 37.5t101.5 97.5t58.5 131t20.5 143q0 104 -66.5 179t-175.5 75q-147 0 -226 -110t-79 -279z" />
<glyph unicode="&#xf1;" horiz-adv-x="1087" d="M57 0l172 979h164l-45 -281q56 136 152.5 218.5t236.5 82.5q117 0 181.5 -63.5t64.5 -177.5q0 -32 -8 -78l-119 -680h-172l115 651q6 24 6 58q0 71 -38.5 107t-107.5 36q-130 0 -228.5 -132.5t-137.5 -348.5l-66 -371h-170zM334 1194q40 88 87 130t124 42 q40 0 93.5 -22.5t98.5 -45t66 -22.5q13 0 24.5 4.5t18.5 8.5t16.5 17t12.5 18t12.5 23.5t11.5 22.5l105 -51q-38 -88 -83 -131t-116 -43q-41 0 -91.5 23t-97 46t-77.5 23q-10 0 -19 -3t-15.5 -5.5t-15 -11t-12.5 -12t-11.5 -15.5t-10 -15.5t-10.5 -17.5t-9 -16z" />
<glyph unicode="&#xf2;" horiz-adv-x="1030" d="M72 393q0 93 20 180.5t61.5 165t100.5 135.5t142.5 91.5t181.5 33.5q186 0 282 -112.5t96 -288.5q0 -91 -20.5 -179t-62.5 -167.5t-101 -140t-142 -96t-179 -35.5q-179 0 -279 117.5t-100 295.5zM244 391q0 -55 11 -101.5t34.5 -87t68 -64t105.5 -23.5q77 0 140 42.5 t101.5 112t59 152t20.5 168.5q0 55 -11 101t-35 86.5t-69 63.5t-108 23q-79 0 -141.5 -42.5t-99.5 -112.5t-56.5 -151.5t-19.5 -166.5zM397 1423h207l70 -311h-158z" />
<glyph unicode="&#xf3;" horiz-adv-x="1030" d="M72 393q0 93 20 180.5t61.5 165t100.5 135.5t142.5 91.5t181.5 33.5q186 0 282 -112.5t96 -288.5q0 -91 -20.5 -179t-62.5 -167.5t-101 -140t-142 -96t-179 -35.5q-179 0 -279 117.5t-100 295.5zM244 391q0 -55 11 -101.5t34.5 -87t68 -64t105.5 -23.5q77 0 140 42.5 t101.5 112t59 152t20.5 168.5q0 55 -11 101t-35 86.5t-69 63.5t-108 23q-79 0 -141.5 -42.5t-99.5 -112.5t-56.5 -151.5t-19.5 -166.5zM524 1112l174 311h228l-230 -311h-172z" />
<glyph unicode="&#xf4;" horiz-adv-x="1030" d="M72 393q0 93 20 180.5t61.5 165t100.5 135.5t142.5 91.5t181.5 33.5q186 0 282 -112.5t96 -288.5q0 -91 -20.5 -179t-62.5 -167.5t-101 -140t-142 -96t-179 -35.5q-179 0 -279 117.5t-100 295.5zM244 391q0 -55 11 -101.5t34.5 -87t68 -64t105.5 -23.5q77 0 140 42.5 t101.5 112t59 152t20.5 168.5q0 55 -11 101t-35 86.5t-69 63.5t-108 23q-79 0 -141.5 -42.5t-99.5 -112.5t-56.5 -151.5t-19.5 -166.5zM326 1112l262 311h170l153 -311h-153l-96 211l-170 -211h-166z" />
<glyph unicode="&#xf5;" horiz-adv-x="1030" d="M72 393q0 93 20 180.5t61.5 165t100.5 135.5t142.5 91.5t181.5 33.5q186 0 282 -112.5t96 -288.5q0 -91 -20.5 -179t-62.5 -167.5t-101 -140t-142 -96t-179 -35.5q-179 0 -279 117.5t-100 295.5zM244 391q0 -55 11 -101.5t34.5 -87t68 -64t105.5 -23.5q77 0 140 42.5 t101.5 112t59 152t20.5 168.5q0 55 -11 101t-35 86.5t-69 63.5t-108 23q-79 0 -141.5 -42.5t-99.5 -112.5t-56.5 -151.5t-19.5 -166.5zM309 1194q40 88 87 130t124 42q40 0 93.5 -22.5t98.5 -45t66 -22.5q13 0 24.5 4.5t18.5 8.5t16.5 17t12.5 18t12.5 23.5t11.5 22.5 l105 -51q-38 -88 -83 -131t-116 -43q-50 0 -140 46t-126 46q-10 0 -19 -2.5t-15.5 -6t-14.5 -11t-12.5 -12t-11.5 -15.5t-10 -15.5t-10 -17t-9 -16.5z" />
<glyph unicode="&#xf6;" horiz-adv-x="1030" d="M72 393q0 93 20 180.5t61.5 165t100.5 135.5t142.5 91.5t181.5 33.5q186 0 282 -112.5t96 -288.5q0 -91 -20.5 -179t-62.5 -167.5t-101 -140t-142 -96t-179 -35.5q-179 0 -279 117.5t-100 295.5zM244 391q0 -55 11 -101.5t34.5 -87t68 -64t105.5 -23.5q77 0 140 42.5 t101.5 112t59 152t20.5 168.5q0 55 -11 101t-35 86.5t-69 63.5t-108 23q-79 0 -141.5 -42.5t-99.5 -112.5t-56.5 -151.5t-19.5 -166.5zM356 1243q0 52 34 86.5t89 34.5q40 0 68 -25.5t28 -66.5q0 -53 -33.5 -88t-88.5 -35q-43 0 -70 26.5t-27 67.5zM723 1243q0 52 34 86.5 t89 34.5q40 0 68 -25.5t28 -66.5q0 -53 -34 -88t-89 -35q-43 0 -69.5 26.5t-26.5 67.5z" />
<glyph unicode="&#xf7;" horiz-adv-x="1103" d="M150 588v147h886v-147h-886zM477 287q0 49 32.5 80.5t82.5 31.5t83.5 -31.5t33.5 -80.5t-33.5 -81t-83.5 -32t-82.5 32t-32.5 81zM477 1036q0 49 32.5 81t82.5 32t83.5 -32t33.5 -81t-33.5 -80.5t-83.5 -31.5t-82.5 31.5t-32.5 80.5z" />
<glyph unicode="&#xf8;" horiz-adv-x="1030" d="M72 393q0 93 20 180.5t61.5 165t100.5 135.5t142.5 91.5t181.5 33.5q103 0 180 -36l112 186h99l-140 -234q127 -109 127 -317q0 -91 -20.5 -179t-62.5 -167.5t-101 -140t-142 -96t-179 -35.5q-84 0 -162 30l-109 -182h-98l135 225q-71 56 -108 145t-37 195zM244 391 q0 -131 53 -203l385 646q-52 30 -121 30q-79 0 -141.5 -42.5t-99.5 -112.5t-56.5 -151.5t-19.5 -166.5zM362 135q41 -20 101 -20q77 0 140 42.5t101.5 112t59 152t20.5 168.5q0 115 -41 180z" />
<glyph unicode="&#xf9;" horiz-adv-x="1073" d="M92 223q0 33 8 80l119 676h170l-115 -651q-4 -36 -4 -60q0 -141 123 -141q82 0 161 70t134.5 183t79.5 243l63 356h173l-173 -979h-165l47 281q-27 -62 -62 -113.5t-81.5 -95t-108.5 -68t-133 -24.5q-109 0 -172.5 64.5t-63.5 178.5zM455 1423h207l69 -311h-158z" />
<glyph unicode="&#xfa;" horiz-adv-x="1073" d="M92 223q0 33 8 80l119 676h170l-115 -651q-4 -36 -4 -60q0 -141 123 -141q82 0 161 70t134.5 183t79.5 243l63 356h173l-173 -979h-165l47 281q-27 -62 -62 -113.5t-81.5 -95t-108.5 -68t-133 -24.5q-109 0 -172.5 64.5t-63.5 178.5zM522 1112l174 311h228l-230 -311 h-172z" />
<glyph unicode="&#xfb;" horiz-adv-x="1073" d="M92 223q0 33 8 80l119 676h170l-115 -651q-4 -36 -4 -60q0 -141 123 -141q82 0 161 70t134.5 183t79.5 243l63 356h173l-173 -979h-165l47 281q-27 -62 -62 -113.5t-81.5 -95t-108.5 -68t-133 -24.5q-109 0 -172.5 64.5t-63.5 178.5zM352 1112l262 311h170l154 -311h-154 l-96 211l-170 -211h-166z" />
<glyph unicode="&#xfc;" horiz-adv-x="1073" d="M92 223q0 33 8 80l119 676h170l-115 -651q-4 -36 -4 -60q0 -141 123 -141q82 0 161 70t134.5 183t79.5 243l63 356h173l-173 -979h-165l47 281q-27 -62 -62 -113.5t-81.5 -95t-108.5 -68t-133 -24.5q-109 0 -172.5 64.5t-63.5 178.5zM369 1243q0 52 34 86.5t89 34.5 q40 0 68 -25.5t28 -66.5q0 -53 -34 -88t-89 -35q-43 0 -69.5 26.5t-26.5 67.5zM735 1243q0 52 34 86.5t89 34.5q40 0 68 -25.5t28 -66.5q0 -53 -34 -88t-89 -35q-43 0 -69.5 26.5t-26.5 67.5z" />
<glyph unicode="&#xfd;" horiz-adv-x="856" d="M72 -365l184 361l-166 983h174l107 -803l379 803h182l-686 -1344h-174zM418 1112l174 311h227l-229 -311h-172z" />
<glyph unicode="&#xfe;" horiz-adv-x="1093" d="M-6 -365l305 1729h170l-115 -653q149 288 375 288q144 0 216.5 -102.5t72.5 -271.5q0 -90 -17.5 -178.5t-57.5 -173.5t-97.5 -149.5t-145 -104t-192.5 -39.5q-151 0 -268 81l-76 -426h-170zM262 195q109 -78 240 -78q89 0 158 43.5t108.5 117t59.5 159.5t20 181 q0 110 -44 177t-132 67q-58 0 -112.5 -32.5t-97 -85.5t-78 -123.5t-59.5 -144t-38 -148.5z" />
<glyph unicode="&#xff;" horiz-adv-x="856" d="M72 -365l184 361l-166 983h174l107 -803l379 803h182l-686 -1344h-174zM264 1243q0 52 34 86.5t89 34.5q40 0 68 -25.5t28 -66.5q0 -53 -34 -88t-89 -35q-43 0 -69.5 26.5t-26.5 67.5zM631 1243q0 52 34 86.5t89 34.5q40 0 68 -25.5t28 -66.5q0 -53 -34 -88t-89 -35 q-43 0 -69.5 26.5t-26.5 67.5z" />
<glyph unicode="&#x152;" horiz-adv-x="1996" d="M96 596q0 376 211 584.5t592 208.5q131 0 293 -25h862l-26 -152h-687l-75 -430h641l-29 -153h-639l-84 -477h686l-26 -152h-863q-118 -25 -225 -25q-199 0 -343 80t-216 219.5t-72 321.5zM272 602q0 -222 124 -349.5t362 -127.5q115 0 219 22l188 1067q-144 25 -276 25 q-300 0 -458.5 -170t-158.5 -467z" />
<glyph unicode="&#x153;" horiz-adv-x="1599" d="M72 393q0 93 19.5 180t60 165t99 135.5t142 91.5t182.5 34q241 0 332 -202q64 92 165.5 147t225.5 55q131 0 207 -60t76 -159q0 -323 -653 -370q-2 -20 -2 -58q0 -246 231 -246q133 0 262 72l35 -112q-61 -38 -146.5 -62t-174.5 -24q-122 0 -206.5 52t-119.5 142 q-143 -194 -365 -194q-118 0 -203.5 56.5t-126 148.5t-40.5 208zM242 391q0 -124 52 -199t167 -75q78 0 141.5 42t102 110.5t59 151t20.5 169.5q0 55 -11 101t-35 86t-69 62.5t-108 22.5q-79 0 -142 -42.5t-100.5 -111.5t-57 -150.5t-19.5 -166.5zM950 539q94 4 172.5 17.5 t147.5 38.5t108 69t39 102q0 53 -37.5 82t-99.5 29q-124 0 -208 -97t-122 -241z" />
<glyph unicode="&#x178;" horiz-adv-x="1085" d="M168 1364h178l227 -666l449 666h197l-582 -817l-96 -547h-176l98 553zM422 1614q0 47 32.5 79.5t86.5 32.5q42 0 68 -24.5t26 -61.5q0 -48 -33.5 -83t-85.5 -35q-38 0 -66 26t-28 66zM821 1614q0 48 31.5 80t85.5 32q42 0 68 -24.5t26 -61.5q0 -48 -32.5 -83t-84.5 -35 q-39 0 -66.5 26t-27.5 66z" />
<glyph unicode="&#x2c6;" horiz-adv-x="897" d="M256 1112l262 311h170l154 -311h-154l-96 211l-170 -211h-166z" />
<glyph unicode="&#x2dc;" horiz-adv-x="964" d="M281 1194q40 88 87 130t124 42q40 0 93.5 -22.5t98.5 -45t66 -22.5q13 0 24.5 4.5t18.5 8.5t16.5 17t12.5 18t12.5 23.5t11.5 22.5l104 -51q-38 -89 -82.5 -131.5t-115.5 -42.5q-50 0 -141 46t-126 46q-10 0 -19 -2.5t-15.5 -6t-14.5 -11t-12.5 -12t-11.5 -15.5 t-10 -15.5t-10 -17t-9 -16.5z" />
<glyph unicode="&#x2000;" horiz-adv-x="882" />
<glyph unicode="&#x2001;" horiz-adv-x="1765" />
<glyph unicode="&#x2002;" horiz-adv-x="882" />
<glyph unicode="&#x2003;" horiz-adv-x="1765" />
<glyph unicode="&#x2004;" horiz-adv-x="588" />
<glyph unicode="&#x2005;" horiz-adv-x="441" />
<glyph unicode="&#x2006;" horiz-adv-x="294" />
<glyph unicode="&#x2007;" horiz-adv-x="294" />
<glyph unicode="&#x2008;" horiz-adv-x="220" />
<glyph unicode="&#x2009;" horiz-adv-x="353" />
<glyph unicode="&#x200a;" horiz-adv-x="98" />
<glyph unicode="&#x2010;" horiz-adv-x="733" d="M121 516l26 148h492l-27 -148h-491z" />
<glyph unicode="&#x2011;" horiz-adv-x="733" d="M121 516l26 148h492l-27 -148h-491z" />
<glyph unicode="&#x2012;" horiz-adv-x="733" d="M121 516l26 148h492l-27 -148h-491z" />
<glyph unicode="&#x2013;" horiz-adv-x="1122" d="M121 516l26 148h883l-26 -148h-883z" />
<glyph unicode="&#x2014;" horiz-adv-x="1564" d="M121 516l26 148h1326l-27 -148h-1325z" />
<glyph unicode="&#x2018;" horiz-adv-x="430" d="M119 879l274 485h142l-207 -485h-209z" />
<glyph unicode="&#x2019;" horiz-adv-x="425" d="M115 879l207 485h210l-276 -485h-141z" />
<glyph unicode="&#x201a;" horiz-adv-x="501" d="M-80 -258l207 485h209l-275 -485h-141z" />
<glyph unicode="&#x201c;" horiz-adv-x="854" d="M121 879l274 485h140l-207 -485h-207zM537 879l276 485h139l-207 -485h-208z" />
<glyph unicode="&#x201d;" horiz-adv-x="854" d="M115 879l207 485h208l-276 -485h-139zM532 879l209 485h207l-276 -485h-140z" />
<glyph unicode="&#x201e;" horiz-adv-x="919" d="M-80 -258l207 485h209l-275 -485h-141zM340 -258l205 485h211l-275 -485h-141z" />
<glyph unicode="&#x2022;" horiz-adv-x="716" d="M150 721q0 108 70.5 181t182.5 73t184 -73.5t72 -180.5q0 -109 -72 -182.5t-184 -73.5t-182.5 73.5t-70.5 182.5z" />
<glyph unicode="&#x2026;" horiz-adv-x="1523" d="M61 90q0 59 37 95t97 36q49 0 77.5 -28t28.5 -72q0 -57 -37 -96t-98 -39q-45 0 -75 29.5t-30 74.5zM569 90q0 59 36.5 95t96.5 36q49 0 78 -28t29 -72q0 -57 -37 -96t-98 -39q-45 0 -75 29.5t-30 74.5zM1077 90q0 59 36.5 95t96.5 36q49 0 78 -28t29 -72q0 -57 -37 -96 t-98 -39q-45 0 -75 29.5t-30 74.5z" />
<glyph unicode="&#x202f;" horiz-adv-x="353" />
<glyph unicode="&#x2039;" horiz-adv-x="677" d="M57 498l400 417h215l-414 -432l254 -405h-197z" />
<glyph unicode="&#x203a;" horiz-adv-x="677" d="M0 78l414 434l-254 403h196l258 -417l-399 -420h-215z" />
<glyph unicode="&#x205f;" horiz-adv-x="441" />
<glyph unicode="&#x20ac;" horiz-adv-x="1165" d="M61 430l21 129h164q7 140 28 246h-147l23 129h157q68 207 210 328.5t364 121.5q194 0 344 -88l-49 -125q-155 76 -302 76q-281 0 -397 -313h506l-22 -129h-521q-21 -103 -28 -246h506l-23 -129h-481q30 -313 329 -313q132 0 254 51l25 -129q-128 -59 -301 -59 q-209 0 -330.5 122.5t-140.5 327.5h-189z" />
<glyph unicode="&#x2122;" horiz-adv-x="1421" d="M170 1270v94h479v-94h-184v-545h-111v545h-184zM766 725v639h119l194 -432l195 432h119v-639h-103v449l-153 -345h-115l-154 345v-449h-102z" />
<glyph unicode="&#xe000;" horiz-adv-x="983" d="M0 0v983h983v-983h-983z" />
</font>
</defs>
</svg>
