<?xml version="1.0" standalone="no"?>
<!DOCTYPE svg PUBLIC "-//W3C//DTD SVG 1.1//EN" "http://www.w3.org/Graphics/SVG/1.1/DTD/svg11.dtd" >
<svg xmlns="http://www.w3.org/2000/svg">
<metadata></metadata>
<defs>
<font id="knowledgelight_italic" horiz-adv-x="1218" >
<font-face units-per-em="2048" ascent="1587" descent="-461" />
<missing-glyph horiz-adv-x="450" />
<glyph unicode="&#xfb01;" horiz-adv-x="993" d="M113 0l153 877h-141l16 90h142l24 145q24 140 89.5 206t187.5 66q82 0 147 -30l-20 -82q-53 22 -117 22q-85 0 -123.5 -45t-52.5 -141l-23 -141h215l-16 -90h-217l-154 -877h-110zM629 0l168 967h112l-170 -967h-110zM807 1200q0 43 26 68.5t70 25.5q35 0 57.5 -20.5 t22.5 -52.5q0 -43 -26.5 -72t-69.5 -29q-35 0 -57.5 22.5t-22.5 57.5z" />
<glyph unicode="&#xfb02;" horiz-adv-x="991" d="M113 0l153 877h-141l16 90h142l24 145q25 143 87.5 207.5t183.5 64.5q86 0 145 -24l-23 -84q-56 18 -106 18q-82 0 -120.5 -41t-55.5 -145l-23 -141h215l-16 -90h-217l-154 -877h-110zM625 0l239 1364h111l-240 -1364h-110z" />
<glyph horiz-adv-x="2048" />
<glyph horiz-adv-x="2048" />
<glyph unicode="&#xd;" horiz-adv-x="2048" />
<glyph unicode=" "  horiz-adv-x="450" />
<glyph unicode="&#x09;" horiz-adv-x="450" />
<glyph unicode="&#xa0;" horiz-adv-x="450" />
<glyph unicode="!" horiz-adv-x="466" d="M66 68q0 46 29 75t75 29q39 0 61.5 -22.5t22.5 -57.5q0 -43 -29 -73.5t-78 -30.5q-35 0 -58 23t-23 57zM170 330l63 514l91 520h118l-92 -522l-119 -512h-61z" />
<glyph unicode="&#x22;" horiz-adv-x="749" d="M199 1159v205h106v-205l-12 -319h-82zM584 1159v205h108v-205l-14 -319h-80z" />
<glyph unicode="#" horiz-adv-x="1275" d="M86 442l31 80h215l139 357h-219l33 82h219l158 403h94l-162 -403h383l158 403h94l-162 -403h207l-29 -82h-207l-141 -357h213l-33 -80h-209l-172 -442h-94l172 442h-377l-174 -442h-94l172 442h-215zM426 522h379l139 357h-379z" />
<glyph unicode="$" horiz-adv-x="1007" d="M45 98l37 86q190 -96 364 -96q150 0 238 69t88 191q0 32 -7 60t-16.5 49.5t-30.5 44.5t-37.5 38.5t-50.5 38t-57 36.5t-67 40q-74 42 -122.5 76t-92.5 78t-65 95t-21 112q0 166 109 256.5t309 95.5l39 227h108l-43 -233q142 -14 277 -86l-35 -88q-176 90 -334 90 q-322 0 -322 -254q0 -23 4.5 -44t9.5 -37.5t19 -35t21.5 -29.5t30.5 -29t32.5 -26t39.5 -27t40.5 -25.5t46.5 -27.5q47 -28 72 -43.5t65 -42.5t62 -47t49.5 -49.5t41.5 -57t24 -63t10 -73.5q0 -160 -114.5 -260.5t-289.5 -108.5l-39 -229h-108l41 231q-165 18 -326 98z" />
<glyph unicode="%" horiz-adv-x="1579" d="M182 965q0 81 22 154.5t64.5 133.5t112.5 95.5t158 35.5q123 0 189.5 -77t66.5 -193q0 -115 -39.5 -214.5t-122 -165.5t-193.5 -66q-120 0 -189 84.5t-69 212.5zM276 967q0 -98 43.5 -161t129.5 -63q60 0 110 32.5t80 85t46.5 115t16.5 126.5q0 88 -42 147.5t-132 59.5 q-119 0 -185.5 -99.5t-66.5 -242.5zM324 0l897 1364h102l-897 -1364h-102zM860 276q0 81 22 155t64.5 134t112.5 95.5t158 35.5q123 0 189.5 -77t66.5 -193q0 -115 -39.5 -214.5t-122 -165.5t-193.5 -66q-121 0 -189.5 84t-68.5 212zM954 279q0 -98 43 -161t129 -63 q80 0 139 56t86 136t27 167q0 41 -9 77t-28 66.5t-54 48t-81 17.5q-80 0 -138.5 -49t-86 -126t-27.5 -169z" />
<glyph unicode="&#x26;" horiz-adv-x="1241" d="M70 293q0 66 21.5 126t52.5 104t82.5 89t94.5 74t105 66q-119 173 -119 311q0 149 103 235t270 86q111 0 179.5 -56t68.5 -152q0 -50 -15 -97t-45.5 -88.5t-62 -75.5t-79.5 -70t-81 -58t-84 -54l293 -428q141 168 238 408l88 -31q-116 -279 -273 -453l158 -229h-121 l-108 156q-195 -176 -428 -176q-155 0 -246.5 86.5t-91.5 226.5zM180 297q0 -108 67.5 -171t178.5 -63q187 0 358 168l-309 449q-52 -31 -86.5 -54.5t-78 -61t-69 -73.5t-43.5 -87t-18 -107zM412 1069q0 -52 17 -104.5t34 -82t51 -83.5q48 28 83 51t81 60.5t75.5 72.5 t50.5 81.5t21 94.5q0 65 -42 104.5t-117 39.5q-110 0 -182 -60t-72 -174z" />
<glyph unicode="'" horiz-adv-x="362" d="M199 1159v205h106v-205l-12 -319h-82z" />
<glyph unicode="(" horiz-adv-x="573" d="M121 334q0 325 124 618.5t357 579.5l76 -57q-100 -131 -176 -254.5t-139 -265.5t-96.5 -297t-33.5 -316q0 -291 138 -625l-97 -45q-153 351 -153 662z" />
<glyph unicode=")" horiz-adv-x="573" d="M-74 -270q219 291 333 560t114 572q0 295 -137 623l96 47q153 -341 153 -662t-122 -611t-359 -587z" />
<glyph unicode="*" horiz-adv-x="815" d="M156 881l307 137l-275 147l64 90l231 -204l25 313h98l-88 -313l281 190l39 -86l-310 -137l265 -137l-66 -88l-219 192l-23 -313h-100l88 313l-280 -190z" />
<glyph unicode="+" horiz-adv-x="1130" d="M137 614v95h395v424h107v-424h395v-95h-395v-424h-107v424h-395z" />
<glyph unicode="," horiz-adv-x="432" d="M-78 -274l199 464h133l-242 -464h-90z" />
<glyph unicode="-" horiz-adv-x="733" d="M137 545l17 96h471l-15 -96h-473z" />
<glyph unicode="." horiz-adv-x="483" d="M72 68q0 46 28.5 75t75.5 29q39 0 61.5 -22.5t22.5 -57.5q0 -43 -28.5 -73.5t-77.5 -30.5q-35 0 -58.5 23t-23.5 57z" />
<glyph unicode="/" horiz-adv-x="866" d="M-23 -205l832 1589h113l-830 -1589h-115z" />
<glyph unicode="0" horiz-adv-x="1181" d="M111 487q0 82 10.5 167t34 173t57.5 168.5t84 152t111 123.5t141.5 82.5t171.5 30.5q85 0 153.5 -25.5t114.5 -70t77 -106t44.5 -131t13.5 -148.5q0 -95 -15.5 -196.5t-46.5 -206t-82.5 -197t-116.5 -165.5t-156 -115.5t-195 -42.5q-99 0 -177 41t-126 111.5t-73 161 t-25 193.5zM223 483q0 -63 9 -119.5t31 -111.5t55 -94.5t86 -63.5t120 -24q95 0 177.5 55.5t138.5 143.5t96.5 199t59 221t18.5 210q0 76 -15 142t-48.5 124.5t-95 92.5t-146.5 34q-98 0 -181 -52t-138 -135.5t-94 -191t-56 -216.5t-17 -214z" />
<glyph unicode="1" horiz-adv-x="608" d="M154 1296l327 68h101l-240 -1364h-111l222 1262l-287 -56z" />
<glyph unicode="2" horiz-adv-x="1042" d="M14 0l15 84q14 80 35 142.5t59 115.5t68 87.5t97.5 79.5t110 70t139.5 78q6 3 9 5q168 91 232 139q155 116 164 261q1 11 1 21q0 107 -78 158t-211 51q-160 0 -327 -75l-27 86q165 81 375 81q171 0 276 -76.5t105 -213.5q0 -54 -14.5 -103.5t-35.5 -88.5t-58.5 -79 t-71 -68t-85.5 -61t-89 -54t-95 -52q-55 -30 -79.5 -43.5t-69 -39t-64.5 -39t-54 -37.5t-49.5 -40.5t-40 -42t-37 -48.5t-27.5 -53t-24.5 -62t-17.5 -70l-4 -21h725l-14 -92h-838z" />
<glyph unicode="3" horiz-adv-x="997" d="M8 78l33 88q208 -96 379 -96q158 0 249 84t91 225q0 126 -94.5 200t-255.5 74h-160l14 92h189q164 0 283.5 93.5t119.5 240.5q0 104 -72 159.5t-202 55.5q-76 0 -161 -20.5t-155 -54.5l-24 86q143 79 356 79q173 0 272 -76t99 -212q0 -143 -97 -247.5t-251 -152.5 q116 -35 183.5 -116t67.5 -197q0 -169 -121.5 -286t-328.5 -117q-201 0 -414 98z" />
<glyph unicode="4" horiz-adv-x="1087" d="M53 463l834 901h110l-157 -897h186l-16 -90h-185l-67 -377h-107l68 377h-656zM178 467h555l135 760z" />
<glyph unicode="5" horiz-adv-x="1089" d="M53 94l37 86q195 -110 381 -110q185 0 291 107t106 276q0 138 -84 219.5t-231 81.5q-137 0 -262 -78l-90 35l116 653h756l-18 -92h-645l-88 -496q109 70 264 70q178 0 286.5 -107t108.5 -278q0 -204 -139.5 -342.5t-370.5 -138.5q-99 0 -214 32t-204 82z" />
<glyph unicode="6" horiz-adv-x="1107" d="M117 463q0 93 10 183.5t34 182.5t59.5 173t89.5 151.5t121 121.5t158 80t197 29q194 0 336 -90l-39 -82q-156 82 -299 82q-103 0 -189.5 -36t-148.5 -98t-107.5 -149t-72 -185.5t-37.5 -211.5q50 107 153 167.5t241 60.5q176 0 282.5 -107t106.5 -272q0 -94 -30.5 -180 t-87 -154t-144.5 -108.5t-195 -40.5q-203 0 -320.5 137t-117.5 346zM227 401q0 -65 20 -124t59 -107t104 -76t147 -28q159 0 252.5 110t93.5 275q0 136 -79 219.5t-224 83.5q-156 0 -264.5 -97t-108.5 -256z" />
<glyph unicode="7" horiz-adv-x="909" d="M94 0l793 1272h-686l16 92h797l-17 -92l-786 -1272h-117z" />
<glyph unicode="8" horiz-adv-x="1122" d="M84 324q0 158 93.5 259t250.5 136q-89 43 -133.5 114.5t-44.5 161.5q0 178 124 283.5t326 105.5q158 0 257.5 -82t99.5 -217q0 -132 -80 -231.5t-213 -144.5q100 -32 163.5 -110.5t63.5 -184.5q0 -188 -139 -311t-358 -123q-76 0 -148 22.5t-131 64.5t-95 109t-36 148z M193 332q0 -121 90 -193.5t221 -72.5q164 0 271.5 97.5t107.5 244.5q0 111 -82 183.5t-219 72.5q-166 0 -277.5 -89.5t-111.5 -242.5zM354 993q0 -106 69.5 -174.5t188.5 -68.5q86 0 162.5 38t126 112.5t49.5 170.5q0 103 -73 165t-187 62q-146 0 -241 -80.5t-95 -224.5z " />
<glyph unicode="9" horiz-adv-x="1107" d="M43 70l39 84q139 -84 301 -84q128 0 228 54t165 150.5t104 214.5t56 261q-55 -108 -156 -168t-239 -60q-176 0 -282.5 111t-106.5 280q0 96 30 180.5t86.5 149.5t144.5 103t197 38q203 0 321 -137t118 -346q0 -131 -20.5 -256t-70 -247.5t-124 -213.5t-191.5 -147.5 t-262 -56.5q-186 0 -338 90zM260 926q0 -142 80 -229t225 -87q156 0 263.5 97t107.5 256q0 136 -89 235.5t-241 99.5q-159 0 -252.5 -106t-93.5 -266z" />
<glyph unicode=":" horiz-adv-x="466" d="M66 68q0 46 28.5 75t75.5 29q39 0 61.5 -22.5t22.5 -57.5q0 -43 -29 -73.5t-78 -30.5q-35 0 -58 23t-23 57zM172 676q0 46 29 75t75 29q39 0 61.5 -22.5t22.5 -57.5q0 -43 -28.5 -73.5t-77.5 -30.5q-35 0 -58.5 23t-23.5 57z" />
<glyph unicode=";" horiz-adv-x="481" d="M-84 -274l199 464h133l-244 -464h-88zM184 674q0 48 29 77t78 29q38 0 61 -23t23 -59q0 -44 -29.5 -75t-79.5 -31q-36 0 -59 24t-23 58z" />
<glyph unicode="&#x3c;" horiz-adv-x="1107" d="M104 618v87l897 428v-107l-776 -364l776 -365v-107z" />
<glyph unicode="=" horiz-adv-x="1130" d="M156 397v95h897v-95h-897zM156 831v95h897v-95h-897z" />
<glyph unicode="&#x3e;" horiz-adv-x="1107" d="M154 190v107l776 365l-776 364v107l897 -428v-87z" />
<glyph unicode="?" horiz-adv-x="866" d="M182 68q0 46 29 75t76 29q38 0 61 -23t23 -57q0 -43 -29 -73.5t-78 -30.5q-36 0 -59 23t-23 57zM244 1319q136 65 309 65q149 0 236.5 -66t87.5 -190q0 -56 -18.5 -108.5t-42.5 -90t-68 -80t-74.5 -66.5t-82.5 -62q-7 -5 -11 -8q-73 -55 -107 -90.5t-57 -86.5t-39 -137 l-12 -69h-103l14 78q17 104 47.5 170t70.5 106.5t122 101.5q53 39 79 59.5t65 57t57 65t32.5 68.5t14.5 84q0 83 -59.5 127.5t-167.5 44.5q-147 0 -279 -61z" />
<glyph unicode="@" horiz-adv-x="1585" d="M129 532q0 233 100.5 411.5t271.5 272t384 93.5q143 0 263 -44t201.5 -120.5t127 -181.5t45.5 -226q0 -129 -42.5 -232.5t-123.5 -164.5t-187 -61q-109 0 -169.5 67t-51.5 156q-40 -102 -104.5 -162.5t-145.5 -60.5q-76 0 -112.5 57.5t-36.5 144.5t21 163.5t62.5 137.5 t110 97t156.5 36q111 0 188 -36l-53 -310q-6 -38 -6 -63q0 -71 38.5 -112.5t113.5 -41.5q111 0 181.5 108.5t70.5 274.5q0 220 -154 358t-397 138q-133 0 -252 -47.5t-210 -134.5t-144.5 -221t-53.5 -296q0 -284 163 -445t452 -161q127 0 259 32.5t234 86.5l27 -74 q-240 -123 -529 -123q-217 0 -376 87.5t-240.5 241.5t-81.5 355zM643 489q0 -63 17.5 -97t64.5 -34q86 0 150.5 108.5t91.5 266.5l16 90q-43 15 -86 15q-84 0 -143 -51t-85 -128t-26 -170z" />
<glyph unicode="A" d="M-47 0l743 1364h129l260 -1364h-110l-70 389h-624l-207 -389h-121zM332 487h557l-141 783z" />
<glyph unicode="B" horiz-adv-x="1183" d="M82 0l240 1364h514q154 0 239.5 -81t85.5 -214q0 -135 -94 -239.5t-233 -137.5q116 -24 182.5 -104t66.5 -189q0 -121 -64 -212.5t-172 -139t-243 -47.5h-522zM207 92h405q152 0 255.5 81t103.5 224q0 110 -77.5 178t-215.5 68h-373zM319 737h359q158 0 263.5 90.5 t105.5 225.5q0 102 -63 160.5t-183 58.5h-387z" />
<glyph unicode="C" horiz-adv-x="1179" d="M102 559q0 166 49 314.5t140.5 264t235.5 183.5t321 68q232 0 387 -86l-33 -95q-167 80 -354 80q-149 0 -270.5 -59t-199.5 -159.5t-119.5 -231t-41.5 -277.5q0 -222 123.5 -353.5t347.5 -131.5q153 0 295 49l18 -94q-147 -56 -335 -56q-172 0 -301 75.5t-196 207.5 t-67 301z" />
<glyph unicode="D" horiz-adv-x="1335" d="M82 0l240 1364h421q166 0 291 -74.5t189.5 -201t64.5 -283.5q0 -156 -51.5 -300.5t-145 -257t-237.5 -180t-317 -67.5h-455zM213 98h330q142 0 262 57.5t200 154.5t124.5 224t44.5 267q0 203 -121.5 334t-321.5 131h-313z" />
<glyph unicode="E" horiz-adv-x="1101" d="M82 0l240 1364h833l-18 -98h-717l-90 -508h669l-18 -99h-670l-98 -561h719l-17 -98h-833z" />
<glyph unicode="F" horiz-adv-x="1048" d="M82 0l240 1364h823l-17 -98h-710l-99 -557h662l-18 -99h-660l-106 -610h-115z" />
<glyph unicode="G" horiz-adv-x="1292" d="M102 571q0 168 49.5 314.5t142.5 259.5t240.5 178.5t331.5 65.5q259 0 445 -101l-33 -94q-207 98 -414 98q-153 0 -276 -55t-204 -152.5t-124 -228.5t-43 -285q0 -230 131 -365.5t373 -135.5q150 0 256 32l86 490h111l-101 -561q-166 -56 -362 -56q-146 0 -263 47 t-192 128.5t-114.5 189t-39.5 231.5z" />
<glyph unicode="H" horiz-adv-x="1335" d="M82 0l240 1364h114l-108 -612h759l107 612h115l-240 -1364h-115l115 651h-760l-112 -651h-115z" />
<glyph unicode="I" horiz-adv-x="479" d="M90 0l240 1364h114l-239 -1364h-115z" />
<glyph unicode="J" horiz-adv-x="755" d="M-35 25l25 92q102 -41 200 -41q116 0 170 63.5t78 192.5l183 1032h114l-182 -1032q-14 -81 -38 -141.5t-64.5 -110t-103.5 -75t-146 -25.5q-123 0 -236 45z" />
<glyph unicode="K" horiz-adv-x="1128" d="M82 0l240 1364h114l-112 -635l757 635h158l-805 -672l576 -692h-142l-553 676l-118 -676h-115z" />
<glyph unicode="L" horiz-adv-x="1001" d="M82 0l240 1364h114l-223 -1266h670l-17 -98h-784z" />
<glyph unicode="M" horiz-adv-x="1568" d="M82 0l240 1364h112l301 -1096l684 1096h125l-239 -1364h-109l203 1149l-617 -977h-123l-268 973l-203 -1145h-106z" />
<glyph unicode="N" horiz-adv-x="1374" d="M82 0l240 1364h110l596 -1200l209 1200h111l-240 -1364h-111l-598 1202l-209 -1202h-108z" />
<glyph unicode="O" horiz-adv-x="1357" d="M102 561q0 133 27 255t83 226.5t136 181.5t192 121t244 44q158 0 276.5 -73t180.5 -200.5t62 -290.5q0 -124 -27 -244.5t-84 -230t-137 -193t-194 -133t-247 -49.5q-118 0 -216 48t-162 129t-99 186.5t-35 222.5zM217 565q0 -95 24.5 -181t72.5 -157t128.5 -113 t182.5 -42q108 0 200.5 42.5t157.5 115.5t111.5 168.5t69 202t22.5 216.5q0 97 -24.5 181t-72.5 150.5t-128.5 105t-184.5 38.5q-113 0 -206.5 -40.5t-158 -110t-109 -163t-65 -197.5t-20.5 -216z" />
<glyph unicode="P" horiz-adv-x="1142" d="M82 0l240 1364h485q176 0 268 -91.5t92 -240.5q0 -198 -134 -324t-349 -126h-387l-100 -582h-115zM313 676h381q164 0 261.5 98t97.5 252q0 113 -67 178.5t-195 65.5h-373z" />
<glyph unicode="Q" horiz-adv-x="1361" d="M102 561q0 133 27 255t83 226.5t136 181.5t192 121t244 44q158 0 276.5 -73t180.5 -200.5t62 -290.5q0 -223 -87.5 -426t-248.5 -317l120 -236l-86 -43l-118 232q-130 -60 -269 -60q-118 0 -216 48t-162 129t-99 186.5t-35 222.5zM217 565q0 -95 24.5 -181t72.5 -157 t128.5 -113t182.5 -42q122 0 219 51l-96 186l83 39l89 -176q128 101 197 275.5t69 369.5q0 97 -24.5 181t-72.5 150.5t-128.5 105t-184.5 38.5q-113 0 -206.5 -40.5t-158 -110t-109 -163t-65 -197.5t-20.5 -216z" />
<glyph unicode="R" horiz-adv-x="1255" d="M82 0l240 1364h516q175 0 267.5 -92t92.5 -238q0 -169 -111.5 -287t-285.5 -145l286 -602h-122l-277 596h-389l-102 -596h-115zM315 690h400q160 0 264 93.5t104 240.5q0 109 -68.5 177.5t-197.5 68.5h-399z" />
<glyph unicode="S" horiz-adv-x="1097" d="M29 78l32 94q217 -102 433 -102q175 0 275.5 71t100.5 215q0 54 -21 96t-67.5 77.5t-98 62t-134.5 61.5q-191 79 -273.5 161t-82.5 196q0 196 130.5 287.5t358.5 91.5q224 0 418 -93l-31 -92q-214 90 -391 90q-62 0 -113 -7t-100.5 -25.5t-83 -48t-54 -78.5t-20.5 -113 q0 -92 63 -147.5t230 -129.5q44 -19 66 -29.5t61.5 -30t61 -32.5t53.5 -34t49.5 -38.5t38.5 -42.5t31.5 -49.5t18 -54.5t7.5 -63q0 -127 -67 -218t-176 -134.5t-248 -43.5q-235 0 -467 103z" />
<glyph unicode="T" horiz-adv-x="1026" d="M168 1266l18 98h951l-17 -98h-418l-223 -1266h-114l223 1266h-420z" />
<glyph unicode="U" horiz-adv-x="1341" d="M147 371q0 25 9 90l159 903h115l-160 -909q-8 -46 -8 -78q0 -146 89.5 -225.5t262.5 -79.5q175 0 289.5 104.5t145.5 280.5l159 907h115l-160 -907q-17 -100 -59.5 -185t-110.5 -152.5t-169 -106t-224 -38.5t-224 44t-165 136t-64 216z" />
<glyph unicode="V" horiz-adv-x="1114" d="M176 1364h115l194 -1237l629 1237h121l-703 -1364h-131z" />
<glyph unicode="W" horiz-adv-x="1677" d="M170 1364h113l98 -1192l537 1192h133l125 -1192l516 1192h116l-608 -1364h-106l-125 1253l-563 -1253h-105z" />
<glyph unicode="X" horiz-adv-x="1167" d="M-33 0l592 705l-323 659h112l283 -578l483 578h131l-567 -674l340 -690h-111l-299 608l-510 -608h-131z" />
<glyph unicode="Y" horiz-adv-x="1071" d="M184 1364h115l260 -702l494 702h135l-586 -803l-98 -561h-115l98 563z" />
<glyph unicode="Z" horiz-adv-x="1126" d="M25 0l14 98l977 1170h-744l19 96h872l-18 -98l-975 -1170h786l-16 -96h-915z" />
<glyph unicode="[" horiz-adv-x="563" d="M35 -307l321 1818h326l-18 -94h-215l-285 -1630h213l-17 -94h-325z" />
<glyph unicode="\" horiz-adv-x="866" d="M254 1384h104l271 -1589h-107z" />
<glyph unicode="]" horiz-adv-x="563" d="M-86 -307l16 94h213l287 1630h-213l16 94h326l-321 -1818h-324z" />
<glyph unicode="^" horiz-adv-x="954" d="M137 690l330 674h98l328 -674h-105l-272 576l-272 -576h-107z" />
<glyph unicode="_" horiz-adv-x="780" d="M-131 -236l12 62h785l-13 -62h-784z" />
<glyph unicode="`" horiz-adv-x="608" d="M332 1419h133l80 -311h-99z" />
<glyph unicode="a" horiz-adv-x="1024" d="M74 342q0 100 18.5 192.5t59.5 175.5t100.5 144t147 97t194.5 36q186 0 342 -80l-162 -907h-108l59 342q-26 -66 -58.5 -123t-79.5 -114.5t-110.5 -91t-134.5 -33.5q-88 0 -149.5 50t-90 130t-28.5 182zM186 342q0 -121 45.5 -196.5t137.5 -75.5q74 0 145.5 60.5t124 155 t90 199t55.5 203.5l29 160q-114 49 -229 49q-101 0 -180 -48t-125 -128.5t-69.5 -176.5t-23.5 -202z" />
<glyph unicode="b" horiz-adv-x="1071" d="M72 0l239 1364h111l-125 -719q35 73 69.5 127.5t83 106.5t112 80t138.5 28q139 0 213 -95.5t74 -248.5q0 -86 -16 -174.5t-52.5 -177t-89 -157t-133 -111.5t-176.5 -43q-90 0 -174 43.5t-143 105.5l-25 -129h-106zM219 209q139 -139 293 -139q91 0 163.5 54.5t114 140.5 t63 180t21.5 186q0 120 -53.5 193t-156.5 73q-77 0 -151 -55.5t-127.5 -142.5t-91.5 -184.5t-54 -190.5z" />
<glyph unicode="c" horiz-adv-x="862" d="M76 367q0 91 18.5 178.5t59 168t98.5 141t142.5 96.5t185.5 36q172 0 299 -96l-43 -82q-132 86 -261 86q-96 0 -173 -47.5t-122.5 -125t-69.5 -169.5t-24 -188q0 -295 277 -295q114 0 221 47l23 -80q-108 -57 -265 -57q-178 0 -272 101.5t-94 285.5z" />
<glyph unicode="d" horiz-adv-x="1073" d="M74 346q0 90 17 178.5t56.5 173t96.5 148t143 102.5t191 39q88 0 161.5 -26.5t122.5 -67.5l84 471h111l-240 -1364h-110l57 326q-33 -70 -68.5 -124.5t-85.5 -108.5t-115.5 -83.5t-140.5 -29.5q-131 0 -205.5 105t-74.5 261zM184 346q0 -127 49 -201.5t148 -74.5 q79 0 155 57t132.5 145.5t96 188t56.5 192.5l27 148q-136 96 -270 96q-99 0 -177 -49t-124 -130t-69.5 -176t-23.5 -196z" />
<glyph unicode="e" horiz-adv-x="878" d="M68 356q0 114 34 224.5t97 202t165.5 148t227.5 56.5q117 0 190.5 -56t73.5 -151q0 -77 -43 -138t-109.5 -98t-160 -62.5t-181 -36.5t-184.5 -15q-4 -54 -4 -80q0 -284 270 -284q130 0 256 65l25 -78q-52 -31 -134.5 -52t-162.5 -21q-174 0 -267 104t-93 272zM195 518 q82 1 156.5 9t149 27t128.5 47t87.5 72.5t33.5 100.5q0 61 -47 96t-119 35q-78 0 -144.5 -32t-114 -87.5t-80.5 -123t-50 -144.5z" />
<glyph unicode="f" horiz-adv-x="561" d="M113 0l153 877h-141l16 90h142l24 145q25 145 89.5 208.5t187.5 63.5q85 0 151 -32l-22 -82q-58 24 -119 24q-81 0 -119.5 -43t-56.5 -143l-23 -141h213l-16 -90h-215l-154 -877h-110z" />
<glyph unicode="g" horiz-adv-x="1073" d="M31 -297l28 82q74 -37 162.5 -60.5t163.5 -23.5q81 0 140 24.5t97.5 73.5t61 109t37.5 143l53 305q-25 -60 -62 -116.5t-87.5 -109t-118.5 -84.5t-141 -32q-132 0 -208.5 96.5t-76.5 249.5q0 131 34.5 244.5t101 201.5t173.5 138.5t244 50.5q190 0 352 -75l-154 -871 q-76 -434 -442 -434q-174 0 -358 88zM190 365q0 -119 51.5 -191t151.5 -72q79 0 156.5 62.5t135 157t98 197.5t55.5 192l24 147q-110 47 -241 47q-104 0 -187 -43.5t-135.5 -118.5t-80.5 -171.5t-28 -206.5z" />
<glyph unicode="h" horiz-adv-x="1067" d="M72 0l239 1364h111l-125 -711q141 334 412 334q111 0 175 -62t64 -177q0 -26 -6 -78l-119 -670h-110l114 657q7 35 7 68q0 83 -45 124.5t-123 41.5q-144 0 -263.5 -155.5t-160.5 -395.5l-60 -340h-110z" />
<glyph unicode="i" horiz-adv-x="436" d="M72 0l168 967h112l-170 -967h-110zM250 1200q0 43 26 68.5t70 25.5q35 0 57.5 -20.5t22.5 -52.5q0 -43 -26.5 -72t-69.5 -29q-35 0 -57.5 22.5t-22.5 57.5z" />
<glyph unicode="j" horiz-adv-x="436" d="M-221 -356l20 88q54 -23 111 -23q66 0 94 34.5t41 111.5l195 1112h112l-196 -1114q-20 -114 -74 -176t-156 -62q-66 0 -147 29zM250 1200q0 43 26 68.5t70 25.5q35 0 57.5 -20.5t22.5 -52.5q0 -43 -26.5 -72t-69.5 -29q-35 0 -57.5 22.5t-22.5 57.5z" />
<glyph unicode="k" horiz-adv-x="886" d="M72 0l239 1364h111l-148 -842l517 445h147l-561 -475l403 -492h-131l-385 475l-82 -475h-110z" />
<glyph unicode="l" horiz-adv-x="436" d="M72 0l239 1364h111l-240 -1364h-110z" />
<glyph unicode="m" horiz-adv-x="1654" d="M72 0l168 967h108l-55 -324q128 344 389 344q110 0 175 -63t65 -176q0 -23 -7 -74q67 150 157.5 231.5t223.5 81.5q110 0 175 -63t65 -176q0 -40 -6 -78l-119 -670h-111l115 657q6 36 6 68q0 80 -41 123t-120 43q-92 0 -175.5 -73.5t-142 -195.5t-84.5 -270l-61 -352 h-111l115 657q6 27 6 68q0 83 -45 124.5t-123 41.5q-134 0 -243.5 -151.5t-151.5 -387.5l-62 -352h-110z" />
<glyph unicode="n" horiz-adv-x="1067" d="M72 0l168 967h108l-55 -324q135 344 416 344q111 0 175 -62t64 -177q0 -40 -6 -78l-119 -670h-110l114 657q7 31 7 68q0 83 -45 124.5t-123 41.5q-145 0 -263.5 -155.5t-160.5 -393.5l-60 -342h-110z" />
<glyph unicode="o" horiz-adv-x="1011" d="M84 381q0 87 18 172.5t57.5 164t95.5 138.5t137.5 95.5t178.5 35.5q90 0 158.5 -30t110.5 -83.5t63 -122.5t21 -151q0 -91 -19.5 -180t-60.5 -168.5t-98 -140t-137.5 -96t-174.5 -35.5q-86 0 -154.5 32.5t-110.5 89t-63.5 127.5t-21.5 152zM195 379q0 -62 13 -115 t41 -97.5t77.5 -70.5t115.5 -26q87 0 159 45t117 119.5t70 167t25 190.5q0 49 -7.5 92t-26 82.5t-46.5 68t-72.5 45.5t-101.5 17q-72 0 -133.5 -31.5t-103 -83t-71 -119t-43 -139.5t-13.5 -145z" />
<glyph unicode="p" horiz-adv-x="1073" d="M8 -365l234 1332h110l-57 -324q33 70 68.5 124.5t85.5 107.5t115.5 82.5t140.5 29.5q138 0 210 -99.5t72 -262.5q0 -89 -17.5 -177.5t-57.5 -173.5t-97 -150t-143.5 -104.5t-190.5 -39.5q-83 0 -160 29t-124 67l-78 -441h-111zM213 168q129 -98 270 -98q79 0 145.5 33 t111 87.5t75.5 126.5t45 148.5t14 155.5q0 126 -50.5 201t-149.5 75q-80 0 -155.5 -56t-131 -145t-95 -192.5t-56.5 -204.5z" />
<glyph unicode="q" horiz-adv-x="1064" d="M70 336q0 127 34 241.5t99.5 207t174 147.5t245.5 55q188 0 352 -76l-223 -1276h-113l123 689q-34 -69 -70 -124t-86 -108t-114.5 -82.5t-137.5 -29.5q-133 0 -208.5 97.5t-75.5 258.5zM180 334q0 -120 52 -192t153 -72q79 0 155.5 63.5t132.5 161t96 203t56 198.5 l27 154q-122 47 -242 47q-105 0 -188.5 -47t-135.5 -126.5t-79 -179t-27 -210.5z" />
<glyph unicode="r" horiz-adv-x="616" d="M72 0l168 967h110l-59 -324q22 75 47.5 131t63.5 105t91.5 74.5t120.5 25.5q44 0 74 -10l-16 -101q-37 11 -72 11q-61 0 -114.5 -34t-92 -88.5t-70 -128t-51 -146t-32.5 -150.5l-58 -332h-110z" />
<glyph unicode="s" horiz-adv-x="823" d="M23 57l28 84q169 -78 318 -78q111 0 172 45.5t61 137.5q0 35 -14 62.5t-47 53t-60 41.5t-80 43q-74 39 -114 62.5t-81 58t-58 73t-17 87.5q0 123 90.5 191.5t251.5 68.5q179 0 320 -78l-29 -84q-146 78 -287 78q-106 0 -171.5 -41t-65.5 -125q0 -25 8 -46t18 -35 t33.5 -30.5t39.5 -25.5t51.5 -28.5t55.5 -30.5q15 -8 51.5 -28t54 -30.5t47.5 -30.5t46 -37t33.5 -40.5t25 -51t7.5 -59.5q0 -129 -93 -206.5t-249 -77.5q-171 0 -346 77z" />
<glyph unicode="t" horiz-adv-x="636" d="M125 874l18 93h140l45 258h112l-45 -258h246l-16 -93h-248l-117 -665q-4 -24 -4 -43q0 -94 102 -94q67 0 129 20l5 -84q-24 -9 -71.5 -16.5t-86.5 -7.5q-89 0 -140 45.5t-51 124.5q0 11 7 53l116 667h-141z" />
<glyph unicode="u" horiz-adv-x="1056" d="M106 219q0 33 7 80l116 668h113l-117 -656q-6 -38 -6 -69q0 -87 36 -126.5t118 -39.5q101 0 192 81.5t152 211.5t88 284l55 314h113l-170 -967h-109l56 324q-32 -73 -71 -132t-90 -108t-115.5 -76.5t-137.5 -27.5q-106 0 -168 62.5t-62 176.5z" />
<glyph unicode="v" horiz-adv-x="839" d="M100 967h113l135 -854l430 854h119l-506 -967h-121z" />
<glyph unicode="w" horiz-adv-x="1341" d="M106 967h107l82 -826l391 826h123l106 -826l369 826h113l-449 -967h-106l-109 864l-411 -864h-107z" />
<glyph unicode="x" horiz-adv-x="882" d="M-43 0l428 510l-223 457h104l185 -379l317 379h119l-391 -467l245 -500h-106l-207 422l-350 -422h-121z" />
<glyph unicode="y" horiz-adv-x="825" d="M82 -365l188 363l-172 969h113l133 -848l424 848h119l-697 -1332h-108z" />
<glyph unicode="z" horiz-adv-x="876" d="M6 0l17 88l688 791h-518l16 88h647l-16 -88l-690 -791h565l-15 -88h-694z" />
<glyph unicode="{" horiz-adv-x="583" d="M23 557l16 90h31q88 0 134 43t62 131l80 455q22 123 85.5 179t180.5 56h107l-19 -94h-82q-77 0 -111.5 -33.5t-49.5 -119.5l-76 -433q-34 -194 -209 -231q135 -28 135 -164q0 -21 -8 -61l-76 -432q-6 -36 -6 -52q0 -53 27 -78.5t88 -25.5h82l-17 -94h-100 q-94 0 -143.5 45.5t-49.5 130.5q0 28 7 63l79 455q5 30 5 43q0 59 -34.5 93t-105.5 34h-32z" />
<glyph unicode="|" horiz-adv-x="526" d="M236 -512v2048h96v-2048h-96z" />
<glyph unicode="}" horiz-adv-x="583" d="M-102 -307l16 94h82q75 0 112 34t52 120l78 446q19 104 68.5 157t137.5 64q-133 31 -133 166q0 33 4 57l76 433q6 30 6 51q0 52 -27.5 77t-86.5 25h-82l18 94h98q94 0 144.5 -44t50.5 -132q0 -33 -6 -63l-80 -453q-4 -24 -4 -45q0 -127 139 -127h31l-14 -90h-33 q-169 0 -197 -174l-80 -455q-21 -124 -85.5 -179.5t-178.5 -55.5h-106z" />
<glyph unicode="~" horiz-adv-x="1071" d="M125 561q35 119 92 175.5t154 56.5q44 0 103 -25t107 -55t98.5 -55t80.5 -25q25 0 45.5 10t32.5 21.5t25 39t17.5 42t16.5 51.5l92 -29q-65 -236 -225 -236q-44 0 -100 24.5t-101 54.5t-98 54.5t-92 24.5q-28 0 -51 -9.5t-37 -21.5t-28 -38t-21 -42.5t-19 -50.5z" />
<glyph unicode="&#xa1;" horiz-adv-x="466" d="M18 -365l93 523l112 483h64l-60 -485l-90 -521h-119zM203 885q0 42 28.5 72t77.5 30q37 0 59.5 -23t22.5 -55q0 -47 -29.5 -76.5t-76.5 -29.5q-38 0 -60 23t-22 59z" />
<glyph unicode="&#xa2;" horiz-adv-x="911" d="M127 588q0 104 29.5 199.5t85.5 173t144.5 127t197.5 57.5l41 227h110l-41 -229q116 -14 224 -74l-31 -88q-137 74 -262 74q-187 0 -288 -129.5t-101 -335.5q0 -132 68 -205.5t208 -73.5q119 0 227 51l21 -81q-40 -21 -103 -38.5t-125 -21.5l-38 -229h-111l39 233 q-136 22 -215.5 119t-79.5 244z" />
<glyph unicode="&#xa3;" horiz-adv-x="1062" d="M29 86q136 100 214.5 217.5t108.5 280.5l2 12h-221l14 94h224l57 318q36 199 131 287.5t279 88.5q79 0 158.5 -20t127.5 -49l-32 -86q-120 63 -250 63q-133 0 -203.5 -65.5t-99.5 -222.5l-58 -314h379l-14 -94h-381l-2 -14q-56 -310 -295 -490h700l-14 -92h-817z" />
<glyph unicode="&#xa4;" horiz-adv-x="1150" d="M133 205l170 172q-108 121 -108 285q0 161 108 282l-170 174l66 66l180 -178q104 71 233 71q130 0 234 -71l178 178l68 -66l-172 -174q110 -119 110 -282q0 -166 -110 -285l172 -172l-68 -66l-178 176q-106 -69 -234 -69q-127 0 -233 69l-180 -176zM295 662 q0 -138 87.5 -235t229.5 -97t230 97t88 235t-88 234.5t-230 96.5t-229.5 -96.5t-87.5 -234.5z" />
<glyph unicode="&#xa5;" horiz-adv-x="1003" d="M88 360l16 84h330l19 101l-45 166h-258l16 88h217l-152 565h115l180 -723l422 723h125l-348 -565h215l-16 -88h-254l-105 -172l-16 -95h328l-15 -84h-330l-63 -360h-111l62 360h-332z" />
<glyph unicode="&#xa6;" horiz-adv-x="526" d="M236 295h96v-807h-96v807zM236 729v807h96v-807h-96z" />
<glyph unicode="&#xa7;" horiz-adv-x="1038" d="M6 -317l25 81q171 -63 331 -63q150 0 239 60.5t89 175.5q0 23 -4.5 43t-17.5 39t-23 32.5t-35 30.5t-38.5 26.5t-49.5 27t-51 25t-59 27.5q-149 68 -218 146.5t-69 191.5q0 220 268 336q-127 97 -127 234q0 61 20.5 110t56 82t85.5 55t107.5 31.5t123.5 9.5 q198 0 363 -73l-27 -88q-160 75 -333 75q-60 0 -109.5 -10t-90.5 -32t-64 -61t-23 -91q0 -87 51.5 -135.5t183.5 -112.5q45 -22 69.5 -34.5t64.5 -35.5t62.5 -40.5t51 -44t43 -52.5t25 -60t10.5 -71q0 -109 -72 -202t-184 -160q119 -90 119 -205q0 -158 -124.5 -247 t-312.5 -89q-162 0 -356 68zM233 532q0 -88 51.5 -141t174.5 -112q16 -8 46.5 -22.5t54.5 -27t44 -24.5q94 50 158.5 130.5t64.5 168.5q0 30 -9 56.5t-19.5 46t-36 41.5t-42 35t-55.5 33.5t-57.5 29.5t-66.5 32q-35 16 -80 41q-106 -54 -167 -121t-61 -166z" />
<glyph unicode="&#xa8;" horiz-adv-x="864" d="M297 1231q0 40 26 67t68 27q34 0 56 -21t22 -55q0 -40 -25.5 -68t-66.5 -28q-34 0 -57 21.5t-23 56.5zM649 1231q0 40 26 67t68 27q34 0 56 -21t22 -55q0 -40 -25.5 -68t-68.5 -28q-33 0 -55.5 21.5t-22.5 56.5z" />
<glyph unicode="&#xa9;" horiz-adv-x="1595" d="M139 682q0 145 51.5 274.5t143 225t225.5 151.5t289 56t288.5 -56t224 -151.5t142 -225t51.5 -274.5q0 -193 -87 -354t-249.5 -257t-369.5 -96q-155 0 -289 56t-225 152t-143 225.5t-52 273.5zM205 682q0 -178 80 -325.5t228 -235.5t335 -88q140 0 260.5 51.5 t203.5 139.5t130 206.5t47 251.5t-47 251.5t-130 206.5t-203.5 139.5t-260.5 51.5q-187 0 -335 -88t-228 -235.5t-80 -325.5zM504 682q0 179 104 290t289 111q129 0 203 -41l-17 -69q-87 33 -178 33q-150 0 -229.5 -86.5t-79.5 -237.5t79.5 -237.5t229.5 -86.5q91 0 178 33 l17 -69q-74 -41 -203 -41q-185 0 -289 111t-104 290z" />
<glyph unicode="&#xaa;" horiz-adv-x="747" d="M129 528l14 70h533l-12 -70h-535zM186 950q0 86 20.5 161t62.5 137.5t114.5 99t167.5 36.5q119 0 223 -51l-106 -600h-82l41 228q-14 -38 -36 -76t-54.5 -77.5t-77.5 -64t-94 -24.5q-87 0 -133 67.5t-46 163.5zM270 954q0 -72 28.5 -117.5t84.5 -45.5q52 0 100.5 40 t84 103.5t60.5 131t38 132.5l18 92q-77 25 -135 25q-75 0 -130.5 -30.5t-87 -83t-46.5 -114.5t-15 -133z" />
<glyph unicode="&#xab;" horiz-adv-x="1083" d="M68 492l411 415h137l-419 -426l268 -405h-125zM510 492l414 415h135l-420 -426l268 -405h-125z" />
<glyph unicode="&#xac;" horiz-adv-x="1130" d="M137 614v95h897v-519h-106v424h-791z" />
<glyph unicode="&#xad;" horiz-adv-x="733" d="M137 545l17 96h471l-15 -96h-473z" />
<glyph unicode="&#xae;" horiz-adv-x="1089" d="M184 948q0 187 123.5 314t319.5 127t320 -127t124 -314q0 -184 -124.5 -312t-319.5 -128t-319 128t-124 312zM240 948q0 -166 106.5 -278.5t280.5 -112.5q173 0 280 113t107 278t-107 278t-280 113q-174 0 -280.5 -112.5t-106.5 -278.5zM487 735v451h158q69 0 110.5 -34 t41.5 -95q0 -47 -26.5 -83.5t-72.5 -49.5l148 -189h-86l-137 180h-66v-180h-70zM557 971h82q41 0 64.5 22t23.5 60q0 36 -23 55.5t-63 19.5h-84v-157z" />
<glyph unicode="&#xaf;" horiz-adv-x="823" d="M276 1178l17 86h500l-17 -86h-500z" />
<glyph unicode="&#xb0;" horiz-adv-x="661" d="M201 1141q0 101 65 172t178 71q114 0 180 -71t66 -172q0 -103 -66 -174.5t-180 -71.5t-178.5 71t-64.5 175zM279 1141q0 -75 43 -126.5t122 -51.5q80 0 123 51t43 127q0 75 -43 126.5t-123 51.5q-79 0 -122 -52t-43 -126z" />
<glyph unicode="&#xb1;" horiz-adv-x="1130" d="M137 0v92h395v410h-395v94h395v424h107v-424h395v-94h-395v-410h395v-92h-897z" />
<glyph unicode="&#xb2;" horiz-adv-x="716" d="M160 799l8 57q10 68 32.5 117.5t64 86.5t79 59.5t105.5 56.5q47 23 73 37t61.5 37t53.5 44t31.5 50.5t13.5 62.5q0 55 -41.5 82t-110.5 27q-101 0 -194 -46l-14 66q102 51 217 51q109 0 170 -45t61 -125q0 -54 -20 -98t-61 -79.5t-79.5 -59t-99.5 -54.5 q-122 -62 -160 -92q-77 -60 -88 -155l-2 -11h404l-15 -69h-489z" />
<glyph unicode="&#xb3;" horiz-adv-x="696" d="M174 842l27 65q104 -51 202 -51q90 0 137.5 41t47.5 115q0 66 -45.5 105.5t-128.5 39.5h-107l15 74h102q91 0 155 48t64 122q0 56 -36.5 86.5t-106.5 30.5q-89 0 -176 -41l-17 65q98 45 207 45q104 0 161.5 -45t57.5 -129q0 -153 -190 -221q61 -21 97 -67t36 -113 q0 -93 -70.5 -158.5t-195.5 -65.5q-119 0 -236 54z" />
<glyph unicode="&#xb4;" horiz-adv-x="608" d="M268 1108l187 311h143l-223 -311h-107z" />
<glyph unicode="&#xb5;" horiz-adv-x="1120" d="M0 -365l233 1332h113l-117 -658q-8 -50 -8 -78q0 -155 156 -155q95 0 183.5 75t153.5 204.5t93 289.5l57 322h113l-121 -680q-8 -44 -8 -86q0 -131 110 -131h25l-12 -74q-21 -8 -53 -8q-93 0 -135 58t-42 147q0 29 7 73l10 66q-61 -160 -162.5 -256t-247.5 -96 q-63 0 -114.5 29t-77.5 75q8 -27 8 -98q0 -61 -12 -127l-41 -224h-111z" />
<glyph unicode="&#xb6;" horiz-adv-x="1054" d="M133 809q0 264 144.5 409.5t402.5 145.5h360l-290 -1651h-97l277 1569h-260l-152 -866q-176 0 -280.5 107t-104.5 286z" />
<glyph unicode="&#xb7;" horiz-adv-x="483" d="M158 547q0 46 28.5 75t75.5 29q38 0 61 -23t23 -57q0 -44 -29 -75t-79 -31q-35 0 -57.5 24t-22.5 58z" />
<glyph unicode="&#xb8;" horiz-adv-x="614" d="M18 -311q199 15 199 86q0 36 -39 50t-121 19l54 156h73l-28 -102q70 -3 115.5 -31t45.5 -84q0 -150 -299 -168v74z" />
<glyph unicode="&#xb9;" horiz-adv-x="462" d="M264 1538l203 39h74l-135 -772h-89l123 692l-172 -31z" />
<glyph unicode="&#xba;" horiz-adv-x="772" d="M133 528l12 70h517l-13 -70h-516zM199 983q0 77 20.5 147.5t60 128t104.5 91.5t146 34q115 0 174.5 -68.5t59.5 -174.5q0 -72 -21 -144.5t-60 -135.5t-104.5 -102.5t-146.5 -39.5q-111 0 -172 73t-61 191zM283 981q0 -83 37.5 -138t121.5 -55q74 0 130.5 57t82 134 t25.5 154q0 79 -38.5 130.5t-121.5 51.5q-78 0 -133.5 -50.5t-79.5 -124t-24 -159.5z" />
<glyph unicode="&#xbb;" horiz-adv-x="1083" d="M16 76l422 426l-268 405h125l272 -415l-411 -416h-140zM461 76l420 426l-269 405h125l273 -415l-412 -416h-137z" />
<glyph unicode="&#xbc;" horiz-adv-x="1492" d="M219 0l942 1364h101l-945 -1364h-98zM252 1325l201 39h75l-137 -772h-86l121 692l-170 -31zM778 274l463 500h88l-88 -500h102l-12 -69h-102l-37 -205h-82l37 205h-363zM862 274h295l74 406z" />
<glyph unicode="&#xbd;" horiz-adv-x="1566" d="M219 0l942 1364h101l-945 -1364h-98zM252 1325l201 39h75l-137 -772h-86l121 692l-170 -31zM868 0l9 57q7 46 19 83.5t33 67t41.5 51.5t54 44.5t60.5 37t72 36.5q60 29 91.5 47t70 47t55.5 62.5t17 74.5q0 55 -41.5 82t-110.5 27q-104 0 -195 -45l-14 65q102 51 217 51 q109 0 170.5 -45t61.5 -125q0 -54 -20 -98t-61.5 -79.5t-79.5 -58.5t-99 -54q-44 -22 -57.5 -29t-47.5 -26.5t-46 -30t-34.5 -30.5t-31.5 -37.5t-18.5 -42t-12.5 -52.5l-2 -10h403l-14 -70h-490z" />
<glyph unicode="&#xbe;" horiz-adv-x="1583" d="M133 629l27 65q104 -51 202 -51q90 0 137.5 41t47.5 115q0 66 -45.5 105.5t-128.5 39.5h-107l15 74h102q91 0 155 48t64 122q0 56 -36.5 86.5t-106.5 30.5q-89 0 -176 -41l-17 65q98 45 207 45q104 0 161.5 -45t57.5 -129q0 -153 -190 -221q61 -21 97 -67t36 -113 q0 -93 -70.5 -158.5t-195.5 -65.5q-119 0 -236 54zM311 0l942 1364h99l-942 -1364h-99zM868 274l463 500h90l-90 -500h105l-15 -69h-100l-37 -205h-84l37 205h-363zM954 274h295l72 406z" />
<glyph unicode="&#xbf;" horiz-adv-x="868" d="M-4 -129q0 43 10 83.5t22.5 70.5t40 64.5t45.5 54.5t58 52t58 45.5t63 45.5q104 75 144 137t59 176l8 51h102l-10 -59q-17 -101 -47 -166t-71.5 -109.5t-121.5 -103.5q-53 -38 -80 -59.5t-65.5 -57t-57 -64.5t-33 -69t-14.5 -84q0 -172 228 -172q146 0 280 62l15 -88 q-141 -66 -310 -66q-150 0 -236.5 65.5t-86.5 190.5zM494 885q0 42 28.5 72t77.5 30q38 0 60 -23t22 -55q0 -47 -28.5 -76.5t-75.5 -29.5q-38 0 -61 23t-23 59z" />
<glyph unicode="&#xc0;" d="M-47 0l743 1364h129l260 -1364h-110l-70 389h-624l-207 -389h-121zM332 487h557l-141 783zM532 1767h140l129 -270h-99z" />
<glyph unicode="&#xc1;" d="M-47 0l743 1364h129l260 -1364h-110l-70 389h-624l-207 -389h-121zM332 487h557l-141 783zM731 1497l225 270h146l-264 -270h-107z" />
<glyph unicode="&#xc2;" d="M-47 0l743 1364h129l260 -1364h-110l-70 389h-624l-207 -389h-121zM332 487h557l-141 783zM492 1497l272 270h113l180 -270h-105l-137 211l-207 -211h-116z" />
<glyph unicode="&#xc3;" d="M-47 0l743 1364h129l260 -1364h-110l-70 389h-624l-207 -389h-121zM332 487h557l-141 783zM473 1550q37 76 76.5 113t107.5 37q53 0 146.5 -46t128.5 -46q28 0 50 16t33 33t27 49l70 -33q-70 -151 -176 -151q-53 0 -143 46t-136 46q-21 0 -37 -6t-30.5 -23t-22 -28.5 t-24.5 -40.5z" />
<glyph unicode="&#xc4;" d="M-47 0l743 1364h129l260 -1364h-110l-70 389h-624l-207 -389h-121zM332 487h557l-141 783zM516 1618q0 39 26 65.5t68 26.5q35 0 56.5 -20.5t21.5 -53.5q0 -38 -26.5 -66t-67.5 -28q-33 0 -55.5 21.5t-22.5 54.5zM903 1618q0 39 26 65.5t68 26.5q35 0 56.5 -20.5 t21.5 -53.5q0 -38 -26.5 -66t-67.5 -28q-33 0 -55.5 21.5t-22.5 54.5z" />
<glyph unicode="&#xc5;" d="M-47 0l731 1337q-74 35 -74 119q0 85 54.5 134.5t146.5 49.5q71 0 111.5 -37t40.5 -94q0 -65 -36.5 -113t-97.5 -65l256 -1331h-110l-70 389h-624l-207 -389h-121zM332 487h557l-141 783zM678 1460q0 -40 24 -64t66 -24q56 0 91.5 36t35.5 91q0 40 -24 62t-68 22 q-57 0 -91 -33t-34 -90z" />
<glyph unicode="&#xc6;" horiz-adv-x="1667" d="M-47 0l743 1364h1026l-18 -98h-856l94 -508h625l-17 -101h-594l105 -559h436l-14 -98h-510l-72 391h-622l-207 -391h-119zM330 487h555l-140 785z" />
<glyph unicode="&#xc7;" horiz-adv-x="1179" d="M102 559q0 166 49 314.5t140.5 264t235.5 183.5t321 68q232 0 387 -86l-33 -95q-167 80 -354 80q-149 0 -270.5 -59t-199.5 -159.5t-119.5 -231t-41.5 -277.5q0 -222 123.5 -353.5t347.5 -131.5q153 0 295 49l18 -94q-147 -56 -335 -56q-23 0 -39 2l-23 -79 q70 -3 116 -31t46 -84q0 -150 -299 -168v74q199 15 199 86q0 36 -39 50t-121 19l47 142q-211 33 -331 188.5t-120 384.5z" />
<glyph unicode="&#xc8;" horiz-adv-x="1101" d="M82 0l240 1364h833l-18 -98h-717l-90 -508h669l-18 -99h-670l-98 -561h719l-17 -98h-833zM563 1767h139l129 -270h-98z" />
<glyph unicode="&#xc9;" horiz-adv-x="1101" d="M82 0l240 1364h833l-18 -98h-717l-90 -508h669l-18 -99h-670l-98 -561h719l-17 -98h-833zM662 1497l225 270h145l-264 -270h-106z" />
<glyph unicode="&#xca;" horiz-adv-x="1101" d="M82 0l240 1364h833l-18 -98h-717l-90 -508h669l-18 -99h-670l-98 -561h719l-17 -98h-833zM487 1497l273 270h112l181 -270h-105l-137 211l-207 -211h-117z" />
<glyph unicode="&#xcb;" horiz-adv-x="1101" d="M82 0l240 1364h833l-18 -98h-717l-90 -508h669l-18 -99h-670l-98 -561h719l-17 -98h-833zM512 1618q0 39 26 65.5t68 26.5q35 0 56.5 -20.5t21.5 -53.5q0 -38 -26.5 -66t-67.5 -28q-33 0 -55.5 21.5t-22.5 54.5zM899 1618q0 39 26 65.5t68 26.5q35 0 56.5 -20.5 t21.5 -53.5q0 -38 -26.5 -66t-67.5 -28q-33 0 -55.5 21.5t-22.5 54.5z" />
<glyph unicode="&#xcc;" horiz-adv-x="479" d="M90 0l240 1364h114l-239 -1364h-115zM174 1767h139l129 -270h-98z" />
<glyph unicode="&#xcd;" horiz-adv-x="479" d="M90 0l240 1364h114l-239 -1364h-115zM354 1497l226 270h145l-264 -270h-107z" />
<glyph unicode="&#xce;" horiz-adv-x="479" d="M90 0l240 1364h114l-239 -1364h-115zM121 1497l272 270h113l180 -270h-104l-138 211l-206 -211h-117z" />
<glyph unicode="&#xcf;" horiz-adv-x="479" d="M90 0l240 1364h114l-239 -1364h-115zM147 1618q0 39 26.5 65.5t68.5 26.5q35 0 56 -20.5t21 -53.5q0 -38 -26.5 -66t-67.5 -28q-33 0 -55.5 21.5t-22.5 54.5zM535 1618q0 39 26 65.5t68 26.5q35 0 56.5 -20.5t21.5 -53.5q0 -38 -27 -66t-68 -28q-33 0 -55 21.5t-22 54.5z " />
<glyph unicode="&#xd0;" horiz-adv-x="1384" d="M86 635l18 96h144l110 633h422q166 0 291 -74.5t189.5 -201t64.5 -283.5q0 -156 -51.5 -300.5t-145.5 -257t-238 -180t-317 -67.5h-454l110 635h-143zM250 98h330q141 0 261 57.5t200 154t124.5 224t44.5 267.5q0 203 -121.5 334t-320.5 131h-313l-95 -535h422l-18 -96 h-420z" />
<glyph unicode="&#xd1;" horiz-adv-x="1374" d="M82 0l240 1364h110l596 -1200l209 1200h111l-240 -1364h-111l-598 1202l-209 -1202h-108zM551 1550q37 76 76.5 113t107.5 37q53 0 146.5 -46t128.5 -46q28 0 50 16t33 33t27 49l70 -33q-70 -151 -176 -151q-53 0 -143 46t-136 46q-21 0 -37 -6t-30.5 -23t-22 -28.5 t-24.5 -40.5z" />
<glyph unicode="&#xd2;" horiz-adv-x="1357" d="M102 561q0 133 27 255t83 226.5t136 181.5t192 121t244 44q158 0 276.5 -73t180.5 -200.5t62 -290.5q0 -124 -27 -244.5t-84 -230t-137 -193t-194 -133t-247 -49.5q-118 0 -216 48t-162 129t-99 186.5t-35 222.5zM217 565q0 -95 24.5 -181t72.5 -157t128.5 -113 t182.5 -42q108 0 200.5 42.5t157.5 115.5t111.5 168.5t69 202t22.5 216.5q0 97 -24.5 181t-72.5 150.5t-128.5 105t-184.5 38.5q-113 0 -206.5 -40.5t-158 -110t-109 -163t-65 -197.5t-20.5 -216zM606 1767h139l129 -270h-98z" />
<glyph unicode="&#xd3;" horiz-adv-x="1357" d="M102 561q0 133 27 255t83 226.5t136 181.5t192 121t244 44q158 0 276.5 -73t180.5 -200.5t62 -290.5q0 -124 -27 -244.5t-84 -230t-137 -193t-194 -133t-247 -49.5q-118 0 -216 48t-162 129t-99 186.5t-35 222.5zM217 565q0 -95 24.5 -181t72.5 -157t128.5 -113 t182.5 -42q108 0 200.5 42.5t157.5 115.5t111.5 168.5t69 202t22.5 216.5q0 97 -24.5 181t-72.5 150.5t-128.5 105t-184.5 38.5q-113 0 -206.5 -40.5t-158 -110t-109 -163t-65 -197.5t-20.5 -216zM768 1497l225 270h146l-265 -270h-106z" />
<glyph unicode="&#xd4;" horiz-adv-x="1357" d="M102 561q0 133 27 255t83 226.5t136 181.5t192 121t244 44q158 0 276.5 -73t180.5 -200.5t62 -290.5q0 -124 -27 -244.5t-84 -230t-137 -193t-194 -133t-247 -49.5q-118 0 -216 48t-162 129t-99 186.5t-35 222.5zM217 565q0 -95 24.5 -181t72.5 -157t128.5 -113 t182.5 -42q108 0 200.5 42.5t157.5 115.5t111.5 168.5t69 202t22.5 216.5q0 97 -24.5 181t-72.5 150.5t-128.5 105t-184.5 38.5q-113 0 -206.5 -40.5t-158 -110t-109 -163t-65 -197.5t-20.5 -216zM551 1497l272 270h113l180 -270h-104l-138 211l-206 -211h-117z" />
<glyph unicode="&#xd5;" horiz-adv-x="1357" d="M102 561q0 133 27 255t83 226.5t136 181.5t192 121t244 44q158 0 276.5 -73t180.5 -200.5t62 -290.5q0 -124 -27 -244.5t-84 -230t-137 -193t-194 -133t-247 -49.5q-118 0 -216 48t-162 129t-99 186.5t-35 222.5zM217 565q0 -95 24.5 -181t72.5 -157t128.5 -113 t182.5 -42q108 0 200.5 42.5t157.5 115.5t111.5 168.5t69 202t22.5 216.5q0 97 -24.5 181t-72.5 150.5t-128.5 105t-184.5 38.5q-113 0 -206.5 -40.5t-158 -110t-109 -163t-65 -197.5t-20.5 -216zM518 1550q37 76 76.5 113t107.5 37q53 0 146.5 -46t128.5 -46q28 0 50 16 t33 33t27 49l70 -33q-70 -151 -176 -151q-53 0 -143 46t-136 46q-21 0 -37 -6t-30.5 -23t-22 -28.5t-24.5 -40.5z" />
<glyph unicode="&#xd6;" horiz-adv-x="1357" d="M102 561q0 133 27 255t83 226.5t136 181.5t192 121t244 44q158 0 276.5 -73t180.5 -200.5t62 -290.5q0 -124 -27 -244.5t-84 -230t-137 -193t-194 -133t-247 -49.5q-118 0 -216 48t-162 129t-99 186.5t-35 222.5zM217 565q0 -95 24.5 -181t72.5 -157t128.5 -113 t182.5 -42q108 0 200.5 42.5t157.5 115.5t111.5 168.5t69 202t22.5 216.5q0 97 -24.5 181t-72.5 150.5t-128.5 105t-184.5 38.5q-113 0 -206.5 -40.5t-158 -110t-109 -163t-65 -197.5t-20.5 -216zM584 1618q0 39 26 65.5t68 26.5q35 0 56.5 -20.5t21.5 -53.5 q0 -38 -26.5 -66t-67.5 -28q-33 0 -55.5 21.5t-22.5 54.5zM971 1618q0 39 26 65.5t68 26.5q35 0 56.5 -20.5t21.5 -53.5q0 -38 -26.5 -66t-67.5 -28q-33 0 -55.5 21.5t-22.5 54.5z" />
<glyph unicode="&#xd7;" horiz-adv-x="1118" d="M184 1006l68 67l344 -344l340 342l70 -70l-342 -339l342 -345l-68 -67l-342 344l-340 -342l-70 70l342 340z" />
<glyph unicode="&#xd8;" horiz-adv-x="1357" d="M102 561q0 133 27 255t83 226.5t136 181.5t192 121t244 44q149 0 269 -70l129 217h88l-154 -262q88 -70 137.5 -187t49.5 -262q0 -124 -27 -244.5t-84 -230t-137 -193t-194 -133t-247 -49.5q-121 0 -229 54l-119 -201h-88l141 242q-104 81 -160.5 210.5t-56.5 280.5z M217 565q0 -122 39.5 -229.5t116.5 -175.5l628 1069q-95 63 -225 63q-113 0 -206.5 -40.5t-158 -110t-109 -163t-65 -197.5t-20.5 -216zM436 117q79 -45 189 -45q108 0 200.5 42.5t157.5 115.5t111.5 168.5t69 202t22.5 216.5q0 109 -31.5 204t-93.5 159z" />
<glyph unicode="&#xd9;" horiz-adv-x="1341" d="M147 371q0 25 9 90l159 903h115l-160 -909q-8 -46 -8 -78q0 -146 89.5 -225.5t262.5 -79.5q175 0 289.5 104.5t145.5 280.5l159 907h115l-160 -907q-17 -100 -59.5 -185t-110.5 -152.5t-169 -106t-224 -38.5t-224 44t-165 136t-64 216zM655 1767h140l129 -270h-99z" />
<glyph unicode="&#xda;" horiz-adv-x="1341" d="M147 371q0 25 9 90l159 903h115l-160 -909q-8 -46 -8 -78q0 -146 89.5 -225.5t262.5 -79.5q175 0 289.5 104.5t145.5 280.5l159 907h115l-160 -907q-17 -100 -59.5 -185t-110.5 -152.5t-169 -106t-224 -38.5t-224 44t-165 136t-64 216zM735 1497l226 270h145l-264 -270 h-107z" />
<glyph unicode="&#xdb;" horiz-adv-x="1341" d="M147 371q0 25 9 90l159 903h115l-160 -909q-8 -46 -8 -78q0 -146 89.5 -225.5t262.5 -79.5q175 0 289.5 104.5t145.5 280.5l159 907h115l-160 -907q-17 -100 -59.5 -185t-110.5 -152.5t-169 -106t-224 -38.5t-224 44t-165 136t-64 216zM563 1497l273 270h112l180 -270 h-104l-137 211l-207 -211h-117z" />
<glyph unicode="&#xdc;" horiz-adv-x="1341" d="M147 371q0 25 9 90l159 903h115l-160 -909q-8 -46 -8 -78q0 -146 89.5 -225.5t262.5 -79.5q175 0 289.5 104.5t145.5 280.5l159 907h115l-160 -907q-17 -100 -59.5 -185t-110.5 -152.5t-169 -106t-224 -38.5t-224 44t-165 136t-64 216zM594 1618q0 39 26 65.5t68 26.5 q35 0 56.5 -20.5t21.5 -53.5q0 -38 -26.5 -66t-67.5 -28q-33 0 -55.5 21.5t-22.5 54.5zM981 1618q0 39 26 65.5t68 26.5q35 0 56.5 -20.5t21.5 -53.5q0 -38 -26.5 -66t-67.5 -28q-33 0 -55.5 21.5t-22.5 54.5z" />
<glyph unicode="&#xdd;" horiz-adv-x="1071" d="M184 1364h115l260 -702l494 702h135l-586 -803l-98 -561h-115l98 563zM616 1497l226 270h145l-264 -270h-107z" />
<glyph unicode="&#xde;" horiz-adv-x="1146" d="M82 0l240 1364h114l-49 -281h371q176 0 268 -91t92 -240q0 -198 -133.5 -324.5t-349.5 -126.5h-387l-51 -301h-115zM266 395h375q166 0 264.5 98t98.5 252q0 113 -67.5 178.5t-195.5 65.5h-370z" />
<glyph unicode="&#xdf;" horiz-adv-x="1091" d="M63 0l162 918q82 466 498 466q113 0 197 -58.5t84 -156.5q0 -32 -9.5 -64t-21 -55t-34 -52t-37 -44.5t-41.5 -43t-36 -36.5q-7 -7 -41 -40t-51 -53.5t-35 -58.5t-18 -77q0 -19 6 -36.5t13 -29.5t22.5 -27t25 -22t31.5 -22.5t31 -22.5q7 -5 30 -21t33 -24t30 -24.5 t30.5 -28.5t25 -31t21.5 -36.5t12.5 -40.5t5.5 -48q0 -112 -89.5 -181.5t-225.5 -69.5q-135 0 -272 55l24 84q128 -53 246 -53q98 0 152.5 40t54.5 121q0 57 -37 96t-111 85q-78 49 -122 101.5t-44 127.5q0 30 9 61.5t18 51.5t32.5 51t32.5 41.5t40 42.5t34 35 q12 13 40.5 41t44 45t34.5 42.5t28 51.5t9 53q0 69 -58 106t-137 37q-147 0 -239.5 -95.5t-126.5 -285.5l-160 -915h-111z" />
<glyph unicode="&#xe0;" horiz-adv-x="1024" d="M74 342q0 100 18.5 192.5t59.5 175.5t100.5 144t147 97t194.5 36q186 0 342 -80l-162 -907h-108l59 342q-26 -66 -58.5 -123t-79.5 -114.5t-110.5 -91t-134.5 -33.5q-88 0 -149.5 50t-90 130t-28.5 182zM186 342q0 -121 45.5 -196.5t137.5 -75.5q74 0 145.5 60.5t124 155 t90 199t55.5 203.5l29 160q-114 49 -229 49q-101 0 -180 -48t-125 -128.5t-69.5 -176.5t-23.5 -202zM485 1419h133l80 -311h-98z" />
<glyph unicode="&#xe1;" horiz-adv-x="1024" d="M74 342q0 100 18.5 192.5t59.5 175.5t100.5 144t147 97t194.5 36q186 0 342 -80l-162 -907h-108l59 342q-26 -66 -58.5 -123t-79.5 -114.5t-110.5 -91t-134.5 -33.5q-88 0 -149.5 50t-90 130t-28.5 182zM186 342q0 -121 45.5 -196.5t137.5 -75.5q74 0 145.5 60.5t124 155 t90 199t55.5 203.5l29 160q-114 49 -229 49q-101 0 -180 -48t-125 -128.5t-69.5 -176.5t-23.5 -202zM573 1108l187 311h143l-223 -311h-107z" />
<glyph unicode="&#xe2;" horiz-adv-x="1024" d="M74 342q0 100 18.5 192.5t59.5 175.5t100.5 144t147 97t194.5 36q186 0 342 -80l-162 -907h-108l59 342q-26 -66 -58.5 -123t-79.5 -114.5t-110.5 -91t-134.5 -33.5q-88 0 -149.5 50t-90 130t-28.5 182zM186 342q0 -121 45.5 -196.5t137.5 -75.5q74 0 145.5 60.5t124 155 t90 199t55.5 203.5l29 160q-114 49 -229 49q-101 0 -180 -48t-125 -128.5t-69.5 -176.5t-23.5 -202zM391 1108l258 311h115l151 -311h-104l-113 244l-196 -244h-111z" />
<glyph unicode="&#xe3;" horiz-adv-x="1024" d="M74 342q0 100 18.5 192.5t59.5 175.5t100.5 144t147 97t194.5 36q186 0 342 -80l-162 -907h-108l59 342q-26 -66 -58.5 -123t-79.5 -114.5t-110.5 -91t-134.5 -33.5q-88 0 -149.5 50t-90 130t-28.5 182zM186 342q0 -121 45.5 -196.5t137.5 -75.5q74 0 145.5 60.5t124 155 t90 199t55.5 203.5l29 160q-114 49 -229 49q-101 0 -180 -48t-125 -128.5t-69.5 -176.5t-23.5 -202zM367 1190q42 78 80.5 111.5t103.5 33.5q38 0 84 -23.5t87 -47t66 -23.5q21 0 37 6t30 23t21 28.5t23 40.5l70 -34q-75 -150 -176 -150q-49 0 -127 47t-119 47 q-12 0 -22.5 -2.5t-20 -9t-16 -11.5t-15.5 -17t-13 -17.5t-13.5 -20.5t-12.5 -20z" />
<glyph unicode="&#xe4;" horiz-adv-x="1024" d="M74 342q0 100 18.5 192.5t59.5 175.5t100.5 144t147 97t194.5 36q186 0 342 -80l-162 -907h-108l59 342q-26 -66 -58.5 -123t-79.5 -114.5t-110.5 -91t-134.5 -33.5q-88 0 -149.5 50t-90 130t-28.5 182zM186 342q0 -121 45.5 -196.5t137.5 -75.5q74 0 145.5 60.5t124 155 t90 199t55.5 203.5l29 160q-114 49 -229 49q-101 0 -180 -48t-125 -128.5t-69.5 -176.5t-23.5 -202zM403 1231q0 40 26.5 67t68.5 27q34 0 55.5 -21t21.5 -55q0 -40 -25.5 -68t-66.5 -28q-34 0 -57 21.5t-23 56.5zM756 1231q0 40 26 67t68 27q34 0 56 -21t22 -55 q0 -40 -25.5 -68t-68.5 -28q-33 0 -55.5 21.5t-22.5 56.5z" />
<glyph unicode="&#xe5;" horiz-adv-x="1024" d="M74 342q0 100 18.5 192.5t59.5 175.5t100.5 144t147 97t194.5 36q186 0 342 -80l-162 -907h-108l59 342q-26 -66 -58.5 -123t-79.5 -114.5t-110.5 -91t-134.5 -33.5q-88 0 -149.5 50t-90 130t-28.5 182zM186 342q0 -121 45.5 -196.5t137.5 -75.5q74 0 145.5 60.5t124 155 t90 199t55.5 203.5l29 160q-114 49 -229 49q-101 0 -180 -48t-125 -128.5t-69.5 -176.5t-23.5 -202zM506 1247q0 84 55 134.5t146 50.5q71 0 111 -37t40 -95q0 -84 -57 -138t-146 -54q-70 0 -109.5 39t-39.5 100zM573 1251q0 -40 24.5 -64t66.5 -24q56 0 91.5 36t35.5 91 q0 40 -24.5 63t-68.5 23q-57 0 -91 -34t-34 -91z" />
<glyph unicode="&#xe6;" horiz-adv-x="1517" d="M53 227q0 295 373 295h315l15 92q6 38 6 70q0 211 -250 211q-137 0 -293 -64l-16 91q141 65 321 65q132 0 220 -58.5t108 -160.5q69 100 167.5 159.5t221.5 59.5q111 0 180.5 -54t69.5 -149q0 -66 -27.5 -119t-77.5 -89.5t-111.5 -62.5t-139 -41t-149.5 -22.5t-152 -9.5 q-5 -73 -5 -84q0 -135 66.5 -214t204.5 -79q124 0 241 62l25 -76q-124 -69 -285 -69q-130 0 -214.5 68.5t-110.5 174.5q-68 -117 -167 -180t-245 -63q-132 0 -211.5 67.5t-79.5 179.5zM154 231q0 -82 53 -128t158 -46q141 0 234 93t116 231l10 57h-295q-141 0 -208.5 -46 t-67.5 -161zM848 524q67 1 127.5 6.5t123.5 16.5t113 30.5t90 46t62 65t22 85.5q0 60 -43.5 94.5t-113.5 34.5q-148 0 -247.5 -107t-133.5 -272z" />
<glyph unicode="&#xe7;" horiz-adv-x="862" d="M76 367q0 91 18.5 178.5t59 168t98.5 141t142.5 96.5t185.5 36q172 0 299 -96l-43 -82q-132 86 -261 86q-96 0 -173 -47.5t-122.5 -125t-69.5 -169.5t-24 -188q0 -295 277 -295q114 0 221 47l23 -80q-108 -57 -265 -57h-16l-23 -82q70 -3 116 -31t46 -84 q0 -150 -299 -168v74q199 15 199 86q0 36 -39 50t-121 19l49 144q-136 23 -207 121.5t-71 257.5z" />
<glyph unicode="&#xe8;" horiz-adv-x="878" d="M68 356q0 114 34 224.5t97 202t165.5 148t227.5 56.5q117 0 190.5 -56t73.5 -151q0 -77 -43 -138t-109.5 -98t-160 -62.5t-181 -36.5t-184.5 -15q-4 -54 -4 -80q0 -284 270 -284q130 0 256 65l25 -78q-52 -31 -134.5 -52t-162.5 -21q-174 0 -267 104t-93 272zM195 518 q82 1 156.5 9t149 27t128.5 47t87.5 72.5t33.5 100.5q0 61 -47 96t-119 35q-78 0 -144.5 -32t-114 -87.5t-80.5 -123t-50 -144.5zM430 1419h133l80 -311h-98z" />
<glyph unicode="&#xe9;" horiz-adv-x="878" d="M68 356q0 114 34 224.5t97 202t165.5 148t227.5 56.5q117 0 190.5 -56t73.5 -151q0 -77 -43 -138t-109.5 -98t-160 -62.5t-181 -36.5t-184.5 -15q-4 -54 -4 -80q0 -284 270 -284q130 0 256 65l25 -78q-52 -31 -134.5 -52t-162.5 -21q-174 0 -267 104t-93 272zM195 518 q82 1 156.5 9t149 27t128.5 47t87.5 72.5t33.5 100.5q0 61 -47 96t-119 35q-78 0 -144.5 -32t-114 -87.5t-80.5 -123t-50 -144.5zM555 1108l186 311h144l-223 -311h-107z" />
<glyph unicode="&#xea;" horiz-adv-x="878" d="M68 356q0 114 34 224.5t97 202t165.5 148t227.5 56.5q117 0 190.5 -56t73.5 -151q0 -77 -43 -138t-109.5 -98t-160 -62.5t-181 -36.5t-184.5 -15q-4 -54 -4 -80q0 -284 270 -284q130 0 256 65l25 -78q-52 -31 -134.5 -52t-162.5 -21q-174 0 -267 104t-93 272zM195 518 q82 1 156.5 9t149 27t128.5 47t87.5 72.5t33.5 100.5q0 61 -47 96t-119 35q-78 0 -144.5 -32t-114 -87.5t-80.5 -123t-50 -144.5zM342 1108l258 311h115l151 -311h-104l-113 244l-196 -244h-111z" />
<glyph unicode="&#xeb;" horiz-adv-x="878" d="M68 356q0 114 34 224.5t97 202t165.5 148t227.5 56.5q117 0 190.5 -56t73.5 -151q0 -77 -43 -138t-109.5 -98t-160 -62.5t-181 -36.5t-184.5 -15q-4 -54 -4 -80q0 -284 270 -284q130 0 256 65l25 -78q-52 -31 -134.5 -52t-162.5 -21q-174 0 -267 104t-93 272zM195 518 q82 1 156.5 9t149 27t128.5 47t87.5 72.5t33.5 100.5q0 61 -47 96t-119 35q-78 0 -144.5 -32t-114 -87.5t-80.5 -123t-50 -144.5zM381 1231q0 40 26 67t68 27q34 0 56 -21t22 -55q0 -40 -25.5 -68t-66.5 -28q-34 0 -57 21.5t-23 56.5zM733 1231q0 40 26 67t68 27 q34 0 56 -21t22 -55q0 -40 -25.5 -68t-68.5 -28q-33 0 -55.5 21.5t-22.5 56.5z" />
<glyph unicode="&#xec;" horiz-adv-x="436" d="M72 0l168 967h112l-170 -967h-110zM141 1419h133l80 -311h-98z" />
<glyph unicode="&#xed;" horiz-adv-x="436" d="M72 0l168 967h112l-170 -967h-110zM264 1108l187 311h143l-223 -311h-107z" />
<glyph unicode="&#xee;" horiz-adv-x="436" d="M57 1108l258 311h115l152 -311h-105l-112 244l-197 -244h-111zM72 0l168 967h112l-170 -967h-110z" />
<glyph unicode="&#xef;" horiz-adv-x="436" d="M72 0l168 967h112l-170 -967h-110zM76 1231q0 40 26 67t68 27q34 0 56 -21t22 -55q0 -40 -25.5 -68t-66.5 -28q-34 0 -57 21.5t-23 56.5zM428 1231q0 40 26 67t68 27q34 0 56 -21t22 -55q0 -40 -25.5 -68t-68.5 -28q-33 0 -55.5 21.5t-22.5 56.5z" />
<glyph unicode="&#xf0;" horiz-adv-x="1003" d="M68 379q0 102 28.5 194t83.5 165.5t143.5 117t198.5 43.5q120 0 207.5 -65t114.5 -170q0 300 -154 448l-219 -127l-39 64l203 114q-99 78 -258 137l39 84q186 -65 305 -170l211 121l35 -63l-191 -111q156 -180 156 -459q0 -95 -17.5 -192.5t-57.5 -193.5t-97.5 -170 t-144.5 -120t-191 -46q-84 0 -152.5 33t-112.5 89t-67.5 127t-23.5 150zM176 377q0 -136 66 -223.5t190 -87.5q71 0 132 28.5t103.5 75t73 107t44.5 124.5t14 127q0 117 -75 200t-200 83q-114 0 -194.5 -61t-117 -157t-36.5 -216z" />
<glyph unicode="&#xf1;" horiz-adv-x="1067" d="M72 0l168 967h108l-55 -324q135 344 416 344q111 0 175 -62t64 -177q0 -40 -6 -78l-119 -670h-110l114 657q7 31 7 68q0 83 -45 124.5t-123 41.5q-145 0 -263.5 -155.5t-160.5 -393.5l-60 -342h-110zM362 1190q42 77 81 111t104 34q38 0 84 -23.5t87 -47t66 -23.5 q21 0 37 6t30 23t21 28.5t23 40.5l70 -34q-75 -150 -177 -150q-50 0 -127 47t-118 47q-12 0 -22.5 -2.5t-20 -9t-16 -11.5t-15.5 -17t-13 -17.5t-13.5 -20.5t-12.5 -20z" />
<glyph unicode="&#xf2;" horiz-adv-x="1005" d="M80 381q0 87 18 172.5t57.5 164t95.5 138.5t137.5 95.5t178.5 35.5q90 0 158.5 -30t110.5 -83.5t63 -122.5t21 -151q0 -91 -19.5 -180t-60.5 -168.5t-98 -140t-137.5 -96t-174.5 -35.5q-86 0 -154.5 32.5t-110.5 89t-63.5 127.5t-21.5 152zM190 379q0 -61 13.5 -114.5 t41 -98t77.5 -70.5t116 -26q87 0 159 45t117 119.5t70 167t25 190.5q0 49 -7.5 92t-26 82.5t-46.5 68t-72.5 45.5t-101.5 17q-72 0 -133.5 -31.5t-103.5 -83t-71.5 -119t-43 -139.5t-13.5 -145zM424 1419h133l80 -311h-98z" />
<glyph unicode="&#xf3;" horiz-adv-x="1005" d="M80 381q0 87 18 172.5t57.5 164t95.5 138.5t137.5 95.5t178.5 35.5q90 0 158.5 -30t110.5 -83.5t63 -122.5t21 -151q0 -91 -19.5 -180t-60.5 -168.5t-98 -140t-137.5 -96t-174.5 -35.5q-86 0 -154.5 32.5t-110.5 89t-63.5 127.5t-21.5 152zM190 379q0 -61 13.5 -114.5 t41 -98t77.5 -70.5t116 -26q87 0 159 45t117 119.5t70 167t25 190.5q0 49 -7.5 92t-26 82.5t-46.5 68t-72.5 45.5t-101.5 17q-72 0 -133.5 -31.5t-103.5 -83t-71.5 -119t-43 -139.5t-13.5 -145zM557 1108l186 311h144l-223 -311h-107z" />
<glyph unicode="&#xf4;" horiz-adv-x="1005" d="M80 381q0 87 18 172.5t57.5 164t95.5 138.5t137.5 95.5t178.5 35.5q90 0 158.5 -30t110.5 -83.5t63 -122.5t21 -151q0 -91 -19.5 -180t-60.5 -168.5t-98 -140t-137.5 -96t-174.5 -35.5q-86 0 -154.5 32.5t-110.5 89t-63.5 127.5t-21.5 152zM190 379q0 -61 13.5 -114.5 t41 -98t77.5 -70.5t116 -26q87 0 159 45t117 119.5t70 167t25 190.5q0 49 -7.5 92t-26 82.5t-46.5 68t-72.5 45.5t-101.5 17q-72 0 -133.5 -31.5t-103.5 -83t-71.5 -119t-43 -139.5t-13.5 -145zM348 1108l258 311h115l151 -311h-104l-113 244l-196 -244h-111z" />
<glyph unicode="&#xf5;" horiz-adv-x="1005" d="M80 381q0 87 18 172.5t57.5 164t95.5 138.5t137.5 95.5t178.5 35.5q90 0 158.5 -30t110.5 -83.5t63 -122.5t21 -151q0 -91 -19.5 -180t-60.5 -168.5t-98 -140t-137.5 -96t-174.5 -35.5q-86 0 -154.5 32.5t-110.5 89t-63.5 127.5t-21.5 152zM190 379q0 -61 13.5 -114.5 t41 -98t77.5 -70.5t116 -26q87 0 159 45t117 119.5t70 167t25 190.5q0 49 -7.5 92t-26 82.5t-46.5 68t-72.5 45.5t-101.5 17q-72 0 -133.5 -31.5t-103.5 -83t-71.5 -119t-43 -139.5t-13.5 -145zM334 1190q42 78 80.5 111.5t103.5 33.5q38 0 84.5 -23.5t87.5 -47t66 -23.5 q21 0 36.5 6t30 23t21 28t22.5 41l70 -34q-75 -150 -176 -150q-40 0 -84 23.5t-85.5 47t-76.5 23.5q-12 0 -22.5 -2.5t-20 -9t-16 -11.5t-15.5 -17t-13 -17.5t-13.5 -20.5t-12.5 -20z" />
<glyph unicode="&#xf6;" horiz-adv-x="1005" d="M80 381q0 87 18 172.5t57.5 164t95.5 138.5t137.5 95.5t178.5 35.5q90 0 158.5 -30t110.5 -83.5t63 -122.5t21 -151q0 -91 -19.5 -180t-60.5 -168.5t-98 -140t-137.5 -96t-174.5 -35.5q-86 0 -154.5 32.5t-110.5 89t-63.5 127.5t-21.5 152zM190 379q0 -61 13.5 -114.5 t41 -98t77.5 -70.5t116 -26q87 0 159 45t117 119.5t70 167t25 190.5q0 49 -7.5 92t-26 82.5t-46.5 68t-72.5 45.5t-101.5 17q-72 0 -133.5 -31.5t-103.5 -83t-71.5 -119t-43 -139.5t-13.5 -145zM379 1231q0 40 26 67t68 27q34 0 56 -21t22 -55q0 -40 -25.5 -68t-66.5 -28 q-34 0 -57 21.5t-23 56.5zM731 1231q0 40 26 67t68 27q34 0 56 -21t22 -55q0 -40 -25.5 -68t-68.5 -28q-33 0 -55.5 21.5t-22.5 56.5z" />
<glyph unicode="&#xf7;" horiz-adv-x="1097" d="M158 614v95h864v-95h-864zM498 303q0 38 26 64t66 26q38 0 64 -26t26 -64q0 -37 -26 -62.5t-64 -25.5q-39 0 -65.5 25.5t-26.5 62.5zM498 1018q0 38 26 64t66 26q38 0 64 -26t26 -64q0 -37 -26 -62.5t-64 -25.5q-39 0 -65.5 25.5t-26.5 62.5z" />
<glyph unicode="&#xf8;" horiz-adv-x="1005" d="M80 -172l135 223q-67 54 -101 140.5t-34 189.5q0 87 18 172.5t57.5 164t95.5 138.5t137.5 95.5t178.5 35.5q115 0 189 -47l121 199h75l-143 -236q111 -105 111 -303q0 -91 -19.5 -180t-60.5 -168.5t-98 -140t-137.5 -96t-174.5 -35.5q-92 0 -162 36l-114 -188h-74z M190 379q0 -160 76 -242l439 717q-59 43 -150 43q-72 0 -133.5 -31.5t-103.5 -83t-71.5 -119t-43 -139.5t-13.5 -145zM317 98q51 -28 121 -28q87 0 159 45t117 119.5t70 167t25 190.5q0 137 -59 215z" />
<glyph unicode="&#xf9;" horiz-adv-x="1056" d="M106 219q0 33 7 80l116 668h113l-117 -656q-6 -38 -6 -69q0 -87 36 -126.5t118 -39.5q101 0 192 81.5t152 211.5t88 284l55 314h113l-170 -967h-109l56 324q-32 -73 -71 -132t-90 -108t-115.5 -76.5t-137.5 -27.5q-106 0 -168 62.5t-62 176.5zM485 1419h133l80 -311h-98z " />
<glyph unicode="&#xfa;" horiz-adv-x="1056" d="M106 219q0 33 7 80l116 668h113l-117 -656q-6 -38 -6 -69q0 -87 36 -126.5t118 -39.5q101 0 192 81.5t152 211.5t88 284l55 314h113l-170 -967h-109l56 324q-32 -73 -71 -132t-90 -108t-115.5 -76.5t-137.5 -27.5q-106 0 -168 62.5t-62 176.5zM539 1108l186 311h143 l-223 -311h-106z" />
<glyph unicode="&#xfb;" horiz-adv-x="1056" d="M106 219q0 33 7 80l116 668h113l-117 -656q-6 -38 -6 -69q0 -87 36 -126.5t118 -39.5q101 0 192 81.5t152 211.5t88 284l55 314h113l-170 -967h-109l56 324q-32 -73 -71 -132t-90 -108t-115.5 -76.5t-137.5 -27.5q-106 0 -168 62.5t-62 176.5zM377 1108l258 311h115 l151 -311h-104l-113 244l-197 -244h-110z" />
<glyph unicode="&#xfc;" horiz-adv-x="1056" d="M106 219q0 33 7 80l116 668h113l-117 -656q-6 -38 -6 -69q0 -87 36 -126.5t118 -39.5q101 0 192 81.5t152 211.5t88 284l55 314h113l-170 -967h-109l56 324q-32 -73 -71 -132t-90 -108t-115.5 -76.5t-137.5 -27.5q-106 0 -168 62.5t-62 176.5zM391 1231q0 40 26 67t68 27 q34 0 56 -21t22 -55q0 -40 -25.5 -68t-66.5 -28q-34 0 -57 21.5t-23 56.5zM743 1231q0 40 26.5 67t68.5 27q34 0 55.5 -21t21.5 -55q0 -40 -25.5 -68t-68.5 -28q-33 0 -55.5 21.5t-22.5 56.5z" />
<glyph unicode="&#xfd;" horiz-adv-x="825" d="M82 -365l188 363l-172 969h113l133 -848l424 848h119l-697 -1332h-108zM430 1108l186 311h144l-223 -311h-107z" />
<glyph unicode="&#xfe;" horiz-adv-x="1073" d="M8 -365l305 1729h111l-127 -717q33 69 68.5 123.5t85 106.5t114.5 81t140 29q138 0 210 -99.5t72 -262.5q0 -87 -17.5 -174.5t-57.5 -173t-97 -151t-143.5 -106t-190.5 -40.5q-83 0 -160 29t-124 67l-78 -441h-111zM213 168q129 -98 270 -98q99 0 176 48.5t122.5 129.5 t69 176t23.5 197q0 126 -50.5 201t-149.5 75q-80 0 -156 -57t-132 -147.5t-96 -195.5t-57 -208z" />
<glyph unicode="&#xff;" horiz-adv-x="825" d="M82 -365l188 363l-172 969h113l133 -848l424 848h119l-697 -1332h-108zM274 1231q0 40 26.5 67t68.5 27q34 0 55.5 -21t21.5 -55q0 -40 -25.5 -68t-66.5 -28q-34 0 -57 21.5t-23 56.5zM627 1231q0 40 26 67t68 27q34 0 56 -21t22 -55q0 -40 -25.5 -68t-68.5 -28 q-33 0 -55.5 21.5t-22.5 56.5z" />
<glyph unicode="&#x152;" horiz-adv-x="1988" d="M109 596q0 367 206 580t588 213q118 0 307 -25h834l-19 -98h-718l-88 -508h667l-16 -101h-670l-98 -559h717l-15 -98h-833q-109 -25 -221 -25q-155 0 -278.5 47.5t-202 131.5t-119.5 196.5t-41 245.5zM225 602q0 -249 142 -389.5t401 -140.5q106 0 219 24l205 1172 q-147 24 -299 24q-318 0 -493 -185.5t-175 -504.5z" />
<glyph unicode="&#x153;" horiz-adv-x="1601" d="M78 381q0 87 18 172.5t57.5 164t95.5 138.5t137.5 95.5t178.5 35.5q132 0 215.5 -66t114.5 -178q69 113 173.5 178.5t242.5 65.5q118 0 191 -55.5t73 -151.5q0 -65 -29 -118t-81.5 -89.5t-116.5 -63.5t-143.5 -43t-153.5 -24.5t-154 -11.5q-4 -54 -4 -80q0 -284 272 -284 q135 0 254 63l25 -76q-53 -32 -133.5 -52.5t-161.5 -20.5q-136 0 -221 61.5t-117 169.5q-59 -106 -159 -168.5t-226 -62.5q-86 0 -153.5 32.5t-109.5 89t-63.5 127.5t-21.5 152zM190 379q0 -61 14 -114.5t42 -98t77.5 -70.5t114.5 -26q115 0 201 78t127 194.5t41 249.5 q0 62 -12.5 114t-40 96.5t-78.5 69.5t-121 25q-72 0 -133.5 -31.5t-103.5 -83t-71.5 -119t-43 -139.5t-13.5 -145zM911 518q105 2 197 15t176.5 41t134 79t49.5 121q0 61 -46.5 96t-118.5 35q-78 0 -145.5 -32t-115 -87.5t-80.5 -122.5t-51 -145z" />
<glyph unicode="&#x178;" horiz-adv-x="1071" d="M184 1364h115l260 -702l494 702h135l-586 -803l-98 -561h-115l98 563zM444 1618q0 39 26.5 65.5t68.5 26.5q35 0 56 -20.5t21 -53.5q0 -38 -26.5 -66t-67.5 -28q-33 0 -55.5 21.5t-22.5 54.5zM831 1618q0 39 26.5 65.5t68.5 26.5q35 0 56.5 -20.5t21.5 -53.5 q0 -38 -27 -66t-68 -28q-33 0 -55.5 21.5t-22.5 54.5z" />
<glyph unicode="&#x2c6;" horiz-adv-x="862" d="M272 1108l258 311h115l152 -311h-105l-112 244l-197 -244h-111z" />
<glyph unicode="&#x2dc;" horiz-adv-x="927" d="M295 1190q42 78 80.5 111.5t103.5 33.5q38 0 84.5 -23.5t87.5 -47t66 -23.5q21 0 36.5 6t30 23t21 28t22.5 41l70 -34q-75 -150 -176 -150q-49 0 -127 47t-119 47q-12 0 -22.5 -2.5t-20 -9t-16 -11.5t-15.5 -17t-13 -17.5t-13.5 -20.5t-12.5 -20z" />
<glyph unicode="&#x2000;" horiz-adv-x="883" />
<glyph unicode="&#x2001;" horiz-adv-x="1767" />
<glyph unicode="&#x2002;" horiz-adv-x="883" />
<glyph unicode="&#x2003;" horiz-adv-x="1767" />
<glyph unicode="&#x2004;" horiz-adv-x="589" />
<glyph unicode="&#x2005;" horiz-adv-x="441" />
<glyph unicode="&#x2006;" horiz-adv-x="294" />
<glyph unicode="&#x2007;" horiz-adv-x="294" />
<glyph unicode="&#x2008;" horiz-adv-x="220" />
<glyph unicode="&#x2009;" horiz-adv-x="353" />
<glyph unicode="&#x200a;" horiz-adv-x="98" />
<glyph unicode="&#x2010;" horiz-adv-x="733" d="M137 545l17 96h471l-15 -96h-473z" />
<glyph unicode="&#x2011;" horiz-adv-x="733" d="M137 545l17 96h471l-15 -96h-473z" />
<glyph unicode="&#x2012;" horiz-adv-x="733" d="M137 545l17 96h471l-15 -96h-473z" />
<glyph unicode="&#x2013;" horiz-adv-x="1118" d="M137 545l17 96h856l-15 -96h-858z" />
<glyph unicode="&#x2014;" horiz-adv-x="1550" d="M137 545l17 96h1288l-15 -96h-1290z" />
<glyph unicode="&#x2018;" horiz-adv-x="389" d="M137 897l254 467h90l-213 -467h-131z" />
<glyph unicode="&#x2019;" horiz-adv-x="387" d="M129 897l211 467h133l-254 -467h-90z" />
<glyph unicode="&#x201a;" horiz-adv-x="446" d="M-78 -274l211 464h133l-256 -464h-88z" />
<glyph unicode="&#x201c;" horiz-adv-x="782" d="M137 897l256 467h88l-213 -467h-131zM528 897l256 467h88l-213 -467h-131z" />
<glyph unicode="&#x201d;" horiz-adv-x="782" d="M129 897l211 467h133l-256 -467h-88zM522 897l211 467h131l-254 -467h-88z" />
<glyph unicode="&#x201e;" horiz-adv-x="837" d="M-78 -274l211 464h133l-256 -464h-88zM313 -274l211 464h133l-254 -464h-90z" />
<glyph unicode="&#x2022;" horiz-adv-x="704" d="M164 733q0 102 67 172t170 70t171.5 -70t68.5 -172q0 -103 -68 -172t-172 -69t-170.5 68.5t-66.5 172.5z" />
<glyph unicode="&#x2026;" horiz-adv-x="1449" d="M72 68q0 46 28.5 75t75.5 29q39 0 61.5 -22.5t22.5 -57.5q0 -43 -28.5 -73.5t-77.5 -30.5q-35 0 -58.5 23t-23.5 57zM555 68q0 46 28.5 75t75.5 29q39 0 61.5 -22.5t22.5 -57.5q0 -43 -28.5 -73.5t-77.5 -30.5q-35 0 -58.5 23t-23.5 57zM1038 68q0 46 29 75t76 29 q39 0 61.5 -22.5t22.5 -57.5q0 -43 -29 -73.5t-78 -30.5q-35 0 -58.5 23t-23.5 57z" />
<glyph unicode="&#x202f;" horiz-adv-x="353" />
<glyph unicode="&#x2039;" horiz-adv-x="641" d="M68 492l411 415h137l-419 -426l268 -405h-125z" />
<glyph unicode="&#x203a;" horiz-adv-x="641" d="M16 76l422 426l-268 405h125l272 -415l-411 -416h-140z" />
<glyph unicode="&#x205f;" horiz-adv-x="441" />
<glyph unicode="&#x20ac;" horiz-adv-x="1173" d="M74 451l14 88h182q3 145 33 286h-164l17 88h170q30 102 77.5 184.5t115.5 148.5t162.5 102t209.5 36q183 0 334 -86l-33 -86q-154 80 -307 80q-171 0 -282 -102t-167 -277h547l-16 -88h-555q-30 -138 -33 -286h536l-14 -88h-520q11 -180 101.5 -279.5t260.5 -99.5 q131 0 261 51l16 -84q-48 -25 -130 -42t-159 -17q-204 0 -325.5 130t-133.5 341h-198z" />
<glyph unicode="&#x2122;" horiz-adv-x="1394" d="M178 1296v68h461v-68h-190v-563h-80v563h-191zM764 733v631h86l209 -463l209 463h86v-631h-72v502l-182 -391h-82l-182 391v-502h-72z" />
<glyph unicode="&#xe000;" horiz-adv-x="962" d="M0 0v963h963v-963h-963z" />
</font>
</defs>
</svg>
