<?xml version="1.0" standalone="no"?>
<!DOCTYPE svg PUBLIC "-//W3C//DTD SVG 1.1//EN" "http://www.w3.org/Graphics/SVG/1.1/DTD/svg11.dtd" >
<svg xmlns="http://www.w3.org/2000/svg">
<metadata></metadata>
<defs>
<font id="knowledgemedium" horiz-adv-x="1118" >
<font-face units-per-em="2048" ascent="1587" descent="-461" />
<missing-glyph horiz-adv-x="450" />
<glyph unicode="&#xfb01;" horiz-adv-x="1128" d="M45 793v198h117v88q0 154 71 229.5t226 75.5q91 0 159 -24l-12 -182q-46 12 -88 12q-57 0 -81.5 -26t-24.5 -89v-84h180v-198h-180v-793h-250v793h-117zM717 1264q0 66 42 109.5t111 43.5q68 0 110 -43.5t42 -109.5q0 -64 -42.5 -109t-109.5 -45q-68 0 -110.5 45 t-42.5 109zM745 0v991h250v-991h-250z" />
<glyph unicode="&#xfb02;" horiz-adv-x="1193" d="M45 793v198h117v88q0 154 71 229.5t226 75.5q91 0 168 -24l-13 -182q-54 12 -96 12q-54 0 -80 -26t-26 -89v-84h180v-198h-180v-793h-250v793h-117zM748 262v1102h249v-1100q0 -41 19 -61.5t63 -20.5q35 0 72 11l6 -187q-70 -24 -160 -24q-134 0 -191.5 71t-57.5 209z " />
<glyph horiz-adv-x="2048" />
<glyph horiz-adv-x="2048" />
<glyph unicode="&#xd;" horiz-adv-x="2048" />
<glyph unicode=" "  horiz-adv-x="450" />
<glyph unicode="&#x09;" horiz-adv-x="450" />
<glyph unicode="&#xa0;" horiz-adv-x="450" />
<glyph unicode="!" horiz-adv-x="544" d="M121 135q0 68 42 110t109 42q68 0 111 -42.5t43 -109.5t-43 -109t-111 -42t-109.5 42t-41.5 109zM141 854v510h265v-510l-64 -451h-139z" />
<glyph unicode="&#x22;" horiz-adv-x="913" d="M117 1124v240h245v-240l-24 -309h-199zM551 1124v240h246v-240l-23 -309h-199z" />
<glyph unicode="#" horiz-adv-x="1347" d="M72 375l37 168h202l68 305h-207l37 168h205l78 348h190l-76 -348h312l77 348h191l-78 -348h190l-36 -168h-189l-65 -305h188l-37 -168h-190l-82 -375h-191l82 375h-311l-84 -375h-190l81 375h-202zM504 543h311l68 305h-314z" />
<glyph unicode="$" horiz-adv-x="1091" d="M88 981q0 166 90.5 259.5t253.5 117.5v262h246v-258q169 -19 295 -84l-49 -195q-208 86 -369 86q-221 0 -221 -163q0 -23 6.5 -42.5t14 -33.5t29.5 -29t36.5 -24t53 -24t61 -23t77.5 -27q61 -21 102.5 -37.5t93 -42.5t84.5 -55.5t63 -69.5t44.5 -92.5t14.5 -116.5 q0 -152 -91.5 -251.5t-250.5 -129.5v-264h-246v258q-176 21 -334 94l55 195q212 -94 394 -94q108 0 167.5 43.5t59.5 124.5t-55 122.5t-201 87.5q-87 27 -146.5 50.5t-116 58t-89.5 74t-52.5 96t-19.5 127.5z" />
<glyph unicode="%" horiz-adv-x="1744" d="M72 1014q0 165 87.5 267.5t250.5 102.5q164 0 252 -102.5t88 -267.5t-88 -268t-252 -103q-163 0 -250.5 103t-87.5 268zM264 1014q0 -217 146 -217q147 0 147 217q0 215 -147 215q-146 0 -146 -215zM438 0l664 1364h215l-664 -1364h-215zM1004 350q0 165 88 268t251 103 q164 0 252 -103t88 -268t-88 -267.5t-252 -102.5q-163 0 -251 102.5t-88 267.5zM1198 350q0 -215 145 -215q148 0 148 215q0 217 -148 217q-74 0 -109.5 -53.5t-35.5 -163.5z" />
<glyph unicode="&#x26;" horiz-adv-x="1310" d="M72 332q0 56 14 105.5t34 86.5t56.5 75.5t68 65.5t81.5 64q-48 53 -81 97t-62 111.5t-29 131.5q0 143 102 229t279 86q155 0 249.5 -77.5t94.5 -198.5q0 -106 -60 -190t-194 -195l264 -303q88 152 131 350l192 -47q-63 -274 -192 -453l237 -270h-284l-103 115 q-167 -135 -389 -135q-177 0 -293 93t-116 259zM315 346q0 -82 57.5 -133t151.5 -51q132 0 228 86l-297 336q-71 -62 -105.5 -115t-34.5 -123zM379 1073q0 -39 20.5 -80t41 -65t61.5 -66q85 66 127.5 117t42.5 111q0 56 -38 89t-102 33q-153 0 -153 -139z" />
<glyph unicode="'" horiz-adv-x="479" d="M117 1124v240h245v-240l-24 -309h-199z" />
<glyph unicode="(" horiz-adv-x="624" d="M102 602q0 256 71.5 469.5t229.5 460.5l181 -111q-121 -231 -176.5 -418t-55.5 -401t55.5 -401t176.5 -418l-181 -111q-158 247 -229.5 460.5t-71.5 469.5z" />
<glyph unicode=")" horiz-adv-x="624" d="M41 -217q120 231 175.5 417.5t55.5 401.5t-55.5 401.5t-175.5 417.5l178 111q160 -246 231.5 -460t71.5 -470t-71.5 -470t-231.5 -460z" />
<glyph unicode="*" horiz-adv-x="854" d="M70 905l286 101l-286 98l94 166l229 -205l-61 299h190l-61 -299l227 205l96 -166l-288 -98l288 -101l-96 -164l-227 203l61 -297h-190l61 297l-229 -203z" />
<glyph unicode="+" d="M98 557v209h346v379h230v-379h346v-209h-346v-379h-230v379h-346z" />
<glyph unicode="," horiz-adv-x="591" d="M53 -299l125 573h305l-233 -573h-197z" />
<glyph unicode="-" horiz-adv-x="747" d="M111 477v215h528v-215h-528z" />
<glyph unicode="." horiz-adv-x="548" d="M123 135q0 68 42 110t109 42q68 0 110 -42.5t42 -109.5t-42 -109t-110 -42t-109.5 42t-41.5 109z" />
<glyph unicode="/" horiz-adv-x="946" d="M82 -205l553 1589h242l-555 -1589h-240z" />
<glyph unicode="0" horiz-adv-x="1241" d="M82 682q0 163 32 290.5t96.5 220.5t168.5 142t242 49t241.5 -49t168.5 -142t96.5 -220.5t31.5 -290.5t-31.5 -290.5t-96.5 -220.5t-168.5 -142t-241.5 -49t-242 49t-168.5 142t-96.5 220.5t-32 290.5zM332 682q0 -96 8.5 -171t29 -138.5t53.5 -105.5t82.5 -65.5 t115.5 -23.5t115.5 23.5t82 65t53 105.5t29 139t8.5 171q0 120 -14 208.5t-46 156.5t-89 102.5t-139 34.5t-139 -34.5t-89.5 -102.5t-46.5 -156.5t-14 -208.5z" />
<glyph unicode="1" horiz-adv-x="743" d="M27 1292l354 72h211v-1364h-250v1135l-285 -50z" />
<glyph unicode="2" horiz-adv-x="1099" d="M72 0v121q0 68 11 126.5t27 103t47.5 87t58.5 70.5t75.5 63t82 56t93.5 57q161 95 211 136q97 79 102 173v11q0 180 -252 180q-170 0 -342 -94l-57 192q193 102 430 102q224 0 347.5 -94t123.5 -278q0 -68 -24.5 -130.5t-53 -103.5t-92 -93.5t-99.5 -76.5t-118 -75 q-3 -2 -5 -3t-4.5 -3t-4.5 -3q-12 -7 -50 -31t-53.5 -34t-48.5 -33t-48.5 -37t-38 -38t-33 -44t-19 -46t-8.5 -52v-8h676v-201h-934z" />
<glyph unicode="3" horiz-adv-x="1052" d="M59 78l58 184q190 -82 342 -82q129 0 196.5 53t67.5 150q0 99 -79 153t-220 54h-209v201h203q140 0 212 53.5t72 156.5q0 88 -62 135.5t-171 47.5q-150 0 -311 -86l-62 182q194 104 414 104q211 0 326.5 -91.5t115.5 -250.5q0 -120 -61.5 -211.5t-175.5 -136.5 q123 -36 190.5 -117t67.5 -204q0 -182 -135.5 -287.5t-358.5 -105.5q-102 0 -215 26.5t-205 71.5z" />
<glyph unicode="4" horiz-adv-x="1169" d="M57 326v204l633 834h268v-842h175v-196h-175v-326h-241v326h-660zM293 522h424v574z" />
<glyph unicode="5" horiz-adv-x="1146" d="M102 94l62 182q212 -98 375 -98q134 0 209 67t75 183q0 115 -63.5 177.5t-181.5 62.5q-124 0 -230 -82l-203 65v713h848v-201h-600v-354q99 61 250 61q200 0 315 -118.5t115 -317.5q0 -197 -142 -325.5t-382 -128.5q-104 0 -230.5 31.5t-216.5 82.5z" />
<glyph unicode="6" horiz-adv-x="1153" d="M82 608q0 133 19 245.5t63 212t111 169t168 109.5t229 40q214 0 370 -84l-53 -192q-161 76 -297 76q-77 0 -136.5 -23t-100 -64.5t-67.5 -103t-39.5 -134.5t-14.5 -163q114 168 336 168q195 0 306 -113.5t111 -306.5q0 -194 -136 -329t-359 -135q-251 0 -380.5 169 t-129.5 459zM344 424q0 -111 66 -182.5t186 -71.5q116 0 183 73.5t67 184.5t-64.5 175.5t-177.5 64.5q-118 0 -189 -67.5t-71 -176.5z" />
<glyph unicode="7" horiz-adv-x="987" d="M57 1163v201h887v-207l-524 -1157h-260l538 1163h-641z" />
<glyph unicode="8" horiz-adv-x="1177" d="M90 379q0 240 242 336q-95 51 -144 132t-49 177q0 164 122.5 262t328.5 98q205 0 326.5 -98t121.5 -262q0 -97 -48 -177.5t-144 -131.5q244 -97 244 -336q0 -170 -137 -284.5t-363 -114.5q-227 0 -363.5 114t-136.5 285zM336 397q0 -106 68.5 -166.5t185.5 -60.5 q115 0 183.5 60.5t68.5 166.5q0 89 -65.5 150t-186.5 61q-122 0 -188 -61t-66 -150zM371 997q0 -91 59 -148.5t160 -57.5t159 57.5t58 148.5q0 88 -57 142.5t-160 54.5q-104 0 -161.5 -54.5t-57.5 -142.5z" />
<glyph unicode="9" horiz-adv-x="1153" d="M66 920q0 95 32 178t92 147.5t155 101.5t214 37q253 0 381.5 -168.5t128.5 -459.5q0 -133 -19 -245.5t-63 -212t-111 -169t-168 -109.5t-229 -40q-212 0 -370 83l53 193q160 -76 303 -76q98 0 167 36t108.5 104t58 152.5t20.5 195.5q-117 -168 -336 -168 q-196 0 -306.5 113t-110.5 307zM307 936q0 -111 64.5 -175.5t177.5 -64.5q117 0 188.5 67.5t71.5 176.5q0 111 -66.5 183.5t-187.5 72.5q-117 0 -182.5 -73t-65.5 -187z" />
<glyph unicode=":" horiz-adv-x="544" d="M121 135q0 68 42 110t109 42q68 0 111 -42.5t43 -109.5t-43 -109t-111 -42t-109.5 42t-41.5 109zM121 725q0 66 42 107.5t109 41.5q68 0 111 -41.5t43 -107.5q0 -67 -43 -109.5t-111 -42.5q-67 0 -109 42t-42 110z" />
<glyph unicode=";" horiz-adv-x="604" d="M53 -299l127 573h297l-229 -573h-195zM176 719q0 70 44.5 114t113.5 44q71 0 115.5 -44t44.5 -114q0 -69 -45 -113.5t-115 -44.5q-69 0 -113.5 44.5t-44.5 113.5z" />
<glyph unicode="&#x3c;" horiz-adv-x="1120" d="M94 565v193l922 387v-223l-654 -260l654 -261v-223z" />
<glyph unicode="=" d="M98 332v209h922v-209h-922zM98 782v209h922v-209h-922z" />
<glyph unicode="&#x3e;" horiz-adv-x="1120" d="M104 178v223l654 261l-654 260v223l922 -387v-193z" />
<glyph unicode="?" horiz-adv-x="952" d="M82 1298q70 37 172.5 61.5t206.5 24.5q197 0 308.5 -81.5t111.5 -241.5q0 -51 -11.5 -94.5t-29.5 -77.5t-52.5 -72t-67 -66t-85.5 -71q-81 -65 -112 -110.5t-31 -123.5v-51h-224v86q0 84 23 146.5t58.5 102.5t101.5 93q10 8 35 27.5t33 26t27.5 23t26 24t19.5 21.5 t17.5 24t11 24t8.5 28t2 30q0 133 -201 133q-131 0 -307 -74zM229 135q0 67 42.5 109.5t109.5 42.5q69 0 111.5 -42t42.5 -110t-42.5 -109.5t-111.5 -41.5q-68 0 -110 42t-42 109z" />
<glyph unicode="@" horiz-adv-x="1599" d="M72 532q0 228 96 409.5t278 286.5t420 105q155 0 282.5 -45.5t212.5 -124.5t131 -187.5t46 -234.5q0 -131 -43.5 -237.5t-133 -172t-210.5 -65.5q-105 0 -173 54t-73 139q-85 -193 -239 -193q-89 0 -137 65t-48 161q0 198 98.5 323t286.5 125q143 0 258 -59l-55 -312 q-6 -34 -6 -59q0 -115 104 -115q97 0 151 99t54 239q0 215 -142 339t-370 124q-177 0 -319.5 -84.5t-223.5 -234.5t-81 -336q0 -264 149.5 -416t431.5 -152q263 0 496 119l45 -127q-112 -58 -261 -93.5t-300 -35.5q-171 0 -309 53t-228.5 147t-139 220.5t-48.5 275.5z M666 512q0 -100 65 -100q64 0 108 81t68 212l15 81q-29 13 -62 13q-95 0 -144.5 -80.5t-49.5 -206.5z" />
<glyph unicode="A" horiz-adv-x="1320" d="M18 0l500 1364h285l500 -1364h-261l-108 322h-547l-108 -322h-261zM459 537h403l-200 598z" />
<glyph unicode="B" horiz-adv-x="1255" d="M143 0v1364h607q187 0 290 -88.5t103 -243.5q0 -118 -61.5 -205t-182.5 -129q133 -27 210 -109.5t77 -215.5q0 -167 -119.5 -270t-316.5 -103h-607zM395 201h322q107 0 162 52.5t55 143.5q0 88 -61 138.5t-173 50.5h-305v-385zM395 786h283q102 0 156.5 58t54.5 143 q0 83 -53 129.5t-156 46.5h-285v-377z" />
<glyph unicode="C" horiz-adv-x="1202" d="M72 682q0 327 184.5 517t493.5 190q229 0 389 -76l-39 -203q-145 57 -295 57q-232 0 -354.5 -123.5t-122.5 -361.5t122.5 -361.5t354.5 -123.5q150 0 295 57l39 -203q-160 -76 -389 -76q-309 0 -493.5 190t-184.5 517z" />
<glyph unicode="D" horiz-adv-x="1394" d="M147 0v1364h512q300 0 485 -188.5t185 -493.5t-185 -493.5t-485 -188.5h-512zM403 219h244q186 0 306 119.5t120 343.5t-120 343.5t-306 119.5h-244v-926z" />
<glyph unicode="E" horiz-adv-x="1155" d="M143 0v1364h918v-221h-662v-332h619v-221h-619v-369h662v-221h-918z" />
<glyph unicode="F" horiz-adv-x="1099" d="M143 0v1364h910v-221h-654v-377h611v-223h-611v-543h-256z" />
<glyph unicode="G" horiz-adv-x="1351" d="M72 674q0 329 189.5 522t537.5 193q238 0 436 -82l-39 -207q-190 69 -375 69q-244 0 -368.5 -128.5t-124.5 -368.5q0 -237 120 -362.5t347 -125.5q112 0 196 19v428h242v-590q-71 -27 -196.5 -46.5t-243.5 -19.5q-179 0 -318.5 54t-226.5 149.5t-131.5 221t-44.5 274.5z " />
<glyph unicode="H" horiz-adv-x="1396" d="M143 0v1364h256v-559h598v559h256v-1364h-256v578h-598v-578h-256z" />
<glyph unicode="I" horiz-adv-x="563" d="M154 0v1364h256v-1364h-256z" />
<glyph unicode="J" horiz-adv-x="792" d="M33 20l28 197q83 -22 170 -22q89 0 126.5 38t37.5 119v1012h256v-1010q0 -176 -93.5 -275t-270.5 -99q-139 0 -254 40z" />
<glyph unicode="K" horiz-adv-x="1275" d="M143 0v1364h256v-614l514 614h330l-586 -666l594 -698h-329l-523 647v-647h-256z" />
<glyph unicode="L" horiz-adv-x="1069" d="M143 0v1364h256v-1143h623v-221h-879z" />
<glyph unicode="M" horiz-adv-x="1685" d="M141 0v1364h258l445 -942l444 942h256v-1364h-248v864l-327 -692h-252l-328 692v-864h-248z" />
<glyph unicode="N" horiz-adv-x="1447" d="M143 0v1364h254l658 -940v940h250v-1364h-254l-660 940v-940h-248z" />
<glyph unicode="O" horiz-adv-x="1425" d="M72 682q0 153 40 280t117.5 223.5t201 150t282.5 53.5t282.5 -53.5t201 -150t117.5 -223.5t40 -280t-40 -280t-117.5 -223.5t-201 -150t-282.5 -53.5t-282.5 53.5t-201 150t-117.5 223.5t-40 280zM328 682q0 -225 95.5 -356t289.5 -131q130 0 217.5 63t127.5 170t40 254 t-40 254t-127.5 170t-217.5 63q-194 0 -289.5 -131t-95.5 -356z" />
<glyph unicode="P" horiz-adv-x="1230" d="M143 0v1364h592q208 0 329.5 -121.5t121.5 -310.5q0 -186 -125 -311t-326 -125h-336v-496h-256zM399 702h303q105 0 166.5 61.5t61.5 168.5q0 106 -63 165.5t-167 59.5h-301v-455z" />
<glyph unicode="Q" horiz-adv-x="1425" d="M72 682q0 153 40 280t117.5 223.5t201 150t282.5 53.5t282.5 -53.5t201 -150t117.5 -223.5t40 -280q0 -180 -55 -325.5t-162 -239.5l141 -232l-180 -108l-146 235q-104 -37 -239 -37q-159 0 -282.5 53.5t-201 150t-117.5 223.5t-40 280zM328 682q0 -225 95.5 -356 t289.5 -131q72 0 131 18l-105 176l168 105l99 -162q92 120 92 350q0 147 -40 254t-127.5 170t-217.5 63q-194 0 -289.5 -131t-95.5 -356z" />
<glyph unicode="R" horiz-adv-x="1351" d="M143 0v1364h625q212 0 331.5 -116t119.5 -310q0 -140 -76.5 -247.5t-208.5 -153.5l366 -537h-321l-326 510h-254v-510h-256zM399 713h330q107 0 170.5 59.5t63.5 165.5q0 103 -63.5 161t-170.5 58h-330v-444z" />
<glyph unicode="S" horiz-adv-x="1159" d="M78 983q0 216 133 311t375 95q251 0 458 -95l-47 -204q-206 90 -407 90q-132 0 -194 -37.5t-62 -132.5q0 -82 62.5 -120.5t240.5 -82.5q95 -23 161 -46t125.5 -56.5t94.5 -76t55.5 -102t20.5 -137.5q0 -195 -139 -304.5t-386 -109.5q-118 0 -248 27.5t-239 73.5l55 207 q233 -97 430 -97q269 0 269 174q0 90 -63.5 132t-235.5 79q-236 49 -347.5 143.5t-111.5 268.5z" />
<glyph unicode="T" horiz-adv-x="1128" d="M45 1143v221h1040v-221h-393v-1143h-256v1143h-391z" />
<glyph unicode="U" horiz-adv-x="1398" d="M139 506v858h256v-872q0 -141 82 -219t223 -78q140 0 222 78t82 219v872h258v-858q0 -109 -35.5 -204t-103.5 -168.5t-177 -116t-246 -42.5q-138 0 -247 42.5t-176.5 116t-102.5 168t-35 204.5z" />
<glyph unicode="V" horiz-adv-x="1214" d="M14 1364h269l325 -1073l324 1073h268l-444 -1364h-297z" />
<glyph unicode="W" horiz-adv-x="1798" d="M10 1364h258l221 -948l269 948h284l267 -948l219 948h258l-356 -1364h-240l-289 1083l-293 -1083h-239z" />
<glyph unicode="X" horiz-adv-x="1214" d="M23 0l448 694l-432 670h278l289 -461l291 461h279l-435 -670l451 -694h-281l-305 483l-303 -483h-280z" />
<glyph unicode="Y" horiz-adv-x="1144" d="M4 1364h270l297 -600l299 600h271l-441 -825v-539h-256v539z" />
<glyph unicode="Z" horiz-adv-x="1185" d="M98 0v227l684 916h-663v221h958v-227l-684 -916h705v-221h-1000z" />
<glyph unicode="[" horiz-adv-x="665" d="M154 -307v1818h458v-215h-209v-1388h209v-215h-458z" />
<glyph unicode="\" horiz-adv-x="946" d="M72 1384h239l555 -1589h-241z" />
<glyph unicode="]" horiz-adv-x="665" d="M53 -92h209v1388h-209v215h459v-1818h-459v215z" />
<glyph unicode="^" horiz-adv-x="997" d="M61 690l322 674h233l320 -674h-227l-209 473l-211 -473h-228z" />
<glyph unicode="_" horiz-adv-x="878" d="M-2 -143h883v-123h-883v123z" />
<glyph unicode="`" horiz-adv-x="714" d="M143 1430h318l110 -312h-241z" />
<glyph unicode="a" horiz-adv-x="1083" d="M88 276q0 162 95 238t257 76h277v63q0 148 -203 148q-161 0 -315 -72l-41 195q170 88 389 88q209 0 314.5 -84.5t105.5 -261.5v-666h-238v137q-50 -73 -138 -115t-194 -42q-146 0 -227.5 78.5t-81.5 217.5zM334 285q0 -63 39 -97t112 -34q104 0 168 55.5t64 144.5v62 h-232q-151 0 -151 -131z" />
<glyph unicode="b" horiz-adv-x="1142" d="M133 0v1364h250v-533q94 181 303 181q133 0 222.5 -69t129 -182.5t39.5 -264.5t-40 -264.5t-128.5 -182.5t-218.5 -69q-114 0 -192.5 48t-122.5 132v-160h-242zM383 496q0 -146 57.5 -232t173.5 -86q213 0 213 318q0 317 -213 317q-116 0 -173.5 -85t-57.5 -232z" />
<glyph unicode="c" horiz-adv-x="919" d="M66 496q0 241 124.5 378.5t364.5 137.5q88 0 170.5 -17.5t134.5 -48.5l-37 -184q-107 51 -227 51q-281 0 -281 -317q0 -316 281 -316q124 0 227 49l37 -184q-52 -30 -134 -47.5t-171 -17.5q-240 0 -364.5 137.5t-124.5 378.5z" />
<glyph unicode="d" horiz-adv-x="1142" d="M66 496q0 151 39.5 264.5t129 182.5t222.5 69q209 0 303 -181v533h250v-1364h-242v160q-44 -84 -122.5 -132t-192.5 -48q-130 0 -218.5 69t-128.5 182.5t-40 264.5zM313 496q0 -318 215 -318q116 0 174 86t58 232q0 147 -58 232t-174 85q-215 0 -215 -317z" />
<glyph unicode="e" horiz-adv-x="1019" d="M66 496q0 111 28.5 203.5t85 163t148.5 110t213 39.5q211 0 313 -129.5t102 -352.5v-124h-637q22 -240 285 -240q154 0 301 67l43 -170q-169 -83 -383 -83q-250 0 -374.5 136t-124.5 380zM317 582h404v26q0 232 -184 232q-102 0 -155 -64t-65 -194z" />
<glyph unicode="f" horiz-adv-x="628" d="M45 793v198h117v88q0 154 71 229.5t226 75.5q99 0 178 -28l-12 -178q-58 12 -107 12q-54 0 -80 -26t-26 -89v-84h180v-198h-180v-793h-250v793h-117z" />
<glyph unicode="g" horiz-adv-x="1142" d="M66 518q0 103 23 190.5t68.5 156.5t121.5 108t176 39q218 0 311 -181v160h244v-942q0 -434 -490 -434q-80 0 -178 19t-178 49l37 186q161 -64 317 -64q133 0 188.5 62t55.5 172v164q-46 -84 -124.5 -132t-182.5 -48q-101 0 -177.5 39t-122 108t-67.5 156t-22 192z M315 518q0 -143 55.5 -220t166.5 -77q102 0 163.5 77.5t61.5 219.5q0 143 -59.5 220t-165.5 77q-110 0 -166 -79t-56 -218z" />
<glyph unicode="h" horiz-adv-x="1128" d="M133 0v1364h250v-539q39 85 116.5 136t190.5 51q166 0 242 -86t76 -252v-674h-250v633q0 79 -40 121.5t-118 42.5q-104 0 -160.5 -66.5t-56.5 -189.5v-541h-250z" />
<glyph unicode="i" horiz-adv-x="516" d="M104 1264q0 66 42.5 109.5t111.5 43.5q68 0 110 -43.5t42 -109.5q0 -64 -42.5 -109t-109.5 -45q-68 0 -111 45t-43 109zM133 0v991h250v-991h-250z" />
<glyph unicode="j" horiz-adv-x="514" d="M-51 -362l18 198q34 -10 80 -10q45 0 65.5 22t20.5 70v1073h250v-1106q0 -131 -70.5 -200.5t-208.5 -69.5q-80 0 -155 23zM104 1264q0 66 42.5 109.5t111.5 43.5q68 0 110 -43.5t42 -109.5q0 -64 -42.5 -109t-109.5 -45q-68 0 -111 45t-43 109z" />
<glyph unicode="k" horiz-adv-x="1019" d="M133 0v1364h250v-815l330 442h286l-378 -487l395 -504h-289l-344 457v-457h-250z" />
<glyph unicode="l" horiz-adv-x="575" d="M129 262v1102h250v-1100q0 -41 19 -61.5t63 -20.5q34 0 71 11l7 -187q-70 -24 -160 -24q-134 0 -192 71.5t-58 208.5z" />
<glyph unicode="m" horiz-adv-x="1712" d="M133 0v991h242v-172q33 85 109 139t186 54q123 0 191 -45.5t106 -145.5q42 83 119.5 137t185.5 54q167 0 242 -85.5t75 -252.5v-674h-250v633q0 79 -39 121.5t-116 42.5q-94 0 -146.5 -61.5t-52.5 -174.5v-561h-250v633q0 79 -39 121.5t-116 42.5q-97 0 -147 -66 t-50 -190v-541h-250z" />
<glyph unicode="n" horiz-adv-x="1128" d="M133 0v991h242v-172q41 85 119.5 139t195.5 54q166 0 242 -86t76 -252v-674h-250v633q0 79 -40 121.5t-118 42.5q-104 0 -160.5 -66.5t-56.5 -189.5v-541h-250z" />
<glyph unicode="o" horiz-adv-x="1075" d="M66 496q0 151 52.5 266.5t160.5 182.5t260 67t259.5 -67t159.5 -182t52 -267t-52 -267t-159.5 -182t-259.5 -67q-228 0 -350.5 142t-122.5 374zM315 496q0 -318 224 -318q221 0 221 318q0 317 -221 317q-224 0 -224 -317z" />
<glyph unicode="p" horiz-adv-x="1142" d="M133 -365v1356h242v-160q94 181 315 181q130 0 218.5 -69t128.5 -182.5t40 -264.5t-39.5 -264.5t-129 -182.5t-222.5 -69q-210 0 -303 180v-525h-250zM383 496q0 -146 57.5 -232t173.5 -86q213 0 213 318q0 317 -213 317q-116 0 -173.5 -85t-57.5 -232z" />
<glyph unicode="q" horiz-adv-x="1142" d="M66 496q0 151 40 264.5t128.5 182.5t218.5 69q221 0 315 -181v160h242v-1356h-250v525q-93 -180 -303 -180q-133 0 -222.5 69t-129 182.5t-39.5 264.5zM313 496q0 -318 215 -318q116 0 174 86t58 232q0 147 -58 232t-174 85q-215 0 -215 -317z" />
<glyph unicode="r" horiz-adv-x="716" d="M133 0v991h244v-186q31 97 89 148t157 51q53 0 86 -11v-229q-40 6 -86 6q-123 0 -180.5 -77t-57.5 -230v-463h-252z" />
<glyph unicode="s" horiz-adv-x="897" d="M68 713q0 150 100 224.5t287 74.5q200 0 342 -68l-45 -180q-144 63 -289 63q-77 0 -113.5 -19.5t-36.5 -68.5q0 -50 38.5 -71.5t168.5 -59.5q62 -18 106 -35t87 -42t69 -55t42 -72t16 -95q0 -155 -104 -242t-290 -87q-180 0 -372 75l53 181q178 -70 315 -70 q78 0 115 24.5t37 77.5q0 43 -33.5 67t-122.5 50q-215 62 -292.5 132.5t-77.5 195.5z" />
<glyph unicode="t" horiz-adv-x="700" d="M51 780v211h133v256h250v-256h209v-211h-209v-504q0 -51 23 -73.5t80 -22.5q42 0 94 10l6 -184q-87 -26 -178 -26q-142 0 -208.5 66.5t-66.5 205.5v528h-133z" />
<glyph unicode="u" d="M123 317v674h250v-633q0 -163 153 -163q102 0 156.5 67.5t54.5 190.5v538h250v-991h-244v172q-39 -84 -116.5 -138t-192.5 -54q-311 0 -311 337z" />
<glyph unicode="v" horiz-adv-x="933" d="M-4 991h262l209 -749l209 749h262l-328 -991h-286z" />
<glyph unicode="w" horiz-adv-x="1484" d="M2 991h246l170 -700l194 700h260l197 -700l168 700h246l-285 -991h-252l-203 719l-202 -719h-254z" />
<glyph unicode="x" horiz-adv-x="958" d="M29 0l321 504l-311 487h256l184 -297l185 297h258l-314 -487l324 -504h-258l-195 311l-194 -311h-256z" />
<glyph unicode="y" horiz-adv-x="917" d="M-4 991h262l205 -725l196 725h263l-443 -1356h-252l111 359z" />
<glyph unicode="z" horiz-adv-x="937" d="M86 0v199l465 596h-440v196h743v-196l-475 -596h483v-199h-776z" />
<glyph unicode="{" horiz-adv-x="722" d="M35 498v209h37q168 0 168 163v359q0 139 70 210.5t204 71.5h160v-215h-90q-95 0 -95 -104v-307q0 -127 -58 -196.5t-183 -86.5q125 -17 183 -86.5t58 -196.5v-307q0 -104 95 -104h90v-215h-160q-134 0 -204 71.5t-70 210.5v359q0 164 -168 164h-37z" />
<glyph unicode="|" horiz-adv-x="538" d="M164 -512v2048h213v-2048h-213z" />
<glyph unicode="}" horiz-adv-x="722" d="M49 -92h90q97 0 97 104v307q0 128 57 197t182 86q-125 17 -182 86t-57 197v307q0 104 -97 104h-90v215h162q133 0 203.5 -71.5t70.5 -210.5v-359q0 -163 168 -163h35v-209h-35q-168 0 -168 -164v-359q0 -139 -70.5 -210.5t-203.5 -71.5h-162v215z" />
<glyph unicode="~" horiz-adv-x="1157" d="M82 553q20 61 36.5 101.5t41.5 79.5t53.5 62t70 36.5t93.5 13.5q48 0 106.5 -19.5t104 -43t93.5 -43t77 -19.5q25 0 44.5 10.5t33 31t21.5 39t17 46.5l213 -64q-16 -53 -31.5 -92.5t-39.5 -82t-52 -70t-68.5 -45t-88.5 -17.5q-54 0 -132 31.5t-150.5 63.5t-112.5 32 q-17 0 -32 -6t-24 -12t-20 -22.5t-15 -24t-14.5 -31t-13.5 -29.5z" />
<glyph unicode="&#xa1;" horiz-adv-x="544" d="M121 862q0 66 42 108t109 42q68 0 111 -42t43 -108q0 -67 -43 -109t-111 -42t-109.5 41.5t-41.5 109.5zM141 139l62 451h139l64 -451v-504h-265v504z" />
<glyph unicode="&#xa2;" horiz-adv-x="944" d="M72 684q0 188 91 309t263 154v250h246v-246q115 -18 196 -59l-43 -181q-114 52 -231 52q-279 0 -279 -279q0 -278 279 -278q120 0 231 51l43 -181q-80 -44 -196 -59v-250h-246v254q-172 34 -263 154t-91 309z" />
<glyph unicode="&#xa3;" horiz-adv-x="1103" d="M72 0v182q169 150 202 357h-174v200h183v213q0 120 31 205t91 134t138 71t182 22q187 0 336 -69l-43 -189q-132 58 -266 58q-117 0 -168.5 -54.5t-51.5 -177.5v-213h349v-200h-357q-30 -201 -170 -338h654v-201h-936z" />
<glyph unicode="&#xa4;" horiz-adv-x="1208" d="M78 242l166 168q-84 107 -84 252q0 141 84 251l-166 168l149 144l183 -183q78 45 194 45q113 0 195 -45l180 183l151 -144l-165 -168q84 -114 84 -251q0 -141 -84 -252l165 -168l-151 -144l-180 181q-88 -43 -195 -43q-106 0 -194 43l-183 -181zM369 662 q0 -113 62.5 -184.5t172.5 -71.5t172 71.5t62 184.5t-62 184.5t-172 71.5t-172.5 -71.5t-62.5 -184.5z" />
<glyph unicode="&#xa5;" horiz-adv-x="1116" d="M59 1364h260l238 -621l240 621h260l-232 -516h162v-186h-246l-59 -136v-39h305v-180h-305v-307h-250v307h-303v180h303v39l-61 136h-242v186h160z" />
<glyph unicode="&#xa6;" horiz-adv-x="538" d="M164 303h213v-815h-213v815zM164 721v815h213v-815h-213z" />
<glyph unicode="&#xa7;" horiz-adv-x="1110" d="M84 530q0 182 178 293q-137 99 -137 248q0 146 110.5 229.5t339.5 83.5q219 0 396 -77l-41 -177q-170 72 -344 72q-118 0 -168.5 -28t-50.5 -97q0 -16 2.5 -29.5t10 -25.5t14 -21t23 -19.5l27.5 -17.5t37 -18t42 -18t51.5 -21.5t58.5 -23.5q168 -70 233 -110 q155 -97 165 -241q1 -11 1 -22q0 -89 -49.5 -170.5t-124.5 -136.5q76 -53 108.5 -108t32.5 -140q0 -154 -126.5 -247t-329.5 -93q-240 0 -457 100l53 179q203 -97 383 -97q236 0 236 144q0 23 -7.5 42t-27 36.5t-37.5 29.5t-56.5 28.5t-65 26.5t-81.5 29 q-210 74 -304.5 160.5t-94.5 236.5zM326 549q0 -33 11 -59t27.5 -45.5t52.5 -39.5t70 -35.5t95 -39.5l112 -45q97 81 97 188q0 43 -18 75t-58.5 58.5t-90 48.5t-126.5 53l-9 3l-59 24q-3 -4 -19 -20t-21.5 -22.5t-18.5 -22t-18.5 -26t-13 -27t-10.5 -33t-3 -35.5z" />
<glyph unicode="&#xa8;" horiz-adv-x="940" d="M143 1268q0 56 35.5 92.5t95.5 36.5t96 -37t36 -92t-36 -92t-96 -37t-95.5 36.5t-35.5 92.5zM535 1268q0 56 35.5 92.5t95.5 36.5q61 0 97 -36.5t36 -92.5t-36 -92.5t-97 -36.5q-60 0 -95.5 36.5t-35.5 92.5z" />
<glyph unicode="&#xa9;" horiz-adv-x="1548" d="M61 682q0 145 52.5 274.5t144.5 225t226 151.5t290 56t290 -56t227 -151.5t145.5 -225t52.5 -274.5t-52.5 -274.5t-145.5 -225t-227 -151.5t-290 -56t-290 56t-226 151.5t-144.5 225t-52.5 274.5zM154 682q0 -125 44.5 -238.5t123.5 -199.5t196.5 -136.5t255.5 -50.5 q183 0 327 87t220 228.5t76 309.5t-76 309.5t-220 228.5t-327 87q-138 0 -255.5 -50.5t-196.5 -136.5t-123.5 -199.5t-44.5 -238.5zM418 682q0 183 106 292t301 109q130 0 222 -45l-29 -133q-84 33 -174 33q-128 0 -191 -66.5t-63 -189.5t63 -189.5t191 -66.5q90 0 174 33 l29 -133q-92 -45 -222 -45q-195 0 -301 109t-106 292z" />
<glyph unicode="&#xaa;" horiz-adv-x="772" d="M82 903q0 100 60 151.5t173 51.5h179v37q0 53 -29.5 73.5t-95.5 20.5q-109 0 -213 -49l-29 139q108 57 262 57q140 0 210.5 -55.5t70.5 -177.5v-436h-168v96q-25 -47 -81 -78t-132 -31q-99 0 -153 53t-54 148zM86 455v145h606v-145h-606zM252 903q0 -37 25 -59.5 t75 -22.5q64 0 103 38t39 97v27h-148q-94 0 -94 -80z" />
<glyph unicode="&#xab;" horiz-adv-x="1267" d="M49 504l322 422h286l-319 -422l319 -422h-286zM578 504l323 422h287l-320 -422l320 -422h-287z" />
<glyph unicode="&#xac;" d="M98 557v209h922v-588h-229v379h-693z" />
<glyph unicode="&#xad;" horiz-adv-x="747" d="M111 477v215h528v-215h-528z" />
<glyph unicode="&#xae;" horiz-adv-x="1064" d="M72 938q0 123 55.5 225t161.5 164t243 62q103 0 190.5 -36t146 -98t91.5 -144t33 -173t-33 -173t-91.5 -144t-146 -99t-190.5 -37q-136 0 -242.5 63t-162 165.5t-55.5 224.5zM147 938q0 -164 106.5 -274.5t278.5 -110.5q170 0 276.5 110.5t106.5 274.5t-106.5 274.5 t-276.5 110.5q-172 0 -278.5 -110.5t-106.5 -274.5zM377 731v438h176q76 0 120 -35.5t44 -97.5q0 -46 -23.5 -81t-64.5 -52l129 -172h-127l-115 160h-33v-160h-106zM483 969h60q31 0 49 16t18 45t-18 44.5t-49 15.5h-60v-121z" />
<glyph unicode="&#xaf;" horiz-adv-x="890" d="M143 1157v191h605v-191h-605z" />
<glyph unicode="&#xb0;" horiz-adv-x="698" d="M76 1120q0 114 74 189t198 75q126 0 200.5 -75t74.5 -189t-74.5 -189t-200.5 -75q-124 0 -198 75t-74 189zM219 1120q0 -65 34 -104t95 -39t95 39t34 104q0 66 -34.5 106t-94.5 40t-94.5 -40t-34.5 -106z" />
<glyph unicode="&#xb1;" d="M98 0v197h346v335h-346v207h346v379h230v-379h346v-207h-346v-335h346v-197h-922z" />
<glyph unicode="&#xb2;" horiz-adv-x="737" d="M82 799v82q0 52 11 94t27 71t47 57.5t57 46.5t71 44q10 6 33 19t31.5 18.5t26.5 16.5t25 16.5t19.5 15.5t17 17.5t11 17.5t8.5 20t2 21q0 80 -119 80q-99 0 -196 -56l-43 142q117 65 270 65q132 0 203 -56.5t71 -160.5q0 -43 -13 -80.5t-30 -63t-49.5 -52t-55.5 -41.5 t-65 -39q-5 -3 -24.5 -14t-26.5 -15.5t-24 -14.5t-24 -15.5t-20 -15t-18.5 -16.5t-13 -16t-10 -17.5t-2.5 -17.5v-4h360v-149h-557z" />
<glyph unicode="&#xb3;" horiz-adv-x="710" d="M82 848l41 133q94 -43 192 -43q125 0 125 88t-147 88h-111v150h109q68 0 104.5 24.5t36.5 67.5q0 41 -29.5 60.5t-78.5 19.5q-89 0 -181 -45l-45 131q115 65 258 65q127 0 196 -54.5t69 -146.5q0 -138 -132 -194q140 -39 140 -174q0 -102 -78.5 -166t-212.5 -64 q-133 0 -256 60z" />
<glyph unicode="&#xb4;" horiz-adv-x="714" d="M143 1118l111 312h317l-186 -312h-242z" />
<glyph unicode="&#xb5;" horiz-adv-x="1167" d="M133 -365v1356h250v-633q0 -163 154 -163q100 0 155.5 67t55.5 191v538h249v-708q0 -65 20.5 -95t78.5 -30h30v-150q-50 -22 -129 -22q-104 0 -160.5 53t-62.5 139q-51 -86 -135.5 -142t-206.5 -56q-84 0 -139 30q90 -93 90 -241v-134h-250z" />
<glyph unicode="&#xb6;" horiz-adv-x="1130" d="M49 846q0 243 147.5 380.5t385.5 137.5h415v-1651h-192v1493h-223v-876q-237 0 -385 140t-148 376z" />
<glyph unicode="&#xb7;" horiz-adv-x="548" d="M123 559q0 68 42 110t109 42q68 0 110 -42.5t42 -109.5t-42 -109t-110 -42t-109.5 42t-41.5 109z" />
<glyph unicode="&#xb8;" horiz-adv-x="641" d="M143 -281q146 5 146 54q0 15 -8 24.5t-28.5 14t-39.5 6.5t-55 4l41 178h114l-16 -88q99 -3 151 -31t52 -96q0 -163 -350 -170z" />
<glyph unicode="&#xb9;" horiz-adv-x="501" d="M61 1536l203 41h158v-776h-189v604l-157 -25z" />
<glyph unicode="&#xba;" horiz-adv-x="792" d="M82 1042q0 154 81.5 248t233.5 94q151 0 233.5 -94t82.5 -248t-81.5 -245.5t-234.5 -91.5t-234 91.5t-81 245.5zM106 455v145h580v-145h-580zM258 1042q0 -200 139 -200q138 0 138 200q0 201 -138 201q-139 0 -139 -201z" />
<glyph unicode="&#xbb;" horiz-adv-x="1267" d="M80 82l319 422l-319 422h287l321 -422l-321 -422h-287zM608 82l322 422l-322 422h289l322 -422l-322 -422h-289z" />
<glyph unicode="&#xbc;" horiz-adv-x="1622" d="M82 1323l203 41h157v-776h-188v604l-158 -25zM332 0l694 1364h211l-694 -1364h-211zM897 172v145l350 461h199v-463h94v-143h-94v-172h-180v172h-369zM1057 315h209v283z" />
<glyph unicode="&#xbd;" horiz-adv-x="1689" d="M82 1323l203 41h157v-776h-188v604l-158 -25zM332 0l694 1364h211l-694 -1364h-211zM1034 0v82q0 52 11 94.5t27.5 71.5t47 57.5t57 46t70.5 43.5l42 24t39 22.5t30.5 19.5t27.5 21.5t18 21t13.5 25.5t3.5 28q0 80 -116 80q-103 0 -199 -55l-41 141q117 65 268 65 q132 0 203.5 -56.5t71.5 -160.5q0 -51 -16.5 -93t-49.5 -75.5t-65.5 -56.5t-81.5 -51q-8 -5 -25 -14.5t-26 -15t-24 -14.5t-24 -15.5t-21 -15t-18.5 -16t-13 -16t-9.5 -17t-3 -17.5v-4h360v-150h-557z" />
<glyph unicode="&#xbe;" horiz-adv-x="1681" d="M82 635l41 133q94 -43 192 -43q125 0 125 88t-147 88h-111v150h109q68 0 104.5 24.5t36.5 67.5q0 41 -29.5 60.5t-78.5 19.5q-89 0 -181 -45l-45 131q115 65 258 65q128 0 196.5 -54t68.5 -146q0 -140 -132 -195q140 -39 140 -174q0 -102 -78.5 -166t-212.5 -64 q-133 0 -256 60zM393 0l692 1364h211l-692 -1364h-211zM956 172v145l351 461h198v-463h97v-143h-97v-172h-180v172h-369zM1118 315h207v283z" />
<glyph unicode="&#xbf;" horiz-adv-x="952" d="M82 -63q0 63 15 113t51 96t73.5 80.5t104.5 88.5q43 35 63.5 53.5t43 47.5t30.5 60t8 73v51h221v-86q0 -64 -11.5 -113t-37 -89.5t-54.5 -70t-77 -69.5q-17 -14 -51.5 -41.5t-46.5 -38.5t-33 -31.5t-28.5 -34.5t-14 -34t-6.5 -43q0 -133 200 -133q136 0 306 73l43 -188 q-69 -37 -172.5 -61.5t-206.5 -24.5q-199 0 -309.5 81t-110.5 241zM430 862q0 66 42.5 108t109.5 42q69 0 111 -42t42 -108q0 -68 -42 -109.5t-111 -41.5q-68 0 -110 42t-42 109z" />
<glyph unicode="&#xc0;" horiz-adv-x="1320" d="M18 0l500 1364h285l500 -1364h-261l-108 322h-547l-108 -322h-261zM272 1759h338l158 -270h-246zM459 537h403l-200 598z" />
<glyph unicode="&#xc1;" horiz-adv-x="1320" d="M18 0l500 1364h285l500 -1364h-261l-108 322h-547l-108 -322h-261zM459 537h403l-200 598zM551 1489l158 270h338l-252 -270h-244z" />
<glyph unicode="&#xc2;" horiz-adv-x="1320" d="M18 0l500 1364h285l500 -1364h-261l-108 322h-547l-108 -322h-261zM307 1489l236 270h235l240 -270h-240l-116 137l-117 -137h-238zM459 537h403l-200 598z" />
<glyph unicode="&#xc3;" horiz-adv-x="1320" d="M18 0l500 1364h285l500 -1364h-261l-108 322h-547l-108 -322h-261zM283 1552q34 116 86.5 169t148.5 53q56 0 158 -44t131 -44q13 0 24.5 5t18 9.5t14.5 17.5t10 18l9 22.5t8 19.5l160 -60q-15 -49 -30.5 -84t-39.5 -68.5t-58.5 -51t-78.5 -17.5q-49 0 -159.5 45 t-147.5 45q-36 0 -54 -23t-37 -71zM459 537h403l-200 598z" />
<glyph unicode="&#xc4;" horiz-adv-x="1320" d="M18 0l500 1364h285l500 -1364h-261l-108 322h-547l-108 -322h-261zM322 1624q0 58 34.5 92.5t96.5 34.5t96.5 -34.5t34.5 -92.5q0 -57 -34.5 -91t-96.5 -34t-96.5 34t-34.5 91zM459 537h403l-200 598zM735 1624q0 58 35.5 92.5t97.5 34.5t96.5 -34.5t34.5 -92.5 q0 -57 -34.5 -91t-96.5 -34t-97.5 34.5t-35.5 90.5z" />
<glyph unicode="&#xc5;" horiz-adv-x="1320" d="M18 0l496 1358q-57 45 -57 127q0 77 53 127.5t152 50.5q98 0 150 -50.5t52 -127.5q0 -83 -59 -127l498 -1358h-261l-108 322h-547l-108 -322h-261zM459 537h403l-200 598zM571 1485q0 -41 24.5 -63.5t66.5 -22.5q41 0 64.5 22.5t23.5 63.5t-23.5 63.5t-64.5 22.5 q-42 0 -66.5 -22.5t-24.5 -63.5z" />
<glyph unicode="&#xc6;" horiz-adv-x="1779" d="M18 0l500 1364h1168v-221h-783l111 -332h628v-221h-557l121 -369h480v-221h-644l-110 326h-543l-110 -326h-261zM459 537h403l-200 616z" />
<glyph unicode="&#xc7;" horiz-adv-x="1202" d="M72 682q0 327 184.5 517t493.5 190q229 0 389 -76l-39 -203q-145 57 -295 57q-232 0 -354.5 -123.5t-122.5 -361.5t122.5 -361.5t354.5 -123.5q150 0 295 57l39 -203q-154 -73 -381 -76l-13 -63q99 -3 151 -31t52 -96q0 -163 -350 -170l-6 104q145 5 145 54q0 15 -8 24.5 t-28.5 14t-39.5 6.5t-55 4l37 160q-265 33 -418 218t-153 482z" />
<glyph unicode="&#xc8;" horiz-adv-x="1155" d="M143 0v1364h918v-221h-662v-332h619v-221h-619v-369h662v-221h-918zM274 1759h338l158 -270h-246z" />
<glyph unicode="&#xc9;" horiz-adv-x="1155" d="M143 0v1364h918v-221h-662v-332h619v-221h-619v-369h662v-221h-918zM449 1489l157 270h338l-252 -270h-243z" />
<glyph unicode="&#xca;" horiz-adv-x="1155" d="M143 0v1364h918v-221h-662v-332h619v-221h-619v-369h662v-221h-918zM258 1489l236 270h235l240 -270h-240l-117 137l-116 -137h-238z" />
<glyph unicode="&#xcb;" horiz-adv-x="1155" d="M143 0v1364h918v-221h-662v-332h619v-221h-619v-369h662v-221h-918zM276 1624q0 58 35 92.5t97 34.5t96.5 -34.5t34.5 -92.5q0 -57 -34.5 -91t-96.5 -34t-97 34t-35 91zM690 1624q0 58 35.5 92.5t97.5 34.5t96.5 -34.5t34.5 -92.5q0 -57 -34.5 -91t-96.5 -34t-97.5 34.5 t-35.5 90.5z" />
<glyph unicode="&#xcc;" horiz-adv-x="563" d="M-92 1759h338l157 -270h-245zM154 0v1364h256v-1364h-256z" />
<glyph unicode="&#xcd;" horiz-adv-x="563" d="M154 0v1364h256v-1364h-256zM164 1489l158 270h337l-251 -270h-244z" />
<glyph unicode="&#xce;" horiz-adv-x="563" d="M-72 1489l236 270h235l240 -270h-240l-116 137l-117 -137h-238zM154 0v1364h256v-1364h-256z" />
<glyph unicode="&#xcf;" horiz-adv-x="563" d="M-55 1624q0 58 34.5 92.5t96.5 34.5t96.5 -34.5t34.5 -92.5q0 -57 -34.5 -91t-96.5 -34t-96.5 34t-34.5 91zM154 0v1364h256v-1364h-256zM358 1624q0 58 36 92.5t98 34.5t96.5 -34.5t34.5 -92.5q0 -57 -34.5 -91t-96.5 -34t-98 34.5t-36 90.5z" />
<glyph unicode="&#xd0;" horiz-adv-x="1419" d="M43 573v218h131v573h510q198 0 351 -85.5t237 -240.5t84 -356t-84 -356t-237 -240.5t-351 -85.5h-510v573h-131zM430 219h242q186 0 306 119.5t120 343.5t-120 343.5t-306 119.5h-242v-354h367v-218h-367v-354z" />
<glyph unicode="&#xd1;" horiz-adv-x="1447" d="M143 0v1364h254l658 -940v940h250v-1364h-254l-660 940v-940h-248zM338 1552q34 116 86.5 169t148.5 53q55 0 158 -44t131 -44q13 0 24.5 5t18 9.5t14.5 17.5t10 18l9 22.5t8 19.5l160 -60q-15 -49 -30.5 -84t-39.5 -68.5t-58.5 -51t-78.5 -17.5q-49 0 -159.5 45 t-147.5 45q-19 0 -33 -6.5t-25 -22.5t-16.5 -28t-15.5 -37z" />
<glyph unicode="&#xd2;" horiz-adv-x="1425" d="M72 682q0 153 40 280t117.5 223.5t201 150t282.5 53.5t282.5 -53.5t201 -150t117.5 -223.5t40 -280t-40 -280t-117.5 -223.5t-201 -150t-282.5 -53.5t-282.5 53.5t-201 150t-117.5 223.5t-40 280zM328 682q0 -225 95.5 -356t289.5 -131q130 0 217.5 63t127.5 170t40 254 t-40 254t-127.5 170t-217.5 63q-194 0 -289.5 -131t-95.5 -356zM348 1759h338l158 -270h-246z" />
<glyph unicode="&#xd3;" horiz-adv-x="1425" d="M72 682q0 153 40 280t117.5 223.5t201 150t282.5 53.5t282.5 -53.5t201 -150t117.5 -223.5t40 -280t-40 -280t-117.5 -223.5t-201 -150t-282.5 -53.5t-282.5 53.5t-201 150t-117.5 223.5t-40 280zM328 682q0 -225 95.5 -356t289.5 -131q130 0 217.5 63t127.5 170t40 254 t-40 254t-127.5 170t-217.5 63q-194 0 -289.5 -131t-95.5 -356zM578 1489l157 270h338l-252 -270h-243z" />
<glyph unicode="&#xd4;" horiz-adv-x="1425" d="M72 682q0 153 40 280t117.5 223.5t201 150t282.5 53.5t282.5 -53.5t201 -150t117.5 -223.5t40 -280t-40 -280t-117.5 -223.5t-201 -150t-282.5 -53.5t-282.5 53.5t-201 150t-117.5 223.5t-40 280zM328 682q0 -225 95.5 -356t289.5 -131q130 0 217.5 63t127.5 170t40 254 t-40 254t-127.5 170t-217.5 63q-194 0 -289.5 -131t-95.5 -356zM358 1489l236 270h235l240 -270h-240l-116 137l-117 -137h-238z" />
<glyph unicode="&#xd5;" horiz-adv-x="1425" d="M72 682q0 153 40 280t117.5 223.5t201 150t282.5 53.5t282.5 -53.5t201 -150t117.5 -223.5t40 -280t-40 -280t-117.5 -223.5t-201 -150t-282.5 -53.5t-282.5 53.5t-201 150t-117.5 223.5t-40 280zM326 1552q34 116 86.5 169t148.5 53q55 0 158 -44t131 -44q13 0 24.5 5 t18 9.5t14.5 17.5t10 18l9 22.5t8 19.5l160 -60q-15 -49 -30.5 -84t-39.5 -68.5t-58.5 -51t-78.5 -17.5q-49 0 -159.5 45t-147.5 45q-36 0 -54 -23t-37 -71zM328 682q0 -225 95.5 -356t289.5 -131q130 0 217.5 63t127.5 170t40 254t-40 254t-127.5 170t-217.5 63 q-194 0 -289.5 -131t-95.5 -356z" />
<glyph unicode="&#xd6;" horiz-adv-x="1425" d="M72 682q0 153 40 280t117.5 223.5t201 150t282.5 53.5t282.5 -53.5t201 -150t117.5 -223.5t40 -280t-40 -280t-117.5 -223.5t-201 -150t-282.5 -53.5t-282.5 53.5t-201 150t-117.5 223.5t-40 280zM328 682q0 -225 95.5 -356t289.5 -131q130 0 217.5 63t127.5 170t40 254 t-40 254t-127.5 170t-217.5 63q-194 0 -289.5 -131t-95.5 -356zM375 1624q0 58 34.5 92.5t96.5 34.5t96.5 -34.5t34.5 -92.5q0 -57 -34.5 -91t-96.5 -34t-96.5 34t-34.5 91zM788 1624q0 58 36 92.5t98 34.5t96.5 -34.5t34.5 -92.5q0 -57 -34.5 -91t-96.5 -34t-98 34.5 t-36 90.5z" />
<glyph unicode="&#xd7;" horiz-adv-x="1103" d="M98 360l303 302l-303 301l152 153l301 -303l301 301l154 -151l-304 -301l304 -302l-152 -153l-303 303l-299 -301z" />
<glyph unicode="&#xd8;" horiz-adv-x="1425" d="M72 682q0 153 40 280t117.5 223.5t201 150t282.5 53.5q95 0 192 -23l70 170h172l-94 -231q149 -86 225 -248.5t76 -374.5q0 -153 -40 -280t-117.5 -223.5t-201 -150t-282.5 -53.5q-96 0 -193 23l-67 -170h-172l92 229q-149 86 -225 249.5t-76 375.5zM328 682 q0 -279 137 -401l354 874q-58 14 -106 14q-194 0 -289.5 -131t-95.5 -356zM606 207q49 -12 107 -12q130 0 217.5 63t127.5 170t40 254q0 274 -137 399z" />
<glyph unicode="&#xd9;" horiz-adv-x="1398" d="M139 506v858h256v-872q0 -141 82 -219t223 -78q140 0 222 78t82 219v872h258v-858q0 -109 -35.5 -204t-103.5 -168.5t-177 -116t-246 -42.5q-138 0 -247 42.5t-176.5 116t-102.5 168t-35 204.5zM360 1759h338l158 -270h-246z" />
<glyph unicode="&#xda;" horiz-adv-x="1398" d="M139 506v858h256v-872q0 -141 82 -219t223 -78q140 0 222 78t82 219v872h258v-858q0 -109 -35.5 -204t-103.5 -168.5t-177 -116t-246 -42.5q-138 0 -247 42.5t-176.5 116t-102.5 168t-35 204.5zM541 1489l157 270h338l-252 -270h-243z" />
<glyph unicode="&#xdb;" horiz-adv-x="1398" d="M139 506v858h256v-872q0 -141 82 -219t223 -78q140 0 222 78t82 219v872h258v-858q0 -109 -35.5 -204t-103.5 -168.5t-177 -116t-246 -42.5q-138 0 -247 42.5t-176.5 116t-102.5 168t-35 204.5zM346 1489l236 270h235l240 -270h-240l-117 137l-116 -137h-238z" />
<glyph unicode="&#xdc;" horiz-adv-x="1398" d="M139 506v858h256v-872q0 -141 82 -219t223 -78q140 0 222 78t82 219v872h258v-858q0 -109 -35.5 -204t-103.5 -168.5t-177 -116t-246 -42.5q-138 0 -247 42.5t-176.5 116t-102.5 168t-35 204.5zM360 1624q0 58 35 92.5t97 34.5t96.5 -34.5t34.5 -92.5q0 -57 -34.5 -91 t-96.5 -34t-97 34t-35 91zM774 1624q0 58 35.5 92.5t97.5 34.5t96.5 -34.5t34.5 -92.5q0 -57 -34.5 -91t-96.5 -34t-97.5 34.5t-35.5 90.5z" />
<glyph unicode="&#xdd;" horiz-adv-x="1144" d="M4 1364h270l297 -600l299 600h271l-441 -825v-539h-256v539zM432 1489l158 270h338l-252 -270h-244z" />
<glyph unicode="&#xde;" horiz-adv-x="1232" d="M143 0v1364h256v-238h336q208 0 329.5 -121.5t121.5 -310.5q0 -186 -125 -311t-326 -125h-336v-258h-256zM399 465h303q105 0 166.5 61t61.5 168q0 106 -63 166t-167 60h-301v-455z" />
<glyph unicode="&#xdf;" horiz-adv-x="1181" d="M127 0v887q0 240 132 368.5t364 128.5q163 0 267.5 -78t104.5 -214q0 -74 -26 -132.5t-70 -117.5q-12 -16 -36.5 -46t-37 -46.5t-23.5 -41t-11 -46.5q0 -19 8.5 -34.5t30 -30.5t39.5 -25t55 -27q53 -25 88 -47.5t67.5 -54.5t48 -74.5t15.5 -96.5q0 -133 -95.5 -212.5 t-259.5 -79.5q-148 0 -260 47l35 172q92 -37 193 -37q68 0 106.5 24t38.5 72q0 20 -8.5 35.5t-30 30t-41 24t-57.5 25.5q-112 47 -164.5 109.5t-52.5 156.5q0 115 108 254q6 7 22 27t23 29t19 27t17 30.5t9.5 30.5t4.5 36q0 53 -40.5 87t-103.5 34q-116 0 -174.5 -80 t-58.5 -229v-885h-246z" />
<glyph unicode="&#xe0;" horiz-adv-x="1083" d="M88 276q0 162 95 238t257 76h277v63q0 148 -203 148q-161 0 -315 -72l-41 195q170 88 389 88q209 0 314.5 -84.5t105.5 -261.5v-666h-238v137q-50 -73 -138 -115t-194 -42q-146 0 -227.5 78.5t-81.5 217.5zM260 1430h318l110 -312h-242zM334 285q0 -63 39 -97t112 -34 q104 0 168 55.5t64 144.5v62h-232q-151 0 -151 -131z" />
<glyph unicode="&#xe1;" horiz-adv-x="1083" d="M88 276q0 162 95 238t257 76h277v63q0 148 -203 148q-161 0 -315 -72l-41 195q170 88 389 88q209 0 314.5 -84.5t105.5 -261.5v-666h-238v137q-50 -73 -138 -115t-194 -42q-146 0 -227.5 78.5t-81.5 217.5zM334 285q0 -63 39 -97t112 -34q104 0 168 55.5t64 144.5v62 h-232q-151 0 -151 -131zM420 1118l110 312h318l-186 -312h-242z" />
<glyph unicode="&#xe2;" horiz-adv-x="1083" d="M88 276q0 162 95 238t257 76h277v63q0 148 -203 148q-161 0 -315 -72l-41 195q170 88 389 88q209 0 314.5 -84.5t105.5 -261.5v-666h-238v137q-50 -73 -138 -115t-194 -42q-146 0 -227.5 78.5t-81.5 217.5zM223 1118l213 312h246l215 -312h-229l-109 168l-108 -168h-228z M334 285q0 -63 39 -97t112 -34q104 0 168 55.5t64 144.5v62h-232q-151 0 -151 -131z" />
<glyph unicode="&#xe3;" horiz-adv-x="1083" d="M88 276q0 162 95 238t257 76h277v63q0 148 -203 148q-161 0 -315 -72l-41 195q170 88 389 88q209 0 314.5 -84.5t105.5 -261.5v-666h-238v137q-50 -73 -138 -115t-194 -42q-146 0 -227.5 78.5t-81.5 217.5zM195 1188q38 119 85 170t140 51q55 0 153 -44t125 -44 q10 0 18.5 3t14.5 6t12.5 11t10 12t8 15t6 14.5t6 15.5t4.5 13l160 -57q-14 -43 -24.5 -71t-28.5 -60t-38.5 -50t-51 -30.5t-68.5 -12.5q-49 0 -148.5 46.5t-136.5 46.5q-25 0 -43 -14.5t-27 -32t-20 -48.5zM334 285q0 -63 39 -97t112 -34q104 0 168 55.5t64 144.5v62h-232 q-151 0 -151 -131z" />
<glyph unicode="&#xe4;" horiz-adv-x="1083" d="M88 276q0 162 95 238t257 76h277v63q0 148 -203 148q-161 0 -315 -72l-41 195q170 88 389 88q209 0 314.5 -84.5t105.5 -261.5v-666h-238v137q-50 -73 -138 -115t-194 -42q-146 0 -227.5 78.5t-81.5 217.5zM233 1268q0 55 36 92t96 37t95.5 -36.5t35.5 -92.5t-35.5 -92.5 t-95.5 -36.5t-96 37t-36 92zM334 285q0 -63 39 -97t112 -34q104 0 168 55.5t64 144.5v62h-232q-151 0 -151 -131zM625 1268q0 56 35.5 92.5t95.5 36.5q61 0 97 -36.5t36 -92.5t-36 -92.5t-97 -36.5q-60 0 -95.5 36.5t-35.5 92.5z" />
<glyph unicode="&#xe5;" horiz-adv-x="1083" d="M88 276q0 162 95 238t257 76h277v63q0 148 -203 148q-161 0 -315 -72l-41 195q170 88 389 88q209 0 314.5 -84.5t105.5 -261.5v-666h-238v137q-50 -73 -138 -115t-194 -42q-146 0 -227.5 78.5t-81.5 217.5zM334 285q0 -63 39 -97t112 -34q104 0 168 55.5t64 144.5v62 h-232q-151 0 -151 -131zM358 1298q0 77 52.5 128t150.5 51t150.5 -51t52.5 -128t-52.5 -128.5t-150.5 -51.5t-150.5 51.5t-52.5 128.5zM471 1298q0 -41 24 -63.5t66 -22.5t66 22.5t24 63.5t-24 63.5t-66 22.5t-66 -22.5t-24 -63.5z" />
<glyph unicode="&#xe6;" horiz-adv-x="1679" d="M86 289q0 295 352 295h289v41q0 176 -213 176q-163 0 -305 -62l-43 189q161 84 358 84q225 0 336 -160q115 160 344 160q209 0 310.5 -129t101.5 -351v-124h-635q16 -123 81.5 -182.5t203.5 -59.5q154 0 301 67l43 -170q-169 -83 -371 -83q-132 0 -237 52t-144 140 q-55 -90 -162 -141t-239 -51q-174 0 -272.5 81.5t-98.5 227.5zM326 283q0 -62 43.5 -97.5t119.5 -35.5q117 0 177.5 57t60.5 166v35h-254q-147 0 -147 -125zM981 584h401v26q0 230 -182 230q-198 0 -219 -256z" />
<glyph unicode="&#xe7;" horiz-adv-x="919" d="M66 496q0 241 124.5 378.5t364.5 137.5q88 0 170.5 -17.5t134.5 -48.5l-37 -184q-107 51 -227 51q-281 0 -281 -317q0 -316 281 -316q124 0 227 49l37 -184q-99 -58 -280 -65l-13 -68q99 -3 151 -31t52 -96q0 -163 -350 -170l-6 104q145 5 145 54q0 15 -8 24.5t-28.5 14 t-39.5 6.5t-55 4l37 164q-197 24 -298 158t-101 352z" />
<glyph unicode="&#xe8;" horiz-adv-x="1019" d="M66 496q0 111 28.5 203.5t85 163t148.5 110t213 39.5q211 0 313 -129.5t102 -352.5v-124h-637q22 -240 285 -240q154 0 301 67l43 -170q-169 -83 -383 -83q-250 0 -374.5 136t-124.5 380zM219 1430h318l110 -312h-241zM317 582h404v26q0 232 -184 232q-102 0 -155 -64 t-65 -194z" />
<glyph unicode="&#xe9;" horiz-adv-x="1019" d="M66 496q0 111 28.5 203.5t85 163t148.5 110t213 39.5q211 0 313 -129.5t102 -352.5v-124h-637q22 -240 285 -240q154 0 301 67l43 -170q-169 -83 -383 -83q-250 0 -374.5 136t-124.5 380zM317 582h404v26q0 232 -184 232q-102 0 -155 -64t-65 -194zM403 1118l111 312h317 l-186 -312h-242z" />
<glyph unicode="&#xea;" horiz-adv-x="1019" d="M66 496q0 111 28.5 203.5t85 163t148.5 110t213 39.5q211 0 313 -129.5t102 -352.5v-124h-637q22 -240 285 -240q154 0 301 67l43 -170q-169 -83 -383 -83q-250 0 -374.5 136t-124.5 380zM197 1118l213 312h245l215 -312h-229l-109 168l-108 -168h-227zM317 582h404v26 q0 232 -184 232q-102 0 -155 -64t-65 -194z" />
<glyph unicode="&#xeb;" horiz-adv-x="1019" d="M66 496q0 111 28.5 203.5t85 163t148.5 110t213 39.5q211 0 313 -129.5t102 -352.5v-124h-637q22 -240 285 -240q154 0 301 67l43 -170q-169 -83 -383 -83q-250 0 -374.5 136t-124.5 380zM203 1268q0 56 35.5 92.5t95.5 36.5t95.5 -36.5t35.5 -92.5t-35.5 -92.5 t-95.5 -36.5t-95.5 36.5t-35.5 92.5zM317 582h404v26q0 232 -184 232q-102 0 -155 -64t-65 -194zM594 1268q0 56 35.5 92.5t95.5 36.5q61 0 97 -36.5t36 -92.5t-36 -92.5t-97 -36.5q-60 0 -95.5 36.5t-35.5 92.5z" />
<glyph unicode="&#xec;" horiz-adv-x="514" d="M-45 1430h317l111 -312h-242zM133 0v991h250v-991h-250z" />
<glyph unicode="&#xed;" horiz-adv-x="514" d="M133 0v991h250v-991h-250zM145 1118l111 312h317l-186 -312h-242z" />
<glyph unicode="&#xee;" horiz-adv-x="514" d="M-78 1118l213 312h246l215 -312h-229l-109 168l-108 -168h-228zM133 0v991h250v-991h-250z" />
<glyph unicode="&#xef;" horiz-adv-x="514" d="M-70 1268q0 56 35.5 92.5t95.5 36.5t96 -37t36 -92t-36 -92t-96 -37t-95.5 36.5t-35.5 92.5zM133 0v991h250v-991h-250zM322 1268q0 56 35.5 92.5t95.5 36.5q61 0 97 -36.5t36 -92.5t-36 -92.5t-97 -36.5q-60 0 -95.5 36.5t-35.5 92.5z" />
<glyph unicode="&#xf0;" horiz-adv-x="1064" d="M61 442q0 208 108.5 336.5t305.5 128.5q184 0 289 -133q-52 167 -193 275l-106 -97l-96 109l71 65q-87 40 -202 70l53 188q171 -40 307 -112l133 121l100 -107l-108 -98q281 -229 281 -660q0 -80 -18 -156.5t-57 -148t-95.5 -125t-140.5 -86t-185 -32.5 q-204 0 -325.5 133t-121.5 329zM309 442q0 -124 56 -197t163 -73q102 0 165 77t63 195q0 125 -60.5 198t-165.5 73q-110 0 -165.5 -72.5t-55.5 -200.5z" />
<glyph unicode="&#xf1;" horiz-adv-x="1128" d="M133 0v991h242v-172q41 85 119.5 139t195.5 54q166 0 242 -86t76 -252v-674h-250v633q0 79 -40 121.5t-118 42.5q-104 0 -160.5 -66.5t-56.5 -189.5v-541h-250zM209 1188q38 119 85 170t140 51q55 0 153.5 -44t125.5 -44q10 0 18.5 3t14.5 6t12.5 11t10 12t8 15t6 14.5 t6 15.5t4.5 13l159 -57q-14 -43 -24.5 -71t-28.5 -60t-38.5 -50t-51 -30.5t-68.5 -12.5q-49 0 -148 46.5t-136 46.5q-25 0 -43 -14.5t-27 -32t-20 -48.5z" />
<glyph unicode="&#xf2;" horiz-adv-x="1075" d="M66 496q0 151 52.5 266.5t160.5 182.5t260 67t259.5 -67t159.5 -182t52 -267t-52 -267t-159.5 -182t-259.5 -67q-228 0 -350.5 142t-122.5 374zM233 1430h318l111 -312h-242zM315 496q0 -318 224 -318q221 0 221 318q0 317 -221 317q-224 0 -224 -317z" />
<glyph unicode="&#xf3;" horiz-adv-x="1075" d="M66 496q0 151 52.5 266.5t160.5 182.5t260 67t259.5 -67t159.5 -182t52 -267t-52 -267t-159.5 -182t-259.5 -67q-228 0 -350.5 142t-122.5 374zM315 496q0 -318 224 -318q221 0 221 318q0 317 -221 317q-224 0 -224 -317zM412 1118l110 312h318l-187 -312h-241z" />
<glyph unicode="&#xf4;" horiz-adv-x="1075" d="M66 496q0 151 52.5 266.5t160.5 182.5t260 67t259.5 -67t159.5 -182t52 -267t-52 -267t-159.5 -182t-259.5 -67q-228 0 -350.5 142t-122.5 374zM201 1118l213 312h245l215 -312h-229l-108 168l-109 -168h-227zM315 496q0 -318 224 -318q221 0 221 318q0 317 -221 317 q-224 0 -224 -317z" />
<glyph unicode="&#xf5;" horiz-adv-x="1075" d="M66 496q0 151 52.5 266.5t160.5 182.5t260 67t259.5 -67t159.5 -182t52 -267t-52 -267t-159.5 -182t-259.5 -67q-228 0 -350.5 142t-122.5 374zM170 1188q38 119 85 170t140 51q55 0 153.5 -44t125.5 -44q10 0 18.5 3t14.5 6t12.5 11t10 12t8 15t6 14.5t6 15.5t4.5 13 l159 -57q-14 -43 -24.5 -71t-28.5 -60t-38.5 -50t-51 -30.5t-68.5 -12.5q-49 0 -148 46.5t-136 46.5q-25 0 -43 -14.5t-27 -32t-20 -48.5zM315 496q0 -318 224 -318q221 0 221 318q0 317 -221 317q-224 0 -224 -317z" />
<glyph unicode="&#xf6;" horiz-adv-x="1075" d="M66 496q0 151 52.5 266.5t160.5 182.5t260 67t259.5 -67t159.5 -182t52 -267t-52 -267t-159.5 -182t-259.5 -67q-228 0 -350.5 142t-122.5 374zM211 1268q0 56 35.5 92.5t95.5 36.5t95.5 -36.5t35.5 -92.5t-35.5 -92.5t-95.5 -36.5t-95.5 36.5t-35.5 92.5zM315 496 q0 -318 224 -318q221 0 221 318q0 317 -221 317q-224 0 -224 -317zM602 1268q0 56 35.5 92.5t95.5 36.5q61 0 97 -36.5t36 -92.5t-36 -92.5t-97 -36.5q-60 0 -95.5 36.5t-35.5 92.5z" />
<glyph unicode="&#xf7;" horiz-adv-x="1110" d="M98 557v209h914v-209h-914zM410 266q0 62 41.5 101t103.5 39t103.5 -39t41.5 -101t-41.5 -101.5t-103.5 -39.5t-103.5 39.5t-41.5 101.5zM410 1057q0 62 41.5 101.5t103.5 39.5t103.5 -39.5t41.5 -101.5t-41 -100.5t-104 -38.5t-104 38.5t-41 100.5z" />
<glyph unicode="&#xf8;" horiz-adv-x="1067" d="M61 496q0 151 53 266.5t161 182.5t260 67q73 0 141 -19l72 170h126l-90 -215q108 -62 165 -180t57 -272q0 -152 -52 -267t-159.5 -182t-259.5 -67q-79 0 -144 18l-69 -170h-129l88 213q-108 64 -164 182t-56 273zM311 496q0 -162 58 -244l229 553q-24 8 -63 8 q-224 0 -224 -317zM469 184q27 -6 66 -6q221 0 221 318q0 162 -58 241z" />
<glyph unicode="&#xf9;" d="M123 317v674h250v-633q0 -163 153 -163q102 0 156.5 67.5t54.5 190.5v538h250v-991h-244v172q-39 -84 -116.5 -138t-192.5 -54q-311 0 -311 337zM295 1430h317l111 -312h-242z" />
<glyph unicode="&#xfa;" d="M123 317v674h250v-633q0 -163 153 -163q102 0 156.5 67.5t54.5 190.5v538h250v-991h-244v172q-39 -84 -116.5 -138t-192.5 -54q-311 0 -311 337zM414 1118l110 312h318l-187 -312h-241z" />
<glyph unicode="&#xfb;" d="M123 317v674h250v-633q0 -163 153 -163q102 0 156.5 67.5t54.5 190.5v538h250v-991h-244v172q-39 -84 -116.5 -138t-192.5 -54q-311 0 -311 337zM219 1118l213 312h246l215 -312h-229l-109 168l-109 -168h-227z" />
<glyph unicode="&#xfc;" d="M123 317v674h250v-633q0 -163 153 -163q102 0 156.5 67.5t54.5 190.5v538h250v-991h-244v172q-39 -84 -116.5 -138t-192.5 -54q-311 0 -311 337zM233 1268q0 55 36 92t96 37t95.5 -36.5t35.5 -92.5t-35.5 -92.5t-95.5 -36.5t-96 37t-36 92zM625 1268q0 56 35.5 92.5 t95.5 36.5q61 0 97 -36.5t36 -92.5t-36 -92.5t-97 -36.5q-60 0 -95.5 36.5t-35.5 92.5z" />
<glyph unicode="&#xfd;" horiz-adv-x="917" d="M-4 991h262l205 -725l196 725h263l-443 -1356h-252l111 359zM344 1118l111 312h317l-186 -312h-242z" />
<glyph unicode="&#xfe;" horiz-adv-x="1142" d="M133 -365v1729h250v-528q102 176 307 176q130 0 218.5 -69t128.5 -182.5t40 -264.5t-39.5 -264.5t-129 -182.5t-222.5 -69q-105 0 -184.5 50.5t-118.5 129.5v-525h-250zM383 496q0 -146 57.5 -232t173.5 -86q213 0 213 318q0 317 -213 317q-116 0 -173.5 -85t-57.5 -232z " />
<glyph unicode="&#xff;" horiz-adv-x="917" d="M-4 991h262l205 -725l196 725h263l-443 -1356h-252l111 359zM137 1268q0 56 35.5 92.5t95.5 36.5t95.5 -36.5t35.5 -92.5t-35.5 -92.5t-95.5 -36.5t-95.5 36.5t-35.5 92.5zM528 1268q0 56 35.5 92.5t95.5 36.5q61 0 97.5 -36.5t36.5 -92.5t-36.5 -92.5t-97.5 -36.5 q-60 0 -95.5 36.5t-35.5 92.5z" />
<glyph unicode="&#x152;" horiz-adv-x="2068" d="M72 682q0 330 180.5 518.5t538.5 188.5q140 0 262 -25h917v-221h-661v-332h618v-221h-618v-369h661v-221h-917q-122 -25 -262 -25q-358 0 -538.5 188.5t-180.5 518.5zM328 682q0 -113 27 -201t83 -153t148 -99t217 -34q140 0 250 26v922q-113 26 -260 26 q-121 0 -211.5 -36t-145.5 -102t-81.5 -153t-26.5 -196z" />
<glyph unicode="&#x153;" horiz-adv-x="1697" d="M66 496q0 151 52.5 266.5t160.5 182.5t260 67q215 0 340 -158q123 158 356 158q211 0 312.5 -129.5t101.5 -352.5v-122h-635q15 -123 82.5 -182.5t201.5 -59.5q154 0 301 67l43 -170q-173 -83 -382 -83q-257 0 -381 155q-125 -155 -340 -155q-228 0 -350.5 142 t-122.5 374zM315 496q0 -318 224 -318q223 0 223 318q0 317 -223 317q-224 0 -224 -317zM1012 582h403v26q0 232 -184 232q-102 0 -154.5 -64t-64.5 -194z" />
<glyph unicode="&#x178;" horiz-adv-x="1144" d="M4 1364h270l297 -600l299 600h271l-441 -825v-539h-256v539zM233 1624q0 58 35 92.5t97 34.5t96.5 -34.5t34.5 -92.5q0 -57 -34.5 -91t-96.5 -34t-97 34t-35 91zM647 1624q0 58 35.5 92.5t97.5 34.5t96.5 -34.5t34.5 -92.5q0 -57 -34.5 -91t-96.5 -34t-97.5 34.5 t-35.5 90.5z" />
<glyph unicode="&#x2c6;" horiz-adv-x="960" d="M143 1118l213 312h246l215 -312h-229l-109 168l-108 -168h-228z" />
<glyph unicode="&#x2dc;" horiz-adv-x="1030" d="M143 1188q38 119 85.5 170t140.5 51q55 0 153 -44t125 -44q10 0 18.5 3t14.5 6t12.5 11t10 12t8 15t6 14.5t6 15.5t4.5 13l160 -57q-14 -43 -24.5 -71t-28.5 -60t-38.5 -50t-51 -30.5t-68.5 -12.5q-49 0 -148.5 46.5t-136.5 46.5q-25 0 -43 -14.5t-27 -32t-20 -48.5z" />
<glyph unicode="&#x2000;" horiz-adv-x="889" />
<glyph unicode="&#x2001;" horiz-adv-x="1778" />
<glyph unicode="&#x2002;" horiz-adv-x="889" />
<glyph unicode="&#x2003;" horiz-adv-x="1778" />
<glyph unicode="&#x2004;" horiz-adv-x="592" />
<glyph unicode="&#x2005;" horiz-adv-x="444" />
<glyph unicode="&#x2006;" horiz-adv-x="296" />
<glyph unicode="&#x2007;" horiz-adv-x="296" />
<glyph unicode="&#x2008;" horiz-adv-x="222" />
<glyph unicode="&#x2009;" horiz-adv-x="355" />
<glyph unicode="&#x200a;" horiz-adv-x="98" />
<glyph unicode="&#x2010;" horiz-adv-x="747" d="M111 477v215h528v-215h-528z" />
<glyph unicode="&#x2011;" horiz-adv-x="747" d="M111 477v215h528v-215h-528z" />
<glyph unicode="&#x2012;" horiz-adv-x="747" d="M111 477v215h528v-215h-528z" />
<glyph unicode="&#x2013;" horiz-adv-x="1153" d="M111 477v215h933v-215h-933z" />
<glyph unicode="&#x2014;" horiz-adv-x="1617" d="M111 477v215h1396v-215h-1396z" />
<glyph unicode="&#x2018;" horiz-adv-x="499" d="M41 854l213 510h207l-115 -510h-305z" />
<glyph unicode="&#x2019;" horiz-adv-x="491" d="M39 854l113 510h307l-215 -510h-205z" />
<glyph unicode="&#x201a;" horiz-adv-x="581" d="M53 -236l115 510h307l-215 -510h-207z" />
<glyph unicode="&#x201c;" horiz-adv-x="960" d="M41 854l213 510h207l-115 -510h-305zM500 854l215 510h207l-115 -510h-307z" />
<glyph unicode="&#x201d;" horiz-adv-x="960" d="M39 854l113 510h307l-215 -510h-205zM500 854l112 510h308l-215 -510h-205z" />
<glyph unicode="&#x201e;" horiz-adv-x="1042" d="M53 -236l115 510h307l-215 -510h-207zM514 -236l115 510h307l-215 -510h-207z" />
<glyph unicode="&#x2022;" horiz-adv-x="741" d="M90 702q0 117 78 196t203 79t202.5 -79t77.5 -196q0 -115 -77.5 -194.5t-202.5 -79.5t-203 79.5t-78 194.5z" />
<glyph unicode="&#x2026;" horiz-adv-x="1646" d="M123 135q0 68 42 110t109 42q68 0 110 -42.5t42 -109.5t-42 -109t-110 -42t-109.5 42t-41.5 109zM672 135q0 68 42 110t109 42t109.5 -42.5t42.5 -109.5t-42 -109t-110 -42q-67 0 -109 42t-42 109zM1221 135q0 68 42 110t109 42q68 0 110 -42.5t42 -109.5t-42 -109 t-110 -42t-109.5 42t-41.5 109z" />
<glyph unicode="&#x202f;" horiz-adv-x="355" />
<glyph unicode="&#x2039;" horiz-adv-x="737" d="M49 504l322 422h286l-319 -422l319 -422h-286z" />
<glyph unicode="&#x203a;" horiz-adv-x="737" d="M80 82l319 422l-319 422h287l321 -422l-321 -422h-287z" />
<glyph unicode="&#x205f;" horiz-adv-x="444" />
<glyph unicode="&#x20ac;" horiz-adv-x="1187" d="M68 406v182h143q-2 31 -2 94t2 94h-143v182h170q106 426 544 426q193 0 330 -67l-35 -184q-125 51 -262 51q-139 0 -217 -55.5t-111 -170.5h441v-182h-467q-4 -62 -4 -94q0 -36 4 -94h467v-182h-441q33 -116 111 -171t217 -55q137 0 262 51l35 -184q-137 -67 -330 -67 q-439 0 -544 426h-170z" />
<glyph unicode="&#x2122;" horiz-adv-x="1452" d="M47 1239v125h504v-125h-178v-526h-148v526h-178zM653 713v651h162l176 -406l178 406h160v-651h-139v385l-121 -285h-154l-120 285v-385h-142z" />
<glyph unicode="&#xe000;" horiz-adv-x="993" d="M0 0v993h993v-993h-993z" />
</font>
</defs>
</svg>
