<?xml version="1.0" standalone="no"?>
<!DOCTYPE svg PUBLIC "-//W3C//DTD SVG 1.1//EN" "http://www.w3.org/Graphics/SVG/1.1/DTD/svg11.dtd" >
<svg xmlns="http://www.w3.org/2000/svg">
<metadata></metadata>
<defs>
<font id="knowledgebold" horiz-adv-x="1155" >
<font-face units-per-em="2048" ascent="1587" descent="-461" />
<missing-glyph horiz-adv-x="450" />
<glyph unicode="&#xfb01;" horiz-adv-x="1175" d="M41 768v231h109v76q0 156 73.5 232.5t235.5 76.5q92 0 178 -26l-14 -211q-46 12 -93 12q-45 0 -67.5 -19.5t-22.5 -68.5v-72h168v-231h-168v-768h-290v768h-109zM735 1276q0 73 47.5 122.5t124.5 49.5t124.5 -49.5t47.5 -122.5q0 -71 -48 -121.5t-124 -50.5t-124 50.5 t-48 121.5zM762 0v999h291v-999h-291z" />
<glyph unicode="&#xfb02;" horiz-adv-x="1226" d="M41 768v231h109v76q0 156 73.5 232.5t235.5 76.5q102 0 190 -30l-14 -207q-58 12 -105 12q-45 0 -67.5 -19.5t-22.5 -68.5v-72h168v-231h-168v-768h-290v768h-109zM758 276v1088h291v-1085q0 -66 73 -66q38 0 68 10l6 -217q-76 -26 -172 -26q-142 0 -204 75t-62 221z" />
<glyph horiz-adv-x="2048" />
<glyph horiz-adv-x="2048" />
<glyph unicode="&#xd;" horiz-adv-x="2048" />
<glyph unicode=" "  horiz-adv-x="450" />
<glyph unicode="&#x09;" horiz-adv-x="450" />
<glyph unicode="&#xa0;" horiz-adv-x="450" />
<glyph unicode="!" horiz-adv-x="565" d="M113 152q0 75 47.5 121t122.5 46t122.5 -46t47.5 -121t-47.5 -121.5t-122.5 -46.5t-122.5 46.5t-47.5 121.5zM129 858v506h307v-506l-71 -432h-164z" />
<glyph unicode="&#x22;" horiz-adv-x="960" d="M113 1114v250h286v-250l-26 -307h-234zM561 1114v250h287v-250l-27 -307h-233z" />
<glyph unicode="#" horiz-adv-x="1361" d="M61 354l43 195h199l64 289h-201l43 194h199l73 332h221l-73 -332h289l73 332h221l-73 -332h182l-43 -194h-180l-64 -289h183l-43 -195h-183l-78 -354h-221l78 354h-289l-78 -354h-221l78 354h-199zM524 549h289l64 289h-289z" />
<glyph unicode="$" horiz-adv-x="1107" d="M82 969q0 329 334 387v272h286v-268q168 -19 291 -86l-57 -225q-103 42 -190.5 65t-184.5 23t-144.5 -34t-47.5 -106q0 -42 26.5 -70t60 -42.5t124.5 -45.5q37 -13 57 -20q55 -19 90 -32.5t81.5 -35.5t76 -43t61 -52.5t49.5 -67t29.5 -82.5t11.5 -103q0 -154 -90 -256.5 t-248 -136.5v-274h-286v268q-173 25 -324 92l64 228q214 -95 393 -95q99 0 152 37t53 107q0 68 -48.5 104.5t-183.5 77.5q-90 27 -149 49.5t-118.5 57t-93 74.5t-54.5 99t-21 134z" />
<glyph unicode="%" horiz-adv-x="1783" d="M61 1010q0 168 91.5 271t259.5 103t259 -103t91 -271t-91 -271.5t-259 -103.5t-259.5 103.5t-91.5 271.5zM285 1010q0 -104 30.5 -150.5t96.5 -46.5t96.5 46.5t30.5 150.5t-30.5 150t-96.5 46t-96.5 -46t-30.5 -150zM442 0l662 1364h250l-664 -1364h-248zM1032 354 q0 168 91 271.5t259 103.5t259.5 -103.5t91.5 -271.5t-91.5 -271t-259.5 -103t-259 103t-91 271zM1255 354q0 -104 30.5 -150t96.5 -46t96.5 46t30.5 150t-30.5 150.5t-96.5 46.5t-96.5 -46.5t-30.5 -150.5z" />
<glyph unicode="&#x26;" horiz-adv-x="1320" d="M61 332q0 67 17.5 124t53.5 104.5t76 83.5t99 79q-75 83 -122.5 165t-47.5 173q0 144 105 233.5t288 89.5q164 0 263.5 -80t99.5 -204q0 -103 -62.5 -194.5t-179.5 -184.5l232 -264q76 136 118 329l224 -55q-65 -265 -193 -448l248 -283h-330l-90 102 q-163 -122 -383 -122q-117 0 -209.5 38t-149.5 119t-57 195zM352 348q0 -71 46 -115.5t130 -44.5q103 0 193 70l-264 297q-54 -53 -79.5 -100t-25.5 -107zM397 1067q0 -69 113 -186q70 54 106.5 99.5t36.5 96.5q0 50 -32.5 79.5t-90.5 29.5q-59 0 -96 -31t-37 -88z" />
<glyph unicode="'" horiz-adv-x="512" d="M113 1114v250h286v-250l-26 -307h-234z" />
<glyph unicode="(" horiz-adv-x="634" d="M92 602q0 256 71.5 470t231.5 460l209 -127q-116 -234 -168.5 -414t-52.5 -389t52.5 -389t168.5 -414l-209 -127q-160 246 -231.5 460t-71.5 470z" />
<glyph unicode=")" horiz-adv-x="634" d="M31 -201q116 234 168.5 414t52.5 389t-52.5 389t-168.5 414l209 127q160 -246 231.5 -460t71.5 -470t-71.5 -470t-231.5 -460z" />
<glyph unicode="*" horiz-adv-x="860" d="M61 913l289 88l-289 89l109 188l221 -209l-69 295h217l-70 -295l221 209l109 -188l-289 -89l289 -88l-109 -188l-221 207l70 -293h-217l69 293l-221 -207z" />
<glyph unicode="+" horiz-adv-x="1114" d="M92 541v241h332v367h266v-367h332v-241h-332v-367h-266v367h-332z" />
<glyph unicode="," horiz-adv-x="636" d="M51 -307l125 606h359l-254 -606h-230z" />
<glyph unicode="-" horiz-adv-x="747" d="M102 457v250h543v-250h-543z" />
<glyph unicode="." horiz-adv-x="565" d="M113 152q0 75 47.5 121t122.5 46t122.5 -46t47.5 -121t-47.5 -121.5t-122.5 -46.5t-122.5 46.5t-47.5 121.5z" />
<glyph unicode="/" horiz-adv-x="964" d="M72 -205l551 1589h280l-551 -1589h-280z" />
<glyph unicode="0" horiz-adv-x="1249" d="M72 682q0 337 136.5 519.5t416.5 182.5t416.5 -182.5t136.5 -519.5t-136.5 -519.5t-416.5 -182.5t-416.5 182.5t-136.5 519.5zM362 682q0 -116 12 -199t41.5 -146.5t81.5 -94.5t128 -31q147 0 204.5 117t57.5 354q0 116 -12 198.5t-41 145.5t-81 94t-128 31t-128 -31 t-81.5 -94t-41.5 -145.5t-12 -198.5z" />
<glyph unicode="1" horiz-adv-x="768" d="M25 1292l356 72h244v-1364h-291v1098l-275 -47z" />
<glyph unicode="2" horiz-adv-x="1105" d="M61 0v133q0 93 21.5 169.5t47.5 124.5t86.5 101.5t97 78t121.5 76.5q7 5 11 7q23 14 64.5 39.5t61 37.5t51 33t46.5 34t35 33.5t28.5 37.5t15 39.5t6.5 46.5q0 160 -228 160q-172 0 -344 -96l-65 221q200 108 444 108q229 0 356 -96.5t127 -286.5q0 -38 -7 -74.5 t-17.5 -66t-29.5 -59.5t-36.5 -52.5t-45.5 -48t-49 -43t-55 -41t-55.5 -37.5t-57.5 -37t-56 -36q-19 -13 -58.5 -37t-63.5 -39t-56 -40t-50 -46t-31.5 -49t-13.5 -57v-5h656v-233h-957z" />
<glyph unicode="3" horiz-adv-x="1060" d="M51 82l66 213q186 -82 340 -82q241 0 241 176q0 90 -72 136t-206 46h-211v234h205q135 0 200.5 44.5t65.5 139.5q0 81 -57 121.5t-154 40.5q-151 0 -313 -88l-70 211q203 110 432 110q217 0 335 -93t118 -253q0 -118 -59 -208.5t-167 -137.5q244 -79 244 -317 q0 -183 -139 -289t-367 -106q-105 0 -222 27.5t-210 74.5z" />
<glyph unicode="4" horiz-adv-x="1183" d="M51 311v240l619 813h313v-825h170v-228h-170v-311h-281v311h-651zM322 539h380v516z" />
<glyph unicode="5" horiz-adv-x="1157" d="M92 98l72 213q216 -100 377 -100q122 0 191 58.5t69 162.5q0 101 -57.5 156t-163.5 55q-109 0 -207 -76l-236 74v723h871v-234h-580v-307q86 56 229 56q203 0 319 -119.5t116 -321.5q0 -199 -147 -328.5t-390 -129.5q-106 0 -237.5 32.5t-225.5 85.5z" />
<glyph unicode="6" horiz-adv-x="1159" d="M72 616q0 130 20 242t65.5 210t114 167.5t171 109t231.5 39.5q221 0 385 -90l-62 -221q-165 78 -299 78q-323 0 -333 -428q61 75 137 111t180 36q198 0 309 -112.5t111 -308.5q0 -95 -36 -180.5t-101 -149.5t-162 -101.5t-211 -37.5q-132 0 -232.5 47t-163 132.5 t-93.5 200t-31 256.5zM375 420q0 -99 58.5 -159t164.5 -60q103 0 163 63.5t60 165.5q0 100 -58 155.5t-161 55.5q-106 0 -166.5 -59t-60.5 -162z" />
<glyph unicode="7" horiz-adv-x="1001" d="M51 1130v234h910v-242l-510 -1122h-304l529 1130h-625z" />
<glyph unicode="8" horiz-adv-x="1187" d="M82 383q0 235 231 334q-91 51 -136.5 130t-45.5 173q0 167 125.5 265.5t337.5 98.5t337.5 -98.5t125.5 -265.5q0 -94 -46 -173t-137 -130q232 -99 232 -334q0 -174 -141 -288.5t-371 -114.5t-371 114.5t-141 288.5zM369 403q0 -97 61 -149.5t164 -52.5t164 52.5t61 149.5 q0 79 -57 134t-168 55t-168 -55t-57 -134zM401 987q0 -84 52 -134t141 -50t140.5 50t51.5 134q0 78 -49 127t-143 49t-143.5 -49t-49.5 -127z" />
<glyph unicode="9" horiz-adv-x="1159" d="M57 915q0 97 33 181t95 148.5t160.5 102t221.5 37.5q132 0 232.5 -47t163 -132.5t93.5 -200t31 -256.5q0 -130 -20 -242t-65.5 -210t-114 -167.5t-171 -109t-231.5 -39.5q-221 0 -385 90l62 221q164 -78 307 -78q88 0 151.5 31.5t100.5 90.5t54.5 134t19.5 172 q-61 -75 -137.5 -111t-180.5 -36q-198 0 -309 112.5t-111 308.5zM338 934q0 -100 58 -155.5t161 -55.5q106 0 166.5 59t60.5 162q0 99 -58.5 160t-164.5 61q-103 0 -163 -63.5t-60 -167.5z" />
<glyph unicode=":" horiz-adv-x="565" d="M113 152q0 75 47.5 121t122.5 46t122.5 -46t47.5 -121t-47.5 -121.5t-122.5 -46.5t-122.5 46.5t-47.5 121.5zM113 735q0 75 47.5 121.5t122.5 46.5t122.5 -46.5t47.5 -121.5t-47.5 -121.5t-122.5 -46.5t-122.5 46.5t-47.5 121.5z" />
<glyph unicode=";" horiz-adv-x="636" d="M51 -307l131 606h346l-247 -606h-230zM168 729q0 78 50 127t128 49t128 -49t50 -127t-50 -127t-128 -49t-128 49t-50 127z" />
<glyph unicode="&#x3c;" horiz-adv-x="1124" d="M92 549v225l930 375v-258l-616 -229l616 -230v-258z" />
<glyph unicode="=" horiz-adv-x="1114" d="M92 313v242h930v-242h-930zM92 768v242h930v-242h-930z" />
<glyph unicode="&#x3e;" horiz-adv-x="1124" d="M102 174v258l617 230l-617 229v258l930 -375v-225z" />
<glyph unicode="?" horiz-adv-x="970" d="M72 1292q71 39 181 65.5t218 26.5q207 0 322.5 -82.5t115.5 -248.5q0 -51 -12.5 -95.5t-30.5 -78t-54.5 -72.5t-67 -66t-85.5 -71q-8 -6 -30 -24t-28.5 -24t-23 -21.5t-22 -23t-16 -22.5t-13.5 -27t-6.5 -28.5t-3.5 -34.5v-49h-258v90q0 61 12 108.5t38.5 86.5t56.5 68.5 t77 66.5q17 14 51 39.5t46 35t32.5 28.5t27 31.5t13 30.5t6.5 39q0 62 -49.5 86.5t-134.5 24.5q-136 0 -313 -76zM219 152q0 75 47.5 121t122.5 46t122.5 -46t47.5 -121t-47.5 -121.5t-122.5 -46.5t-122.5 46.5t-47.5 121.5z" />
<glyph unicode="@" horiz-adv-x="1603" d="M61 532q0 169 55.5 316.5t157.5 257t255.5 172.5t338.5 63q159 0 289 -46t216 -126.5t132.5 -189.5t46.5 -236q0 -132 -44.5 -240t-136 -174.5t-216.5 -66.5q-105 0 -176 50.5t-78 133.5q-84 -184 -237 -184q-92 0 -143.5 68t-51.5 166q0 202 101 327t294 125 q152 0 279 -65l-56 -314q-6 -34 -6 -57q0 -102 90 -102q48 0 86 27.5t60.5 74t34.5 103t12 118.5q0 212 -138.5 332.5t-363.5 120.5q-176 0 -317 -86.5t-218 -233t-77 -323.5q0 -255 148 -405t421 -150q249 0 494 121l53 -146q-111 -58 -262 -94.5t-309 -36.5 q-173 0 -313 54t-231.5 148.5t-140.5 222t-49 275.5zM680 518q0 -90 61 -90q108 0 156 268l14 80q-27 10 -53 10q-87 0 -132.5 -74t-45.5 -194z" />
<glyph unicode="A" horiz-adv-x="1343" d="M10 0l496 1364h332l495 -1364h-303l-98 301h-520l-99 -301h-303zM494 551h356l-178 545z" />
<glyph unicode="B" horiz-adv-x="1265" d="M133 0v1364h629q188 0 292.5 -89t104.5 -245q0 -117 -60 -203.5t-179 -128.5q132 -27 208 -108.5t76 -214.5q0 -167 -120 -271t-318 -104h-633zM428 233h297q91 0 137.5 46t46.5 127q0 76 -51.5 118.5t-146.5 42.5h-283v-334zM428 801h254q91 0 136.5 50.5t45.5 125.5 q0 73 -47 113t-141 40h-248v-329z" />
<glyph unicode="C" horiz-adv-x="1198" d="M61 682q0 329 186 518t494 189q242 0 398 -80l-45 -236q-61 25 -140 41t-147 16q-447 0 -447 -448q0 -449 447 -449q146 0 287 58l45 -236q-156 -80 -398 -80q-308 0 -494 189t-186 518z" />
<glyph unicode="D" horiz-adv-x="1402" d="M139 0v1364h525q309 0 495.5 -187.5t186.5 -494.5t-186.5 -494.5t-495.5 -187.5h-525zM438 254h211q176 0 287 108t111 320t-111 320t-287 108h-211v-856z" />
<glyph unicode="E" horiz-adv-x="1163" d="M133 0v1364h938v-258h-639v-279h598v-258h-598v-311h639v-258h-938z" />
<glyph unicode="F" horiz-adv-x="1107" d="M133 0v1364h930v-258h-631v-324h590v-258h-590v-524h-299z" />
<glyph unicode="G" horiz-adv-x="1359" d="M61 672q0 218 83.5 378.5t250.5 249.5t404 89q243 0 446 -86l-43 -240q-202 72 -377 72q-235 0 -350 -119.5t-115 -345.5q0 -224 110.5 -337.5t324.5 -113.5q77 0 170 14v410h282v-600q-72 -27 -202 -47.5t-252 -20.5q-184 0 -326.5 54.5t-229.5 150.5t-131.5 220.5 t-44.5 271.5z" />
<glyph unicode="H" horiz-adv-x="1409" d="M133 0v1364h299v-543h545v543h299v-1364h-299v555h-545v-555h-299z" />
<glyph unicode="I" horiz-adv-x="585" d="M143 0v1364h299v-1364h-299z" />
<glyph unicode="J" horiz-adv-x="808" d="M35 23l33 229q87 -23 168 -23q75 0 108 33t33 96v1006h299v-1004q0 -179 -97 -279.5t-278 -100.5q-145 0 -266 43z" />
<glyph unicode="K" horiz-adv-x="1312" d="M133 0v1364h299v-608l469 608h383l-545 -666l553 -698h-383l-477 637v-637h-299z" />
<glyph unicode="L" horiz-adv-x="1083" d="M133 0v1364h299v-1106h604v-258h-903z" />
<glyph unicode="M" horiz-adv-x="1716" d="M133 0v1364h299l426 -899l426 899h299v-1364h-289v778l-290 -606h-291l-291 606v-778h-289z" />
<glyph unicode="N" horiz-adv-x="1462" d="M133 0v1364h297l608 -868v868h291v-1364h-297l-608 868v-868h-291z" />
<glyph unicode="O" horiz-adv-x="1429" d="M61 682q0 154 40.5 282t120 223.5t205.5 148.5t288 53t288 -53t205 -148.5t119.5 -223.5t40.5 -282t-40.5 -282t-119.5 -223.5t-205 -148.5t-288 -53t-288 53t-205.5 148.5t-120 223.5t-40.5 282zM360 682q0 -210 87.5 -331.5t267.5 -121.5t267 121.5t87 331.5t-87 331.5 t-267 121.5t-267.5 -121.5t-87.5 -331.5z" />
<glyph unicode="P" horiz-adv-x="1247" d="M133 0v1364h617q209 0 334.5 -124t125.5 -320q0 -192 -128.5 -320.5t-331.5 -128.5h-318v-471h-299zM432 711h277q93 0 147.5 55t54.5 154q0 97 -56 150.5t-146 53.5h-277v-413z" />
<glyph unicode="Q" horiz-adv-x="1429" d="M61 682q0 154 40.5 282t120 223.5t205.5 148.5t288 53t288 -53t205 -148.5t119.5 -223.5t40.5 -282q0 -178 -54 -321.5t-161 -237.5l139 -227l-205 -123l-143 235q-115 -33 -229 -33q-162 0 -288 53t-205.5 148.5t-120 223.5t-40.5 282zM360 682q0 -210 87.5 -331.5 t267.5 -121.5q58 0 102 13l-100 172l190 118l92 -155q70 116 70 305q0 210 -87 331.5t-267 121.5t-267.5 -121.5t-87.5 -331.5z" />
<glyph unicode="R" horiz-adv-x="1370" d="M133 0v1364h651q214 0 337.5 -119.5t123.5 -320.5q0 -140 -73.5 -248t-200.5 -158l358 -518h-375l-305 483h-217v-483h-299zM432 719h305q95 0 152 53.5t57 151.5q0 95 -57.5 147.5t-151.5 52.5h-305v-405z" />
<glyph unicode="S" horiz-adv-x="1169" d="M72 969q0 118 37.5 201t109 130t162 68t209.5 21q255 0 469 -97l-53 -237q-206 90 -412 90q-118 0 -170.5 -31t-52.5 -113q0 -73 55 -104t229 -72q94 -23 160.5 -45.5t125 -56.5t93 -77t54.5 -103.5t20 -139.5q0 -203 -141.5 -315.5t-399.5 -112.5q-117 0 -249 28 t-242 73l63 239q238 -94 426 -94q119 0 181.5 34t62.5 114q0 77 -56.5 112.5t-215.5 67.5q-117 23 -199.5 55t-144 81t-91.5 119t-30 165z" />
<glyph unicode="T" horiz-adv-x="1150" d="M45 1106v258h1061v-258h-381v-1106h-299v1106h-381z" />
<glyph unicode="U" horiz-adv-x="1409" d="M129 520v844h299v-860q0 -131 74.5 -203t202.5 -72t202 71.5t74 203.5v860h299v-844q0 -113 -36 -210.5t-105.5 -173t-181 -118.5t-252.5 -43t-252.5 43t-181 118.5t-106 173t-36.5 210.5z" />
<glyph unicode="V" horiz-adv-x="1236" d="M10 1364h316l292 -1026l293 1026h316l-434 -1364h-349z" />
<glyph unicode="W" horiz-adv-x="1822" d="M8 1364h301l191 -877l248 877h331l244 -877l190 877h302l-351 -1364h-280l-271 1034l-274 -1034h-281z" />
<glyph unicode="X" horiz-adv-x="1220" d="M10 0l436 694l-419 670h325l258 -424l258 424h326l-422 -670l438 -694h-325l-275 451l-274 -451h-326z" />
<glyph unicode="Y" d="M-6 1364h315l269 -569l268 569h315l-434 -834v-530h-299v530z" />
<glyph unicode="Z" horiz-adv-x="1191" d="M92 0v266l647 840h-628v258h979v-266l-648 -840h668v-258h-1018z" />
<glyph unicode="[" horiz-adv-x="692" d="M143 -307v1818h498v-249h-207v-1319h207v-250h-498z" />
<glyph unicode="\" horiz-adv-x="964" d="M61 1384h281l551 -1589h-281z" />
<glyph unicode="]" horiz-adv-x="692" d="M51 -57h207v1319h-207v249h498v-1818h-498v250z" />
<glyph unicode="^" horiz-adv-x="1011" d="M51 690l318 674h274l318 -674h-265l-190 443l-191 -443h-264z" />
<glyph unicode="_" horiz-adv-x="901" d="M-2 -133h905v-143h-905v143z" />
<glyph unicode="`" horiz-adv-x="741" d="M133 1434h373l102 -312h-284z" />
<glyph unicode="a" horiz-adv-x="1103" d="M82 281q0 86 26.5 149t76 99.5t112.5 53.5t143 17h265v47q0 127 -187 127q-162 0 -317 -74l-49 226q183 94 405 94q219 0 328.5 -88.5t109.5 -272.5v-659h-276v123q-50 -66 -137 -104.5t-189 -38.5q-146 0 -228.5 80.5t-82.5 220.5zM369 291q0 -54 34 -82.5t97 -28.5 q94 0 149.5 45t55.5 125v49h-211q-125 0 -125 -108z" />
<glyph unicode="b" d="M123 0v1364h291v-510q92 166 293 166q100 0 176 -39t122.5 -110t69.5 -164t23 -207q0 -153 -40 -267.5t-128.5 -183.5t-218.5 -69q-217 0 -305 165v-145h-283zM414 500q0 -289 204 -289q191 0 191 289q0 288 -191 288q-204 0 -204 -288z" />
<glyph unicode="c" horiz-adv-x="929" d="M57 500q0 241 127 380.5t375 139.5q92 0 178 -19t140 -51l-43 -213q-107 51 -226 51q-140 0 -200 -75t-60 -213t60 -213.5t200 -75.5q119 0 226 51l43 -213q-54 -32 -139.5 -50.5t-178.5 -18.5q-248 0 -375 139.5t-127 380.5z" />
<glyph unicode="d" d="M57 500q0 114 23 207t69.5 164t123 110t176.5 39q200 0 292 -166v510h291v-1364h-282v145q-88 -165 -306 -165q-130 0 -218.5 69t-128.5 183.5t-40 267.5zM346 500q0 -289 191 -289q204 0 204 289q0 288 -204 288q-191 0 -191 -288z" />
<glyph unicode="e" horiz-adv-x="1032" d="M57 500q0 110 29 202t86.5 164.5t153.5 113t221 40.5q216 0 322 -131.5t106 -360.5v-135h-621q18 -101 80 -149.5t182 -48.5q149 0 304 69l49 -196q-181 -88 -398 -88q-256 0 -385 136.5t-129 383.5zM352 596h350v27q0 198 -159 198q-172 0 -191 -225z" />
<glyph unicode="f" horiz-adv-x="638" d="M41 768v231h109v76q0 156 73.5 232.5t235.5 76.5q102 0 190 -30l-14 -207q-58 12 -105 12q-45 0 -67.5 -19.5t-22.5 -68.5v-72h168v-231h-168v-768h-290v768h-109z" />
<glyph unicode="g" d="M57 522q0 106 22.5 194.5t68.5 157.5t121.5 107.5t174.5 38.5q213 0 306 -166v145h282v-950q0 -215 -124.5 -324.5t-383.5 -109.5q-80 0 -181.5 19t-184.5 49l41 217q159 -64 323 -64q121 0 171 52.5t50 148.5v153q-99 -165 -299 -165q-101 0 -176.5 38.5t-121 107 t-67.5 156.5t-22 195zM348 522q0 -266 195 -266q91 0 145.5 65.5t54.5 200.5q0 136 -53 202.5t-147 66.5q-97 0 -146 -70.5t-49 -198.5z" />
<glyph unicode="h" horiz-adv-x="1142" d="M123 0v1364h291v-514q39 75 113.5 122.5t183.5 47.5q168 0 243.5 -86t75.5 -256v-678h-291v631q0 67 -34 103t-101 36q-190 0 -190 -221v-549h-291z" />
<glyph unicode="i" horiz-adv-x="536" d="M96 1276q0 73 47.5 122.5t124.5 49.5t124.5 -49.5t47.5 -122.5q0 -71 -48 -121.5t-124 -50.5t-124 50.5t-48 121.5zM123 0v999h291v-999h-291z" />
<glyph unicode="j" horiz-adv-x="536" d="M-45 -360l20 229q33 -8 74 -8q39 0 56.5 17.5t17.5 58.5v1062h291v-1103q0 -136 -74 -208.5t-219 -72.5q-85 0 -166 25zM96 1276q0 73 47.5 122.5t124.5 49.5t124.5 -49.5t47.5 -122.5q0 -71 -48 -121.5t-124 -50.5t-124 50.5t-48 121.5z" />
<glyph unicode="k" horiz-adv-x="1048" d="M123 0v1364h291v-803l293 438h331l-344 -493l361 -506h-336l-305 451v-451h-291z" />
<glyph unicode="l" horiz-adv-x="587" d="M119 276v1088h291v-1085q0 -66 73 -66q38 0 68 10l6 -217q-76 -26 -172 -26q-142 0 -204 75t-62 221z" />
<glyph unicode="m" horiz-adv-x="1722" d="M123 0v999h283v-157q91 178 286 178q237 0 297 -180q105 180 301 180q168 0 244 -86t76 -256v-678h-291v631q0 67 -34 103t-101 36q-172 0 -172 -192v-578h-291v631q0 67 -34 103t-101 36q-90 0 -131 -55.5t-41 -165.5v-549h-291z" />
<glyph unicode="n" horiz-adv-x="1142" d="M123 0v999h283v-157q39 77 114 127.5t191 50.5q168 0 243.5 -86t75.5 -256v-678h-291v631q0 67 -34 103t-101 36q-190 0 -190 -221v-549h-291z" />
<glyph unicode="o" horiz-adv-x="1089" d="M57 500q0 234 127.5 377t360.5 143t360 -143t127 -377q0 -235 -126 -377.5t-361 -142.5t-361.5 142.5t-126.5 377.5zM348 500q0 -144 47.5 -216.5t149.5 -72.5t149 72.5t47 216.5t-47 216t-149 72t-149.5 -72t-47.5 -216z" />
<glyph unicode="p" d="M123 -365v1364h283v-145q41 77 117 121.5t188 44.5q130 0 218.5 -69t128.5 -183.5t40 -267.5q0 -114 -23 -207t-69.5 -164t-122.5 -110t-176 -39q-202 0 -293 165v-510h-291zM414 500q0 -289 204 -289q191 0 191 289q0 288 -191 288q-204 0 -204 -288z" />
<glyph unicode="q" d="M57 500q0 153 40 267.5t128.5 183.5t218.5 69q112 0 188.5 -45t117.5 -121v145h282v-1364h-291v510q-91 -165 -292 -165q-100 0 -176.5 39t-123 110t-69.5 164t-23 207zM346 500q0 -289 191 -289q204 0 204 289q0 288 -204 288q-191 0 -191 -288z" />
<glyph unicode="r" horiz-adv-x="733" d="M123 0v999h285v-172q31 92 83.5 137.5t145.5 45.5q53 0 86 -11v-266q-41 6 -86 6q-119 0 -170 -68t-51 -222v-449h-293z" />
<glyph unicode="s" horiz-adv-x="911" d="M61 696q0 324 400 324q204 0 354 -72l-53 -207q-146 64 -289 64q-68 0 -96.5 -14t-28.5 -52q0 -37 27 -52.5t122 -42.5q28 -8 44 -13q83 -23 136 -46t97.5 -57.5t65 -84t20.5 -117.5q0 -172 -106 -259t-303 -87q-193 0 -381 77l61 209q175 -71 315 -71q66 0 96.5 18.5 t30.5 60.5q0 35 -27 53.5t-102 37.5q-219 53 -301 125.5t-82 205.5z" />
<glyph unicode="t" horiz-adv-x="710" d="M41 754v245h133v254h291v-254h194v-245h-194v-459q0 -44 20.5 -64t71.5 -20q40 0 88 10l6 -215q-95 -26 -188 -26q-150 0 -219.5 69t-69.5 217v488h-133z" />
<glyph unicode="u" horiz-adv-x="1132" d="M113 322v677h290v-630q0 -67 34.5 -103.5t101.5 -36.5q180 0 180 222v548h291v-999h-283v158q-40 -76 -114 -127t-185 -51q-315 0 -315 342z" />
<glyph unicode="v" horiz-adv-x="954" d="M-12 999h305l184 -710l185 710h305l-322 -999h-336z" />
<glyph unicode="w" horiz-adv-x="1519" d="M-4 999h287l149 -663l176 663h303l176 -663l150 663h287l-283 -999h-297l-184 670l-185 -670h-296z" />
<glyph unicode="x" horiz-adv-x="976" d="M20 0l318 504l-311 495h299l161 -278l164 278h299l-313 -495l319 -504h-299l-170 289l-168 -289h-299z" />
<glyph unicode="y" horiz-adv-x="937" d="M-12 999h305l182 -690l170 690h305l-434 -1364h-295l109 357z" />
<glyph unicode="z" horiz-adv-x="948" d="M82 0v229l428 541h-406v229h766v-229l-440 -541h447v-229h-795z" />
<glyph unicode="{" horiz-adv-x="761" d="M41 479v246h37q89 0 128.5 41t39.5 121v330q0 144 73 219t213 75h179v-249h-93q-81 0 -81 -91v-270q0 -136 -63.5 -209t-199.5 -90q136 -17 199.5 -90t63.5 -209v-270q0 -90 81 -90h93v-250h-179q-140 0 -213 75t-73 220v329q0 80 -39.5 121t-128.5 41h-37z" />
<glyph unicode="|" horiz-adv-x="555" d="M154 -512v2048h247v-2048h-247z" />
<glyph unicode="}" horiz-adv-x="761" d="M51 -57h92q82 0 82 90v270q0 136 63 209t199 90q-136 17 -199 90t-63 209v270q0 91 -82 91h-92v249h178q140 0 213.5 -75t73.5 -219v-330q0 -80 39.5 -121t128.5 -41h37v-246h-37q-89 0 -128.5 -41t-39.5 -121v-329q0 -144 -73.5 -219.5t-213.5 -75.5h-178v250z" />
<glyph unicode="~" horiz-adv-x="1177" d="M72 551q21 65 38.5 106.5t43.5 84t56 66.5t73.5 39t99.5 15q49 0 106.5 -18.5t100.5 -40t91 -40t81 -18.5q42 0 65 32t41 87l248 -73q-92 -330 -295 -330q-60 0 -137 29.5t-147 58.5t-111 29q-18 0 -32 -5.5t-25 -19.5t-17 -23.5t-17.5 -32.5t-15.5 -32z" />
<glyph unicode="&#xa1;" horiz-adv-x="565" d="M113 852q0 75 47.5 121.5t122.5 46.5t122.5 -46.5t47.5 -121.5t-47.5 -121.5t-122.5 -46.5t-122.5 46.5t-47.5 121.5zM129 141l72 432h164l71 -432v-506h-307v506z" />
<glyph unicode="&#xa2;" horiz-adv-x="946" d="M61 684q0 182 89.5 303.5t257.5 159.5v258h286v-254q109 -18 187 -59l-50 -209q-112 53 -227 53q-260 0 -260 -252t260 -252q115 0 227 53l50 -209q-75 -40 -187 -61v-256h-286v260q-168 38 -257.5 159.5t-89.5 305.5z" />
<glyph unicode="&#xa3;" horiz-adv-x="1107" d="M61 0v211q155 143 189 311h-156v232h170v184q0 125 33 213.5t96.5 138.5t145 72t188.5 22q197 0 350 -73l-49 -219q-128 61 -270 61q-110 0 -156.5 -50t-46.5 -165v-184h336v-232h-350q-40 -177 -154 -291h633v-231h-959z" />
<glyph unicode="&#xa4;" horiz-adv-x="1224" d="M72 254l164 166q-76 105 -76 242q0 132 76 241l-164 166l176 168l182 -184q69 37 182 37q114 0 183 -37l182 184l176 -168l-164 -166q76 -109 76 -241q0 -137 -76 -242l164 -166l-176 -168l-182 182q-78 -35 -183 -35q-104 0 -182 35l-182 -182zM403 662 q0 -105 55 -169.5t154 -64.5t154 64.5t55 169.5t-55 169t-154 64t-154 -64t-55 -169z" />
<glyph unicode="&#xa5;" horiz-adv-x="1142" d="M51 1364h303l217 -590l217 590h304l-224 -502h142v-215h-238l-55 -127v-20h293v-209h-293v-291h-291v291h-293v209h293v20l-57 127h-236v215h141z" />
<glyph unicode="&#xa6;" horiz-adv-x="555" d="M154 305h247v-817h-247v817zM154 719v817h247v-817h-247z" />
<glyph unicode="&#xa7;" horiz-adv-x="1126" d="M72 524q0 181 170 291q-129 94 -129 246q0 150 114 236.5t353 86.5q226 0 409 -79l-49 -203q-170 72 -346 72q-111 0 -156 -23t-45 -84q0 -53 38.5 -79.5t162.5 -73.5q38 -15 59 -23q42 -16 66.5 -26t63.5 -27t62.5 -30t55.5 -33t51.5 -38.5t41.5 -43.5t33.5 -51 t19.5 -58.5t8 -67.5q0 -86 -47 -167.5t-119 -137.5q133 -88 133 -248q0 -158 -131.5 -253t-339.5 -95q-247 0 -471 102l61 207q209 -98 385 -98q215 0 215 121q0 27 -14 48.5t-43 38.5t-65 32t-87 33q-30 10 -45 16q-110 41 -180 76t-127 83t-82.5 108.5t-25.5 141.5z M352 547q0 -30 11 -54.5t27.5 -41.5t53 -36.5t68 -33t92.5 -37.5l96 -39q74 70 74 166q0 75 -63 118.5t-228 102.5l-51 19q-25 -26 -38.5 -43.5t-27.5 -51t-14 -69.5z" />
<glyph unicode="&#xa8;" horiz-adv-x="958" d="M133 1276q0 60 39.5 100.5t106.5 40.5t106 -40t39 -101t-39 -101t-106 -40t-106.5 40.5t-39.5 100.5zM535 1276q0 61 39 101t106 40t106 -40t39 -101t-39 -101t-106 -40t-106 40t-39 101z" />
<glyph unicode="&#xa9;" horiz-adv-x="1533" d="M51 682q0 145 53 274.5t145.5 225t227 151.5t289.5 56q156 0 290.5 -56t227.5 -151.5t146 -225t53 -274.5t-53 -274.5t-146 -225t-227.5 -151.5t-290.5 -56q-155 0 -289.5 56t-227 151.5t-145.5 225t-53 274.5zM152 682q0 -123 44 -234.5t122 -196.5t194.5 -135 t253.5 -50q138 0 255 50t195 135t122 196.5t44 234.5t-44 234.5t-122 196.5t-195 135t-255 50q-137 0 -253.5 -50t-194.5 -135t-122 -196.5t-44 -234.5zM406 682q0 184 107.5 292.5t305.5 108.5q133 0 225 -47l-30 -151q-84 33 -174 33q-236 0 -236 -236t236 -236 q90 0 174 33l30 -151q-92 -47 -225 -47q-198 0 -305.5 108.5t-107.5 292.5z" />
<glyph unicode="&#xaa;" horiz-adv-x="776" d="M72 903q0 102 61 153.5t176 51.5h170v27q0 45 -25.5 62t-86.5 17q-111 0 -215 -49l-35 158q116 61 274 61q147 0 220 -57t73 -184v-432h-195v92q-25 -45 -79.5 -75t-128.5 -30q-101 0 -155 54t-54 151zM78 432v170h627v-170h-627zM270 903q0 -31 21 -50t65 -19 q56 0 89.5 31t33.5 81v23h-133q-76 0 -76 -66z" />
<glyph unicode="&#xab;" horiz-adv-x="1314" d="M41 508l313 424h336l-311 -424l311 -424h-336zM594 508l313 424h336l-311 -424l311 -424h-336z" />
<glyph unicode="&#xac;" horiz-adv-x="1114" d="M92 541v241h930v-608h-266v367h-664z" />
<glyph unicode="&#xad;" horiz-adv-x="747" d="M102 457v250h543v-250h-543z" />
<glyph unicode="&#xae;" horiz-adv-x="1056" d="M61 934q0 123 56.5 226t164.5 166t246 63q139 0 247 -63t164 -166t56 -226q0 -122 -56 -225t-164 -166.5t-247 -63.5q-138 0 -246 63.5t-164.5 166.5t-56.5 225zM145 934q0 -164 106.5 -273.5t276.5 -109.5t276.5 109.5t106.5 273.5t-106.5 273.5t-276.5 109.5 t-276.5 -109.5t-106.5 -273.5zM369 729v436h182q77 0 121.5 -36t44.5 -99q0 -45 -23 -79.5t-63 -51.5l125 -170h-140l-108 156h-23v-156h-116zM485 967h54q28 0 44.5 15.5t16.5 41.5t-16.5 39.5t-44.5 13.5h-54v-110z" />
<glyph unicode="&#xaf;" horiz-adv-x="905" d="M133 1151v221h639v-221h-639z" />
<glyph unicode="&#xb0;" horiz-adv-x="704" d="M72 1114q0 118 76 194t204 76t204.5 -76t76.5 -194t-76.5 -193t-204.5 -75t-204 75t-76 193zM236 1114q0 -63 31 -98t85 -35t85.5 35t31.5 98t-31.5 99t-85.5 36t-85 -36t-31 -99z" />
<glyph unicode="&#xb1;" horiz-adv-x="1114" d="M92 0v229h332v312h-332v241h332v367h266v-367h332v-241h-332v-312h332v-229h-930z" />
<glyph unicode="&#xb2;" horiz-adv-x="737" d="M72 799v90q0 52 10.5 94.5t27 72.5t45 57.5t56 46t68.5 40.5q106 58 129 76q40 34 41 72q0 65 -101 65q-100 0 -198 -59l-50 164q125 69 283 69q136 0 209.5 -58t73.5 -165q0 -45 -13 -83.5t-30.5 -64.5t-50 -53t-56.5 -42t-65 -38q-10 -6 -36.5 -20.5t-42 -23.5 t-34.5 -22t-28 -24t-9 -20v-2h346v-172h-575z" />
<glyph unicode="&#xb3;" horiz-adv-x="710" d="M72 850l49 154q91 -43 190 -43q109 0 109 69q0 38 -33 54t-100 16h-111v174h109q127 0 127 74q0 65 -93 65q-91 0 -180 -47l-51 152q120 69 270 69q133 0 203 -55.5t70 -147.5q0 -136 -125 -194q133 -38 133 -170q0 -102 -81.5 -167t-219.5 -65q-131 0 -266 62z" />
<glyph unicode="&#xb4;" horiz-adv-x="741" d="M133 1122l103 312h372l-190 -312h-285z" />
<glyph unicode="&#xb5;" horiz-adv-x="1169" d="M123 -365v1364h291v-630q0 -67 34 -103.5t101 -36.5q180 0 180 222v548h291v-712q0 -56 18.5 -79.5t71.5 -23.5h29v-174q-58 -26 -146 -26q-106 0 -164.5 49.5t-68.5 130.5q-119 -184 -338 -184q-70 0 -135 30q127 -105 127 -270v-105h-291z" />
<glyph unicode="&#xb6;" horiz-adv-x="1148" d="M41 834q0 251 150.5 390.5t402.5 139.5h432v-1651h-221v1471h-211v-879q-158 0 -282.5 61.5t-197.5 183t-73 284.5z" />
<glyph unicode="&#xb7;" horiz-adv-x="565" d="M113 559q0 75 47.5 121.5t122.5 46.5t122.5 -46.5t47.5 -121.5t-47.5 -121.5t-122.5 -46.5t-122.5 46.5t-47.5 121.5z" />
<glyph unicode="&#xb8;" horiz-adv-x="645" d="M133 -276q29 2 47 4t41.5 7.5t35 15t11.5 24.5q0 13 -6.5 20.5t-24.5 11.5t-35 5t-52 2l40 186h129l-14 -84q105 -3 156 -30.5t51 -98.5q0 -168 -371 -172z" />
<glyph unicode="&#xb9;" horiz-adv-x="509" d="M51 1536l207 41h180v-778h-217v579l-153 -22z" />
<glyph unicode="&#xba;" horiz-adv-x="794" d="M72 1040q0 155 84.5 249.5t240.5 94.5t241 -94.5t85 -249.5t-84.5 -247.5t-241.5 -92.5t-241 92.5t-84 247.5zM100 432v170h594v-170h-594zM276 1040q0 -93 28 -137.5t93 -44.5t93 44.5t28 137.5t-28 138t-93 45t-93 -45t-28 -138z" />
<glyph unicode="&#xbb;" horiz-adv-x="1314" d="M72 84l311 424l-311 424h336l313 -424l-313 -424h-336zM625 84l311 424l-311 424h336l313 -424l-313 -424h-336z" />
<glyph unicode="&#xbc;" horiz-adv-x="1650" d="M72 1323l207 41h180v-778h-217v579l-154 -22zM336 0l686 1364h246l-686 -1364h-246zM915 162v170l340 446h232v-450h92v-166h-92v-162h-209v162h-363zM1098 328h180v245z" />
<glyph unicode="&#xbd;" horiz-adv-x="1716" d="M72 1323l207 41h180v-778h-217v579l-154 -22zM336 0l686 1364h246l-686 -1364h-246zM1051 0v90q0 65 14 113.5t44.5 84.5t63.5 60.5t84 52.5q106 58 129 76q40 34 41 72q0 65 -100 65q-101 0 -199 -59l-49 164q125 69 283 69q136 0 209.5 -58t73.5 -165 q0 -56 -16.5 -99.5t-52 -77.5t-65 -54t-81.5 -49q-9 -5 -36.5 -20.5t-42 -24t-34 -22t-28.5 -24.5t-9 -20v-2h346v-172h-575z" />
<glyph unicode="&#xbe;" horiz-adv-x="1701" d="M72 637l49 154q91 -43 190 -43q109 0 109 69q0 38 -33 54t-100 16h-111v174h109q127 0 127 74q0 65 -93 65q-91 0 -180 -47l-51 152q120 69 270 69q133 0 203 -55.5t70 -147.5q0 -136 -125 -194q133 -38 133 -170q0 -102 -81.5 -167t-219.5 -65q-131 0 -266 62zM387 0 l686 1364h246l-686 -1364h-246zM967 162v170l340 446h231v-450h92v-166h-92v-162h-209v162h-362zM1149 328h180v245z" />
<glyph unicode="&#xbf;" horiz-adv-x="970" d="M72 -53q0 64 15 115t50.5 97t76 82.5t108.5 88.5q43 33 61.5 48.5t42 41.5t31.5 52.5t8 62.5v49h258v-90q0 -61 -12 -108.5t-38.5 -86.5t-56.5 -68.5t-77 -66.5l-51 -39t-46 -35.5t-32.5 -28.5t-27.5 -31.5t-13.5 -31t-6.5 -39.5q0 -111 185 -111q136 0 313 76l49 -217 q-71 -39 -181 -65.5t-218 -26.5q-207 0 -322.5 83t-115.5 249zM424 852q0 75 47.5 121.5t122.5 46.5t122.5 -46.5t47.5 -121.5t-47.5 -121.5t-122.5 -46.5t-122.5 46.5t-47.5 121.5z" />
<glyph unicode="&#xc0;" horiz-adv-x="1343" d="M10 0l496 1364h332l495 -1364h-303l-98 301h-520l-99 -301h-303zM252 1757h397l152 -270h-289zM494 551h356l-178 545z" />
<glyph unicode="&#xc1;" horiz-adv-x="1343" d="M10 0l496 1364h332l495 -1364h-303l-98 301h-520l-99 -301h-303zM494 551h356l-178 545zM541 1487l151 270h398l-261 -270h-288z" />
<glyph unicode="&#xc2;" horiz-adv-x="1343" d="M10 0l496 1364h332l495 -1364h-303l-98 301h-520l-99 -301h-303zM297 1487l238 270h274l240 -270h-277l-100 115l-99 -115h-276zM494 551h356l-178 545z" />
<glyph unicode="&#xc3;" horiz-adv-x="1343" d="M10 0l496 1364h332l495 -1364h-303l-98 301h-520l-99 -301h-303zM264 1554q37 127 94 184.5t160 57.5q44 0 103.5 -22t111 -44t76.5 -22q19 0 32.5 7t23.5 24t14 26.5t12 32.5l186 -67q-13 -43 -24.5 -73t-30.5 -64.5t-40.5 -55.5t-54 -35t-71.5 -14q-49 0 -163 45 t-150 45q-25 0 -43 -14.5t-26 -30.5t-19 -47zM494 551h356l-178 545z" />
<glyph unicode="&#xc4;" horiz-adv-x="1343" d="M10 0l496 1364h332l495 -1364h-303l-98 301h-520l-99 -301h-303zM315 1624q0 63 38.5 100t107.5 37t107 -37t38 -100t-38 -100t-107 -37t-107.5 37t-38.5 100zM494 551h356l-178 545zM739 1624q0 63 38.5 100t107.5 37t107 -37t38 -100t-38 -100t-107 -37t-107.5 37 t-38.5 100z" />
<glyph unicode="&#xc5;" horiz-adv-x="1343" d="M10 0l494 1362q-43 49 -43 121q0 79 54.5 131.5t156.5 52.5t156.5 -52.5t54.5 -131.5q0 -73 -45 -121l495 -1362h-303l-98 301h-520l-99 -301h-303zM494 551h356l-178 545zM588 1483q0 -38 22.5 -59t61.5 -21q40 0 62 21t22 59t-22 59t-62 21q-39 0 -61.5 -21t-22.5 -59z " />
<glyph unicode="&#xc6;" horiz-adv-x="1802" d="M10 0l496 1364h1204v-258h-754l88 -279h625v-258h-543l99 -311h485v-258h-680l-100 305h-516l-101 -305h-303zM494 551h356l-178 565z" />
<glyph unicode="&#xc7;" horiz-adv-x="1198" d="M61 682q0 329 186 518t494 189q242 0 398 -80l-45 -236q-61 25 -140 41t-147 16q-447 0 -447 -448q0 -449 447 -449q146 0 287 58l45 -236q-138 -72 -355 -78l-10 -61q105 -3 156 -30.5t51 -98.5q0 -168 -371 -172l-8 109q29 2 47 4t41.5 7.5t35 15t11.5 24.5 q0 24 -25.5 30.5t-93.5 8.5l37 166q-273 27 -433.5 211.5t-160.5 490.5z" />
<glyph unicode="&#xc8;" horiz-adv-x="1163" d="M133 0v1364h938v-258h-639v-279h598v-258h-598v-311h639v-258h-938zM248 1757h397l152 -270h-289z" />
<glyph unicode="&#xc9;" horiz-adv-x="1163" d="M133 0v1364h938v-258h-639v-279h598v-258h-598v-311h639v-258h-938zM428 1487l152 270h397l-260 -270h-289z" />
<glyph unicode="&#xca;" horiz-adv-x="1163" d="M133 0v1364h938v-258h-639v-279h598v-258h-598v-311h639v-258h-938zM240 1487l237 270h275l239 -270h-276l-101 115l-98 -115h-276z" />
<glyph unicode="&#xcb;" horiz-adv-x="1163" d="M133 0v1364h938v-258h-639v-279h598v-258h-598v-311h639v-258h-938zM260 1624q0 63 38.5 100t107.5 37t107 -37t38 -100t-38 -100t-107 -37t-107.5 37t-38.5 100zM684 1624q0 63 38 100t107 37t107.5 -37t38.5 -100t-38.5 -100t-107.5 -37t-107 37t-38 100z" />
<glyph unicode="&#xcc;" horiz-adv-x="585" d="M-113 1757h398l151 -270h-289zM143 0v1364h299v-1364h-299z" />
<glyph unicode="&#xcd;" horiz-adv-x="585" d="M143 0v1364h299v-1364h-299zM154 1487l151 270h397l-260 -270h-288z" />
<glyph unicode="&#xce;" horiz-adv-x="585" d="M-82 1487l238 270h274l240 -270h-277l-100 115l-98 -115h-277zM143 0v1364h299v-1364h-299z" />
<glyph unicode="&#xcf;" horiz-adv-x="585" d="M-63 1624q0 63 38 100t107 37t107 -37t38 -100t-38 -100t-107 -37t-107 37t-38 100zM143 0v1364h299v-1364h-299zM360 1624q0 63 38.5 100t107.5 37t107 -37t38 -100t-38 -100t-107 -37t-107.5 37t-38.5 100z" />
<glyph unicode="&#xd0;" horiz-adv-x="1425" d="M37 555v254h125v555h524q309 0 495.5 -187.5t186.5 -494.5t-186.5 -494.5t-495.5 -187.5h-524v555h-125zM461 254h211q85 0 155.5 25.5t125.5 76.5t85.5 134.5t30.5 191.5t-30.5 191.5t-85.5 134.5t-125.5 76.5t-155.5 25.5h-211v-301h348v-254h-348v-301z" />
<glyph unicode="&#xd1;" horiz-adv-x="1462" d="M133 0v1364h297l608 -868v868h291v-1364h-297l-608 868v-868h-291zM324 1554q37 127 94 184.5t160 57.5q44 0 103.5 -22t110.5 -44t76 -22q19 0 32.5 7t23.5 24t14 26.5t12 32.5l187 -67q-13 -42 -24.5 -73t-30.5 -65t-41 -55t-54.5 -35t-71.5 -14q-49 0 -163 45t-150 45 q-25 0 -43 -14.5t-26 -30.5t-19 -47z" />
<glyph unicode="&#xd2;" horiz-adv-x="1429" d="M61 682q0 154 40.5 282t120 223.5t205.5 148.5t288 53t288 -53t205 -148.5t119.5 -223.5t40.5 -282t-40.5 -282t-119.5 -223.5t-205 -148.5t-288 -53t-288 53t-205.5 148.5t-120 223.5t-40.5 282zM319 1757h398l151 -270h-288zM360 682q0 -210 87.5 -331.5t267.5 -121.5 t267 121.5t87 331.5t-87 331.5t-267 121.5t-267.5 -121.5t-87.5 -331.5z" />
<glyph unicode="&#xd3;" horiz-adv-x="1429" d="M61 682q0 154 40.5 282t120 223.5t205.5 148.5t288 53t288 -53t205 -148.5t119.5 -223.5t40.5 -282t-40.5 -282t-119.5 -223.5t-205 -148.5t-288 -53t-288 53t-205.5 148.5t-120 223.5t-40.5 282zM360 682q0 -210 87.5 -331.5t267.5 -121.5t267 121.5t87 331.5t-87 331.5 t-267 121.5t-267.5 -121.5t-87.5 -331.5zM561 1487l152 270h397l-260 -270h-289z" />
<glyph unicode="&#xd4;" horiz-adv-x="1429" d="M61 682q0 154 40.5 282t120 223.5t205.5 148.5t288 53t288 -53t205 -148.5t119.5 -223.5t40.5 -282t-40.5 -282t-119.5 -223.5t-205 -148.5t-288 -53t-288 53t-205.5 148.5t-120 223.5t-40.5 282zM340 1487l238 270h274l240 -270h-277l-100 115l-99 -115h-276zM360 682 q0 -210 87.5 -331.5t267.5 -121.5t267 121.5t87 331.5t-87 331.5t-267 121.5t-267.5 -121.5t-87.5 -331.5z" />
<glyph unicode="&#xd5;" horiz-adv-x="1429" d="M61 682q0 154 40.5 282t120 223.5t205.5 148.5t288 53t288 -53t205 -148.5t119.5 -223.5t40.5 -282t-40.5 -282t-119.5 -223.5t-205 -148.5t-288 -53t-288 53t-205.5 148.5t-120 223.5t-40.5 282zM305 1554q37 127 94 184.5t160 57.5q44 0 103.5 -22t111 -44t76.5 -22 q19 0 32.5 7t23.5 24t14 26.5t12 32.5l186 -67q-13 -43 -24.5 -73t-30.5 -64.5t-40.5 -55.5t-54 -35t-71.5 -14q-49 0 -163 45t-150 45q-25 0 -43 -14.5t-26 -30.5t-19 -47zM360 682q0 -210 87.5 -331.5t267.5 -121.5t267 121.5t87 331.5t-87 331.5t-267 121.5 t-267.5 -121.5t-87.5 -331.5z" />
<glyph unicode="&#xd6;" horiz-adv-x="1429" d="M61 682q0 154 40.5 282t120 223.5t205.5 148.5t288 53t288 -53t205 -148.5t119.5 -223.5t40.5 -282t-40.5 -282t-119.5 -223.5t-205 -148.5t-288 -53t-288 53t-205.5 148.5t-120 223.5t-40.5 282zM358 1624q0 63 38.5 100t107.5 37t107 -37t38 -100t-38 -100t-107 -37 t-107.5 37t-38.5 100zM360 682q0 -210 87.5 -331.5t267.5 -121.5t267 121.5t87 331.5t-87 331.5t-267 121.5t-267.5 -121.5t-87.5 -331.5zM782 1624q0 63 38.5 100t107.5 37t107 -37t38 -100t-38 -100t-107 -37t-107.5 37t-38.5 100z" />
<glyph unicode="&#xd7;" horiz-adv-x="1118" d="M92 373l291 289l-291 288l178 178l289 -290l289 290l178 -178l-291 -288l291 -289l-178 -178l-289 290l-289 -290z" />
<glyph unicode="&#xd8;" horiz-adv-x="1429" d="M61 682q0 154 40.5 282t120 223.5t205.5 148.5t288 53q91 0 178 -19l68 166h196l-94 -231q151 -86 228 -248.5t77 -374.5q0 -154 -40.5 -282t-119.5 -223.5t-205 -148.5t-288 -53q-91 0 -178 19l-66 -166h-197l93 229q-152 86 -229 248.5t-77 376.5zM360 682 q0 -243 111 -360l324 804q-38 9 -80 9q-180 0 -267.5 -121.5t-87.5 -331.5zM635 236q44 -7 80 -7q180 0 267 121.5t87 331.5q0 241 -111 358z" />
<glyph unicode="&#xd9;" horiz-adv-x="1409" d="M129 520v844h299v-860q0 -131 74.5 -203t202.5 -72t202 71.5t74 203.5v860h299v-844q0 -113 -36 -210.5t-105.5 -173t-181 -118.5t-252.5 -43t-252.5 43t-181 118.5t-106 173t-36.5 210.5zM332 1757h397l152 -270h-289z" />
<glyph unicode="&#xda;" horiz-adv-x="1409" d="M129 520v844h299v-860q0 -131 74.5 -203t202.5 -72t202 71.5t74 203.5v860h299v-844q0 -113 -36 -210.5t-105.5 -173t-181 -118.5t-252.5 -43t-252.5 43t-181 118.5t-106 173t-36.5 210.5zM524 1487l152 270h397l-260 -270h-289z" />
<glyph unicode="&#xdb;" horiz-adv-x="1409" d="M129 520v844h299v-860q0 -131 74.5 -203t202.5 -72t202 71.5t74 203.5v860h299v-844q0 -113 -36 -210.5t-105.5 -173t-181 -118.5t-252.5 -43t-252.5 43t-181 118.5t-106 173t-36.5 210.5zM330 1487l237 270h275l239 -270h-276l-100 115l-99 -115h-276z" />
<glyph unicode="&#xdc;" horiz-adv-x="1409" d="M129 520v844h299v-860q0 -131 74.5 -203t202.5 -72t202 71.5t74 203.5v860h299v-844q0 -113 -36 -210.5t-105.5 -173t-181 -118.5t-252.5 -43t-252.5 43t-181 118.5t-106 173t-36.5 210.5zM348 1624q0 63 38.5 100t107.5 37t107 -37t38 -100t-38 -100t-107 -37t-107.5 37 t-38.5 100zM772 1624q0 63 38.5 100t107.5 37t107 -37t38 -100t-38 -100t-107 -37t-107.5 37t-38.5 100z" />
<glyph unicode="&#xdd;" d="M-6 1364h315l269 -569l268 569h315l-434 -834v-530h-299v530zM414 1487l151 270h398l-261 -270h-288z" />
<glyph unicode="&#xde;" horiz-adv-x="1251" d="M133 0v1364h299v-225h318q209 0 334.5 -124.5t125.5 -320.5q0 -192 -128.5 -320t-331.5 -128h-318v-246h-299zM432 485h277q93 0 147.5 55t54.5 154q0 97 -56 151t-146 54h-277v-414z" />
<glyph unicode="&#xdf;" horiz-adv-x="1196" d="M119 0v883q0 252 136 376.5t380 124.5q179 0 284 -88t105 -225q0 -114 -88 -235q-12 -16 -45 -55.5t-47.5 -65t-14.5 -51.5q0 -8 1.5 -14.5t6 -13t8 -11.5t12 -11.5t14 -10t17.5 -10.5t19 -10.5l23 -11.5l24 -12q71 -37 113 -70t70 -85t28 -121q0 -136 -94.5 -219.5 t-257.5 -83.5q-156 0 -274 45l36 200q84 -35 185 -35q121 0 121 78q0 21 -16 37.5t-35 25.5t-64 29q-117 50 -170 115t-53 162q0 69 28 127.5t78 124.5q3 4 15.5 20t16.5 21t14.5 19t14 21t10.5 20t9.5 22.5t5 21t2.5 23.5q0 46 -35 73t-94 27q-101 0 -151.5 -73t-50.5 -203 v-881h-287z" />
<glyph unicode="&#xe0;" horiz-adv-x="1103" d="M82 281q0 86 26.5 149t76 99.5t112.5 53.5t143 17h265v47q0 127 -187 127q-162 0 -317 -74l-49 226q183 94 405 94q219 0 328.5 -88.5t109.5 -272.5v-659h-276v123q-50 -66 -137 -104.5t-189 -38.5q-146 0 -228.5 80.5t-82.5 220.5zM248 1434h373l102 -312h-285zM369 291 q0 -54 34 -82.5t97 -28.5q94 0 149.5 45t55.5 125v49h-211q-125 0 -125 -108z" />
<glyph unicode="&#xe1;" horiz-adv-x="1103" d="M82 281q0 86 26.5 149t76 99.5t112.5 53.5t143 17h265v47q0 127 -187 127q-162 0 -317 -74l-49 226q183 94 405 94q219 0 328.5 -88.5t109.5 -272.5v-659h-276v123q-50 -66 -137 -104.5t-189 -38.5q-146 0 -228.5 80.5t-82.5 220.5zM369 291q0 -54 34 -82.5t97 -28.5 q94 0 149.5 45t55.5 125v49h-211q-125 0 -125 -108zM412 1122l102 312h373l-191 -312h-284z" />
<glyph unicode="&#xe2;" horiz-adv-x="1103" d="M82 281q0 86 26.5 149t76 99.5t112.5 53.5t143 17h265v47q0 127 -187 127q-162 0 -317 -74l-49 226q183 94 405 94q219 0 328.5 -88.5t109.5 -272.5v-659h-276v123q-50 -66 -137 -104.5t-189 -38.5q-146 0 -228.5 80.5t-82.5 220.5zM219 1122l217 312h283l217 -312h-264 l-94 146l-95 -146h-264zM369 291q0 -54 34 -82.5t97 -28.5q94 0 149.5 45t55.5 125v49h-211q-125 0 -125 -108z" />
<glyph unicode="&#xe3;" horiz-adv-x="1103" d="M82 281q0 86 26.5 149t76 99.5t112.5 53.5t143 17h265v47q0 127 -187 127q-162 0 -317 -74l-49 226q183 94 405 94q219 0 328.5 -88.5t109.5 -272.5v-659h-276v123q-50 -66 -137 -104.5t-189 -38.5q-146 0 -228.5 80.5t-82.5 220.5zM188 1190q40 128 95 185t153 57 q55 0 150.5 -44.5t122.5 -44.5q25 0 42.5 16.5t24.5 32t15 42.5l186 -68q-12 -42 -23.5 -72.5t-31 -64.5t-42.5 -55.5t-57 -35.5t-75 -14q-52 0 -153 45t-136 45q-25 0 -43 -14.5t-26 -30.5t-19 -47zM369 291q0 -54 34 -82.5t97 -28.5q94 0 149.5 45t55.5 125v49h-211 q-125 0 -125 -108z" />
<glyph unicode="&#xe4;" horiz-adv-x="1103" d="M82 281q0 86 26.5 149t76 99.5t112.5 53.5t143 17h265v47q0 127 -187 127q-162 0 -317 -74l-49 226q183 94 405 94q219 0 328.5 -88.5t109.5 -272.5v-659h-276v123q-50 -66 -137 -104.5t-189 -38.5q-146 0 -228.5 80.5t-82.5 220.5zM231 1276q0 60 39.5 100.5t106.5 40.5 t106 -40t39 -101t-39 -101t-106 -40t-106.5 40.5t-39.5 100.5zM369 291q0 -54 34 -82.5t97 -28.5q94 0 149.5 45t55.5 125v49h-211q-125 0 -125 -108zM633 1276q0 61 39 101t106 40t106.5 -40.5t39.5 -100.5t-39.5 -100.5t-106.5 -40.5t-106 40t-39 101z" />
<glyph unicode="&#xe5;" horiz-adv-x="1103" d="M82 281q0 86 26.5 149t76 99.5t112.5 53.5t143 17h265v47q0 127 -187 127q-162 0 -317 -74l-49 226q183 94 405 94q219 0 328.5 -88.5t109.5 -272.5v-659h-276v123q-50 -66 -137 -104.5t-189 -38.5q-146 0 -228.5 80.5t-82.5 220.5zM360 1307q0 79 54.5 131.5t156.5 52.5 t156.5 -52.5t54.5 -131.5t-54.5 -132t-156.5 -53t-156.5 53t-54.5 132zM369 291q0 -54 34 -82.5t97 -28.5q94 0 149.5 45t55.5 125v49h-211q-125 0 -125 -108zM487 1307q0 -38 22.5 -59t61.5 -21q40 0 62 21t22 59t-22 58.5t-62 20.5q-39 0 -61.5 -20.5t-22.5 -58.5z" />
<glyph unicode="&#xe6;" horiz-adv-x="1691" d="M82 295q0 301 358 301h277v25q0 75 -50.5 114t-144.5 39q-166 0 -309 -61l-49 217q162 90 371 90q227 0 331 -139q55 69 135.5 104t204.5 35q216 0 322 -131.5t106 -360.5v-135h-620q18 -101 80 -149.5t182 -48.5q148 0 303 69l49 -196q-178 -88 -387 -88 q-123 0 -224.5 47t-150.5 120q-64 -78 -168 -122.5t-231 -44.5q-179 0 -282 83.5t-103 231.5zM360 289q0 -52 39.5 -82.5t104.5 -30.5q213 0 213 197v20h-236q-121 0 -121 -104zM1012 596h350v27q0 198 -160 198q-90 0 -134.5 -55.5t-55.5 -169.5z" />
<glyph unicode="&#xe7;" horiz-adv-x="929" d="M57 500q0 241 127 380.5t375 139.5q92 0 178 -19t140 -51l-43 -213q-107 51 -226 51q-140 0 -200 -75t-60 -213t60 -213.5t200 -75.5q119 0 226 51l43 -213q-106 -63 -283 -69l-10 -64q105 -3 156 -30.5t51 -98.5q0 -168 -371 -172l-8 109q29 2 47 4t41.5 7.5t35 15 t11.5 24.5q0 24 -25.5 30.5t-93.5 8.5l37 172q-202 26 -305 161t-103 353z" />
<glyph unicode="&#xe8;" horiz-adv-x="1032" d="M57 500q0 110 29 202t86.5 164.5t153.5 113t221 40.5q216 0 322 -131.5t106 -360.5v-135h-621q18 -101 80 -149.5t182 -48.5q149 0 304 69l49 -196q-181 -88 -398 -88q-256 0 -385 136.5t-129 383.5zM199 1434h372l103 -312h-285zM352 596h350v27q0 198 -159 198 q-172 0 -191 -225z" />
<glyph unicode="&#xe9;" horiz-adv-x="1032" d="M57 500q0 110 29 202t86.5 164.5t153.5 113t221 40.5q216 0 322 -131.5t106 -360.5v-135h-621q18 -101 80 -149.5t182 -48.5q149 0 304 69l49 -196q-181 -88 -398 -88q-256 0 -385 136.5t-129 383.5zM352 596h350v27q0 198 -159 198q-172 0 -191 -225zM389 1122l103 312 h372l-190 -312h-285z" />
<glyph unicode="&#xea;" horiz-adv-x="1032" d="M57 500q0 110 29 202t86.5 164.5t153.5 113t221 40.5q216 0 322 -131.5t106 -360.5v-135h-621q18 -101 80 -149.5t182 -48.5q149 0 304 69l49 -196q-181 -88 -398 -88q-256 0 -385 136.5t-129 383.5zM182 1122l217 312h283l217 -312h-264l-94 146l-95 -146h-264zM352 596 h350v27q0 198 -159 198q-172 0 -191 -225z" />
<glyph unicode="&#xeb;" horiz-adv-x="1032" d="M57 500q0 110 29 202t86.5 164.5t153.5 113t221 40.5q216 0 322 -131.5t106 -360.5v-135h-621q18 -101 80 -149.5t182 -48.5q149 0 304 69l49 -196q-181 -88 -398 -88q-256 0 -385 136.5t-129 383.5zM195 1276q0 61 39 101t106 40t106 -40t39 -101t-39 -101t-106 -40 t-106 40t-39 101zM352 596h350v27q0 198 -159 198q-172 0 -191 -225zM596 1276q0 61 39 101t106 40t106.5 -40.5t39.5 -100.5t-39.5 -100.5t-106.5 -40.5t-106 40t-39 101z" />
<glyph unicode="&#xec;" horiz-adv-x="536" d="M-61 1434h372l103 -312h-285zM123 0v999h291v-999h-291z" />
<glyph unicode="&#xed;" horiz-adv-x="536" d="M123 0v999h291v-999h-291zM133 1122l103 312h372l-190 -312h-285z" />
<glyph unicode="&#xee;" horiz-adv-x="536" d="M-90 1122l217 312h283l217 -312h-265l-94 146l-94 -146h-264zM123 0v999h291v-999h-291z" />
<glyph unicode="&#xef;" horiz-adv-x="536" d="M-78 1276q0 60 39.5 100.5t106.5 40.5t106 -40t39 -101t-39 -101t-106 -40t-106.5 40.5t-39.5 100.5zM123 0v999h291v-999h-291zM324 1276q0 61 39 101t106 40t106 -40t39 -101t-39 -101t-106 -40t-106 40t-39 101z" />
<glyph unicode="&#xf0;" horiz-adv-x="1077" d="M51 444q0 210 111 337.5t307 127.5q162 0 276 -102q-57 138 -176 221l-84 -86l-112 98l61 62q-82 35 -201 63l62 219q181 -38 311 -106l115 119l108 -101l-96 -98q293 -226 293 -661q0 -78 -17.5 -154t-57.5 -149.5t-98 -129.5t-145.5 -90t-193.5 -34q-209 0 -336 132 t-127 332zM340 444q0 -113 50.5 -177t146.5 -64q87 0 142.5 66t55.5 175q0 117 -52.5 179.5t-145.5 62.5q-97 0 -147 -63t-50 -179z" />
<glyph unicode="&#xf1;" horiz-adv-x="1142" d="M123 0v999h283v-157q39 77 114 127.5t191 50.5q168 0 243.5 -86t75.5 -256v-678h-291v631q0 67 -34 103t-101 36q-190 0 -190 -221v-549h-291zM197 1190q40 128 94.5 185t152.5 57q55 0 150.5 -44.5t122.5 -44.5q25 0 42.5 16.5t24.5 32t15 42.5l186 -68 q-12 -42 -23.5 -72.5t-31 -64.5t-42.5 -55.5t-57 -35.5t-75 -14q-52 0 -153 45t-136 45q-25 0 -43 -14.5t-26 -30.5t-19 -47z" />
<glyph unicode="&#xf2;" horiz-adv-x="1089" d="M57 500q0 234 127.5 377t360.5 143t360 -143t127 -377q0 -235 -126 -377.5t-361 -142.5t-361.5 142.5t-126.5 377.5zM215 1434h373l102 -312h-284zM348 500q0 -144 47.5 -216.5t149.5 -72.5t149 72.5t47 216.5t-47 216t-149 72t-149.5 -72t-47.5 -216z" />
<glyph unicode="&#xf3;" horiz-adv-x="1089" d="M57 500q0 234 127.5 377t360.5 143t360 -143t127 -377q0 -235 -126 -377.5t-361 -142.5t-361.5 142.5t-126.5 377.5zM348 500q0 -144 47.5 -216.5t149.5 -72.5t149 72.5t47 216.5t-47 216t-149 72t-149.5 -72t-47.5 -216zM399 1122l103 312h372l-190 -312h-285z" />
<glyph unicode="&#xf4;" horiz-adv-x="1089" d="M57 500q0 234 127.5 377t360.5 143t360 -143t127 -377q0 -235 -126 -377.5t-361 -142.5t-361.5 142.5t-126.5 377.5zM186 1122l217 312h283l217 -312h-264l-94 146l-94 -146h-265zM348 500q0 -144 47.5 -216.5t149.5 -72.5t149 72.5t47 216.5t-47 216t-149 72t-149.5 -72 t-47.5 -216z" />
<glyph unicode="&#xf5;" horiz-adv-x="1089" d="M57 500q0 234 127.5 377t360.5 143t360 -143t127 -377q0 -235 -126 -377.5t-361 -142.5t-361.5 142.5t-126.5 377.5zM160 1190q40 128 95 185t153 57q55 0 150 -44.5t122 -44.5q25 0 42.5 16.5t24.5 32t15 42.5l186 -68q-12 -42 -23.5 -72.5t-31 -64.5t-42.5 -55.5 t-57 -35.5t-75 -14q-52 0 -153 45t-136 45q-25 0 -43 -14.5t-26 -30.5t-19 -47zM348 500q0 -144 47.5 -216.5t149.5 -72.5t149 72.5t47 216.5t-47 216t-149 72t-149.5 -72t-47.5 -216z" />
<glyph unicode="&#xf6;" horiz-adv-x="1089" d="M57 500q0 234 127.5 377t360.5 143t360 -143t127 -377q0 -235 -126 -377.5t-361 -142.5t-361.5 142.5t-126.5 377.5zM199 1276q0 61 39 101t106 40t106 -40t39 -101t-39 -101t-106 -40t-106 40t-39 101zM348 500q0 -144 47.5 -216.5t149.5 -72.5t149 72.5t47 216.5 t-47 216t-149 72t-149.5 -72t-47.5 -216zM600 1276q0 61 39 101t106 40t106.5 -40.5t39.5 -100.5t-39.5 -100.5t-106.5 -40.5t-106 40t-39 101z" />
<glyph unicode="&#xf7;" horiz-adv-x="1114" d="M92 541v241h930v-241h-930zM395 254q0 69 46.5 112.5t115.5 43.5t115.5 -43.5t46.5 -112.5t-46.5 -112.5t-115.5 -43.5t-115.5 43.5t-46.5 112.5zM395 1069q0 69 46.5 112.5t115.5 43.5t115.5 -43.5t46.5 -112.5t-46.5 -112.5t-115.5 -43.5t-115.5 43.5t-46.5 112.5z" />
<glyph unicode="&#xf8;" horiz-adv-x="1077" d="M51 500q0 234 127.5 377t360.5 143q60 0 135 -14l67 165h144l-88 -215q113 -62 171 -180.5t58 -275.5q0 -235 -126 -377.5t-361 -142.5q-61 0 -133 14l-68 -166h-143l86 213q-112 62 -171 181.5t-59 277.5zM342 500q0 -140 41 -209l201 493q-28 4 -45 4 q-102 0 -149.5 -72t-47.5 -216zM496 215q24 -4 43 -4q102 0 149 72.5t47 216.5q0 139 -41 205z" />
<glyph unicode="&#xf9;" horiz-adv-x="1132" d="M113 322v677h290v-630q0 -67 34.5 -103.5t101.5 -36.5q180 0 180 222v548h291v-999h-283v158q-40 -76 -114 -127t-185 -51q-315 0 -315 342zM276 1434h373l103 -312h-285z" />
<glyph unicode="&#xfa;" horiz-adv-x="1132" d="M113 322v677h290v-630q0 -67 34.5 -103.5t101.5 -36.5q180 0 180 222v548h291v-999h-283v158q-40 -76 -114 -127t-185 -51q-315 0 -315 342zM399 1122l103 312h372l-190 -312h-285z" />
<glyph unicode="&#xfb;" horiz-adv-x="1132" d="M113 322v677h290v-630q0 -67 34.5 -103.5t101.5 -36.5q180 0 180 222v548h291v-999h-283v158q-40 -76 -114 -127t-185 -51q-315 0 -315 342zM203 1122l217 312h282l218 -312h-265l-94 146l-94 -146h-264z" />
<glyph unicode="&#xfc;" horiz-adv-x="1132" d="M113 322v677h290v-630q0 -67 34.5 -103.5t101.5 -36.5q180 0 180 222v548h291v-999h-283v158q-40 -76 -114 -127t-185 -51q-315 0 -315 342zM221 1276q0 60 39.5 100.5t106.5 40.5t106 -40t39 -101t-39 -101t-106 -40t-106.5 40.5t-39.5 100.5zM623 1276q0 61 39 101 t106 40t106 -40t39 -101t-39 -101t-106 -40t-106 40t-39 101z" />
<glyph unicode="&#xfd;" horiz-adv-x="937" d="M-12 999h305l182 -690l170 690h305l-434 -1364h-295l109 357zM336 1122l102 312h373l-190 -312h-285z" />
<glyph unicode="&#xfe;" d="M123 -365v1729h291v-506q104 162 297 162q130 0 218.5 -69t128.5 -183.5t40 -267.5q0 -114 -23 -207t-69.5 -164t-122.5 -110t-176 -39q-101 0 -178.5 47.5t-114.5 117.5v-510h-291zM414 500q0 -289 204 -289q191 0 191 289q0 288 -191 288q-204 0 -204 -288z" />
<glyph unicode="&#xff;" horiz-adv-x="937" d="M-12 999h305l182 -690l170 690h305l-434 -1364h-295l109 357zM139 1276q0 60 39.5 100.5t106.5 40.5t106 -40t39 -101t-39 -101t-106 -40t-106.5 40.5t-39.5 100.5zM541 1276q0 61 39 101t106 40t106 -40t39 -101t-39 -101t-106 -40t-106 40t-39 101z" />
<glyph unicode="&#x152;" horiz-adv-x="2072" d="M61 682q0 331 184.5 519t549.5 188q131 0 247 -25h938v-258h-639v-279h598v-258h-598v-311h639v-258h-938q-116 -25 -247 -25q-365 0 -549.5 188t-184.5 519zM360 682q0 -453 449 -453q134 0 233 29v848q-113 29 -243 29q-115 0 -201 -34t-137 -95.5t-76 -142.5t-25 -181 z" />
<glyph unicode="&#x153;" horiz-adv-x="1695" d="M57 500q0 234 127.5 377t360.5 143q106 0 193 -37.5t141 -105.5q123 143 350 143q216 0 322 -131.5t106 -360.5v-135h-619q17 -102 79 -150t181 -48q149 0 304 69l49 -196q-181 -88 -398 -88q-246 0 -374 141q-52 -64 -140.5 -102.5t-193.5 -38.5q-235 0 -361.5 142.5 t-126.5 377.5zM348 500q0 -144 47.5 -216.5t149.5 -72.5t149 72.5t47 216.5t-47 216t-149 72t-149.5 -72t-47.5 -216zM1034 596h350v27q0 198 -159 198q-90 0 -135 -56t-56 -169z" />
<glyph unicode="&#x178;" d="M-6 1364h315l269 -569l268 569h315l-434 -834v-530h-299v530zM221 1624q0 63 38.5 100t107.5 37t107 -37t38 -100t-38 -100t-107 -37t-107.5 37t-38.5 100zM645 1624q0 63 38.5 100t107.5 37t107 -37t38 -100t-38 -100t-107 -37t-107.5 37t-38.5 100z" />
<glyph unicode="&#x2c6;" horiz-adv-x="983" d="M133 1122l217 312h283l217 -312h-264l-94 146l-95 -146h-264z" />
<glyph unicode="&#x2dc;" horiz-adv-x="1054" d="M133 1190q40 128 95 185t153 57q55 0 150 -44.5t122 -44.5q25 0 42.5 16.5t24.5 32t15 42.5l187 -68q-15 -53 -31 -90.5t-42.5 -75t-66 -57t-90.5 -19.5q-52 0 -153 45t-136 45q-25 0 -43 -14.5t-26 -30.5t-19 -47z" />
<glyph unicode="&#x2000;" horiz-adv-x="899" />
<glyph unicode="&#x2001;" horiz-adv-x="1798" />
<glyph unicode="&#x2002;" horiz-adv-x="899" />
<glyph unicode="&#x2003;" horiz-adv-x="1798" />
<glyph unicode="&#x2004;" horiz-adv-x="599" />
<glyph unicode="&#x2005;" horiz-adv-x="449" />
<glyph unicode="&#x2006;" horiz-adv-x="299" />
<glyph unicode="&#x2007;" horiz-adv-x="299" />
<glyph unicode="&#x2008;" horiz-adv-x="224" />
<glyph unicode="&#x2009;" horiz-adv-x="359" />
<glyph unicode="&#x200a;" horiz-adv-x="99" />
<glyph unicode="&#x2010;" horiz-adv-x="747" d="M102 457v250h543v-250h-543z" />
<glyph unicode="&#x2011;" horiz-adv-x="747" d="M102 457v250h543v-250h-543z" />
<glyph unicode="&#x2012;" horiz-adv-x="747" d="M102 457v250h543v-250h-543z" />
<glyph unicode="&#x2013;" horiz-adv-x="1157" d="M102 457v250h953v-250h-953z" />
<glyph unicode="&#x2014;" horiz-adv-x="1628" d="M102 457v250h1424v-250h-1424z" />
<glyph unicode="&#x2018;" horiz-adv-x="528" d="M31 840l225 524h242l-109 -524h-358z" />
<glyph unicode="&#x2019;" horiz-adv-x="518" d="M31 840l108 524h359l-226 -524h-241z" />
<glyph unicode="&#x201a;" horiz-adv-x="620" d="M51 -225l109 524h358l-225 -524h-242z" />
<glyph unicode="&#x201c;" horiz-adv-x="1007" d="M31 840l225 524h242l-109 -524h-358zM510 840l225 524h242l-109 -524h-358z" />
<glyph unicode="&#x201d;" horiz-adv-x="1007" d="M31 840l108 524h359l-226 -524h-241zM510 840l108 524h359l-225 -524h-242z" />
<glyph unicode="&#x201e;" horiz-adv-x="1099" d="M51 -225l109 524h358l-225 -524h-242zM530 -225l109 524h358l-225 -524h-242z" />
<glyph unicode="&#x2022;" horiz-adv-x="749" d="M82 694q0 120 81.5 202.5t211.5 82.5t211.5 -82.5t81.5 -202.5t-81 -202t-212 -82t-212 82t-81 202z" />
<glyph unicode="&#x2026;" horiz-adv-x="1695" d="M113 152q0 75 47.5 121t122.5 46t122.5 -46t47.5 -121t-47.5 -121.5t-122.5 -46.5t-122.5 46.5t-47.5 121.5zM678 152q0 75 47.5 121t122.5 46t122.5 -46t47.5 -121t-47.5 -121.5t-122.5 -46.5t-122.5 46.5t-47.5 121.5zM1243 152q0 75 47.5 121t122.5 46t122.5 -46 t47.5 -121t-47.5 -121.5t-122.5 -46.5t-122.5 46.5t-47.5 121.5z" />
<glyph unicode="&#x202f;" horiz-adv-x="359" />
<glyph unicode="&#x2039;" horiz-adv-x="761" d="M41 508l313 424h336l-311 -424l311 -424h-336z" />
<glyph unicode="&#x203a;" horiz-adv-x="761" d="M72 84l311 424l-311 424h336l313 -424l-313 -424h-336z" />
<glyph unicode="&#x205f;" horiz-adv-x="449" />
<glyph unicode="&#x20ac;" horiz-adv-x="1183" d="M61 391v211h134q-2 25 -2 80q0 53 2 80h-134v211h164q107 411 547 411q195 0 340 -69l-41 -213q-120 49 -258 49q-125 0 -195.5 -43t-101.5 -135h410v-211h-443q-2 -23 -2 -80q0 -49 2 -80h443v-211h-410q31 -93 101.5 -135.5t195.5 -42.5q138 0 258 49l41 -213 q-145 -69 -340 -69q-440 0 -547 411h-164z" />
<glyph unicode="&#x2122;" horiz-adv-x="1468" d="M41 1223v141h516v-141h-174v-516h-168v516h-174zM655 707v657h183l168 -393l168 393h182v-657h-160v350l-102 -252h-176l-103 252v-350h-160z" />
<glyph unicode="&#xe000;" horiz-adv-x="1003" d="M0 0v1004h1004v-1004h-1004z" />
</font>
</defs>
</svg>
