<?xml version="1.0" encoding="utf-8"?>
<!-- Generator: Adobe Illustrator 18.1.1, SVG Export Plug-In . SVG Version: 6.00 Build 0)  -->
<svg version="1.1" id="Layer_1" xmlns="http://www.w3.org/2000/svg" xmlns:xlink="http://www.w3.org/1999/xlink" x="0px" y="0px"
	 width="285px" height="21px" viewBox="-37 170 285 21" enable-background="new -37 170 285 21" xml:space="preserve">
<path fill="#FFFFFF" d="M-29.1,170.1c2.4,0,4.2,0.5,5.2,1.1l-0.6,3.1c-1.1-0.4-2.6-0.8-3.8-0.8c-3.8,0-5.9,1.9-5.9,5.9
	c0,4,2.1,5.9,5.9,5.9c1.2,0,2.7-0.3,3.8-0.8l0.6,3.1c-1.1,0.5-2.9,1.1-5.2,1.1c-5.3,0-9-3.5-9-9.3C-38,173.6-34.4,170.1-29.1,170.1z
	"/>
<path fill="#FFFFFF" d="M-21.8,170.5h3.9v7.1h7.2v-7.1h3.9v18h-3.9v-7.3h-7.2v7.3h-3.9L-21.8,170.5L-21.8,170.5z"/>
<path fill="#FFFFFF" d="M-3.6,170.5H8.7v3.4H0.3v3.7h7.9v3.4H0.3v4.1h8.4v3.4H-3.6V170.5z"/>
<path fill="#FFFFFF" d="M19.3,170.1c2.4,0,4.2,0.5,5.2,1.1l-0.6,3.1c-1.1-0.4-2.6-0.8-3.8-0.8c-3.8,0-5.9,1.9-5.9,5.9
	c0,4,2,5.9,5.9,5.9c1.2,0,2.7-0.3,3.8-0.8l0.6,3.1c-1.1,0.5-2.9,1.1-5.2,1.1c-5.3,0-9-3.5-9-9.3C10.3,173.6,13.9,170.1,19.3,170.1z"
	/>
<path fill="#FFFFFF" d="M26.6,170.5h3.9v8l6.2-8h5l-7.2,8.8l7.3,9.2h-5l-6.3-8.4v8.4h-3.9L26.6,170.5L26.6,170.5z"/>
<path fill="#FFFFFF" d="M42.9,170.5h8.1c3.7,0,6.1,2.5,6.1,5.9c0,3.3-2.5,5.9-6.1,5.9h-4.2v6.2h-3.9L42.9,170.5L42.9,170.5z
	 M50.5,179.1c1.6,0,2.7-1,2.7-2.8c0-1.8-1.1-2.7-2.7-2.7h-3.6v5.4H50.5z"/>
<path fill="#FFFFFF" d="M66.3,170.1c5.8,0,8.6,4,8.6,9.3c0,5.3-2.8,9.3-8.6,9.3s-8.6-4-8.6-9.3C57.7,174.1,60.5,170.1,66.3,170.1z
	 M71,179.5c0-3.5-1.4-6-4.7-6s-4.7,2.5-4.7,6c0,3.5,1.4,6,4.7,6C69.6,185.4,71,183,71,179.5z"/>
<path fill="#FFFFFF" d="M76.7,170.5h3.9v18h-3.9V170.5z"/>
<path fill="#FFFFFF" d="M83.3,170.5h3.9l8,11.4v-11.4H99v18h-3.9l-8-11.4v11.4h-3.8V170.5z"/>
<path fill="#FFFFFF" d="M109.9,173.9v14.6H106v-14.6h-5v-3.4h14v3.4H109.9z"/>
<path fill="#FFFFFF" d="M120.4,170.5h3.9V185h8v3.4h-11.9V170.5z"/>
<path fill="#FFFFFF" d="M134.2,170.5h12.4v3.4h-8.4v3.7h7.9v3.4h-7.9v4.1h8.4v3.4h-12.4L134.2,170.5L134.2,170.5z"/>
<path fill="#FFFFFF" d="M154.2,170.5h4.4l6.5,18h-4l-1.3-4h-6.9l-1.3,4h-4L154.2,170.5z M154,181.2h4.7l-2.3-7.2L154,181.2z"/>
<path fill="#FFFFFF" d="M177,181.6l4.7,6.8h-4.9l-4-6.4h-2.9v6.4H166v-18h8.6c3.8,0,6.1,2.3,6.1,5.8
	C180.6,178.8,179.2,180.7,177,181.6z M174,173.6h-4v5.3h4c1.6,0,2.8-0.9,2.8-2.7C176.7,174.6,175.6,173.6,174,173.6z"/>
<path fill="#FFFFFF" d="M183.6,170.5h3.9l8,11.4v-11.4h3.8v18h-3.9l-8-11.4v11.4h-3.8V170.5L183.6,170.5z"/>
<path fill="#FFFFFF" d="M202,170.5h3.9v18H202V170.5z"/>
<path fill="#FFFFFF" d="M208.6,170.5h3.9l8,11.4v-11.4h3.8v18h-3.9l-8-11.4v11.4h-3.8V170.5L208.6,170.5z"/>
<path fill="#FFFFFF" d="M235.7,170.1c2.2,0,4,0.4,5.9,1.1l-0.6,3.2c-1.5-0.5-3.2-0.9-5-0.9c-4.2,0-6.1,2.2-6.1,6.1
	c0,3.9,2,5.9,5.7,5.9c0.8,0,1.5-0.1,2.2-0.2V180h3.7v7.9c-1.2,0.5-3.8,0.9-6,0.9c-6.6,0-9.6-4.1-9.6-9.2
	C226,173.9,229.4,170.1,235.7,170.1z"/>
<g>
	<path fill="#FFFFFF" d="M246.4,172.4c0,1.1-0.9,2-2,2c-1.1,0-2-0.9-2-2c0-1.1,0.9-2,2-2C245.6,170.5,246.4,171.3,246.4,172.4z
		 M242.9,172.4c0,0.9,0.6,1.6,1.5,1.6c0.9,0,1.5-0.7,1.5-1.6c0-0.9-0.6-1.6-1.5-1.6C243.5,170.9,242.9,171.6,242.9,172.4z
		 M244.1,173.5h-0.5v-2c0.2,0,0.4-0.1,0.8-0.1c0.4,0,0.5,0.1,0.7,0.1c0.1,0.1,0.2,0.2,0.2,0.4c0,0.2-0.2,0.4-0.4,0.5v0
		c0.2,0.1,0.3,0.2,0.4,0.5c0.1,0.3,0.1,0.4,0.1,0.5h-0.5c-0.1-0.1-0.1-0.3-0.2-0.5c0-0.2-0.2-0.3-0.4-0.3h-0.2V173.5z M244.1,172.4
		h0.2c0.3,0,0.5-0.1,0.5-0.3c0-0.2-0.1-0.3-0.4-0.3c-0.1,0-0.2,0-0.3,0V172.4z"/>
</g>
</svg>
