<?xml version="1.0" encoding="utf-8"?>
<!-- Generator: Adobe Illustrator 14.0.0, SVG Export Plug-In  -->
<!DOCTYPE svg PUBLIC "-//W3C//DTD SVG 1.1//EN" "http://www.w3.org/Graphics/SVG/1.1/DTD/svg11.dtd" [
	<!ENTITY ns_flows "http://ns.adobe.com/Flows/1.0/">
]>
<svg version="1.1"
	 xmlns="http://www.w3.org/2000/svg" xmlns:xlink="http://www.w3.org/1999/xlink" xmlns:a="http://ns.adobe.com/AdobeSVGViewerExtensions/3.0/"
	 x="0px" y="0px" width="198px" height="46px" viewBox="-1 -2 335 75" enable-background="new -1 -2 335 75" xml:space="preserve" style="fill:white">
<defs>
</defs>
<path d="M105.188,30.607h-4.492v12.935c0,0.247-0.201,0.451-0.451,0.451h-2.227c-0.25,0-0.451-0.204-0.451-0.451V30.607h-4.496
	c-0.246,0-0.451-0.155-0.451-0.404v-1.779c0-0.249,0.205-0.428,0.451-0.428h12.117c0.248,0,0.452,0.179,0.452,0.428v1.779
	C105.641,30.452,105.437,30.607,105.188,30.607z M121.438,43.993h-2.228c-0.253,0-0.455-0.204-0.455-0.451V37.02h-7.133v6.522
	c0,0.247-0.203,0.451-0.447,0.451h-2.229c-0.25,0-0.451-0.204-0.451-0.451V28.424c0-0.249,0.201-0.428,0.451-0.428h2.229
	c0.244,0,0.447,0.179,0.447,0.428v5.85h7.133v-5.85c0-0.249,0.202-0.428,0.455-0.428h2.228c0.243,0,0.447,0.179,0.447,0.428v15.118
	C121.886,43.789,121.682,43.993,121.438,43.993z M132.598,44.17c-3.717,0-7.153-2.069-7.153-7.023v-2.305
	c0-4.953,3.438-7.023,7.153-7.023s7.157,2.07,7.157,7.023v2.305C139.755,42.101,136.313,44.17,132.598,44.17z M136.6,34.842
	c0-2.972-1.796-4.3-4.002-4.3c-2.208,0-4.004,1.328-4.004,4.3v2.305c0,2.973,1.796,4.3,4.004,4.3c2.206,0,4.002-1.327,4.002-4.3
	V34.842z M159.157,43.993h-2.273c-0.201,0-0.357-0.229-0.357-0.451v-9.737c0-0.156-0.023-0.223-0.074-0.223
	c-0.018,0-0.061,0.064-0.109,0.133l-3.635,8.052c-0.135,0.246-0.426,0.386-0.719,0.386h-1.171c-0.293,0-0.586-0.14-0.715-0.386
	l-3.66-8.052c-0.049-0.066-0.095-0.133-0.115-0.133c-0.043,0-0.066,0.064-0.066,0.223v9.737c0,0.223-0.158,0.451-0.361,0.451h-2.271
	c-0.205,0-0.388-0.115-0.388-0.339v-14.76c0-0.496,0.406-0.898,0.902-0.898h1.848c0.357,0,0.674,0.225,0.832,0.541l4.32,8.796
	c0.111,0.202,0.158,0.314,0.251,0.314c0.088,0,0.133-0.112,0.248-0.314l4.318-8.796c0.158-0.316,0.475-0.541,0.832-0.541h1.85
	c0.494,0,0.9,0.402,0.9,0.898v14.76C159.543,43.878,159.36,43.993,159.157,43.993z M208.621,43.993h-2.277
	c-0.541,0-1.014,0-1.369-0.811l-6.105-10.232c-0.066-0.134-0.139-0.183-0.203-0.183s-0.113,0.049-0.113,0.183v10.592
	c0,0.247-0.18,0.451-0.428,0.451h-1.91c-0.252,0-0.451-0.204-0.451-0.451V28.896c0-0.496,0.402-0.899,0.896-0.899h2.436
	c0.473,0,0.717,0.134,0.99,0.726l6.352,10.833c0.043,0.112,0.109,0.184,0.18,0.184c0.045,0,0.109-0.07,0.109-0.206V28.426
	c0-0.248,0.182-0.428,0.432-0.428h1.938c0.246,0,0.428,0.18,0.428,0.428v14.668C209.521,43.588,209.115,43.993,208.621,43.993z
	 M169.201,44.183c-1.99,0-4.007-0.344-5.089-0.593c-0.227-0.045-0.43-0.2-0.43-0.447v-1.622c0-0.245,0.203-0.429,0.43-0.429
	c0.02,0,0.02,0,0.043,0c0.902,0.113,3.007,0.406,5.091,0.406c2.004,0,2.611-0.718,2.611-2.022c0-1.688-4.025-2.622-5.992-3.437
	c-1.961-0.809-2.654-2.359-2.654-3.936c0-2.479,1.994-4.278,6.183-4.278c2.146,0,4.111,0.407,4.875,0.591
	c0.229,0.044,0.402,0.201,0.402,0.428v1.665c0,0.224-0.154,0.405-0.381,0.405c-0.021,0-0.021,0-0.045,0
	c-1.488-0.135-3.029-0.409-4.988-0.409c-1.664,0-2.916,0.587-2.916,1.601c0,0.74,0.845,1.422,1.843,1.818
	c0.998,0.395,2.313,0.905,3.811,1.506c1.902,0.769,3.131,1.887,3.131,4.046C175.125,41.748,173.707,44.183,169.201,44.183z
	 M185.119,44.17c-3.715,0-7.156-2.069-7.156-7.023v-2.305c0-4.953,3.441-7.023,7.156-7.023s7.154,2.07,7.154,7.023v2.305
	C192.273,42.101,188.834,44.17,185.119,44.17z M189.121,34.842c0-2.972-1.797-4.3-4.002-4.3c-2.209,0-4.006,1.328-4.006,4.3v2.305
	c0,2.973,1.797,4.3,4.006,4.3c2.205,0,4.002-1.327,4.002-4.3V34.842z M232.875,43.993h-2.75c-0.246,0-0.338-0.229-0.447-0.451
	l-3.246-5.461h-0.498c-0.586,0-2.406-0.064-2.924-0.091v5.552c0,0.247-0.184,0.451-0.432,0.451h-2.25
	c-0.248,0-0.451-0.204-0.451-0.451V28.783c0-0.45,0.27-0.608,0.721-0.676c1.174-0.18,3.691-0.291,5.336-0.291
	c3.471,0,6.67,1.24,6.67,5.089v0.204c0,2.385-1.191,3.688-3.039,4.406l3.533,6.025c0.047,0.066,0.047,0.133,0.047,0.182
	C233.145,43.878,233.055,43.993,232.875,43.993z M229.498,32.904c0-1.688-1.313-2.407-3.564-2.407c-0.475,0-2.52,0.045-2.924,0.09
	v4.884c0.357,0.021,2.539,0.067,2.924,0.067c2.318,0,3.564-0.449,3.564-2.429V32.904z M239.148,39.555
	c0,1.89,0.072,1.939,1.775,1.939h5.703c0.246,0,0.449,0.202,0.449,0.45v1.438c0,0.317-0.113,0.433-0.449,0.476
	c-0.723,0.113-2.189,0.313-4.865,0.313c-3.74,0-5.721,0.027-5.721-4.615v-7.123c0-4.641,1.98-4.613,5.721-4.613
	c2.676,0,4.145,0.203,4.865,0.312c0.336,0.045,0.449,0.16,0.449,0.478v1.438c0,0.246-0.203,0.453-0.449,0.453h-5.703
	c-1.703,0-1.775,0.05-1.775,1.934v2.065h7.209c0.246,0,0.449,0.204,0.449,0.448v1.626c0,0.245-0.203,0.448-0.449,0.448h-7.209
	V39.555z M257.188,44.17c-3.623,0-6.742-1.575-6.742-6.373v-9.373c0-0.249,0.203-0.428,0.451-0.428h2.229
	c0.25,0,0.449,0.179,0.449,0.428v9.373c0,2.567,1.188,3.784,3.613,3.784c2.438,0,3.619-1.217,3.619-3.784v-9.373
	c0-0.249,0.203-0.428,0.449-0.428h2.23c0.25,0,0.451,0.179,0.451,0.428v9.373C263.938,42.595,260.816,44.17,257.188,44.17z
	 M278.746,30.607h-4.492v12.935c0,0.247-0.207,0.451-0.457,0.451h-2.225c-0.25,0-0.455-0.204-0.455-0.451V30.607h-4.494
	c-0.246,0-0.449-0.155-0.449-0.404v-1.779c0-0.249,0.203-0.428,0.449-0.428h12.123c0.242,0,0.445,0.179,0.445,0.428v1.779
	C279.193,30.452,278.988,30.607,278.746,30.607z M309.326,43.993h-2.75c-0.246,0-0.334-0.229-0.445-0.451l-3.244-5.461h-0.506
	c-0.58,0-2.404-0.064-2.926-0.091v5.552c0,0.247-0.178,0.451-0.422,0.451h-2.25c-0.25,0-0.449-0.204-0.449-0.451V28.783
	c0-0.45,0.264-0.608,0.717-0.676c1.17-0.18,3.691-0.291,5.33-0.291c3.475,0,6.674,1.24,6.674,5.089v0.204
	c0,2.385-1.195,3.688-3.041,4.406l3.541,6.025c0.043,0.066,0.043,0.133,0.043,0.182C309.598,43.878,309.506,43.993,309.326,43.993z
	 M305.951,32.904c0-1.688-1.313-2.407-3.57-2.407c-0.467,0-2.518,0.045-2.926,0.09v4.884c0.367,0.021,2.551,0.067,2.926,0.067
	c2.324,0,3.57-0.449,3.57-2.429V32.904z M317.922,44.183c-1.988,0-4.008-0.344-5.092-0.593c-0.223-0.045-0.426-0.2-0.426-0.447
	v-1.622c0-0.245,0.203-0.429,0.426-0.429c0.023,0,0.023,0,0.049,0c0.9,0.113,3.01,0.406,5.088,0.406
	c2.004,0,2.617-0.718,2.617-2.022c0-1.688-4.029-2.622-6-3.437c-1.959-0.809-2.654-2.359-2.654-3.936
	c0-2.479,1.998-4.278,6.184-4.278c2.148,0,4.111,0.407,4.875,0.591c0.229,0.044,0.404,0.201,0.404,0.428v1.665
	c0,0.224-0.154,0.405-0.381,0.405c-0.023,0-0.023,0-0.045,0c-1.486-0.135-3.025-0.409-4.982-0.409c-1.672,0-2.922,0.587-2.922,1.601
	c0,0.74,0.852,1.42,1.846,1.818c1,0.395,2.313,0.905,3.809,1.506c1.896,0.769,3.129,1.887,3.129,4.046
	C323.846,41.748,322.428,44.183,317.922,44.183z M284.617,39.555c0,1.89,0.068,1.939,1.777,1.939h5.701
	c0.244,0,0.449,0.202,0.449,0.45v1.438c0,0.317-0.113,0.433-0.449,0.476c-0.723,0.113-2.188,0.313-4.867,0.313
	c-3.742,0-5.721,0.027-5.721-4.615v-7.123c0-4.641,1.979-4.613,5.721-4.613c2.68,0,4.146,0.203,4.867,0.312
	c0.336,0.045,0.449,0.16,0.449,0.478v1.438c0,0.246-0.205,0.453-0.449,0.453h-5.701c-1.709,0-1.777,0.05-1.777,1.934v2.065h7.209
	c0.25,0,0.447,0.204,0.447,0.448v1.626c0,0.245-0.197,0.448-0.447,0.448h-7.209V39.555z M329.08,28.786v-0.345
	c0-0.049-0.039-0.084-0.088-0.084h-2.35c-0.049,0-0.088,0.035-0.088,0.084v0.345c0,0.048,0.039,0.078,0.088,0.078h0.871v2.507
	c0,0.048,0.039,0.087,0.088,0.087h0.432c0.049,0,0.088-0.039,0.088-0.087v-2.507h0.871C329.041,28.864,329.08,28.834,329.08,28.786z
	 M332.686,31.393v-2.859c0-0.098-0.078-0.174-0.176-0.174h-0.357c-0.068,0-0.131,0.043-0.16,0.104l-0.838,1.705
	c-0.021,0.039-0.029,0.061-0.049,0.061c-0.018,0-0.025-0.021-0.047-0.061l-0.838-1.705c-0.031-0.063-0.092-0.104-0.162-0.104h-0.357
	c-0.096,0-0.174,0.076-0.174,0.174v2.859c0,0.043,0.033,0.065,0.074,0.065h0.439c0.039,0,0.07-0.044,0.07-0.087v-1.887
	c0-0.031,0.004-0.045,0.014-0.045c0.004,0,0.012,0.014,0.02,0.026l0.709,1.56c0.027,0.049,0.084,0.076,0.141,0.076h0.227
	c0.059,0,0.113-0.027,0.141-0.076l0.705-1.56c0.008-0.014,0.018-0.026,0.02-0.026c0.01,0,0.016,0.014,0.016,0.045v1.887
	c0,0.043,0.029,0.087,0.068,0.087h0.441C332.65,31.458,332.686,31.436,332.686,31.393z"/>
<path d="M54.11,22.852c-0.938,0.991-2.514,1.043-3.512,0.097c-1.004-0.945-1.043-2.517-0.098-3.511c0.938-1,2.505-1.051,3.509-0.108
	C55.008,20.271,55.055,21.842,54.11,22.852z M29.346,17.204c-0.497-0.463-1.271-0.438-1.734,0.05
	c-0.462,0.493-0.439,1.262,0.05,1.73c0.497,0.461,1.271,0.439,1.734-0.053C29.86,18.443,29.833,17.666,29.346,17.204z
	 M35.555,14.842c-0.613-0.572-1.566-0.537-2.137,0.065c-0.572,0.61-0.546,1.563,0.065,2.142c0.603,0.569,1.563,0.538,2.138-0.068
	C36.19,16.376,36.162,15.413,35.555,14.842z M42.215,14.355c-0.772-0.729-1.986-0.687-2.716,0.078
	c-0.724,0.772-0.689,1.989,0.086,2.717c0.771,0.729,1.99,0.692,2.712-0.077C43.026,16.296,42.985,15.086,42.215,14.355z
	 M48.516,15.968c-0.882-0.827-2.238-0.776-3.056,0.089c-0.818,0.867-0.783,2.229,0.086,3.055c0.868,0.82,2.244,0.777,3.059-0.088
	C49.419,18.154,49.384,16.784,48.516,15.968z M24.082,21.34c-0.375-0.343-0.949-0.326-1.291,0.038
	c-0.349,0.368-0.332,0.942,0.035,1.29c0.374,0.352,0.948,0.331,1.29-0.036C24.463,22.264,24.447,21.688,24.082,21.34z M55.88,43.878
	c-0.465,0.489-0.441,1.269,0.05,1.735c0.498,0.464,1.272,0.438,1.737-0.059c0.46-0.489,0.441-1.267-0.053-1.732
	C57.116,43.361,56.344,43.385,55.88,43.878z M57.45,37.55c-0.568,0.607-0.535,1.564,0.068,2.135
	c0.615,0.578,1.563,0.544,2.139-0.063c0.572-0.605,0.551-1.562-0.066-2.137C58.987,36.914,58.026,36.943,57.45,37.55z
	 M56.968,30.886c-0.729,0.771-0.691,1.988,0.083,2.716c0.771,0.731,1.989,0.688,2.715-0.084c0.731-0.767,0.691-1.984-0.081-2.713
	C58.909,30.078,57.694,30.111,56.968,30.886z M54.642,24.71c-0.816,0.867-0.779,2.235,0.094,3.056
	c0.871,0.82,2.238,0.771,3.053-0.093c0.822-0.872,0.781-2.231-0.094-3.058C56.833,23.797,55.463,23.844,54.642,24.71z
	 M52.505,49.367c-0.344,0.367-0.325,0.946,0.04,1.292c0.371,0.341,0.944,0.327,1.288-0.047c0.348-0.362,0.335-0.941-0.039-1.282
	C53.435,48.979,52.85,48.997,52.505,49.367z M26.129,52.561c0.942-1.002,0.895-2.567-0.104-3.518
	c-1.006-0.942-2.575-0.892-3.514,0.105c-0.938,1.01-0.895,2.565,0.108,3.516C23.617,53.605,25.193,53.563,26.129,52.561z
	 M20.749,28.119c0.456-0.491,0.438-1.266-0.055-1.729c-0.492-0.469-1.265-0.438-1.729,0.045c-0.47,0.49-0.442,1.264,0.055,1.731
	C19.507,28.627,20.281,28.607,20.749,28.119z M19.173,34.45c0.573-0.604,0.539-1.571-0.062-2.142
	c-0.616-0.576-1.574-0.545-2.142,0.066c-0.563,0.611-0.548,1.559,0.063,2.134C17.637,35.085,18.599,35.051,19.173,34.45z
	 M19.658,41.111c0.729-0.77,0.693-1.988-0.081-2.724c-0.773-0.73-1.986-0.685-2.719,0.084c-0.724,0.769-0.689,1.99,0.084,2.718
	C17.718,41.922,18.932,41.883,19.658,41.111z M21.981,47.289c0.818-0.867,0.777-2.241-0.089-3.056
	c-0.872-0.828-2.236-0.769-3.05,0.094c-0.819,0.862-0.79,2.229,0.082,3.055C19.799,48.195,21.169,48.151,21.981,47.289z
	 M47.28,54.793c0.497,0.466,1.272,0.441,1.732-0.053c0.464-0.487,0.442-1.262-0.053-1.729c-0.491-0.466-1.267-0.442-1.729,0.05
	C46.766,53.556,46.789,54.331,47.28,54.793z M41.071,57.152c0.61,0.574,1.566,0.537,2.139-0.067c0.571-0.601,0.55-1.562-0.062-2.134
	c-0.612-0.573-1.568-0.543-2.144,0.065C40.437,55.619,40.465,56.58,41.071,57.152z M34.407,57.633
	c0.78,0.735,1.988,0.699,2.715-0.073c0.729-0.771,0.698-1.989-0.076-2.715c-0.772-0.732-1.995-0.688-2.722,0.076
	C33.598,55.692,33.633,56.915,34.407,57.633z M28.119,56.029c0.868,0.82,2.239,0.776,3.05-0.09c0.815-0.872,0.785-2.237-0.091-3.057
	c-0.87-0.816-2.24-0.773-3.056,0.098C27.207,53.837,27.246,55.208,28.119,56.029z M44.485,21.868
	c-0.3,1.019-1.373,1.604-2.398,1.299c-1.04-0.306-1.609-1.373-1.311-2.401c0.296-1.023,1.369-1.615,2.401-1.316
	C44.207,19.752,44.796,20.831,44.485,21.868z M25.942,26.436c-0.507-0.138-1.038,0.145-1.188,0.651
	c-0.15,0.502,0.144,1.033,0.648,1.179c0.505,0.148,1.031-0.138,1.184-0.643C26.743,27.12,26.444,26.591,25.942,26.436z
	 M29.296,22.745c-0.63-0.187-1.278,0.179-1.46,0.801c-0.184,0.629,0.169,1.278,0.798,1.464c0.623,0.184,1.28-0.179,1.465-0.8
	C30.28,23.587,29.921,22.932,29.296,22.745z M33.595,20.145c-0.799-0.229-1.627,0.226-1.864,1.013
	c-0.231,0.794,0.228,1.625,1.021,1.858c0.791,0.233,1.628-0.213,1.858-1.014C34.835,21.212,34.38,20.378,33.595,20.145z
	 M38.357,19.079c-0.903-0.271-1.827,0.248-2.095,1.14c-0.265,0.895,0.242,1.824,1.139,2.092c0.894,0.265,1.825-0.252,2.091-1.138
	C39.76,20.279,39.248,19.338,38.357,19.079z M23.82,31.003c-0.377-0.11-0.772,0.104-0.879,0.479
	c-0.111,0.382,0.099,0.783,0.478,0.894c0.382,0.11,0.776-0.11,0.887-0.487C24.416,31.511,24.203,31.115,23.82,31.003z
	 M52.707,35.297c-0.151,0.501,0.137,1.039,0.649,1.186c0.506,0.15,1.033-0.143,1.185-0.649c0.146-0.499-0.138-1.031-0.646-1.183
	C53.389,34.504,52.849,34.793,52.707,35.297z M51.604,30.521c-0.192,0.635,0.178,1.289,0.799,1.47c0.631,0.186,1.28-0.175,1.465-0.8
	c0.184-0.627-0.172-1.279-0.797-1.459C52.446,29.545,51.782,29.902,51.604,30.521z M49.003,26.227
	c-0.236,0.806,0.223,1.631,1.013,1.863c0.796,0.233,1.623-0.229,1.86-1.021c0.236-0.787-0.217-1.618-1.016-1.852
	C50.071,24.984,49.243,25.439,49.003,26.227z M45.344,22.891c-0.266,0.892,0.25,1.827,1.143,2.092
	c0.895,0.263,1.829-0.258,2.09-1.148c0.268-0.889-0.242-1.826-1.137-2.09C46.541,21.479,45.61,22,45.344,22.891z M52.319,40.117
	c-0.104,0.377,0.106,0.776,0.479,0.885c0.384,0.112,0.774-0.104,0.886-0.485c0.114-0.376-0.102-0.774-0.481-0.886
	C52.832,39.524,52.431,39.739,52.319,40.117z M35.857,51.241c0.301-1.029-0.279-2.107-1.314-2.41
	c-1.029-0.298-2.105,0.286-2.401,1.312c-0.296,1.037,0.279,2.104,1.314,2.408C34.482,52.848,35.565,52.258,35.857,51.241z
	 M23.919,36.703c0.151-0.503-0.136-1.032-0.644-1.188c-0.505-0.148-1.033,0.147-1.19,0.65c-0.153,0.503,0.146,1.029,0.65,1.18
	C23.238,37.498,23.768,37.213,23.919,36.703z M25.026,41.475c0.185-0.624-0.176-1.278-0.796-1.451
	c-0.634-0.19-1.288,0.166-1.463,0.793c-0.175,0.623,0.163,1.28,0.798,1.465C24.183,42.469,24.842,42.104,25.026,41.475z
	 M27.629,45.776c0.232-0.792-0.229-1.633-1.022-1.868c-0.795-0.232-1.617,0.228-1.856,1.021c-0.235,0.792,0.215,1.622,1.013,1.858
	C26.566,47.025,27.39,46.57,27.629,45.776z M31.288,49.117c0.258-0.886-0.251-1.831-1.149-2.092
	c-0.896-0.263-1.822,0.248-2.084,1.147c-0.261,0.884,0.241,1.82,1.139,2.085C30.09,50.517,31.023,50.006,31.288,49.117z
	 M50.682,45.563c0.515,0.147,1.046-0.143,1.193-0.646c0.146-0.502-0.144-1.038-0.647-1.189c-0.503-0.146-1.035,0.145-1.187,0.648
	C49.896,44.885,50.184,45.418,50.682,45.563z M47.333,49.257c0.622,0.187,1.275-0.175,1.458-0.793
	c0.188-0.632-0.169-1.287-0.791-1.469c-0.628-0.188-1.284,0.178-1.472,0.798C46.349,48.414,46.712,49.07,47.333,49.257z
	 M43.034,51.859c0.802,0.233,1.627-0.218,1.863-1.018c0.231-0.786-0.216-1.619-1.016-1.854c-0.794-0.24-1.634,0.221-1.864,1.012
	C41.786,50.797,42.246,51.628,43.034,51.859z M38.277,52.92c0.896,0.271,1.834-0.243,2.089-1.132
	c0.258-0.896-0.243-1.833-1.138-2.094c-0.898-0.265-1.833,0.248-2.097,1.145C36.872,51.725,37.385,52.655,38.277,52.92z
	 M34.336,25.46c0.39,0.728,0.125,1.64-0.605,2.033c-0.738,0.396-1.646,0.114-2.041-0.614c-0.4-0.727-0.124-1.641,0.604-2.031
	C33.027,24.449,33.945,24.725,34.336,25.46z M26.907,37.222c-0.425,0.235-0.586,0.775-0.354,1.203
	c0.235,0.437,0.773,0.586,1.196,0.349c0.43-0.22,0.604-0.769,0.36-1.194C27.871,37.153,27.345,36.99,26.907,37.222z M26.757,33.605
	c-0.495,0.267-0.679,0.895-0.413,1.39c0.277,0.508,0.899,0.69,1.402,0.423c0.497-0.271,0.687-0.907,0.418-1.4
	C27.891,33.516,27.268,33.328,26.757,33.605z M27.695,30.126c-0.573,0.31-0.785,1.026-0.485,1.597c0.315,0.569,1.03,0.789,1.6,0.479
	c0.575-0.307,0.794-1.025,0.483-1.6C28.976,30.032,28.266,29.82,27.695,30.126z M29.61,27.116c-0.653,0.356-0.895,1.147-0.541,1.806
	c0.35,0.639,1.144,0.883,1.788,0.533c0.656-0.348,0.895-1.158,0.547-1.794C31.061,27.018,30.249,26.764,29.61,27.116z
	 M28.144,40.646c-0.362,0.188-0.491,0.637-0.299,1.006c0.194,0.353,0.636,0.487,1.004,0.3c0.354-0.203,0.489-0.648,0.293-1.008
	C28.945,40.592,28.497,40.452,28.144,40.646z M45.238,28.332c0.23,0.428,0.766,0.586,1.207,0.365
	c0.426-0.243,0.593-0.777,0.359-1.209c-0.238-0.43-0.771-0.594-1.198-0.356C45.166,27.372,45.01,27.906,45.238,28.332z
	 M42.235,26.421c0.271,0.502,0.909,0.685,1.395,0.412c0.513-0.272,0.696-0.896,0.422-1.396c-0.265-0.502-0.898-0.688-1.391-0.424
	C42.157,25.291,41.966,25.925,42.235,26.421z M38.765,25.491c0.303,0.571,1.017,0.784,1.586,0.473
	c0.584-0.313,0.789-1.022,0.485-1.597c-0.303-0.57-1.021-0.789-1.595-0.471C38.664,24.202,38.461,24.914,38.765,25.491z
	 M35.142,25.634c0.344,0.654,1.156,0.888,1.801,0.546c0.643-0.353,0.878-1.154,0.534-1.805c-0.341-0.641-1.156-0.887-1.801-0.534
	C35.03,24.188,34.803,24.996,35.142,25.634z M47.493,31.039c0.191,0.359,0.641,0.488,0.988,0.297
	c0.362-0.191,0.496-0.632,0.301-0.99c-0.194-0.365-0.635-0.498-1.002-0.314C47.438,30.23,47.295,30.688,47.493,31.039z
	 M44.944,45.107c-0.396-0.735-1.308-1.021-2.046-0.612c-0.728,0.389-1.008,1.301-0.603,2.034c0.396,0.728,1.31,0.994,2.042,0.609
	C45.065,46.737,45.335,45.82,44.944,45.107z M31.388,43.649c-0.228-0.426-0.766-0.58-1.195-0.356
	c-0.43,0.226-0.59,0.771-0.359,1.194c0.227,0.434,0.764,0.593,1.195,0.354C31.455,44.619,31.618,44.082,31.388,43.649z
	 M34.395,45.561c-0.277-0.495-0.901-0.688-1.395-0.412c-0.512,0.277-0.693,0.896-0.417,1.396c0.26,0.503,0.891,0.695,1.391,0.425
	C34.477,46.688,34.664,46.055,34.395,45.561z M37.873,46.491c-0.303-0.571-1.026-0.774-1.606-0.479
	c-0.574,0.311-0.777,1.03-0.476,1.6c0.314,0.577,1.029,0.79,1.601,0.481C37.974,47.793,38.185,47.069,37.873,46.491z M41.491,46.346
	c-0.351-0.644-1.15-0.883-1.802-0.538c-0.648,0.344-0.873,1.146-0.521,1.8c0.337,0.639,1.139,0.893,1.786,0.53
	C41.605,47.798,41.835,46.987,41.491,46.346z M49.711,34.771c0.435-0.25,0.601-0.789,0.374-1.213
	c-0.236-0.432-0.776-0.588-1.197-0.355c-0.438,0.229-0.602,0.773-0.361,1.201C48.75,34.833,49.296,34.992,49.711,34.771z
	 M49.877,38.382c0.502-0.272,0.683-0.899,0.409-1.397c-0.268-0.504-0.889-0.686-1.393-0.418c-0.505,0.276-0.683,0.896-0.424,1.405
	C48.735,38.465,49.382,38.647,49.877,38.382z M48.932,41.859c0.587-0.315,0.79-1.023,0.491-1.603
	c-0.313-0.568-1.021-0.79-1.602-0.479c-0.575,0.304-0.786,1.035-0.481,1.605C47.655,41.951,48.368,42.166,48.932,41.859z
	 M47.031,44.856c0.644-0.335,0.882-1.153,0.533-1.792c-0.354-0.643-1.154-0.892-1.794-0.537c-0.648,0.351-0.883,1.156-0.536,1.798
	C45.574,44.971,46.381,45.212,47.031,44.856z M72.76,39.855c-2.127,0-3.853-1.729-3.853-3.86c0-2.14,1.726-3.851,3.857-3.851
	c2.126,0,3.854,1.711,3.854,3.854C76.618,38.127,74.892,39.855,72.76,39.855z M57.622,6.599c0.246-1.157-0.49-2.278-1.639-2.521
	c-1.151-0.246-2.279,0.479-2.524,1.633c-0.244,1.151,0.487,2.28,1.64,2.525C56.247,8.479,57.378,7.746,57.622,6.599z M65.22,12.039
	c0.225-1.414-0.74-2.725-2.141-2.948c-1.407-0.222-2.729,0.729-2.952,2.143c-0.224,1.407,0.737,2.73,2.144,2.952
	C63.673,14.408,64.998,13.445,65.22,12.039z M71.342,19.107c0.187-1.772-1.094-3.348-2.858-3.533
	c-1.761-0.186-3.349,1.089-3.535,2.861c-0.186,1.765,1.104,3.349,2.861,3.532C69.577,22.154,71.155,20.871,71.342,19.107z
	 M75.138,27.264c0.104-1.966-1.404-3.619-3.354-3.722c-1.952-0.104-3.621,1.386-3.725,3.351c-0.103,1.957,1.4,3.625,3.348,3.727
	C73.364,30.721,75.034,29.219,75.138,27.264z M39.861,1.546C39.861,0.687,39.166,0,38.309,0c-0.853,0-1.548,0.687-1.548,1.546
	c0,0.857,0.695,1.548,1.548,1.548C39.166,3.094,39.861,2.403,39.861,1.546z M55.099,63.762c-1.15,0.245-1.886,1.378-1.641,2.524
	c0.246,1.155,1.375,1.887,2.525,1.641c1.147-0.243,1.883-1.37,1.639-2.527C57.378,64.254,56.247,63.519,55.099,63.762z
	 M62.272,57.816c-1.408,0.223-2.369,1.543-2.146,2.948c0.223,1.413,1.545,2.364,2.95,2.143c1.402-0.225,2.365-1.535,2.142-2.949
	C64.996,58.552,63.674,57.596,62.272,57.816z M67.81,50.03c-1.761,0.185-3.047,1.768-2.861,3.532
	c0.188,1.771,1.772,3.043,3.533,2.857c1.768-0.187,3.047-1.758,2.86-3.531C71.155,51.124,69.575,49.845,67.81,50.03z M71.407,41.379
	c-1.946,0.104-3.449,1.771-3.348,3.724c0.104,1.968,1.771,3.453,3.725,3.352c1.949-0.103,3.455-1.755,3.353-3.722
	C75.034,42.78,73.362,41.278,71.407,41.379z M38.31,68.905c-0.853,0-1.548,0.69-1.548,1.549S37.457,72,38.31,72
	c0.856,0,1.552-0.688,1.552-1.548C39.861,69.597,39.166,68.905,38.31,68.905z M3.859,39.855c2.123,0,3.85-1.729,3.85-3.86
	c0-2.14-1.727-3.851-3.85-3.851C1.735,32.145,0,33.855,0,35.999C-0.001,38.127,1.735,39.855,3.859,39.855z M21.522,8.235
	c1.15-0.245,1.885-1.374,1.64-2.525c-0.245-1.154-1.373-1.879-2.524-1.635c-1.147,0.245-1.885,1.366-1.64,2.523
	C19.242,7.746,20.373,8.479,21.522,8.235z M14.351,14.184c1.408-0.223,2.368-1.545,2.146-2.953
	c-0.224-1.412-1.544-2.363-2.953-2.141c-1.403,0.223-2.363,1.534-2.14,2.948C11.626,13.443,12.946,14.407,14.351,14.184z
	 M8.808,21.968c1.764-0.186,3.048-1.768,2.861-3.53c-0.186-1.773-1.77-3.049-3.532-2.862c-1.769,0.187-3.047,1.761-2.859,3.534
	C5.462,20.871,7.04,22.154,8.808,21.968z M5.21,30.618c1.953-0.103,3.454-1.771,3.353-3.726c-0.103-1.967-1.77-3.455-3.73-3.353
	c-1.945,0.103-3.455,1.757-3.352,3.724C1.583,29.219,3.257,30.721,5.21,30.618z M18.999,65.4c-0.247,1.155,0.49,2.282,1.637,2.527
	c1.15,0.244,2.28-0.486,2.526-1.643c0.244-1.146-0.49-2.279-1.64-2.524C20.374,63.519,19.242,64.254,18.999,65.4z M11.405,59.958
	c-0.225,1.414,0.735,2.727,2.14,2.949c1.407,0.223,2.728-0.729,2.952-2.143c0.223-1.404-0.738-2.726-2.146-2.947
	C12.947,57.596,11.627,58.554,11.405,59.958z M5.278,52.891c-0.188,1.773,1.091,3.344,2.858,3.53
	c1.764,0.186,3.347-1.086,3.532-2.858c0.187-1.765-1.098-3.348-2.861-3.531C7.041,49.844,5.463,51.125,5.278,52.891z M1.482,44.731
	c-0.103,1.967,1.405,3.62,3.352,3.722c1.96,0.104,3.627-1.384,3.73-3.352c0.102-1.951-1.4-3.619-3.353-3.724
	C3.258,41.278,1.583,42.78,1.482,44.731z M46.796,67.673c-0.885,0.237-1.413,1.149-1.177,2.037c0.239,0.889,1.153,1.41,2.037,1.173
	c0.891-0.236,1.418-1.144,1.181-2.035C48.6,67.961,47.684,67.436,46.796,67.673z M29.822,67.673
	c-0.884-0.235-1.798,0.288-2.037,1.177c-0.236,0.891,0.293,1.797,1.177,2.033c0.89,0.237,1.803-0.284,2.04-1.175
	C31.239,68.822,30.711,67.91,29.822,67.673z M48.837,3.151c0.238-0.89-0.293-1.797-1.182-2.035C46.77,0.88,45.86,1.398,45.621,2.289
	c-0.238,0.891,0.291,1.8,1.176,2.037C47.685,4.564,48.6,4.04,48.837,3.151z M31.002,2.288c-0.239-0.89-1.151-1.41-2.04-1.172
	c-0.885,0.237-1.416,1.144-1.177,2.032c0.238,0.891,1.153,1.414,2.037,1.178C30.711,4.088,31.239,3.179,31.002,2.288z
	 M64.202,28.113c-1.525,0.658-3.297-0.049-3.956-1.576c-0.66-1.534,0.047-3.295,1.575-3.956c1.523-0.655,3.293,0.04,3.953,1.574
	C66.437,25.68,65.729,27.454,64.202,28.113z M43.065,8.952c-0.182-0.909-1.055-1.484-1.953-1.304
	c-0.902,0.179-1.487,1.047-1.305,1.953c0.18,0.897,1.055,1.483,1.956,1.302C42.661,10.723,43.244,9.849,43.065,8.952z
	 M50.194,10.503c-0.276-1.084-1.375-1.728-2.446-1.451c-1.077,0.273-1.731,1.364-1.453,2.447c0.274,1.076,1.374,1.729,2.448,1.45
	C49.819,12.677,50.47,11.577,50.194,10.503z M56.771,13.676c-0.416-1.328-1.82-2.063-3.142-1.646
	c-1.32,0.41-2.065,1.813-1.649,3.143c0.412,1.321,1.824,2.061,3.144,1.646C56.446,16.404,57.182,14.996,56.771,13.676z
	 M62.014,18.35c-0.532-1.44-2.126-2.162-3.554-1.633c-1.434,0.529-2.171,2.114-1.637,3.555c0.531,1.436,2.125,2.166,3.553,1.638
	C61.81,21.379,62.545,19.784,62.014,18.35z M28.771,10.821c-0.266-0.617-0.978-0.895-1.591-0.63
	c-0.613,0.262-0.898,0.972-0.632,1.59c0.264,0.609,0.978,0.891,1.589,0.628C28.749,12.145,29.035,11.433,28.771,10.821z
	 M58.932,50.714c-0.75,0.531-0.926,1.568-0.396,2.315c0.533,0.753,1.568,0.927,2.32,0.396c0.746-0.528,0.924-1.563,0.391-2.317
	C60.718,50.362,59.681,50.182,58.932,50.714z M62.235,44.232c-0.938,0.596-1.222,1.84-0.625,2.776
	c0.597,0.942,1.838,1.218,2.776,0.624c0.938-0.595,1.222-1.832,0.624-2.776C64.416,43.92,63.172,43.641,62.235,44.232z
	 M63.799,36.938c-1.204,0.677-1.64,2.207-0.959,3.42c0.683,1.211,2.211,1.633,3.415,0.952c1.211-0.678,1.641-2.2,0.96-3.412
	C66.534,36.688,65.01,36.258,63.799,36.938z M63.704,29.624c-1.364,0.676-1.928,2.336-1.25,3.703
	c0.684,1.381,2.339,1.93,3.709,1.251c1.365-0.674,1.933-2.326,1.25-3.704C66.735,29.508,65.071,28.945,63.704,29.624z
	 M48.485,59.593c-0.612,0.265-0.896,0.975-0.633,1.586c0.269,0.618,0.978,0.896,1.59,0.633s0.898-0.975,0.635-1.59
	C49.812,59.61,49.099,59.327,48.485,59.593z M14.802,49.418c1.523-0.658,2.227-2.431,1.567-3.959c-0.659-1.53-2.428-2.227-3.95-1.57
	c-1.525,0.657-2.238,2.422-1.575,3.956C11.501,49.372,13.279,50.075,14.802,49.418z M17.689,21.286
	c0.748-0.532,0.927-1.568,0.396-2.313c-0.535-0.757-1.566-0.927-2.314-0.396c-0.75,0.531-0.933,1.563-0.396,2.318
	C15.905,21.641,16.943,21.816,17.689,21.286z M14.387,27.768c0.942-0.594,1.22-1.842,0.625-2.783
	c-0.597-0.941-1.838-1.213-2.778-0.621c-0.936,0.598-1.221,1.832-0.621,2.777C12.205,28.08,13.449,28.359,14.387,27.768z
	 M12.819,35.063c1.209-0.678,1.639-2.211,0.96-3.418c-0.681-1.211-2.21-1.637-3.417-0.955c-1.21,0.677-1.64,2.201-0.959,3.414
	C10.082,35.311,11.611,35.742,12.819,35.063z M12.916,42.378c1.369-0.678,1.929-2.339,1.25-3.708
	c-0.682-1.379-2.336-1.931-3.71-1.25c-1.362,0.675-1.934,2.328-1.252,3.705C9.884,42.497,11.548,43.055,12.916,42.378z
	 M33.556,63.052c0.181,0.904,1.058,1.486,1.957,1.308c0.897-0.184,1.483-1.058,1.302-1.961c-0.18-0.896-1.057-1.48-1.956-1.303
	C33.96,61.276,33.376,62.155,33.556,63.052z M26.429,61.497c0.275,1.083,1.37,1.728,2.446,1.453c1.078-0.276,1.73-1.365,1.455-2.447
	c-0.274-1.076-1.373-1.727-2.451-1.451C26.805,59.327,26.155,60.419,26.429,61.497z M19.852,58.323
	c0.414,1.332,1.816,2.062,3.139,1.646c1.323-0.409,2.065-1.811,1.651-3.139c-0.413-1.322-1.823-2.061-3.146-1.647
	C20.174,55.593,19.438,56.999,19.852,58.323z M14.607,53.646c0.534,1.445,2.127,2.165,3.554,1.634
	c1.438-0.531,2.172-2.112,1.638-3.557c-0.531-1.431-2.122-2.164-3.555-1.632C14.812,50.623,14.075,52.22,14.607,53.646z
	 M54.187,56.085c-0.558,0.446-0.656,1.262-0.212,1.822c0.445,0.564,1.263,0.653,1.823,0.212c0.563-0.444,0.66-1.257,0.216-1.823
	C55.569,55.735,54.754,55.64,54.187,56.085z M42.018,61.331c-0.706,0.104-1.198,0.766-1.094,1.475
	c0.104,0.713,0.766,1.199,1.472,1.096c0.71-0.105,1.204-0.761,1.099-1.473C43.393,61.718,42.732,61.229,42.018,61.331z
	 M35.701,9.195c-0.104-0.711-0.765-1.199-1.477-1.094c-0.707,0.104-1.199,0.758-1.096,1.47c0.105,0.713,0.765,1.198,1.474,1.097
	C35.312,10.562,35.805,9.907,35.701,9.195z M22.648,14.092c-0.447-0.564-1.26-0.652-1.826-0.213
	c-0.559,0.446-0.658,1.258-0.213,1.823c0.446,0.563,1.264,0.657,1.823,0.215C22.994,15.469,23.094,14.656,22.648,14.092z"/>
</svg>
